M48
; DRILL file {KiCad 7.0.2} date Mon Sep  4 15:42:33 2023
; FORMAT={-:-/ absolute / inch / decimal}
; #@! TF.CreationDate,2023-09-04T15:42:33+02:00
; #@! TF.GenerationSoftware,Kicad,Pcbnew,7.0.2
; #@! TF.FileFunction,Plated,1,2,PTH
FMAT,2
INCH
; #@! TA.AperFunction,Plated,PTH,ViaDrill
T1C0.0157
; #@! TA.AperFunction,Plated,PTH,ComponentDrill
T2C0.0394
; #@! TA.AperFunction,Plated,PTH,ViaDrill
T3C0.0866
%
G90
G05
T1
X4.179Y-2.8765
X4.181Y-5.7087
X4.1829Y-4.2938
X4.5335Y-2.8765
X4.5354Y-5.7087
X4.5374Y-4.2938
X4.8879Y-2.8765
X4.8899Y-5.7087
X4.8919Y-4.2938
X5.2424Y-2.8765
X5.2444Y-5.7087
X5.2463Y-4.2938
X5.5968Y-2.8765
X5.5988Y-5.7087
X5.6008Y-4.2938
X5.9513Y-2.8765
X5.9533Y-5.7087
X5.9552Y-4.2938
X6.3058Y-2.8765
X6.3077Y-5.7087
X6.3097Y-4.2938
X6.6594Y-2.8765
X6.6614Y-5.7087
X6.6634Y-4.2938
X7.0138Y-2.8716
X7.0157Y-5.7037
X7.0177Y-4.2889
T2
X3.7815Y-2.4231
X3.7815Y-2.5231
X3.7815Y-2.6231
X3.7815Y-2.7231
X3.7815Y-3.8404
X3.7815Y-3.9404
X3.7815Y-4.0404
X3.7815Y-4.1404
X3.7815Y-5.2577
X3.7815Y-5.3577
X3.7815Y-5.4577
X3.7815Y-5.5577
X7.3996Y-2.4231
X7.3996Y-2.5231
X7.3996Y-2.6231
X7.3996Y-2.7231
X7.3996Y-3.8404
X7.3996Y-3.9404
X7.3996Y-4.0404
X7.3996Y-4.1404
X7.3996Y-5.2577
X7.3996Y-5.3577
X7.3996Y-5.4577
X7.3996Y-5.5577
T3
X3.7795Y-2.1555
X3.7795Y-5.7776
X7.4016Y-2.1555
X7.4016Y-5.7776
T0
M30
