%TF.GenerationSoftware,KiCad,Pcbnew,7.0.2*%
%TF.CreationDate,2023-09-04T15:42:33+02:00*%
%TF.ProjectId,TestingRig,54657374-696e-4675-9269-672e6b696361,rev?*%
%TF.SameCoordinates,Original*%
%TF.FileFunction,Soldermask,Top*%
%TF.FilePolarity,Negative*%
%FSLAX46Y46*%
G04 Gerber Fmt 4.6, Leading zero omitted, Abs format (unit mm)*
G04 Created by KiCad (PCBNEW 7.0.2) date 2023-09-04 15:42:33*
%MOMM*%
%LPD*%
G01*
G04 APERTURE LIST*
G04 Aperture macros list*
%AMRoundRect*
0 Rectangle with rounded corners*
0 $1 Rounding radius*
0 $2 $3 $4 $5 $6 $7 $8 $9 X,Y pos of 4 corners*
0 Add a 4 corners polygon primitive as box body*
4,1,4,$2,$3,$4,$5,$6,$7,$8,$9,$2,$3,0*
0 Add four circle primitives for the rounded corners*
1,1,$1+$1,$2,$3*
1,1,$1+$1,$4,$5*
1,1,$1+$1,$6,$7*
1,1,$1+$1,$8,$9*
0 Add four rect primitives between the rounded corners*
20,1,$1+$1,$2,$3,$4,$5,0*
20,1,$1+$1,$4,$5,$6,$7,0*
20,1,$1+$1,$6,$7,$8,$9,0*
20,1,$1+$1,$8,$9,$2,$3,0*%
G04 Aperture macros list end*
%ADD10R,0.900000X1.500000*%
%ADD11RoundRect,0.225000X0.250000X-0.225000X0.250000X0.225000X-0.250000X0.225000X-0.250000X-0.225000X0*%
%ADD12R,1.700000X1.700000*%
%ADD13O,1.700000X1.700000*%
G04 APERTURE END LIST*
D10*
%TO.C,D25*%
X158537500Y-69150000D03*
X161837500Y-69150000D03*
X161837500Y-64250000D03*
X158537500Y-64250000D03*
%TD*%
D11*
%TO.C,C9*%
X176600000Y-146475000D03*
X176600000Y-144925000D03*
%TD*%
D10*
%TO.C,D24*%
X149550000Y-69150000D03*
X152850000Y-69150000D03*
X152850000Y-64250000D03*
X149550000Y-64250000D03*
%TD*%
%TO.C,D22*%
X131575000Y-69150000D03*
X134875000Y-69150000D03*
X134875000Y-64250000D03*
X131575000Y-64250000D03*
%TD*%
D12*
%TO.C,J5*%
X96050000Y-97546250D03*
D13*
X96050000Y-100086250D03*
X96050000Y-102626250D03*
X96050000Y-105166250D03*
%TD*%
D11*
%TO.C,C17*%
X158700000Y-110475000D03*
X158700000Y-108925000D03*
%TD*%
D12*
%TO.C,J4*%
X187950000Y-133546250D03*
D13*
X187950000Y-136086250D03*
X187950000Y-138626250D03*
X187950000Y-141166250D03*
%TD*%
D11*
%TO.C,C1*%
X104600000Y-146475000D03*
X104600000Y-144925000D03*
%TD*%
D10*
%TO.C,D19*%
X104612500Y-69150000D03*
X107912500Y-69150000D03*
X107912500Y-64250000D03*
X104612500Y-64250000D03*
%TD*%
D11*
%TO.C,C28*%
X167600000Y-74375000D03*
X167600000Y-72825000D03*
%TD*%
%TO.C,C19*%
X176700000Y-110475000D03*
X176700000Y-108925000D03*
%TD*%
D12*
%TO.C,J2*%
X187950000Y-61546250D03*
D13*
X187950000Y-64086250D03*
X187950000Y-66626250D03*
X187950000Y-69166250D03*
%TD*%
D11*
%TO.C,C4*%
X131600000Y-146475000D03*
X131600000Y-144925000D03*
%TD*%
D10*
%TO.C,D8*%
X167556250Y-141150000D03*
X170856250Y-141150000D03*
X170856250Y-136250000D03*
X167556250Y-136250000D03*
%TD*%
%TO.C,D26*%
X167525000Y-69150000D03*
X170825000Y-69150000D03*
X170825000Y-64250000D03*
X167525000Y-64250000D03*
%TD*%
%TO.C,D14*%
X140662500Y-105250000D03*
X143962500Y-105250000D03*
X143962500Y-100350000D03*
X140662500Y-100350000D03*
%TD*%
D11*
%TO.C,C6*%
X149600000Y-146475000D03*
X149600000Y-144925000D03*
%TD*%
%TO.C,C14*%
X131700000Y-110475000D03*
X131700000Y-108925000D03*
%TD*%
D10*
%TO.C,D16*%
X158637500Y-105250000D03*
X161937500Y-105250000D03*
X161937500Y-100350000D03*
X158637500Y-100350000D03*
%TD*%
%TO.C,D1*%
X104600000Y-141150000D03*
X107900000Y-141150000D03*
X107900000Y-136250000D03*
X104600000Y-136250000D03*
%TD*%
%TO.C,D18*%
X176612500Y-105250000D03*
X179912500Y-105250000D03*
X179912500Y-100350000D03*
X176612500Y-100350000D03*
%TD*%
D11*
%TO.C,C18*%
X167700000Y-110475000D03*
X167700000Y-108925000D03*
%TD*%
D10*
%TO.C,D3*%
X122587500Y-141150000D03*
X125887500Y-141150000D03*
X125887500Y-136250000D03*
X122587500Y-136250000D03*
%TD*%
D11*
%TO.C,C7*%
X158600000Y-146475000D03*
X158600000Y-144925000D03*
%TD*%
%TO.C,C26*%
X149600000Y-74375000D03*
X149600000Y-72825000D03*
%TD*%
D12*
%TO.C,J3*%
X96050000Y-133546250D03*
D13*
X96050000Y-136086250D03*
X96050000Y-138626250D03*
X96050000Y-141166250D03*
%TD*%
D11*
%TO.C,C16*%
X149700000Y-110475000D03*
X149700000Y-108925000D03*
%TD*%
%TO.C,C24*%
X131600000Y-74375000D03*
X131600000Y-72825000D03*
%TD*%
D10*
%TO.C,D21*%
X122587500Y-69150000D03*
X125887500Y-69150000D03*
X125887500Y-64250000D03*
X122587500Y-64250000D03*
%TD*%
%TO.C,D6*%
X149568750Y-141150000D03*
X152868750Y-141150000D03*
X152868750Y-136250000D03*
X149568750Y-136250000D03*
%TD*%
%TO.C,D4*%
X131581250Y-141150000D03*
X134881250Y-141150000D03*
X134881250Y-136250000D03*
X131581250Y-136250000D03*
%TD*%
D11*
%TO.C,C29*%
X176600000Y-74375000D03*
X176600000Y-72825000D03*
%TD*%
D12*
%TO.C,J1*%
X96050000Y-61546250D03*
D13*
X96050000Y-64086250D03*
X96050000Y-66626250D03*
X96050000Y-69166250D03*
%TD*%
D10*
%TO.C,D12*%
X122687500Y-105250000D03*
X125987500Y-105250000D03*
X125987500Y-100350000D03*
X122687500Y-100350000D03*
%TD*%
%TO.C,D10*%
X104712500Y-105250000D03*
X108012500Y-105250000D03*
X108012500Y-100350000D03*
X104712500Y-100350000D03*
%TD*%
D11*
%TO.C,C3*%
X122600000Y-146475000D03*
X122600000Y-144925000D03*
%TD*%
D10*
%TO.C,D27*%
X176512500Y-69150000D03*
X179812500Y-69150000D03*
X179812500Y-64250000D03*
X176512500Y-64250000D03*
%TD*%
%TO.C,D23*%
X140562500Y-69150000D03*
X143862500Y-69150000D03*
X143862500Y-64250000D03*
X140562500Y-64250000D03*
%TD*%
%TO.C,D20*%
X113600000Y-69150000D03*
X116900000Y-69150000D03*
X116900000Y-64250000D03*
X113600000Y-64250000D03*
%TD*%
%TO.C,D11*%
X113700000Y-105250000D03*
X117000000Y-105250000D03*
X117000000Y-100350000D03*
X113700000Y-100350000D03*
%TD*%
D11*
%TO.C,C11*%
X104700000Y-110475000D03*
X104700000Y-108925000D03*
%TD*%
%TO.C,C25*%
X140600000Y-74375000D03*
X140600000Y-72825000D03*
%TD*%
%TO.C,C2*%
X113600000Y-146475000D03*
X113600000Y-144925000D03*
%TD*%
%TO.C,C12*%
X113700000Y-110475000D03*
X113700000Y-108925000D03*
%TD*%
D10*
%TO.C,D17*%
X167625000Y-105250000D03*
X170925000Y-105250000D03*
X170925000Y-100350000D03*
X167625000Y-100350000D03*
%TD*%
%TO.C,D2*%
X113593750Y-141150000D03*
X116893750Y-141150000D03*
X116893750Y-136250000D03*
X113593750Y-136250000D03*
%TD*%
D11*
%TO.C,C8*%
X167600000Y-146475000D03*
X167600000Y-144925000D03*
%TD*%
%TO.C,C15*%
X140700000Y-110475000D03*
X140700000Y-108925000D03*
%TD*%
D10*
%TO.C,D13*%
X131675000Y-105250000D03*
X134975000Y-105250000D03*
X134975000Y-100350000D03*
X131675000Y-100350000D03*
%TD*%
D11*
%TO.C,C22*%
X113600000Y-74375000D03*
X113600000Y-72825000D03*
%TD*%
D12*
%TO.C,J6*%
X187950000Y-97546250D03*
D13*
X187950000Y-100086250D03*
X187950000Y-102626250D03*
X187950000Y-105166250D03*
%TD*%
D11*
%TO.C,C21*%
X104600000Y-74375000D03*
X104600000Y-72825000D03*
%TD*%
D10*
%TO.C,D7*%
X158562500Y-141150000D03*
X161862500Y-141150000D03*
X161862500Y-136250000D03*
X158562500Y-136250000D03*
%TD*%
D11*
%TO.C,C5*%
X140600000Y-146475000D03*
X140600000Y-144925000D03*
%TD*%
D10*
%TO.C,D5*%
X140575000Y-141150000D03*
X143875000Y-141150000D03*
X143875000Y-136250000D03*
X140575000Y-136250000D03*
%TD*%
D11*
%TO.C,C27*%
X158600000Y-74375000D03*
X158600000Y-72825000D03*
%TD*%
%TO.C,C13*%
X122700000Y-110475000D03*
X122700000Y-108925000D03*
%TD*%
D10*
%TO.C,D9*%
X176550000Y-141150000D03*
X179850000Y-141150000D03*
X179850000Y-136250000D03*
X176550000Y-136250000D03*
%TD*%
D11*
%TO.C,C23*%
X122600000Y-74375000D03*
X122600000Y-72825000D03*
%TD*%
D10*
%TO.C,D15*%
X149650000Y-105250000D03*
X152950000Y-105250000D03*
X152950000Y-100350000D03*
X149650000Y-100350000D03*
%TD*%
M02*
