M48
; DRILL file {KiCad 7.0.2} date Thu Aug 24 09:05:18 2023
; FORMAT={-:-/ absolute / inch / decimal}
; #@! TF.CreationDate,2023-08-24T09:05:18+02:00
; #@! TF.GenerationSoftware,Kicad,Pcbnew,7.0.2
; #@! TF.FileFunction,Plated,1,2,PTH
FMAT,2
INCH
; #@! TA.AperFunction,Plated,PTH,ViaDrill
T1C0.0157
; #@! TA.AperFunction,Plated,PTH,ComponentDrill
T2C0.0394
; #@! TA.AperFunction,Plated,PTH,ViaDrill
T3C0.0866
%
G90
G05
T1
X4.1174Y-3.7556
X4.1183Y-5.1739
X4.1233Y-2.3386
X4.4718Y-3.7556
X4.4727Y-5.1739
X4.4778Y-2.3386
X4.8263Y-3.7556
X4.8272Y-5.1739
X4.8322Y-2.3386
X5.1808Y-3.7556
X5.1817Y-5.1739
X5.1867Y-2.3386
X5.5352Y-3.7556
X5.5361Y-5.1739
X5.5411Y-2.3386
X5.8897Y-3.7556
X5.8906Y-5.1739
X5.8956Y-2.3386
X6.2441Y-3.7556
X6.245Y-5.1739
X6.25Y-2.3386
X6.5986Y-3.7556
X6.5995Y-5.1739
X6.6045Y-2.3386
X6.9531Y-3.7556
X6.954Y-5.1739
X6.959Y-2.3386
T2
X3.7815Y-2.4231
X3.7815Y-2.5231
X3.7815Y-2.6231
X3.7815Y-2.7231
X3.7815Y-3.8404
X3.7815Y-3.9404
X3.7815Y-4.0404
X3.7815Y-4.1404
X3.7815Y-5.2577
X3.7815Y-5.3577
X3.7815Y-5.4577
X3.7815Y-5.5577
X7.3996Y-2.4231
X7.3996Y-2.5231
X7.3996Y-2.6231
X7.3996Y-2.7231
X7.3996Y-3.8404
X7.3996Y-3.9404
X7.3996Y-4.0404
X7.3996Y-4.1404
X7.3996Y-5.2577
X7.3996Y-5.3577
X7.3996Y-5.4577
X7.3996Y-5.5577
T3
X3.7795Y-2.1555
X3.7795Y-5.7776
X7.4016Y-2.1555
X7.4016Y-5.7776
T0
M30
