%TF.GenerationSoftware,KiCad,Pcbnew,7.0.2*%
%TF.CreationDate,2023-08-16T13:52:21+02:00*%
%TF.ProjectId,TestingRig,54657374-696e-4675-9269-672e6b696361,rev?*%
%TF.SameCoordinates,Original*%
%TF.FileFunction,Legend,Top*%
%TF.FilePolarity,Positive*%
%FSLAX46Y46*%
G04 Gerber Fmt 4.6, Leading zero omitted, Abs format (unit mm)*
G04 Created by KiCad (PCBNEW 7.0.2) date 2023-08-16 13:52:21*
%MOMM*%
%LPD*%
G01*
G04 APERTURE LIST*
G04 Aperture macros list*
%AMRoundRect*
0 Rectangle with rounded corners*
0 $1 Rounding radius*
0 $2 $3 $4 $5 $6 $7 $8 $9 X,Y pos of 4 corners*
0 Add a 4 corners polygon primitive as box body*
4,1,4,$2,$3,$4,$5,$6,$7,$8,$9,$2,$3,0*
0 Add four circle primitives for the rounded corners*
1,1,$1+$1,$2,$3*
1,1,$1+$1,$4,$5*
1,1,$1+$1,$6,$7*
1,1,$1+$1,$8,$9*
0 Add four rect primitives between the rounded corners*
20,1,$1+$1,$2,$3,$4,$5,0*
20,1,$1+$1,$4,$5,$6,$7,0*
20,1,$1+$1,$6,$7,$8,$9,0*
20,1,$1+$1,$8,$9,$2,$3,0*%
G04 Aperture macros list end*
%ADD10C,0.150000*%
%ADD11C,0.120000*%
%ADD12R,1.700000X1.700000*%
%ADD13O,1.700000X1.700000*%
%ADD14RoundRect,0.225000X-0.225000X-0.250000X0.225000X-0.250000X0.225000X0.250000X-0.225000X0.250000X0*%
%ADD15R,1.000000X1.500000*%
G04 APERTURE END LIST*
D10*
%TO.C,J6*%
X249666666Y-40512619D02*
X249666666Y-41226904D01*
X249666666Y-41226904D02*
X249619047Y-41369761D01*
X249619047Y-41369761D02*
X249523809Y-41465000D01*
X249523809Y-41465000D02*
X249380952Y-41512619D01*
X249380952Y-41512619D02*
X249285714Y-41512619D01*
X250571428Y-40512619D02*
X250380952Y-40512619D01*
X250380952Y-40512619D02*
X250285714Y-40560238D01*
X250285714Y-40560238D02*
X250238095Y-40607857D01*
X250238095Y-40607857D02*
X250142857Y-40750714D01*
X250142857Y-40750714D02*
X250095238Y-40941190D01*
X250095238Y-40941190D02*
X250095238Y-41322142D01*
X250095238Y-41322142D02*
X250142857Y-41417380D01*
X250142857Y-41417380D02*
X250190476Y-41465000D01*
X250190476Y-41465000D02*
X250285714Y-41512619D01*
X250285714Y-41512619D02*
X250476190Y-41512619D01*
X250476190Y-41512619D02*
X250571428Y-41465000D01*
X250571428Y-41465000D02*
X250619047Y-41417380D01*
X250619047Y-41417380D02*
X250666666Y-41322142D01*
X250666666Y-41322142D02*
X250666666Y-41084047D01*
X250666666Y-41084047D02*
X250619047Y-40988809D01*
X250619047Y-40988809D02*
X250571428Y-40941190D01*
X250571428Y-40941190D02*
X250476190Y-40893571D01*
X250476190Y-40893571D02*
X250285714Y-40893571D01*
X250285714Y-40893571D02*
X250190476Y-40941190D01*
X250190476Y-40941190D02*
X250142857Y-40988809D01*
X250142857Y-40988809D02*
X250095238Y-41084047D01*
%TO.C,J5*%
X156066666Y-40512619D02*
X156066666Y-41226904D01*
X156066666Y-41226904D02*
X156019047Y-41369761D01*
X156019047Y-41369761D02*
X155923809Y-41465000D01*
X155923809Y-41465000D02*
X155780952Y-41512619D01*
X155780952Y-41512619D02*
X155685714Y-41512619D01*
X157019047Y-40512619D02*
X156542857Y-40512619D01*
X156542857Y-40512619D02*
X156495238Y-40988809D01*
X156495238Y-40988809D02*
X156542857Y-40941190D01*
X156542857Y-40941190D02*
X156638095Y-40893571D01*
X156638095Y-40893571D02*
X156876190Y-40893571D01*
X156876190Y-40893571D02*
X156971428Y-40941190D01*
X156971428Y-40941190D02*
X157019047Y-40988809D01*
X157019047Y-40988809D02*
X157066666Y-41084047D01*
X157066666Y-41084047D02*
X157066666Y-41322142D01*
X157066666Y-41322142D02*
X157019047Y-41417380D01*
X157019047Y-41417380D02*
X156971428Y-41465000D01*
X156971428Y-41465000D02*
X156876190Y-41512619D01*
X156876190Y-41512619D02*
X156638095Y-41512619D01*
X156638095Y-41512619D02*
X156542857Y-41465000D01*
X156542857Y-41465000D02*
X156495238Y-41417380D01*
%TO.C,J4*%
X249666666Y-80012619D02*
X249666666Y-80726904D01*
X249666666Y-80726904D02*
X249619047Y-80869761D01*
X249619047Y-80869761D02*
X249523809Y-80965000D01*
X249523809Y-80965000D02*
X249380952Y-81012619D01*
X249380952Y-81012619D02*
X249285714Y-81012619D01*
X250571428Y-80345952D02*
X250571428Y-81012619D01*
X250333333Y-79965000D02*
X250095238Y-80679285D01*
X250095238Y-80679285D02*
X250714285Y-80679285D01*
%TO.C,J3*%
X155991969Y-80012619D02*
X155991969Y-80726904D01*
X155991969Y-80726904D02*
X155944350Y-80869761D01*
X155944350Y-80869761D02*
X155849112Y-80965000D01*
X155849112Y-80965000D02*
X155706255Y-81012619D01*
X155706255Y-81012619D02*
X155611017Y-81012619D01*
X156372922Y-80012619D02*
X156991969Y-80012619D01*
X156991969Y-80012619D02*
X156658636Y-80393571D01*
X156658636Y-80393571D02*
X156801493Y-80393571D01*
X156801493Y-80393571D02*
X156896731Y-80441190D01*
X156896731Y-80441190D02*
X156944350Y-80488809D01*
X156944350Y-80488809D02*
X156991969Y-80584047D01*
X156991969Y-80584047D02*
X156991969Y-80822142D01*
X156991969Y-80822142D02*
X156944350Y-80917380D01*
X156944350Y-80917380D02*
X156896731Y-80965000D01*
X156896731Y-80965000D02*
X156801493Y-81012619D01*
X156801493Y-81012619D02*
X156515779Y-81012619D01*
X156515779Y-81012619D02*
X156420541Y-80965000D01*
X156420541Y-80965000D02*
X156372922Y-80917380D01*
%TO.C,J2*%
X249666666Y-119332619D02*
X249666666Y-120046904D01*
X249666666Y-120046904D02*
X249619047Y-120189761D01*
X249619047Y-120189761D02*
X249523809Y-120285000D01*
X249523809Y-120285000D02*
X249380952Y-120332619D01*
X249380952Y-120332619D02*
X249285714Y-120332619D01*
X250095238Y-119427857D02*
X250142857Y-119380238D01*
X250142857Y-119380238D02*
X250238095Y-119332619D01*
X250238095Y-119332619D02*
X250476190Y-119332619D01*
X250476190Y-119332619D02*
X250571428Y-119380238D01*
X250571428Y-119380238D02*
X250619047Y-119427857D01*
X250619047Y-119427857D02*
X250666666Y-119523095D01*
X250666666Y-119523095D02*
X250666666Y-119618333D01*
X250666666Y-119618333D02*
X250619047Y-119761190D01*
X250619047Y-119761190D02*
X250047619Y-120332619D01*
X250047619Y-120332619D02*
X250666666Y-120332619D01*
%TO.C,C30*%
X242001205Y-39937380D02*
X241953586Y-39985000D01*
X241953586Y-39985000D02*
X241810729Y-40032619D01*
X241810729Y-40032619D02*
X241715491Y-40032619D01*
X241715491Y-40032619D02*
X241572634Y-39985000D01*
X241572634Y-39985000D02*
X241477396Y-39889761D01*
X241477396Y-39889761D02*
X241429777Y-39794523D01*
X241429777Y-39794523D02*
X241382158Y-39604047D01*
X241382158Y-39604047D02*
X241382158Y-39461190D01*
X241382158Y-39461190D02*
X241429777Y-39270714D01*
X241429777Y-39270714D02*
X241477396Y-39175476D01*
X241477396Y-39175476D02*
X241572634Y-39080238D01*
X241572634Y-39080238D02*
X241715491Y-39032619D01*
X241715491Y-39032619D02*
X241810729Y-39032619D01*
X241810729Y-39032619D02*
X241953586Y-39080238D01*
X241953586Y-39080238D02*
X242001205Y-39127857D01*
X242334539Y-39032619D02*
X242953586Y-39032619D01*
X242953586Y-39032619D02*
X242620253Y-39413571D01*
X242620253Y-39413571D02*
X242763110Y-39413571D01*
X242763110Y-39413571D02*
X242858348Y-39461190D01*
X242858348Y-39461190D02*
X242905967Y-39508809D01*
X242905967Y-39508809D02*
X242953586Y-39604047D01*
X242953586Y-39604047D02*
X242953586Y-39842142D01*
X242953586Y-39842142D02*
X242905967Y-39937380D01*
X242905967Y-39937380D02*
X242858348Y-39985000D01*
X242858348Y-39985000D02*
X242763110Y-40032619D01*
X242763110Y-40032619D02*
X242477396Y-40032619D01*
X242477396Y-40032619D02*
X242382158Y-39985000D01*
X242382158Y-39985000D02*
X242334539Y-39937380D01*
X243572634Y-39032619D02*
X243667872Y-39032619D01*
X243667872Y-39032619D02*
X243763110Y-39080238D01*
X243763110Y-39080238D02*
X243810729Y-39127857D01*
X243810729Y-39127857D02*
X243858348Y-39223095D01*
X243858348Y-39223095D02*
X243905967Y-39413571D01*
X243905967Y-39413571D02*
X243905967Y-39651666D01*
X243905967Y-39651666D02*
X243858348Y-39842142D01*
X243858348Y-39842142D02*
X243810729Y-39937380D01*
X243810729Y-39937380D02*
X243763110Y-39985000D01*
X243763110Y-39985000D02*
X243667872Y-40032619D01*
X243667872Y-40032619D02*
X243572634Y-40032619D01*
X243572634Y-40032619D02*
X243477396Y-39985000D01*
X243477396Y-39985000D02*
X243429777Y-39937380D01*
X243429777Y-39937380D02*
X243382158Y-39842142D01*
X243382158Y-39842142D02*
X243334539Y-39651666D01*
X243334539Y-39651666D02*
X243334539Y-39413571D01*
X243334539Y-39413571D02*
X243382158Y-39223095D01*
X243382158Y-39223095D02*
X243429777Y-39127857D01*
X243429777Y-39127857D02*
X243477396Y-39080238D01*
X243477396Y-39080238D02*
X243572634Y-39032619D01*
%TO.C,C29*%
X233132386Y-39937380D02*
X233084767Y-39985000D01*
X233084767Y-39985000D02*
X232941910Y-40032619D01*
X232941910Y-40032619D02*
X232846672Y-40032619D01*
X232846672Y-40032619D02*
X232703815Y-39985000D01*
X232703815Y-39985000D02*
X232608577Y-39889761D01*
X232608577Y-39889761D02*
X232560958Y-39794523D01*
X232560958Y-39794523D02*
X232513339Y-39604047D01*
X232513339Y-39604047D02*
X232513339Y-39461190D01*
X232513339Y-39461190D02*
X232560958Y-39270714D01*
X232560958Y-39270714D02*
X232608577Y-39175476D01*
X232608577Y-39175476D02*
X232703815Y-39080238D01*
X232703815Y-39080238D02*
X232846672Y-39032619D01*
X232846672Y-39032619D02*
X232941910Y-39032619D01*
X232941910Y-39032619D02*
X233084767Y-39080238D01*
X233084767Y-39080238D02*
X233132386Y-39127857D01*
X233513339Y-39127857D02*
X233560958Y-39080238D01*
X233560958Y-39080238D02*
X233656196Y-39032619D01*
X233656196Y-39032619D02*
X233894291Y-39032619D01*
X233894291Y-39032619D02*
X233989529Y-39080238D01*
X233989529Y-39080238D02*
X234037148Y-39127857D01*
X234037148Y-39127857D02*
X234084767Y-39223095D01*
X234084767Y-39223095D02*
X234084767Y-39318333D01*
X234084767Y-39318333D02*
X234037148Y-39461190D01*
X234037148Y-39461190D02*
X233465720Y-40032619D01*
X233465720Y-40032619D02*
X234084767Y-40032619D01*
X234560958Y-40032619D02*
X234751434Y-40032619D01*
X234751434Y-40032619D02*
X234846672Y-39985000D01*
X234846672Y-39985000D02*
X234894291Y-39937380D01*
X234894291Y-39937380D02*
X234989529Y-39794523D01*
X234989529Y-39794523D02*
X235037148Y-39604047D01*
X235037148Y-39604047D02*
X235037148Y-39223095D01*
X235037148Y-39223095D02*
X234989529Y-39127857D01*
X234989529Y-39127857D02*
X234941910Y-39080238D01*
X234941910Y-39080238D02*
X234846672Y-39032619D01*
X234846672Y-39032619D02*
X234656196Y-39032619D01*
X234656196Y-39032619D02*
X234560958Y-39080238D01*
X234560958Y-39080238D02*
X234513339Y-39127857D01*
X234513339Y-39127857D02*
X234465720Y-39223095D01*
X234465720Y-39223095D02*
X234465720Y-39461190D01*
X234465720Y-39461190D02*
X234513339Y-39556428D01*
X234513339Y-39556428D02*
X234560958Y-39604047D01*
X234560958Y-39604047D02*
X234656196Y-39651666D01*
X234656196Y-39651666D02*
X234846672Y-39651666D01*
X234846672Y-39651666D02*
X234941910Y-39604047D01*
X234941910Y-39604047D02*
X234989529Y-39556428D01*
X234989529Y-39556428D02*
X235037148Y-39461190D01*
%TO.C,C28*%
X224263575Y-39937380D02*
X224215956Y-39985000D01*
X224215956Y-39985000D02*
X224073099Y-40032619D01*
X224073099Y-40032619D02*
X223977861Y-40032619D01*
X223977861Y-40032619D02*
X223835004Y-39985000D01*
X223835004Y-39985000D02*
X223739766Y-39889761D01*
X223739766Y-39889761D02*
X223692147Y-39794523D01*
X223692147Y-39794523D02*
X223644528Y-39604047D01*
X223644528Y-39604047D02*
X223644528Y-39461190D01*
X223644528Y-39461190D02*
X223692147Y-39270714D01*
X223692147Y-39270714D02*
X223739766Y-39175476D01*
X223739766Y-39175476D02*
X223835004Y-39080238D01*
X223835004Y-39080238D02*
X223977861Y-39032619D01*
X223977861Y-39032619D02*
X224073099Y-39032619D01*
X224073099Y-39032619D02*
X224215956Y-39080238D01*
X224215956Y-39080238D02*
X224263575Y-39127857D01*
X224644528Y-39127857D02*
X224692147Y-39080238D01*
X224692147Y-39080238D02*
X224787385Y-39032619D01*
X224787385Y-39032619D02*
X225025480Y-39032619D01*
X225025480Y-39032619D02*
X225120718Y-39080238D01*
X225120718Y-39080238D02*
X225168337Y-39127857D01*
X225168337Y-39127857D02*
X225215956Y-39223095D01*
X225215956Y-39223095D02*
X225215956Y-39318333D01*
X225215956Y-39318333D02*
X225168337Y-39461190D01*
X225168337Y-39461190D02*
X224596909Y-40032619D01*
X224596909Y-40032619D02*
X225215956Y-40032619D01*
X225787385Y-39461190D02*
X225692147Y-39413571D01*
X225692147Y-39413571D02*
X225644528Y-39365952D01*
X225644528Y-39365952D02*
X225596909Y-39270714D01*
X225596909Y-39270714D02*
X225596909Y-39223095D01*
X225596909Y-39223095D02*
X225644528Y-39127857D01*
X225644528Y-39127857D02*
X225692147Y-39080238D01*
X225692147Y-39080238D02*
X225787385Y-39032619D01*
X225787385Y-39032619D02*
X225977861Y-39032619D01*
X225977861Y-39032619D02*
X226073099Y-39080238D01*
X226073099Y-39080238D02*
X226120718Y-39127857D01*
X226120718Y-39127857D02*
X226168337Y-39223095D01*
X226168337Y-39223095D02*
X226168337Y-39270714D01*
X226168337Y-39270714D02*
X226120718Y-39365952D01*
X226120718Y-39365952D02*
X226073099Y-39413571D01*
X226073099Y-39413571D02*
X225977861Y-39461190D01*
X225977861Y-39461190D02*
X225787385Y-39461190D01*
X225787385Y-39461190D02*
X225692147Y-39508809D01*
X225692147Y-39508809D02*
X225644528Y-39556428D01*
X225644528Y-39556428D02*
X225596909Y-39651666D01*
X225596909Y-39651666D02*
X225596909Y-39842142D01*
X225596909Y-39842142D02*
X225644528Y-39937380D01*
X225644528Y-39937380D02*
X225692147Y-39985000D01*
X225692147Y-39985000D02*
X225787385Y-40032619D01*
X225787385Y-40032619D02*
X225977861Y-40032619D01*
X225977861Y-40032619D02*
X226073099Y-39985000D01*
X226073099Y-39985000D02*
X226120718Y-39937380D01*
X226120718Y-39937380D02*
X226168337Y-39842142D01*
X226168337Y-39842142D02*
X226168337Y-39651666D01*
X226168337Y-39651666D02*
X226120718Y-39556428D01*
X226120718Y-39556428D02*
X226073099Y-39508809D01*
X226073099Y-39508809D02*
X225977861Y-39461190D01*
%TO.C,C27*%
X215394764Y-39937380D02*
X215347145Y-39985000D01*
X215347145Y-39985000D02*
X215204288Y-40032619D01*
X215204288Y-40032619D02*
X215109050Y-40032619D01*
X215109050Y-40032619D02*
X214966193Y-39985000D01*
X214966193Y-39985000D02*
X214870955Y-39889761D01*
X214870955Y-39889761D02*
X214823336Y-39794523D01*
X214823336Y-39794523D02*
X214775717Y-39604047D01*
X214775717Y-39604047D02*
X214775717Y-39461190D01*
X214775717Y-39461190D02*
X214823336Y-39270714D01*
X214823336Y-39270714D02*
X214870955Y-39175476D01*
X214870955Y-39175476D02*
X214966193Y-39080238D01*
X214966193Y-39080238D02*
X215109050Y-39032619D01*
X215109050Y-39032619D02*
X215204288Y-39032619D01*
X215204288Y-39032619D02*
X215347145Y-39080238D01*
X215347145Y-39080238D02*
X215394764Y-39127857D01*
X215775717Y-39127857D02*
X215823336Y-39080238D01*
X215823336Y-39080238D02*
X215918574Y-39032619D01*
X215918574Y-39032619D02*
X216156669Y-39032619D01*
X216156669Y-39032619D02*
X216251907Y-39080238D01*
X216251907Y-39080238D02*
X216299526Y-39127857D01*
X216299526Y-39127857D02*
X216347145Y-39223095D01*
X216347145Y-39223095D02*
X216347145Y-39318333D01*
X216347145Y-39318333D02*
X216299526Y-39461190D01*
X216299526Y-39461190D02*
X215728098Y-40032619D01*
X215728098Y-40032619D02*
X216347145Y-40032619D01*
X216680479Y-39032619D02*
X217347145Y-39032619D01*
X217347145Y-39032619D02*
X216918574Y-40032619D01*
%TO.C,C26*%
X197657142Y-39937380D02*
X197609523Y-39985000D01*
X197609523Y-39985000D02*
X197466666Y-40032619D01*
X197466666Y-40032619D02*
X197371428Y-40032619D01*
X197371428Y-40032619D02*
X197228571Y-39985000D01*
X197228571Y-39985000D02*
X197133333Y-39889761D01*
X197133333Y-39889761D02*
X197085714Y-39794523D01*
X197085714Y-39794523D02*
X197038095Y-39604047D01*
X197038095Y-39604047D02*
X197038095Y-39461190D01*
X197038095Y-39461190D02*
X197085714Y-39270714D01*
X197085714Y-39270714D02*
X197133333Y-39175476D01*
X197133333Y-39175476D02*
X197228571Y-39080238D01*
X197228571Y-39080238D02*
X197371428Y-39032619D01*
X197371428Y-39032619D02*
X197466666Y-39032619D01*
X197466666Y-39032619D02*
X197609523Y-39080238D01*
X197609523Y-39080238D02*
X197657142Y-39127857D01*
X198038095Y-39127857D02*
X198085714Y-39080238D01*
X198085714Y-39080238D02*
X198180952Y-39032619D01*
X198180952Y-39032619D02*
X198419047Y-39032619D01*
X198419047Y-39032619D02*
X198514285Y-39080238D01*
X198514285Y-39080238D02*
X198561904Y-39127857D01*
X198561904Y-39127857D02*
X198609523Y-39223095D01*
X198609523Y-39223095D02*
X198609523Y-39318333D01*
X198609523Y-39318333D02*
X198561904Y-39461190D01*
X198561904Y-39461190D02*
X197990476Y-40032619D01*
X197990476Y-40032619D02*
X198609523Y-40032619D01*
X199466666Y-39032619D02*
X199276190Y-39032619D01*
X199276190Y-39032619D02*
X199180952Y-39080238D01*
X199180952Y-39080238D02*
X199133333Y-39127857D01*
X199133333Y-39127857D02*
X199038095Y-39270714D01*
X199038095Y-39270714D02*
X198990476Y-39461190D01*
X198990476Y-39461190D02*
X198990476Y-39842142D01*
X198990476Y-39842142D02*
X199038095Y-39937380D01*
X199038095Y-39937380D02*
X199085714Y-39985000D01*
X199085714Y-39985000D02*
X199180952Y-40032619D01*
X199180952Y-40032619D02*
X199371428Y-40032619D01*
X199371428Y-40032619D02*
X199466666Y-39985000D01*
X199466666Y-39985000D02*
X199514285Y-39937380D01*
X199514285Y-39937380D02*
X199561904Y-39842142D01*
X199561904Y-39842142D02*
X199561904Y-39604047D01*
X199561904Y-39604047D02*
X199514285Y-39508809D01*
X199514285Y-39508809D02*
X199466666Y-39461190D01*
X199466666Y-39461190D02*
X199371428Y-39413571D01*
X199371428Y-39413571D02*
X199180952Y-39413571D01*
X199180952Y-39413571D02*
X199085714Y-39461190D01*
X199085714Y-39461190D02*
X199038095Y-39508809D01*
X199038095Y-39508809D02*
X198990476Y-39604047D01*
%TO.C,C25*%
X188788331Y-39937380D02*
X188740712Y-39985000D01*
X188740712Y-39985000D02*
X188597855Y-40032619D01*
X188597855Y-40032619D02*
X188502617Y-40032619D01*
X188502617Y-40032619D02*
X188359760Y-39985000D01*
X188359760Y-39985000D02*
X188264522Y-39889761D01*
X188264522Y-39889761D02*
X188216903Y-39794523D01*
X188216903Y-39794523D02*
X188169284Y-39604047D01*
X188169284Y-39604047D02*
X188169284Y-39461190D01*
X188169284Y-39461190D02*
X188216903Y-39270714D01*
X188216903Y-39270714D02*
X188264522Y-39175476D01*
X188264522Y-39175476D02*
X188359760Y-39080238D01*
X188359760Y-39080238D02*
X188502617Y-39032619D01*
X188502617Y-39032619D02*
X188597855Y-39032619D01*
X188597855Y-39032619D02*
X188740712Y-39080238D01*
X188740712Y-39080238D02*
X188788331Y-39127857D01*
X189169284Y-39127857D02*
X189216903Y-39080238D01*
X189216903Y-39080238D02*
X189312141Y-39032619D01*
X189312141Y-39032619D02*
X189550236Y-39032619D01*
X189550236Y-39032619D02*
X189645474Y-39080238D01*
X189645474Y-39080238D02*
X189693093Y-39127857D01*
X189693093Y-39127857D02*
X189740712Y-39223095D01*
X189740712Y-39223095D02*
X189740712Y-39318333D01*
X189740712Y-39318333D02*
X189693093Y-39461190D01*
X189693093Y-39461190D02*
X189121665Y-40032619D01*
X189121665Y-40032619D02*
X189740712Y-40032619D01*
X190645474Y-39032619D02*
X190169284Y-39032619D01*
X190169284Y-39032619D02*
X190121665Y-39508809D01*
X190121665Y-39508809D02*
X190169284Y-39461190D01*
X190169284Y-39461190D02*
X190264522Y-39413571D01*
X190264522Y-39413571D02*
X190502617Y-39413571D01*
X190502617Y-39413571D02*
X190597855Y-39461190D01*
X190597855Y-39461190D02*
X190645474Y-39508809D01*
X190645474Y-39508809D02*
X190693093Y-39604047D01*
X190693093Y-39604047D02*
X190693093Y-39842142D01*
X190693093Y-39842142D02*
X190645474Y-39937380D01*
X190645474Y-39937380D02*
X190597855Y-39985000D01*
X190597855Y-39985000D02*
X190502617Y-40032619D01*
X190502617Y-40032619D02*
X190264522Y-40032619D01*
X190264522Y-40032619D02*
X190169284Y-39985000D01*
X190169284Y-39985000D02*
X190121665Y-39937380D01*
%TO.C,C24*%
X179919520Y-39937380D02*
X179871901Y-39985000D01*
X179871901Y-39985000D02*
X179729044Y-40032619D01*
X179729044Y-40032619D02*
X179633806Y-40032619D01*
X179633806Y-40032619D02*
X179490949Y-39985000D01*
X179490949Y-39985000D02*
X179395711Y-39889761D01*
X179395711Y-39889761D02*
X179348092Y-39794523D01*
X179348092Y-39794523D02*
X179300473Y-39604047D01*
X179300473Y-39604047D02*
X179300473Y-39461190D01*
X179300473Y-39461190D02*
X179348092Y-39270714D01*
X179348092Y-39270714D02*
X179395711Y-39175476D01*
X179395711Y-39175476D02*
X179490949Y-39080238D01*
X179490949Y-39080238D02*
X179633806Y-39032619D01*
X179633806Y-39032619D02*
X179729044Y-39032619D01*
X179729044Y-39032619D02*
X179871901Y-39080238D01*
X179871901Y-39080238D02*
X179919520Y-39127857D01*
X180300473Y-39127857D02*
X180348092Y-39080238D01*
X180348092Y-39080238D02*
X180443330Y-39032619D01*
X180443330Y-39032619D02*
X180681425Y-39032619D01*
X180681425Y-39032619D02*
X180776663Y-39080238D01*
X180776663Y-39080238D02*
X180824282Y-39127857D01*
X180824282Y-39127857D02*
X180871901Y-39223095D01*
X180871901Y-39223095D02*
X180871901Y-39318333D01*
X180871901Y-39318333D02*
X180824282Y-39461190D01*
X180824282Y-39461190D02*
X180252854Y-40032619D01*
X180252854Y-40032619D02*
X180871901Y-40032619D01*
X181729044Y-39365952D02*
X181729044Y-40032619D01*
X181490949Y-38985000D02*
X181252854Y-39699285D01*
X181252854Y-39699285D02*
X181871901Y-39699285D01*
%TO.C,C23*%
X171050709Y-39937380D02*
X171003090Y-39985000D01*
X171003090Y-39985000D02*
X170860233Y-40032619D01*
X170860233Y-40032619D02*
X170764995Y-40032619D01*
X170764995Y-40032619D02*
X170622138Y-39985000D01*
X170622138Y-39985000D02*
X170526900Y-39889761D01*
X170526900Y-39889761D02*
X170479281Y-39794523D01*
X170479281Y-39794523D02*
X170431662Y-39604047D01*
X170431662Y-39604047D02*
X170431662Y-39461190D01*
X170431662Y-39461190D02*
X170479281Y-39270714D01*
X170479281Y-39270714D02*
X170526900Y-39175476D01*
X170526900Y-39175476D02*
X170622138Y-39080238D01*
X170622138Y-39080238D02*
X170764995Y-39032619D01*
X170764995Y-39032619D02*
X170860233Y-39032619D01*
X170860233Y-39032619D02*
X171003090Y-39080238D01*
X171003090Y-39080238D02*
X171050709Y-39127857D01*
X171431662Y-39127857D02*
X171479281Y-39080238D01*
X171479281Y-39080238D02*
X171574519Y-39032619D01*
X171574519Y-39032619D02*
X171812614Y-39032619D01*
X171812614Y-39032619D02*
X171907852Y-39080238D01*
X171907852Y-39080238D02*
X171955471Y-39127857D01*
X171955471Y-39127857D02*
X172003090Y-39223095D01*
X172003090Y-39223095D02*
X172003090Y-39318333D01*
X172003090Y-39318333D02*
X171955471Y-39461190D01*
X171955471Y-39461190D02*
X171384043Y-40032619D01*
X171384043Y-40032619D02*
X172003090Y-40032619D01*
X172336424Y-39032619D02*
X172955471Y-39032619D01*
X172955471Y-39032619D02*
X172622138Y-39413571D01*
X172622138Y-39413571D02*
X172764995Y-39413571D01*
X172764995Y-39413571D02*
X172860233Y-39461190D01*
X172860233Y-39461190D02*
X172907852Y-39508809D01*
X172907852Y-39508809D02*
X172955471Y-39604047D01*
X172955471Y-39604047D02*
X172955471Y-39842142D01*
X172955471Y-39842142D02*
X172907852Y-39937380D01*
X172907852Y-39937380D02*
X172860233Y-39985000D01*
X172860233Y-39985000D02*
X172764995Y-40032619D01*
X172764995Y-40032619D02*
X172479281Y-40032619D01*
X172479281Y-40032619D02*
X172384043Y-39985000D01*
X172384043Y-39985000D02*
X172336424Y-39937380D01*
%TO.C,C22*%
X206525953Y-39937380D02*
X206478334Y-39985000D01*
X206478334Y-39985000D02*
X206335477Y-40032619D01*
X206335477Y-40032619D02*
X206240239Y-40032619D01*
X206240239Y-40032619D02*
X206097382Y-39985000D01*
X206097382Y-39985000D02*
X206002144Y-39889761D01*
X206002144Y-39889761D02*
X205954525Y-39794523D01*
X205954525Y-39794523D02*
X205906906Y-39604047D01*
X205906906Y-39604047D02*
X205906906Y-39461190D01*
X205906906Y-39461190D02*
X205954525Y-39270714D01*
X205954525Y-39270714D02*
X206002144Y-39175476D01*
X206002144Y-39175476D02*
X206097382Y-39080238D01*
X206097382Y-39080238D02*
X206240239Y-39032619D01*
X206240239Y-39032619D02*
X206335477Y-39032619D01*
X206335477Y-39032619D02*
X206478334Y-39080238D01*
X206478334Y-39080238D02*
X206525953Y-39127857D01*
X206906906Y-39127857D02*
X206954525Y-39080238D01*
X206954525Y-39080238D02*
X207049763Y-39032619D01*
X207049763Y-39032619D02*
X207287858Y-39032619D01*
X207287858Y-39032619D02*
X207383096Y-39080238D01*
X207383096Y-39080238D02*
X207430715Y-39127857D01*
X207430715Y-39127857D02*
X207478334Y-39223095D01*
X207478334Y-39223095D02*
X207478334Y-39318333D01*
X207478334Y-39318333D02*
X207430715Y-39461190D01*
X207430715Y-39461190D02*
X206859287Y-40032619D01*
X206859287Y-40032619D02*
X207478334Y-40032619D01*
X207859287Y-39127857D02*
X207906906Y-39080238D01*
X207906906Y-39080238D02*
X208002144Y-39032619D01*
X208002144Y-39032619D02*
X208240239Y-39032619D01*
X208240239Y-39032619D02*
X208335477Y-39080238D01*
X208335477Y-39080238D02*
X208383096Y-39127857D01*
X208383096Y-39127857D02*
X208430715Y-39223095D01*
X208430715Y-39223095D02*
X208430715Y-39318333D01*
X208430715Y-39318333D02*
X208383096Y-39461190D01*
X208383096Y-39461190D02*
X207811668Y-40032619D01*
X207811668Y-40032619D02*
X208430715Y-40032619D01*
%TO.C,C21*%
X162181898Y-39937380D02*
X162134279Y-39985000D01*
X162134279Y-39985000D02*
X161991422Y-40032619D01*
X161991422Y-40032619D02*
X161896184Y-40032619D01*
X161896184Y-40032619D02*
X161753327Y-39985000D01*
X161753327Y-39985000D02*
X161658089Y-39889761D01*
X161658089Y-39889761D02*
X161610470Y-39794523D01*
X161610470Y-39794523D02*
X161562851Y-39604047D01*
X161562851Y-39604047D02*
X161562851Y-39461190D01*
X161562851Y-39461190D02*
X161610470Y-39270714D01*
X161610470Y-39270714D02*
X161658089Y-39175476D01*
X161658089Y-39175476D02*
X161753327Y-39080238D01*
X161753327Y-39080238D02*
X161896184Y-39032619D01*
X161896184Y-39032619D02*
X161991422Y-39032619D01*
X161991422Y-39032619D02*
X162134279Y-39080238D01*
X162134279Y-39080238D02*
X162181898Y-39127857D01*
X162562851Y-39127857D02*
X162610470Y-39080238D01*
X162610470Y-39080238D02*
X162705708Y-39032619D01*
X162705708Y-39032619D02*
X162943803Y-39032619D01*
X162943803Y-39032619D02*
X163039041Y-39080238D01*
X163039041Y-39080238D02*
X163086660Y-39127857D01*
X163086660Y-39127857D02*
X163134279Y-39223095D01*
X163134279Y-39223095D02*
X163134279Y-39318333D01*
X163134279Y-39318333D02*
X163086660Y-39461190D01*
X163086660Y-39461190D02*
X162515232Y-40032619D01*
X162515232Y-40032619D02*
X163134279Y-40032619D01*
X164086660Y-40032619D02*
X163515232Y-40032619D01*
X163800946Y-40032619D02*
X163800946Y-39032619D01*
X163800946Y-39032619D02*
X163705708Y-39175476D01*
X163705708Y-39175476D02*
X163610470Y-39270714D01*
X163610470Y-39270714D02*
X163515232Y-39318333D01*
%TO.C,C20*%
X242163334Y-79237380D02*
X242115715Y-79285000D01*
X242115715Y-79285000D02*
X241972858Y-79332619D01*
X241972858Y-79332619D02*
X241877620Y-79332619D01*
X241877620Y-79332619D02*
X241734763Y-79285000D01*
X241734763Y-79285000D02*
X241639525Y-79189761D01*
X241639525Y-79189761D02*
X241591906Y-79094523D01*
X241591906Y-79094523D02*
X241544287Y-78904047D01*
X241544287Y-78904047D02*
X241544287Y-78761190D01*
X241544287Y-78761190D02*
X241591906Y-78570714D01*
X241591906Y-78570714D02*
X241639525Y-78475476D01*
X241639525Y-78475476D02*
X241734763Y-78380238D01*
X241734763Y-78380238D02*
X241877620Y-78332619D01*
X241877620Y-78332619D02*
X241972858Y-78332619D01*
X241972858Y-78332619D02*
X242115715Y-78380238D01*
X242115715Y-78380238D02*
X242163334Y-78427857D01*
X242544287Y-78427857D02*
X242591906Y-78380238D01*
X242591906Y-78380238D02*
X242687144Y-78332619D01*
X242687144Y-78332619D02*
X242925239Y-78332619D01*
X242925239Y-78332619D02*
X243020477Y-78380238D01*
X243020477Y-78380238D02*
X243068096Y-78427857D01*
X243068096Y-78427857D02*
X243115715Y-78523095D01*
X243115715Y-78523095D02*
X243115715Y-78618333D01*
X243115715Y-78618333D02*
X243068096Y-78761190D01*
X243068096Y-78761190D02*
X242496668Y-79332619D01*
X242496668Y-79332619D02*
X243115715Y-79332619D01*
X243734763Y-78332619D02*
X243830001Y-78332619D01*
X243830001Y-78332619D02*
X243925239Y-78380238D01*
X243925239Y-78380238D02*
X243972858Y-78427857D01*
X243972858Y-78427857D02*
X244020477Y-78523095D01*
X244020477Y-78523095D02*
X244068096Y-78713571D01*
X244068096Y-78713571D02*
X244068096Y-78951666D01*
X244068096Y-78951666D02*
X244020477Y-79142142D01*
X244020477Y-79142142D02*
X243972858Y-79237380D01*
X243972858Y-79237380D02*
X243925239Y-79285000D01*
X243925239Y-79285000D02*
X243830001Y-79332619D01*
X243830001Y-79332619D02*
X243734763Y-79332619D01*
X243734763Y-79332619D02*
X243639525Y-79285000D01*
X243639525Y-79285000D02*
X243591906Y-79237380D01*
X243591906Y-79237380D02*
X243544287Y-79142142D01*
X243544287Y-79142142D02*
X243496668Y-78951666D01*
X243496668Y-78951666D02*
X243496668Y-78713571D01*
X243496668Y-78713571D02*
X243544287Y-78523095D01*
X243544287Y-78523095D02*
X243591906Y-78427857D01*
X243591906Y-78427857D02*
X243639525Y-78380238D01*
X243639525Y-78380238D02*
X243734763Y-78332619D01*
%TO.C,C19*%
X197819686Y-79237380D02*
X197772067Y-79285000D01*
X197772067Y-79285000D02*
X197629210Y-79332619D01*
X197629210Y-79332619D02*
X197533972Y-79332619D01*
X197533972Y-79332619D02*
X197391115Y-79285000D01*
X197391115Y-79285000D02*
X197295877Y-79189761D01*
X197295877Y-79189761D02*
X197248258Y-79094523D01*
X197248258Y-79094523D02*
X197200639Y-78904047D01*
X197200639Y-78904047D02*
X197200639Y-78761190D01*
X197200639Y-78761190D02*
X197248258Y-78570714D01*
X197248258Y-78570714D02*
X197295877Y-78475476D01*
X197295877Y-78475476D02*
X197391115Y-78380238D01*
X197391115Y-78380238D02*
X197533972Y-78332619D01*
X197533972Y-78332619D02*
X197629210Y-78332619D01*
X197629210Y-78332619D02*
X197772067Y-78380238D01*
X197772067Y-78380238D02*
X197819686Y-78427857D01*
X198772067Y-79332619D02*
X198200639Y-79332619D01*
X198486353Y-79332619D02*
X198486353Y-78332619D01*
X198486353Y-78332619D02*
X198391115Y-78475476D01*
X198391115Y-78475476D02*
X198295877Y-78570714D01*
X198295877Y-78570714D02*
X198200639Y-78618333D01*
X199248258Y-79332619D02*
X199438734Y-79332619D01*
X199438734Y-79332619D02*
X199533972Y-79285000D01*
X199533972Y-79285000D02*
X199581591Y-79237380D01*
X199581591Y-79237380D02*
X199676829Y-79094523D01*
X199676829Y-79094523D02*
X199724448Y-78904047D01*
X199724448Y-78904047D02*
X199724448Y-78523095D01*
X199724448Y-78523095D02*
X199676829Y-78427857D01*
X199676829Y-78427857D02*
X199629210Y-78380238D01*
X199629210Y-78380238D02*
X199533972Y-78332619D01*
X199533972Y-78332619D02*
X199343496Y-78332619D01*
X199343496Y-78332619D02*
X199248258Y-78380238D01*
X199248258Y-78380238D02*
X199200639Y-78427857D01*
X199200639Y-78427857D02*
X199153020Y-78523095D01*
X199153020Y-78523095D02*
X199153020Y-78761190D01*
X199153020Y-78761190D02*
X199200639Y-78856428D01*
X199200639Y-78856428D02*
X199248258Y-78904047D01*
X199248258Y-78904047D02*
X199343496Y-78951666D01*
X199343496Y-78951666D02*
X199533972Y-78951666D01*
X199533972Y-78951666D02*
X199629210Y-78904047D01*
X199629210Y-78904047D02*
X199676829Y-78856428D01*
X199676829Y-78856428D02*
X199724448Y-78761190D01*
%TO.C,C18*%
X233294598Y-79237380D02*
X233246979Y-79285000D01*
X233246979Y-79285000D02*
X233104122Y-79332619D01*
X233104122Y-79332619D02*
X233008884Y-79332619D01*
X233008884Y-79332619D02*
X232866027Y-79285000D01*
X232866027Y-79285000D02*
X232770789Y-79189761D01*
X232770789Y-79189761D02*
X232723170Y-79094523D01*
X232723170Y-79094523D02*
X232675551Y-78904047D01*
X232675551Y-78904047D02*
X232675551Y-78761190D01*
X232675551Y-78761190D02*
X232723170Y-78570714D01*
X232723170Y-78570714D02*
X232770789Y-78475476D01*
X232770789Y-78475476D02*
X232866027Y-78380238D01*
X232866027Y-78380238D02*
X233008884Y-78332619D01*
X233008884Y-78332619D02*
X233104122Y-78332619D01*
X233104122Y-78332619D02*
X233246979Y-78380238D01*
X233246979Y-78380238D02*
X233294598Y-78427857D01*
X234246979Y-79332619D02*
X233675551Y-79332619D01*
X233961265Y-79332619D02*
X233961265Y-78332619D01*
X233961265Y-78332619D02*
X233866027Y-78475476D01*
X233866027Y-78475476D02*
X233770789Y-78570714D01*
X233770789Y-78570714D02*
X233675551Y-78618333D01*
X234818408Y-78761190D02*
X234723170Y-78713571D01*
X234723170Y-78713571D02*
X234675551Y-78665952D01*
X234675551Y-78665952D02*
X234627932Y-78570714D01*
X234627932Y-78570714D02*
X234627932Y-78523095D01*
X234627932Y-78523095D02*
X234675551Y-78427857D01*
X234675551Y-78427857D02*
X234723170Y-78380238D01*
X234723170Y-78380238D02*
X234818408Y-78332619D01*
X234818408Y-78332619D02*
X235008884Y-78332619D01*
X235008884Y-78332619D02*
X235104122Y-78380238D01*
X235104122Y-78380238D02*
X235151741Y-78427857D01*
X235151741Y-78427857D02*
X235199360Y-78523095D01*
X235199360Y-78523095D02*
X235199360Y-78570714D01*
X235199360Y-78570714D02*
X235151741Y-78665952D01*
X235151741Y-78665952D02*
X235104122Y-78713571D01*
X235104122Y-78713571D02*
X235008884Y-78761190D01*
X235008884Y-78761190D02*
X234818408Y-78761190D01*
X234818408Y-78761190D02*
X234723170Y-78808809D01*
X234723170Y-78808809D02*
X234675551Y-78856428D01*
X234675551Y-78856428D02*
X234627932Y-78951666D01*
X234627932Y-78951666D02*
X234627932Y-79142142D01*
X234627932Y-79142142D02*
X234675551Y-79237380D01*
X234675551Y-79237380D02*
X234723170Y-79285000D01*
X234723170Y-79285000D02*
X234818408Y-79332619D01*
X234818408Y-79332619D02*
X235008884Y-79332619D01*
X235008884Y-79332619D02*
X235104122Y-79285000D01*
X235104122Y-79285000D02*
X235151741Y-79237380D01*
X235151741Y-79237380D02*
X235199360Y-79142142D01*
X235199360Y-79142142D02*
X235199360Y-78951666D01*
X235199360Y-78951666D02*
X235151741Y-78856428D01*
X235151741Y-78856428D02*
X235104122Y-78808809D01*
X235104122Y-78808809D02*
X235008884Y-78761190D01*
%TO.C,C17*%
X206688414Y-79237380D02*
X206640795Y-79285000D01*
X206640795Y-79285000D02*
X206497938Y-79332619D01*
X206497938Y-79332619D02*
X206402700Y-79332619D01*
X206402700Y-79332619D02*
X206259843Y-79285000D01*
X206259843Y-79285000D02*
X206164605Y-79189761D01*
X206164605Y-79189761D02*
X206116986Y-79094523D01*
X206116986Y-79094523D02*
X206069367Y-78904047D01*
X206069367Y-78904047D02*
X206069367Y-78761190D01*
X206069367Y-78761190D02*
X206116986Y-78570714D01*
X206116986Y-78570714D02*
X206164605Y-78475476D01*
X206164605Y-78475476D02*
X206259843Y-78380238D01*
X206259843Y-78380238D02*
X206402700Y-78332619D01*
X206402700Y-78332619D02*
X206497938Y-78332619D01*
X206497938Y-78332619D02*
X206640795Y-78380238D01*
X206640795Y-78380238D02*
X206688414Y-78427857D01*
X207640795Y-79332619D02*
X207069367Y-79332619D01*
X207355081Y-79332619D02*
X207355081Y-78332619D01*
X207355081Y-78332619D02*
X207259843Y-78475476D01*
X207259843Y-78475476D02*
X207164605Y-78570714D01*
X207164605Y-78570714D02*
X207069367Y-78618333D01*
X207974129Y-78332619D02*
X208640795Y-78332619D01*
X208640795Y-78332619D02*
X208212224Y-79332619D01*
%TO.C,C16*%
X224425870Y-79237380D02*
X224378251Y-79285000D01*
X224378251Y-79285000D02*
X224235394Y-79332619D01*
X224235394Y-79332619D02*
X224140156Y-79332619D01*
X224140156Y-79332619D02*
X223997299Y-79285000D01*
X223997299Y-79285000D02*
X223902061Y-79189761D01*
X223902061Y-79189761D02*
X223854442Y-79094523D01*
X223854442Y-79094523D02*
X223806823Y-78904047D01*
X223806823Y-78904047D02*
X223806823Y-78761190D01*
X223806823Y-78761190D02*
X223854442Y-78570714D01*
X223854442Y-78570714D02*
X223902061Y-78475476D01*
X223902061Y-78475476D02*
X223997299Y-78380238D01*
X223997299Y-78380238D02*
X224140156Y-78332619D01*
X224140156Y-78332619D02*
X224235394Y-78332619D01*
X224235394Y-78332619D02*
X224378251Y-78380238D01*
X224378251Y-78380238D02*
X224425870Y-78427857D01*
X225378251Y-79332619D02*
X224806823Y-79332619D01*
X225092537Y-79332619D02*
X225092537Y-78332619D01*
X225092537Y-78332619D02*
X224997299Y-78475476D01*
X224997299Y-78475476D02*
X224902061Y-78570714D01*
X224902061Y-78570714D02*
X224806823Y-78618333D01*
X226235394Y-78332619D02*
X226044918Y-78332619D01*
X226044918Y-78332619D02*
X225949680Y-78380238D01*
X225949680Y-78380238D02*
X225902061Y-78427857D01*
X225902061Y-78427857D02*
X225806823Y-78570714D01*
X225806823Y-78570714D02*
X225759204Y-78761190D01*
X225759204Y-78761190D02*
X225759204Y-79142142D01*
X225759204Y-79142142D02*
X225806823Y-79237380D01*
X225806823Y-79237380D02*
X225854442Y-79285000D01*
X225854442Y-79285000D02*
X225949680Y-79332619D01*
X225949680Y-79332619D02*
X226140156Y-79332619D01*
X226140156Y-79332619D02*
X226235394Y-79285000D01*
X226235394Y-79285000D02*
X226283013Y-79237380D01*
X226283013Y-79237380D02*
X226330632Y-79142142D01*
X226330632Y-79142142D02*
X226330632Y-78904047D01*
X226330632Y-78904047D02*
X226283013Y-78808809D01*
X226283013Y-78808809D02*
X226235394Y-78761190D01*
X226235394Y-78761190D02*
X226140156Y-78713571D01*
X226140156Y-78713571D02*
X225949680Y-78713571D01*
X225949680Y-78713571D02*
X225854442Y-78761190D01*
X225854442Y-78761190D02*
X225806823Y-78808809D01*
X225806823Y-78808809D02*
X225759204Y-78904047D01*
%TO.C,C15*%
X215557142Y-79237380D02*
X215509523Y-79285000D01*
X215509523Y-79285000D02*
X215366666Y-79332619D01*
X215366666Y-79332619D02*
X215271428Y-79332619D01*
X215271428Y-79332619D02*
X215128571Y-79285000D01*
X215128571Y-79285000D02*
X215033333Y-79189761D01*
X215033333Y-79189761D02*
X214985714Y-79094523D01*
X214985714Y-79094523D02*
X214938095Y-78904047D01*
X214938095Y-78904047D02*
X214938095Y-78761190D01*
X214938095Y-78761190D02*
X214985714Y-78570714D01*
X214985714Y-78570714D02*
X215033333Y-78475476D01*
X215033333Y-78475476D02*
X215128571Y-78380238D01*
X215128571Y-78380238D02*
X215271428Y-78332619D01*
X215271428Y-78332619D02*
X215366666Y-78332619D01*
X215366666Y-78332619D02*
X215509523Y-78380238D01*
X215509523Y-78380238D02*
X215557142Y-78427857D01*
X216509523Y-79332619D02*
X215938095Y-79332619D01*
X216223809Y-79332619D02*
X216223809Y-78332619D01*
X216223809Y-78332619D02*
X216128571Y-78475476D01*
X216128571Y-78475476D02*
X216033333Y-78570714D01*
X216033333Y-78570714D02*
X215938095Y-78618333D01*
X217414285Y-78332619D02*
X216938095Y-78332619D01*
X216938095Y-78332619D02*
X216890476Y-78808809D01*
X216890476Y-78808809D02*
X216938095Y-78761190D01*
X216938095Y-78761190D02*
X217033333Y-78713571D01*
X217033333Y-78713571D02*
X217271428Y-78713571D01*
X217271428Y-78713571D02*
X217366666Y-78761190D01*
X217366666Y-78761190D02*
X217414285Y-78808809D01*
X217414285Y-78808809D02*
X217461904Y-78904047D01*
X217461904Y-78904047D02*
X217461904Y-79142142D01*
X217461904Y-79142142D02*
X217414285Y-79237380D01*
X217414285Y-79237380D02*
X217366666Y-79285000D01*
X217366666Y-79285000D02*
X217271428Y-79332619D01*
X217271428Y-79332619D02*
X217033333Y-79332619D01*
X217033333Y-79332619D02*
X216938095Y-79285000D01*
X216938095Y-79285000D02*
X216890476Y-79237380D01*
%TO.C,C14*%
X188950958Y-79237380D02*
X188903339Y-79285000D01*
X188903339Y-79285000D02*
X188760482Y-79332619D01*
X188760482Y-79332619D02*
X188665244Y-79332619D01*
X188665244Y-79332619D02*
X188522387Y-79285000D01*
X188522387Y-79285000D02*
X188427149Y-79189761D01*
X188427149Y-79189761D02*
X188379530Y-79094523D01*
X188379530Y-79094523D02*
X188331911Y-78904047D01*
X188331911Y-78904047D02*
X188331911Y-78761190D01*
X188331911Y-78761190D02*
X188379530Y-78570714D01*
X188379530Y-78570714D02*
X188427149Y-78475476D01*
X188427149Y-78475476D02*
X188522387Y-78380238D01*
X188522387Y-78380238D02*
X188665244Y-78332619D01*
X188665244Y-78332619D02*
X188760482Y-78332619D01*
X188760482Y-78332619D02*
X188903339Y-78380238D01*
X188903339Y-78380238D02*
X188950958Y-78427857D01*
X189903339Y-79332619D02*
X189331911Y-79332619D01*
X189617625Y-79332619D02*
X189617625Y-78332619D01*
X189617625Y-78332619D02*
X189522387Y-78475476D01*
X189522387Y-78475476D02*
X189427149Y-78570714D01*
X189427149Y-78570714D02*
X189331911Y-78618333D01*
X190760482Y-78665952D02*
X190760482Y-79332619D01*
X190522387Y-78285000D02*
X190284292Y-78999285D01*
X190284292Y-78999285D02*
X190903339Y-78999285D01*
%TO.C,C13*%
X180082230Y-79237380D02*
X180034611Y-79285000D01*
X180034611Y-79285000D02*
X179891754Y-79332619D01*
X179891754Y-79332619D02*
X179796516Y-79332619D01*
X179796516Y-79332619D02*
X179653659Y-79285000D01*
X179653659Y-79285000D02*
X179558421Y-79189761D01*
X179558421Y-79189761D02*
X179510802Y-79094523D01*
X179510802Y-79094523D02*
X179463183Y-78904047D01*
X179463183Y-78904047D02*
X179463183Y-78761190D01*
X179463183Y-78761190D02*
X179510802Y-78570714D01*
X179510802Y-78570714D02*
X179558421Y-78475476D01*
X179558421Y-78475476D02*
X179653659Y-78380238D01*
X179653659Y-78380238D02*
X179796516Y-78332619D01*
X179796516Y-78332619D02*
X179891754Y-78332619D01*
X179891754Y-78332619D02*
X180034611Y-78380238D01*
X180034611Y-78380238D02*
X180082230Y-78427857D01*
X181034611Y-79332619D02*
X180463183Y-79332619D01*
X180748897Y-79332619D02*
X180748897Y-78332619D01*
X180748897Y-78332619D02*
X180653659Y-78475476D01*
X180653659Y-78475476D02*
X180558421Y-78570714D01*
X180558421Y-78570714D02*
X180463183Y-78618333D01*
X181367945Y-78332619D02*
X181986992Y-78332619D01*
X181986992Y-78332619D02*
X181653659Y-78713571D01*
X181653659Y-78713571D02*
X181796516Y-78713571D01*
X181796516Y-78713571D02*
X181891754Y-78761190D01*
X181891754Y-78761190D02*
X181939373Y-78808809D01*
X181939373Y-78808809D02*
X181986992Y-78904047D01*
X181986992Y-78904047D02*
X181986992Y-79142142D01*
X181986992Y-79142142D02*
X181939373Y-79237380D01*
X181939373Y-79237380D02*
X181891754Y-79285000D01*
X181891754Y-79285000D02*
X181796516Y-79332619D01*
X181796516Y-79332619D02*
X181510802Y-79332619D01*
X181510802Y-79332619D02*
X181415564Y-79285000D01*
X181415564Y-79285000D02*
X181367945Y-79237380D01*
%TO.C,C12*%
X171213502Y-79237380D02*
X171165883Y-79285000D01*
X171165883Y-79285000D02*
X171023026Y-79332619D01*
X171023026Y-79332619D02*
X170927788Y-79332619D01*
X170927788Y-79332619D02*
X170784931Y-79285000D01*
X170784931Y-79285000D02*
X170689693Y-79189761D01*
X170689693Y-79189761D02*
X170642074Y-79094523D01*
X170642074Y-79094523D02*
X170594455Y-78904047D01*
X170594455Y-78904047D02*
X170594455Y-78761190D01*
X170594455Y-78761190D02*
X170642074Y-78570714D01*
X170642074Y-78570714D02*
X170689693Y-78475476D01*
X170689693Y-78475476D02*
X170784931Y-78380238D01*
X170784931Y-78380238D02*
X170927788Y-78332619D01*
X170927788Y-78332619D02*
X171023026Y-78332619D01*
X171023026Y-78332619D02*
X171165883Y-78380238D01*
X171165883Y-78380238D02*
X171213502Y-78427857D01*
X172165883Y-79332619D02*
X171594455Y-79332619D01*
X171880169Y-79332619D02*
X171880169Y-78332619D01*
X171880169Y-78332619D02*
X171784931Y-78475476D01*
X171784931Y-78475476D02*
X171689693Y-78570714D01*
X171689693Y-78570714D02*
X171594455Y-78618333D01*
X172546836Y-78427857D02*
X172594455Y-78380238D01*
X172594455Y-78380238D02*
X172689693Y-78332619D01*
X172689693Y-78332619D02*
X172927788Y-78332619D01*
X172927788Y-78332619D02*
X173023026Y-78380238D01*
X173023026Y-78380238D02*
X173070645Y-78427857D01*
X173070645Y-78427857D02*
X173118264Y-78523095D01*
X173118264Y-78523095D02*
X173118264Y-78618333D01*
X173118264Y-78618333D02*
X173070645Y-78761190D01*
X173070645Y-78761190D02*
X172499217Y-79332619D01*
X172499217Y-79332619D02*
X173118264Y-79332619D01*
%TO.C,C11*%
X162344774Y-79237380D02*
X162297155Y-79285000D01*
X162297155Y-79285000D02*
X162154298Y-79332619D01*
X162154298Y-79332619D02*
X162059060Y-79332619D01*
X162059060Y-79332619D02*
X161916203Y-79285000D01*
X161916203Y-79285000D02*
X161820965Y-79189761D01*
X161820965Y-79189761D02*
X161773346Y-79094523D01*
X161773346Y-79094523D02*
X161725727Y-78904047D01*
X161725727Y-78904047D02*
X161725727Y-78761190D01*
X161725727Y-78761190D02*
X161773346Y-78570714D01*
X161773346Y-78570714D02*
X161820965Y-78475476D01*
X161820965Y-78475476D02*
X161916203Y-78380238D01*
X161916203Y-78380238D02*
X162059060Y-78332619D01*
X162059060Y-78332619D02*
X162154298Y-78332619D01*
X162154298Y-78332619D02*
X162297155Y-78380238D01*
X162297155Y-78380238D02*
X162344774Y-78427857D01*
X163297155Y-79332619D02*
X162725727Y-79332619D01*
X163011441Y-79332619D02*
X163011441Y-78332619D01*
X163011441Y-78332619D02*
X162916203Y-78475476D01*
X162916203Y-78475476D02*
X162820965Y-78570714D01*
X162820965Y-78570714D02*
X162725727Y-78618333D01*
X164249536Y-79332619D02*
X163678108Y-79332619D01*
X163963822Y-79332619D02*
X163963822Y-78332619D01*
X163963822Y-78332619D02*
X163868584Y-78475476D01*
X163868584Y-78475476D02*
X163773346Y-78570714D01*
X163773346Y-78570714D02*
X163678108Y-78618333D01*
%TO.C,C10*%
X242174217Y-118939612D02*
X242126598Y-118987232D01*
X242126598Y-118987232D02*
X241983741Y-119034851D01*
X241983741Y-119034851D02*
X241888503Y-119034851D01*
X241888503Y-119034851D02*
X241745646Y-118987232D01*
X241745646Y-118987232D02*
X241650408Y-118891993D01*
X241650408Y-118891993D02*
X241602789Y-118796755D01*
X241602789Y-118796755D02*
X241555170Y-118606279D01*
X241555170Y-118606279D02*
X241555170Y-118463422D01*
X241555170Y-118463422D02*
X241602789Y-118272946D01*
X241602789Y-118272946D02*
X241650408Y-118177708D01*
X241650408Y-118177708D02*
X241745646Y-118082470D01*
X241745646Y-118082470D02*
X241888503Y-118034851D01*
X241888503Y-118034851D02*
X241983741Y-118034851D01*
X241983741Y-118034851D02*
X242126598Y-118082470D01*
X242126598Y-118082470D02*
X242174217Y-118130089D01*
X243126598Y-119034851D02*
X242555170Y-119034851D01*
X242840884Y-119034851D02*
X242840884Y-118034851D01*
X242840884Y-118034851D02*
X242745646Y-118177708D01*
X242745646Y-118177708D02*
X242650408Y-118272946D01*
X242650408Y-118272946D02*
X242555170Y-118320565D01*
X243745646Y-118034851D02*
X243840884Y-118034851D01*
X243840884Y-118034851D02*
X243936122Y-118082470D01*
X243936122Y-118082470D02*
X243983741Y-118130089D01*
X243983741Y-118130089D02*
X244031360Y-118225327D01*
X244031360Y-118225327D02*
X244078979Y-118415803D01*
X244078979Y-118415803D02*
X244078979Y-118653898D01*
X244078979Y-118653898D02*
X244031360Y-118844374D01*
X244031360Y-118844374D02*
X243983741Y-118939612D01*
X243983741Y-118939612D02*
X243936122Y-118987232D01*
X243936122Y-118987232D02*
X243840884Y-119034851D01*
X243840884Y-119034851D02*
X243745646Y-119034851D01*
X243745646Y-119034851D02*
X243650408Y-118987232D01*
X243650408Y-118987232D02*
X243602789Y-118939612D01*
X243602789Y-118939612D02*
X243555170Y-118844374D01*
X243555170Y-118844374D02*
X243507551Y-118653898D01*
X243507551Y-118653898D02*
X243507551Y-118415803D01*
X243507551Y-118415803D02*
X243555170Y-118225327D01*
X243555170Y-118225327D02*
X243602789Y-118130089D01*
X243602789Y-118130089D02*
X243650408Y-118082470D01*
X243650408Y-118082470D02*
X243745646Y-118034851D01*
%TO.C,C9*%
X233780613Y-118939612D02*
X233732994Y-118987232D01*
X233732994Y-118987232D02*
X233590137Y-119034851D01*
X233590137Y-119034851D02*
X233494899Y-119034851D01*
X233494899Y-119034851D02*
X233352042Y-118987232D01*
X233352042Y-118987232D02*
X233256804Y-118891993D01*
X233256804Y-118891993D02*
X233209185Y-118796755D01*
X233209185Y-118796755D02*
X233161566Y-118606279D01*
X233161566Y-118606279D02*
X233161566Y-118463422D01*
X233161566Y-118463422D02*
X233209185Y-118272946D01*
X233209185Y-118272946D02*
X233256804Y-118177708D01*
X233256804Y-118177708D02*
X233352042Y-118082470D01*
X233352042Y-118082470D02*
X233494899Y-118034851D01*
X233494899Y-118034851D02*
X233590137Y-118034851D01*
X233590137Y-118034851D02*
X233732994Y-118082470D01*
X233732994Y-118082470D02*
X233780613Y-118130089D01*
X234256804Y-119034851D02*
X234447280Y-119034851D01*
X234447280Y-119034851D02*
X234542518Y-118987232D01*
X234542518Y-118987232D02*
X234590137Y-118939612D01*
X234590137Y-118939612D02*
X234685375Y-118796755D01*
X234685375Y-118796755D02*
X234732994Y-118606279D01*
X234732994Y-118606279D02*
X234732994Y-118225327D01*
X234732994Y-118225327D02*
X234685375Y-118130089D01*
X234685375Y-118130089D02*
X234637756Y-118082470D01*
X234637756Y-118082470D02*
X234542518Y-118034851D01*
X234542518Y-118034851D02*
X234352042Y-118034851D01*
X234352042Y-118034851D02*
X234256804Y-118082470D01*
X234256804Y-118082470D02*
X234209185Y-118130089D01*
X234209185Y-118130089D02*
X234161566Y-118225327D01*
X234161566Y-118225327D02*
X234161566Y-118463422D01*
X234161566Y-118463422D02*
X234209185Y-118558660D01*
X234209185Y-118558660D02*
X234256804Y-118606279D01*
X234256804Y-118606279D02*
X234352042Y-118653898D01*
X234352042Y-118653898D02*
X234542518Y-118653898D01*
X234542518Y-118653898D02*
X234637756Y-118606279D01*
X234637756Y-118606279D02*
X234685375Y-118558660D01*
X234685375Y-118558660D02*
X234732994Y-118463422D01*
%TO.C,J1*%
X155991969Y-119332619D02*
X155991969Y-120046904D01*
X155991969Y-120046904D02*
X155944350Y-120189761D01*
X155944350Y-120189761D02*
X155849112Y-120285000D01*
X155849112Y-120285000D02*
X155706255Y-120332619D01*
X155706255Y-120332619D02*
X155611017Y-120332619D01*
X156991969Y-120332619D02*
X156420541Y-120332619D01*
X156706255Y-120332619D02*
X156706255Y-119332619D01*
X156706255Y-119332619D02*
X156611017Y-119475476D01*
X156611017Y-119475476D02*
X156515779Y-119570714D01*
X156515779Y-119570714D02*
X156420541Y-119618333D01*
%TO.C,D30*%
X240562619Y-48214285D02*
X239562619Y-48214285D01*
X239562619Y-48214285D02*
X239562619Y-47976190D01*
X239562619Y-47976190D02*
X239610238Y-47833333D01*
X239610238Y-47833333D02*
X239705476Y-47738095D01*
X239705476Y-47738095D02*
X239800714Y-47690476D01*
X239800714Y-47690476D02*
X239991190Y-47642857D01*
X239991190Y-47642857D02*
X240134047Y-47642857D01*
X240134047Y-47642857D02*
X240324523Y-47690476D01*
X240324523Y-47690476D02*
X240419761Y-47738095D01*
X240419761Y-47738095D02*
X240515000Y-47833333D01*
X240515000Y-47833333D02*
X240562619Y-47976190D01*
X240562619Y-47976190D02*
X240562619Y-48214285D01*
X239562619Y-47309523D02*
X239562619Y-46690476D01*
X239562619Y-46690476D02*
X239943571Y-47023809D01*
X239943571Y-47023809D02*
X239943571Y-46880952D01*
X239943571Y-46880952D02*
X239991190Y-46785714D01*
X239991190Y-46785714D02*
X240038809Y-46738095D01*
X240038809Y-46738095D02*
X240134047Y-46690476D01*
X240134047Y-46690476D02*
X240372142Y-46690476D01*
X240372142Y-46690476D02*
X240467380Y-46738095D01*
X240467380Y-46738095D02*
X240515000Y-46785714D01*
X240515000Y-46785714D02*
X240562619Y-46880952D01*
X240562619Y-46880952D02*
X240562619Y-47166666D01*
X240562619Y-47166666D02*
X240515000Y-47261904D01*
X240515000Y-47261904D02*
X240467380Y-47309523D01*
X239562619Y-46071428D02*
X239562619Y-45976190D01*
X239562619Y-45976190D02*
X239610238Y-45880952D01*
X239610238Y-45880952D02*
X239657857Y-45833333D01*
X239657857Y-45833333D02*
X239753095Y-45785714D01*
X239753095Y-45785714D02*
X239943571Y-45738095D01*
X239943571Y-45738095D02*
X240181666Y-45738095D01*
X240181666Y-45738095D02*
X240372142Y-45785714D01*
X240372142Y-45785714D02*
X240467380Y-45833333D01*
X240467380Y-45833333D02*
X240515000Y-45880952D01*
X240515000Y-45880952D02*
X240562619Y-45976190D01*
X240562619Y-45976190D02*
X240562619Y-46071428D01*
X240562619Y-46071428D02*
X240515000Y-46166666D01*
X240515000Y-46166666D02*
X240467380Y-46214285D01*
X240467380Y-46214285D02*
X240372142Y-46261904D01*
X240372142Y-46261904D02*
X240181666Y-46309523D01*
X240181666Y-46309523D02*
X239943571Y-46309523D01*
X239943571Y-46309523D02*
X239753095Y-46261904D01*
X239753095Y-46261904D02*
X239657857Y-46214285D01*
X239657857Y-46214285D02*
X239610238Y-46166666D01*
X239610238Y-46166666D02*
X239562619Y-46071428D01*
%TO.C,D29*%
X231673723Y-48214285D02*
X230673723Y-48214285D01*
X230673723Y-48214285D02*
X230673723Y-47976190D01*
X230673723Y-47976190D02*
X230721342Y-47833333D01*
X230721342Y-47833333D02*
X230816580Y-47738095D01*
X230816580Y-47738095D02*
X230911818Y-47690476D01*
X230911818Y-47690476D02*
X231102294Y-47642857D01*
X231102294Y-47642857D02*
X231245151Y-47642857D01*
X231245151Y-47642857D02*
X231435627Y-47690476D01*
X231435627Y-47690476D02*
X231530865Y-47738095D01*
X231530865Y-47738095D02*
X231626104Y-47833333D01*
X231626104Y-47833333D02*
X231673723Y-47976190D01*
X231673723Y-47976190D02*
X231673723Y-48214285D01*
X230768961Y-47261904D02*
X230721342Y-47214285D01*
X230721342Y-47214285D02*
X230673723Y-47119047D01*
X230673723Y-47119047D02*
X230673723Y-46880952D01*
X230673723Y-46880952D02*
X230721342Y-46785714D01*
X230721342Y-46785714D02*
X230768961Y-46738095D01*
X230768961Y-46738095D02*
X230864199Y-46690476D01*
X230864199Y-46690476D02*
X230959437Y-46690476D01*
X230959437Y-46690476D02*
X231102294Y-46738095D01*
X231102294Y-46738095D02*
X231673723Y-47309523D01*
X231673723Y-47309523D02*
X231673723Y-46690476D01*
X231673723Y-46214285D02*
X231673723Y-46023809D01*
X231673723Y-46023809D02*
X231626104Y-45928571D01*
X231626104Y-45928571D02*
X231578484Y-45880952D01*
X231578484Y-45880952D02*
X231435627Y-45785714D01*
X231435627Y-45785714D02*
X231245151Y-45738095D01*
X231245151Y-45738095D02*
X230864199Y-45738095D01*
X230864199Y-45738095D02*
X230768961Y-45785714D01*
X230768961Y-45785714D02*
X230721342Y-45833333D01*
X230721342Y-45833333D02*
X230673723Y-45928571D01*
X230673723Y-45928571D02*
X230673723Y-46119047D01*
X230673723Y-46119047D02*
X230721342Y-46214285D01*
X230721342Y-46214285D02*
X230768961Y-46261904D01*
X230768961Y-46261904D02*
X230864199Y-46309523D01*
X230864199Y-46309523D02*
X231102294Y-46309523D01*
X231102294Y-46309523D02*
X231197532Y-46261904D01*
X231197532Y-46261904D02*
X231245151Y-46214285D01*
X231245151Y-46214285D02*
X231292770Y-46119047D01*
X231292770Y-46119047D02*
X231292770Y-45928571D01*
X231292770Y-45928571D02*
X231245151Y-45833333D01*
X231245151Y-45833333D02*
X231197532Y-45785714D01*
X231197532Y-45785714D02*
X231102294Y-45738095D01*
%TO.C,D28*%
X222784835Y-48214285D02*
X221784835Y-48214285D01*
X221784835Y-48214285D02*
X221784835Y-47976190D01*
X221784835Y-47976190D02*
X221832454Y-47833333D01*
X221832454Y-47833333D02*
X221927692Y-47738095D01*
X221927692Y-47738095D02*
X222022930Y-47690476D01*
X222022930Y-47690476D02*
X222213406Y-47642857D01*
X222213406Y-47642857D02*
X222356263Y-47642857D01*
X222356263Y-47642857D02*
X222546739Y-47690476D01*
X222546739Y-47690476D02*
X222641977Y-47738095D01*
X222641977Y-47738095D02*
X222737216Y-47833333D01*
X222737216Y-47833333D02*
X222784835Y-47976190D01*
X222784835Y-47976190D02*
X222784835Y-48214285D01*
X221880073Y-47261904D02*
X221832454Y-47214285D01*
X221832454Y-47214285D02*
X221784835Y-47119047D01*
X221784835Y-47119047D02*
X221784835Y-46880952D01*
X221784835Y-46880952D02*
X221832454Y-46785714D01*
X221832454Y-46785714D02*
X221880073Y-46738095D01*
X221880073Y-46738095D02*
X221975311Y-46690476D01*
X221975311Y-46690476D02*
X222070549Y-46690476D01*
X222070549Y-46690476D02*
X222213406Y-46738095D01*
X222213406Y-46738095D02*
X222784835Y-47309523D01*
X222784835Y-47309523D02*
X222784835Y-46690476D01*
X222213406Y-46119047D02*
X222165787Y-46214285D01*
X222165787Y-46214285D02*
X222118168Y-46261904D01*
X222118168Y-46261904D02*
X222022930Y-46309523D01*
X222022930Y-46309523D02*
X221975311Y-46309523D01*
X221975311Y-46309523D02*
X221880073Y-46261904D01*
X221880073Y-46261904D02*
X221832454Y-46214285D01*
X221832454Y-46214285D02*
X221784835Y-46119047D01*
X221784835Y-46119047D02*
X221784835Y-45928571D01*
X221784835Y-45928571D02*
X221832454Y-45833333D01*
X221832454Y-45833333D02*
X221880073Y-45785714D01*
X221880073Y-45785714D02*
X221975311Y-45738095D01*
X221975311Y-45738095D02*
X222022930Y-45738095D01*
X222022930Y-45738095D02*
X222118168Y-45785714D01*
X222118168Y-45785714D02*
X222165787Y-45833333D01*
X222165787Y-45833333D02*
X222213406Y-45928571D01*
X222213406Y-45928571D02*
X222213406Y-46119047D01*
X222213406Y-46119047D02*
X222261025Y-46214285D01*
X222261025Y-46214285D02*
X222308644Y-46261904D01*
X222308644Y-46261904D02*
X222403882Y-46309523D01*
X222403882Y-46309523D02*
X222594358Y-46309523D01*
X222594358Y-46309523D02*
X222689596Y-46261904D01*
X222689596Y-46261904D02*
X222737216Y-46214285D01*
X222737216Y-46214285D02*
X222784835Y-46119047D01*
X222784835Y-46119047D02*
X222784835Y-45928571D01*
X222784835Y-45928571D02*
X222737216Y-45833333D01*
X222737216Y-45833333D02*
X222689596Y-45785714D01*
X222689596Y-45785714D02*
X222594358Y-45738095D01*
X222594358Y-45738095D02*
X222403882Y-45738095D01*
X222403882Y-45738095D02*
X222308644Y-45785714D01*
X222308644Y-45785714D02*
X222261025Y-45833333D01*
X222261025Y-45833333D02*
X222213406Y-45928571D01*
%TO.C,D27*%
X213895947Y-48214285D02*
X212895947Y-48214285D01*
X212895947Y-48214285D02*
X212895947Y-47976190D01*
X212895947Y-47976190D02*
X212943566Y-47833333D01*
X212943566Y-47833333D02*
X213038804Y-47738095D01*
X213038804Y-47738095D02*
X213134042Y-47690476D01*
X213134042Y-47690476D02*
X213324518Y-47642857D01*
X213324518Y-47642857D02*
X213467375Y-47642857D01*
X213467375Y-47642857D02*
X213657851Y-47690476D01*
X213657851Y-47690476D02*
X213753089Y-47738095D01*
X213753089Y-47738095D02*
X213848328Y-47833333D01*
X213848328Y-47833333D02*
X213895947Y-47976190D01*
X213895947Y-47976190D02*
X213895947Y-48214285D01*
X212991185Y-47261904D02*
X212943566Y-47214285D01*
X212943566Y-47214285D02*
X212895947Y-47119047D01*
X212895947Y-47119047D02*
X212895947Y-46880952D01*
X212895947Y-46880952D02*
X212943566Y-46785714D01*
X212943566Y-46785714D02*
X212991185Y-46738095D01*
X212991185Y-46738095D02*
X213086423Y-46690476D01*
X213086423Y-46690476D02*
X213181661Y-46690476D01*
X213181661Y-46690476D02*
X213324518Y-46738095D01*
X213324518Y-46738095D02*
X213895947Y-47309523D01*
X213895947Y-47309523D02*
X213895947Y-46690476D01*
X212895947Y-46357142D02*
X212895947Y-45690476D01*
X212895947Y-45690476D02*
X213895947Y-46119047D01*
%TO.C,D26*%
X205007059Y-48214285D02*
X204007059Y-48214285D01*
X204007059Y-48214285D02*
X204007059Y-47976190D01*
X204007059Y-47976190D02*
X204054678Y-47833333D01*
X204054678Y-47833333D02*
X204149916Y-47738095D01*
X204149916Y-47738095D02*
X204245154Y-47690476D01*
X204245154Y-47690476D02*
X204435630Y-47642857D01*
X204435630Y-47642857D02*
X204578487Y-47642857D01*
X204578487Y-47642857D02*
X204768963Y-47690476D01*
X204768963Y-47690476D02*
X204864201Y-47738095D01*
X204864201Y-47738095D02*
X204959440Y-47833333D01*
X204959440Y-47833333D02*
X205007059Y-47976190D01*
X205007059Y-47976190D02*
X205007059Y-48214285D01*
X204102297Y-47261904D02*
X204054678Y-47214285D01*
X204054678Y-47214285D02*
X204007059Y-47119047D01*
X204007059Y-47119047D02*
X204007059Y-46880952D01*
X204007059Y-46880952D02*
X204054678Y-46785714D01*
X204054678Y-46785714D02*
X204102297Y-46738095D01*
X204102297Y-46738095D02*
X204197535Y-46690476D01*
X204197535Y-46690476D02*
X204292773Y-46690476D01*
X204292773Y-46690476D02*
X204435630Y-46738095D01*
X204435630Y-46738095D02*
X205007059Y-47309523D01*
X205007059Y-47309523D02*
X205007059Y-46690476D01*
X204007059Y-45833333D02*
X204007059Y-46023809D01*
X204007059Y-46023809D02*
X204054678Y-46119047D01*
X204054678Y-46119047D02*
X204102297Y-46166666D01*
X204102297Y-46166666D02*
X204245154Y-46261904D01*
X204245154Y-46261904D02*
X204435630Y-46309523D01*
X204435630Y-46309523D02*
X204816582Y-46309523D01*
X204816582Y-46309523D02*
X204911820Y-46261904D01*
X204911820Y-46261904D02*
X204959440Y-46214285D01*
X204959440Y-46214285D02*
X205007059Y-46119047D01*
X205007059Y-46119047D02*
X205007059Y-45928571D01*
X205007059Y-45928571D02*
X204959440Y-45833333D01*
X204959440Y-45833333D02*
X204911820Y-45785714D01*
X204911820Y-45785714D02*
X204816582Y-45738095D01*
X204816582Y-45738095D02*
X204578487Y-45738095D01*
X204578487Y-45738095D02*
X204483249Y-45785714D01*
X204483249Y-45785714D02*
X204435630Y-45833333D01*
X204435630Y-45833333D02*
X204388011Y-45928571D01*
X204388011Y-45928571D02*
X204388011Y-46119047D01*
X204388011Y-46119047D02*
X204435630Y-46214285D01*
X204435630Y-46214285D02*
X204483249Y-46261904D01*
X204483249Y-46261904D02*
X204578487Y-46309523D01*
%TO.C,D25*%
X196118171Y-48214285D02*
X195118171Y-48214285D01*
X195118171Y-48214285D02*
X195118171Y-47976190D01*
X195118171Y-47976190D02*
X195165790Y-47833333D01*
X195165790Y-47833333D02*
X195261028Y-47738095D01*
X195261028Y-47738095D02*
X195356266Y-47690476D01*
X195356266Y-47690476D02*
X195546742Y-47642857D01*
X195546742Y-47642857D02*
X195689599Y-47642857D01*
X195689599Y-47642857D02*
X195880075Y-47690476D01*
X195880075Y-47690476D02*
X195975313Y-47738095D01*
X195975313Y-47738095D02*
X196070552Y-47833333D01*
X196070552Y-47833333D02*
X196118171Y-47976190D01*
X196118171Y-47976190D02*
X196118171Y-48214285D01*
X195213409Y-47261904D02*
X195165790Y-47214285D01*
X195165790Y-47214285D02*
X195118171Y-47119047D01*
X195118171Y-47119047D02*
X195118171Y-46880952D01*
X195118171Y-46880952D02*
X195165790Y-46785714D01*
X195165790Y-46785714D02*
X195213409Y-46738095D01*
X195213409Y-46738095D02*
X195308647Y-46690476D01*
X195308647Y-46690476D02*
X195403885Y-46690476D01*
X195403885Y-46690476D02*
X195546742Y-46738095D01*
X195546742Y-46738095D02*
X196118171Y-47309523D01*
X196118171Y-47309523D02*
X196118171Y-46690476D01*
X195118171Y-45785714D02*
X195118171Y-46261904D01*
X195118171Y-46261904D02*
X195594361Y-46309523D01*
X195594361Y-46309523D02*
X195546742Y-46261904D01*
X195546742Y-46261904D02*
X195499123Y-46166666D01*
X195499123Y-46166666D02*
X195499123Y-45928571D01*
X195499123Y-45928571D02*
X195546742Y-45833333D01*
X195546742Y-45833333D02*
X195594361Y-45785714D01*
X195594361Y-45785714D02*
X195689599Y-45738095D01*
X195689599Y-45738095D02*
X195927694Y-45738095D01*
X195927694Y-45738095D02*
X196022932Y-45785714D01*
X196022932Y-45785714D02*
X196070552Y-45833333D01*
X196070552Y-45833333D02*
X196118171Y-45928571D01*
X196118171Y-45928571D02*
X196118171Y-46166666D01*
X196118171Y-46166666D02*
X196070552Y-46261904D01*
X196070552Y-46261904D02*
X196022932Y-46309523D01*
%TO.C,D24*%
X187229283Y-48214285D02*
X186229283Y-48214285D01*
X186229283Y-48214285D02*
X186229283Y-47976190D01*
X186229283Y-47976190D02*
X186276902Y-47833333D01*
X186276902Y-47833333D02*
X186372140Y-47738095D01*
X186372140Y-47738095D02*
X186467378Y-47690476D01*
X186467378Y-47690476D02*
X186657854Y-47642857D01*
X186657854Y-47642857D02*
X186800711Y-47642857D01*
X186800711Y-47642857D02*
X186991187Y-47690476D01*
X186991187Y-47690476D02*
X187086425Y-47738095D01*
X187086425Y-47738095D02*
X187181664Y-47833333D01*
X187181664Y-47833333D02*
X187229283Y-47976190D01*
X187229283Y-47976190D02*
X187229283Y-48214285D01*
X186324521Y-47261904D02*
X186276902Y-47214285D01*
X186276902Y-47214285D02*
X186229283Y-47119047D01*
X186229283Y-47119047D02*
X186229283Y-46880952D01*
X186229283Y-46880952D02*
X186276902Y-46785714D01*
X186276902Y-46785714D02*
X186324521Y-46738095D01*
X186324521Y-46738095D02*
X186419759Y-46690476D01*
X186419759Y-46690476D02*
X186514997Y-46690476D01*
X186514997Y-46690476D02*
X186657854Y-46738095D01*
X186657854Y-46738095D02*
X187229283Y-47309523D01*
X187229283Y-47309523D02*
X187229283Y-46690476D01*
X186562616Y-45833333D02*
X187229283Y-45833333D01*
X186181664Y-46071428D02*
X186895949Y-46309523D01*
X186895949Y-46309523D02*
X186895949Y-45690476D01*
%TO.C,D23*%
X178340395Y-48214285D02*
X177340395Y-48214285D01*
X177340395Y-48214285D02*
X177340395Y-47976190D01*
X177340395Y-47976190D02*
X177388014Y-47833333D01*
X177388014Y-47833333D02*
X177483252Y-47738095D01*
X177483252Y-47738095D02*
X177578490Y-47690476D01*
X177578490Y-47690476D02*
X177768966Y-47642857D01*
X177768966Y-47642857D02*
X177911823Y-47642857D01*
X177911823Y-47642857D02*
X178102299Y-47690476D01*
X178102299Y-47690476D02*
X178197537Y-47738095D01*
X178197537Y-47738095D02*
X178292776Y-47833333D01*
X178292776Y-47833333D02*
X178340395Y-47976190D01*
X178340395Y-47976190D02*
X178340395Y-48214285D01*
X177435633Y-47261904D02*
X177388014Y-47214285D01*
X177388014Y-47214285D02*
X177340395Y-47119047D01*
X177340395Y-47119047D02*
X177340395Y-46880952D01*
X177340395Y-46880952D02*
X177388014Y-46785714D01*
X177388014Y-46785714D02*
X177435633Y-46738095D01*
X177435633Y-46738095D02*
X177530871Y-46690476D01*
X177530871Y-46690476D02*
X177626109Y-46690476D01*
X177626109Y-46690476D02*
X177768966Y-46738095D01*
X177768966Y-46738095D02*
X178340395Y-47309523D01*
X178340395Y-47309523D02*
X178340395Y-46690476D01*
X177340395Y-46357142D02*
X177340395Y-45738095D01*
X177340395Y-45738095D02*
X177721347Y-46071428D01*
X177721347Y-46071428D02*
X177721347Y-45928571D01*
X177721347Y-45928571D02*
X177768966Y-45833333D01*
X177768966Y-45833333D02*
X177816585Y-45785714D01*
X177816585Y-45785714D02*
X177911823Y-45738095D01*
X177911823Y-45738095D02*
X178149918Y-45738095D01*
X178149918Y-45738095D02*
X178245156Y-45785714D01*
X178245156Y-45785714D02*
X178292776Y-45833333D01*
X178292776Y-45833333D02*
X178340395Y-45928571D01*
X178340395Y-45928571D02*
X178340395Y-46214285D01*
X178340395Y-46214285D02*
X178292776Y-46309523D01*
X178292776Y-46309523D02*
X178245156Y-46357142D01*
%TO.C,D22*%
X169451507Y-48214285D02*
X168451507Y-48214285D01*
X168451507Y-48214285D02*
X168451507Y-47976190D01*
X168451507Y-47976190D02*
X168499126Y-47833333D01*
X168499126Y-47833333D02*
X168594364Y-47738095D01*
X168594364Y-47738095D02*
X168689602Y-47690476D01*
X168689602Y-47690476D02*
X168880078Y-47642857D01*
X168880078Y-47642857D02*
X169022935Y-47642857D01*
X169022935Y-47642857D02*
X169213411Y-47690476D01*
X169213411Y-47690476D02*
X169308649Y-47738095D01*
X169308649Y-47738095D02*
X169403888Y-47833333D01*
X169403888Y-47833333D02*
X169451507Y-47976190D01*
X169451507Y-47976190D02*
X169451507Y-48214285D01*
X168546745Y-47261904D02*
X168499126Y-47214285D01*
X168499126Y-47214285D02*
X168451507Y-47119047D01*
X168451507Y-47119047D02*
X168451507Y-46880952D01*
X168451507Y-46880952D02*
X168499126Y-46785714D01*
X168499126Y-46785714D02*
X168546745Y-46738095D01*
X168546745Y-46738095D02*
X168641983Y-46690476D01*
X168641983Y-46690476D02*
X168737221Y-46690476D01*
X168737221Y-46690476D02*
X168880078Y-46738095D01*
X168880078Y-46738095D02*
X169451507Y-47309523D01*
X169451507Y-47309523D02*
X169451507Y-46690476D01*
X168546745Y-46309523D02*
X168499126Y-46261904D01*
X168499126Y-46261904D02*
X168451507Y-46166666D01*
X168451507Y-46166666D02*
X168451507Y-45928571D01*
X168451507Y-45928571D02*
X168499126Y-45833333D01*
X168499126Y-45833333D02*
X168546745Y-45785714D01*
X168546745Y-45785714D02*
X168641983Y-45738095D01*
X168641983Y-45738095D02*
X168737221Y-45738095D01*
X168737221Y-45738095D02*
X168880078Y-45785714D01*
X168880078Y-45785714D02*
X169451507Y-46357142D01*
X169451507Y-46357142D02*
X169451507Y-45738095D01*
%TO.C,D21*%
X160562619Y-48214285D02*
X159562619Y-48214285D01*
X159562619Y-48214285D02*
X159562619Y-47976190D01*
X159562619Y-47976190D02*
X159610238Y-47833333D01*
X159610238Y-47833333D02*
X159705476Y-47738095D01*
X159705476Y-47738095D02*
X159800714Y-47690476D01*
X159800714Y-47690476D02*
X159991190Y-47642857D01*
X159991190Y-47642857D02*
X160134047Y-47642857D01*
X160134047Y-47642857D02*
X160324523Y-47690476D01*
X160324523Y-47690476D02*
X160419761Y-47738095D01*
X160419761Y-47738095D02*
X160515000Y-47833333D01*
X160515000Y-47833333D02*
X160562619Y-47976190D01*
X160562619Y-47976190D02*
X160562619Y-48214285D01*
X159657857Y-47261904D02*
X159610238Y-47214285D01*
X159610238Y-47214285D02*
X159562619Y-47119047D01*
X159562619Y-47119047D02*
X159562619Y-46880952D01*
X159562619Y-46880952D02*
X159610238Y-46785714D01*
X159610238Y-46785714D02*
X159657857Y-46738095D01*
X159657857Y-46738095D02*
X159753095Y-46690476D01*
X159753095Y-46690476D02*
X159848333Y-46690476D01*
X159848333Y-46690476D02*
X159991190Y-46738095D01*
X159991190Y-46738095D02*
X160562619Y-47309523D01*
X160562619Y-47309523D02*
X160562619Y-46690476D01*
X160562619Y-45738095D02*
X160562619Y-46309523D01*
X160562619Y-46023809D02*
X159562619Y-46023809D01*
X159562619Y-46023809D02*
X159705476Y-46119047D01*
X159705476Y-46119047D02*
X159800714Y-46214285D01*
X159800714Y-46214285D02*
X159848333Y-46309523D01*
%TO.C,D20*%
X240562619Y-87714285D02*
X239562619Y-87714285D01*
X239562619Y-87714285D02*
X239562619Y-87476190D01*
X239562619Y-87476190D02*
X239610238Y-87333333D01*
X239610238Y-87333333D02*
X239705476Y-87238095D01*
X239705476Y-87238095D02*
X239800714Y-87190476D01*
X239800714Y-87190476D02*
X239991190Y-87142857D01*
X239991190Y-87142857D02*
X240134047Y-87142857D01*
X240134047Y-87142857D02*
X240324523Y-87190476D01*
X240324523Y-87190476D02*
X240419761Y-87238095D01*
X240419761Y-87238095D02*
X240515000Y-87333333D01*
X240515000Y-87333333D02*
X240562619Y-87476190D01*
X240562619Y-87476190D02*
X240562619Y-87714285D01*
X239657857Y-86761904D02*
X239610238Y-86714285D01*
X239610238Y-86714285D02*
X239562619Y-86619047D01*
X239562619Y-86619047D02*
X239562619Y-86380952D01*
X239562619Y-86380952D02*
X239610238Y-86285714D01*
X239610238Y-86285714D02*
X239657857Y-86238095D01*
X239657857Y-86238095D02*
X239753095Y-86190476D01*
X239753095Y-86190476D02*
X239848333Y-86190476D01*
X239848333Y-86190476D02*
X239991190Y-86238095D01*
X239991190Y-86238095D02*
X240562619Y-86809523D01*
X240562619Y-86809523D02*
X240562619Y-86190476D01*
X239562619Y-85571428D02*
X239562619Y-85476190D01*
X239562619Y-85476190D02*
X239610238Y-85380952D01*
X239610238Y-85380952D02*
X239657857Y-85333333D01*
X239657857Y-85333333D02*
X239753095Y-85285714D01*
X239753095Y-85285714D02*
X239943571Y-85238095D01*
X239943571Y-85238095D02*
X240181666Y-85238095D01*
X240181666Y-85238095D02*
X240372142Y-85285714D01*
X240372142Y-85285714D02*
X240467380Y-85333333D01*
X240467380Y-85333333D02*
X240515000Y-85380952D01*
X240515000Y-85380952D02*
X240562619Y-85476190D01*
X240562619Y-85476190D02*
X240562619Y-85571428D01*
X240562619Y-85571428D02*
X240515000Y-85666666D01*
X240515000Y-85666666D02*
X240467380Y-85714285D01*
X240467380Y-85714285D02*
X240372142Y-85761904D01*
X240372142Y-85761904D02*
X240181666Y-85809523D01*
X240181666Y-85809523D02*
X239943571Y-85809523D01*
X239943571Y-85809523D02*
X239753095Y-85761904D01*
X239753095Y-85761904D02*
X239657857Y-85714285D01*
X239657857Y-85714285D02*
X239610238Y-85666666D01*
X239610238Y-85666666D02*
X239562619Y-85571428D01*
%TO.C,D19*%
X231700395Y-87714285D02*
X230700395Y-87714285D01*
X230700395Y-87714285D02*
X230700395Y-87476190D01*
X230700395Y-87476190D02*
X230748014Y-87333333D01*
X230748014Y-87333333D02*
X230843252Y-87238095D01*
X230843252Y-87238095D02*
X230938490Y-87190476D01*
X230938490Y-87190476D02*
X231128966Y-87142857D01*
X231128966Y-87142857D02*
X231271823Y-87142857D01*
X231271823Y-87142857D02*
X231462299Y-87190476D01*
X231462299Y-87190476D02*
X231557537Y-87238095D01*
X231557537Y-87238095D02*
X231652776Y-87333333D01*
X231652776Y-87333333D02*
X231700395Y-87476190D01*
X231700395Y-87476190D02*
X231700395Y-87714285D01*
X231700395Y-86190476D02*
X231700395Y-86761904D01*
X231700395Y-86476190D02*
X230700395Y-86476190D01*
X230700395Y-86476190D02*
X230843252Y-86571428D01*
X230843252Y-86571428D02*
X230938490Y-86666666D01*
X230938490Y-86666666D02*
X230986109Y-86761904D01*
X231700395Y-85714285D02*
X231700395Y-85523809D01*
X231700395Y-85523809D02*
X231652776Y-85428571D01*
X231652776Y-85428571D02*
X231605156Y-85380952D01*
X231605156Y-85380952D02*
X231462299Y-85285714D01*
X231462299Y-85285714D02*
X231271823Y-85238095D01*
X231271823Y-85238095D02*
X230890871Y-85238095D01*
X230890871Y-85238095D02*
X230795633Y-85285714D01*
X230795633Y-85285714D02*
X230748014Y-85333333D01*
X230748014Y-85333333D02*
X230700395Y-85428571D01*
X230700395Y-85428571D02*
X230700395Y-85619047D01*
X230700395Y-85619047D02*
X230748014Y-85714285D01*
X230748014Y-85714285D02*
X230795633Y-85761904D01*
X230795633Y-85761904D02*
X230890871Y-85809523D01*
X230890871Y-85809523D02*
X231128966Y-85809523D01*
X231128966Y-85809523D02*
X231224204Y-85761904D01*
X231224204Y-85761904D02*
X231271823Y-85714285D01*
X231271823Y-85714285D02*
X231319442Y-85619047D01*
X231319442Y-85619047D02*
X231319442Y-85428571D01*
X231319442Y-85428571D02*
X231271823Y-85333333D01*
X231271823Y-85333333D02*
X231224204Y-85285714D01*
X231224204Y-85285714D02*
X231128966Y-85238095D01*
%TO.C,D18*%
X222838173Y-87714285D02*
X221838173Y-87714285D01*
X221838173Y-87714285D02*
X221838173Y-87476190D01*
X221838173Y-87476190D02*
X221885792Y-87333333D01*
X221885792Y-87333333D02*
X221981030Y-87238095D01*
X221981030Y-87238095D02*
X222076268Y-87190476D01*
X222076268Y-87190476D02*
X222266744Y-87142857D01*
X222266744Y-87142857D02*
X222409601Y-87142857D01*
X222409601Y-87142857D02*
X222600077Y-87190476D01*
X222600077Y-87190476D02*
X222695315Y-87238095D01*
X222695315Y-87238095D02*
X222790554Y-87333333D01*
X222790554Y-87333333D02*
X222838173Y-87476190D01*
X222838173Y-87476190D02*
X222838173Y-87714285D01*
X222838173Y-86190476D02*
X222838173Y-86761904D01*
X222838173Y-86476190D02*
X221838173Y-86476190D01*
X221838173Y-86476190D02*
X221981030Y-86571428D01*
X221981030Y-86571428D02*
X222076268Y-86666666D01*
X222076268Y-86666666D02*
X222123887Y-86761904D01*
X222266744Y-85619047D02*
X222219125Y-85714285D01*
X222219125Y-85714285D02*
X222171506Y-85761904D01*
X222171506Y-85761904D02*
X222076268Y-85809523D01*
X222076268Y-85809523D02*
X222028649Y-85809523D01*
X222028649Y-85809523D02*
X221933411Y-85761904D01*
X221933411Y-85761904D02*
X221885792Y-85714285D01*
X221885792Y-85714285D02*
X221838173Y-85619047D01*
X221838173Y-85619047D02*
X221838173Y-85428571D01*
X221838173Y-85428571D02*
X221885792Y-85333333D01*
X221885792Y-85333333D02*
X221933411Y-85285714D01*
X221933411Y-85285714D02*
X222028649Y-85238095D01*
X222028649Y-85238095D02*
X222076268Y-85238095D01*
X222076268Y-85238095D02*
X222171506Y-85285714D01*
X222171506Y-85285714D02*
X222219125Y-85333333D01*
X222219125Y-85333333D02*
X222266744Y-85428571D01*
X222266744Y-85428571D02*
X222266744Y-85619047D01*
X222266744Y-85619047D02*
X222314363Y-85714285D01*
X222314363Y-85714285D02*
X222361982Y-85761904D01*
X222361982Y-85761904D02*
X222457220Y-85809523D01*
X222457220Y-85809523D02*
X222647696Y-85809523D01*
X222647696Y-85809523D02*
X222742934Y-85761904D01*
X222742934Y-85761904D02*
X222790554Y-85714285D01*
X222790554Y-85714285D02*
X222838173Y-85619047D01*
X222838173Y-85619047D02*
X222838173Y-85428571D01*
X222838173Y-85428571D02*
X222790554Y-85333333D01*
X222790554Y-85333333D02*
X222742934Y-85285714D01*
X222742934Y-85285714D02*
X222647696Y-85238095D01*
X222647696Y-85238095D02*
X222457220Y-85238095D01*
X222457220Y-85238095D02*
X222361982Y-85285714D01*
X222361982Y-85285714D02*
X222314363Y-85333333D01*
X222314363Y-85333333D02*
X222266744Y-85428571D01*
%TO.C,D17*%
X213975951Y-87714285D02*
X212975951Y-87714285D01*
X212975951Y-87714285D02*
X212975951Y-87476190D01*
X212975951Y-87476190D02*
X213023570Y-87333333D01*
X213023570Y-87333333D02*
X213118808Y-87238095D01*
X213118808Y-87238095D02*
X213214046Y-87190476D01*
X213214046Y-87190476D02*
X213404522Y-87142857D01*
X213404522Y-87142857D02*
X213547379Y-87142857D01*
X213547379Y-87142857D02*
X213737855Y-87190476D01*
X213737855Y-87190476D02*
X213833093Y-87238095D01*
X213833093Y-87238095D02*
X213928332Y-87333333D01*
X213928332Y-87333333D02*
X213975951Y-87476190D01*
X213975951Y-87476190D02*
X213975951Y-87714285D01*
X213975951Y-86190476D02*
X213975951Y-86761904D01*
X213975951Y-86476190D02*
X212975951Y-86476190D01*
X212975951Y-86476190D02*
X213118808Y-86571428D01*
X213118808Y-86571428D02*
X213214046Y-86666666D01*
X213214046Y-86666666D02*
X213261665Y-86761904D01*
X212975951Y-85857142D02*
X212975951Y-85190476D01*
X212975951Y-85190476D02*
X213975951Y-85619047D01*
%TO.C,D16*%
X205113729Y-87714285D02*
X204113729Y-87714285D01*
X204113729Y-87714285D02*
X204113729Y-87476190D01*
X204113729Y-87476190D02*
X204161348Y-87333333D01*
X204161348Y-87333333D02*
X204256586Y-87238095D01*
X204256586Y-87238095D02*
X204351824Y-87190476D01*
X204351824Y-87190476D02*
X204542300Y-87142857D01*
X204542300Y-87142857D02*
X204685157Y-87142857D01*
X204685157Y-87142857D02*
X204875633Y-87190476D01*
X204875633Y-87190476D02*
X204970871Y-87238095D01*
X204970871Y-87238095D02*
X205066110Y-87333333D01*
X205066110Y-87333333D02*
X205113729Y-87476190D01*
X205113729Y-87476190D02*
X205113729Y-87714285D01*
X205113729Y-86190476D02*
X205113729Y-86761904D01*
X205113729Y-86476190D02*
X204113729Y-86476190D01*
X204113729Y-86476190D02*
X204256586Y-86571428D01*
X204256586Y-86571428D02*
X204351824Y-86666666D01*
X204351824Y-86666666D02*
X204399443Y-86761904D01*
X204113729Y-85333333D02*
X204113729Y-85523809D01*
X204113729Y-85523809D02*
X204161348Y-85619047D01*
X204161348Y-85619047D02*
X204208967Y-85666666D01*
X204208967Y-85666666D02*
X204351824Y-85761904D01*
X204351824Y-85761904D02*
X204542300Y-85809523D01*
X204542300Y-85809523D02*
X204923252Y-85809523D01*
X204923252Y-85809523D02*
X205018490Y-85761904D01*
X205018490Y-85761904D02*
X205066110Y-85714285D01*
X205066110Y-85714285D02*
X205113729Y-85619047D01*
X205113729Y-85619047D02*
X205113729Y-85428571D01*
X205113729Y-85428571D02*
X205066110Y-85333333D01*
X205066110Y-85333333D02*
X205018490Y-85285714D01*
X205018490Y-85285714D02*
X204923252Y-85238095D01*
X204923252Y-85238095D02*
X204685157Y-85238095D01*
X204685157Y-85238095D02*
X204589919Y-85285714D01*
X204589919Y-85285714D02*
X204542300Y-85333333D01*
X204542300Y-85333333D02*
X204494681Y-85428571D01*
X204494681Y-85428571D02*
X204494681Y-85619047D01*
X204494681Y-85619047D02*
X204542300Y-85714285D01*
X204542300Y-85714285D02*
X204589919Y-85761904D01*
X204589919Y-85761904D02*
X204685157Y-85809523D01*
%TO.C,D15*%
X196251507Y-87714285D02*
X195251507Y-87714285D01*
X195251507Y-87714285D02*
X195251507Y-87476190D01*
X195251507Y-87476190D02*
X195299126Y-87333333D01*
X195299126Y-87333333D02*
X195394364Y-87238095D01*
X195394364Y-87238095D02*
X195489602Y-87190476D01*
X195489602Y-87190476D02*
X195680078Y-87142857D01*
X195680078Y-87142857D02*
X195822935Y-87142857D01*
X195822935Y-87142857D02*
X196013411Y-87190476D01*
X196013411Y-87190476D02*
X196108649Y-87238095D01*
X196108649Y-87238095D02*
X196203888Y-87333333D01*
X196203888Y-87333333D02*
X196251507Y-87476190D01*
X196251507Y-87476190D02*
X196251507Y-87714285D01*
X196251507Y-86190476D02*
X196251507Y-86761904D01*
X196251507Y-86476190D02*
X195251507Y-86476190D01*
X195251507Y-86476190D02*
X195394364Y-86571428D01*
X195394364Y-86571428D02*
X195489602Y-86666666D01*
X195489602Y-86666666D02*
X195537221Y-86761904D01*
X195251507Y-85285714D02*
X195251507Y-85761904D01*
X195251507Y-85761904D02*
X195727697Y-85809523D01*
X195727697Y-85809523D02*
X195680078Y-85761904D01*
X195680078Y-85761904D02*
X195632459Y-85666666D01*
X195632459Y-85666666D02*
X195632459Y-85428571D01*
X195632459Y-85428571D02*
X195680078Y-85333333D01*
X195680078Y-85333333D02*
X195727697Y-85285714D01*
X195727697Y-85285714D02*
X195822935Y-85238095D01*
X195822935Y-85238095D02*
X196061030Y-85238095D01*
X196061030Y-85238095D02*
X196156268Y-85285714D01*
X196156268Y-85285714D02*
X196203888Y-85333333D01*
X196203888Y-85333333D02*
X196251507Y-85428571D01*
X196251507Y-85428571D02*
X196251507Y-85666666D01*
X196251507Y-85666666D02*
X196203888Y-85761904D01*
X196203888Y-85761904D02*
X196156268Y-85809523D01*
%TO.C,D14*%
X187389285Y-87714285D02*
X186389285Y-87714285D01*
X186389285Y-87714285D02*
X186389285Y-87476190D01*
X186389285Y-87476190D02*
X186436904Y-87333333D01*
X186436904Y-87333333D02*
X186532142Y-87238095D01*
X186532142Y-87238095D02*
X186627380Y-87190476D01*
X186627380Y-87190476D02*
X186817856Y-87142857D01*
X186817856Y-87142857D02*
X186960713Y-87142857D01*
X186960713Y-87142857D02*
X187151189Y-87190476D01*
X187151189Y-87190476D02*
X187246427Y-87238095D01*
X187246427Y-87238095D02*
X187341666Y-87333333D01*
X187341666Y-87333333D02*
X187389285Y-87476190D01*
X187389285Y-87476190D02*
X187389285Y-87714285D01*
X187389285Y-86190476D02*
X187389285Y-86761904D01*
X187389285Y-86476190D02*
X186389285Y-86476190D01*
X186389285Y-86476190D02*
X186532142Y-86571428D01*
X186532142Y-86571428D02*
X186627380Y-86666666D01*
X186627380Y-86666666D02*
X186674999Y-86761904D01*
X186722618Y-85333333D02*
X187389285Y-85333333D01*
X186341666Y-85571428D02*
X187055951Y-85809523D01*
X187055951Y-85809523D02*
X187055951Y-85190476D01*
%TO.C,D13*%
X178527063Y-87714285D02*
X177527063Y-87714285D01*
X177527063Y-87714285D02*
X177527063Y-87476190D01*
X177527063Y-87476190D02*
X177574682Y-87333333D01*
X177574682Y-87333333D02*
X177669920Y-87238095D01*
X177669920Y-87238095D02*
X177765158Y-87190476D01*
X177765158Y-87190476D02*
X177955634Y-87142857D01*
X177955634Y-87142857D02*
X178098491Y-87142857D01*
X178098491Y-87142857D02*
X178288967Y-87190476D01*
X178288967Y-87190476D02*
X178384205Y-87238095D01*
X178384205Y-87238095D02*
X178479444Y-87333333D01*
X178479444Y-87333333D02*
X178527063Y-87476190D01*
X178527063Y-87476190D02*
X178527063Y-87714285D01*
X178527063Y-86190476D02*
X178527063Y-86761904D01*
X178527063Y-86476190D02*
X177527063Y-86476190D01*
X177527063Y-86476190D02*
X177669920Y-86571428D01*
X177669920Y-86571428D02*
X177765158Y-86666666D01*
X177765158Y-86666666D02*
X177812777Y-86761904D01*
X177527063Y-85857142D02*
X177527063Y-85238095D01*
X177527063Y-85238095D02*
X177908015Y-85571428D01*
X177908015Y-85571428D02*
X177908015Y-85428571D01*
X177908015Y-85428571D02*
X177955634Y-85333333D01*
X177955634Y-85333333D02*
X178003253Y-85285714D01*
X178003253Y-85285714D02*
X178098491Y-85238095D01*
X178098491Y-85238095D02*
X178336586Y-85238095D01*
X178336586Y-85238095D02*
X178431824Y-85285714D01*
X178431824Y-85285714D02*
X178479444Y-85333333D01*
X178479444Y-85333333D02*
X178527063Y-85428571D01*
X178527063Y-85428571D02*
X178527063Y-85714285D01*
X178527063Y-85714285D02*
X178479444Y-85809523D01*
X178479444Y-85809523D02*
X178431824Y-85857142D01*
%TO.C,D12*%
X169664841Y-87714285D02*
X168664841Y-87714285D01*
X168664841Y-87714285D02*
X168664841Y-87476190D01*
X168664841Y-87476190D02*
X168712460Y-87333333D01*
X168712460Y-87333333D02*
X168807698Y-87238095D01*
X168807698Y-87238095D02*
X168902936Y-87190476D01*
X168902936Y-87190476D02*
X169093412Y-87142857D01*
X169093412Y-87142857D02*
X169236269Y-87142857D01*
X169236269Y-87142857D02*
X169426745Y-87190476D01*
X169426745Y-87190476D02*
X169521983Y-87238095D01*
X169521983Y-87238095D02*
X169617222Y-87333333D01*
X169617222Y-87333333D02*
X169664841Y-87476190D01*
X169664841Y-87476190D02*
X169664841Y-87714285D01*
X169664841Y-86190476D02*
X169664841Y-86761904D01*
X169664841Y-86476190D02*
X168664841Y-86476190D01*
X168664841Y-86476190D02*
X168807698Y-86571428D01*
X168807698Y-86571428D02*
X168902936Y-86666666D01*
X168902936Y-86666666D02*
X168950555Y-86761904D01*
X168760079Y-85809523D02*
X168712460Y-85761904D01*
X168712460Y-85761904D02*
X168664841Y-85666666D01*
X168664841Y-85666666D02*
X168664841Y-85428571D01*
X168664841Y-85428571D02*
X168712460Y-85333333D01*
X168712460Y-85333333D02*
X168760079Y-85285714D01*
X168760079Y-85285714D02*
X168855317Y-85238095D01*
X168855317Y-85238095D02*
X168950555Y-85238095D01*
X168950555Y-85238095D02*
X169093412Y-85285714D01*
X169093412Y-85285714D02*
X169664841Y-85857142D01*
X169664841Y-85857142D02*
X169664841Y-85238095D01*
%TO.C,D11*%
X160802619Y-87714285D02*
X159802619Y-87714285D01*
X159802619Y-87714285D02*
X159802619Y-87476190D01*
X159802619Y-87476190D02*
X159850238Y-87333333D01*
X159850238Y-87333333D02*
X159945476Y-87238095D01*
X159945476Y-87238095D02*
X160040714Y-87190476D01*
X160040714Y-87190476D02*
X160231190Y-87142857D01*
X160231190Y-87142857D02*
X160374047Y-87142857D01*
X160374047Y-87142857D02*
X160564523Y-87190476D01*
X160564523Y-87190476D02*
X160659761Y-87238095D01*
X160659761Y-87238095D02*
X160755000Y-87333333D01*
X160755000Y-87333333D02*
X160802619Y-87476190D01*
X160802619Y-87476190D02*
X160802619Y-87714285D01*
X160802619Y-86190476D02*
X160802619Y-86761904D01*
X160802619Y-86476190D02*
X159802619Y-86476190D01*
X159802619Y-86476190D02*
X159945476Y-86571428D01*
X159945476Y-86571428D02*
X160040714Y-86666666D01*
X160040714Y-86666666D02*
X160088333Y-86761904D01*
X160802619Y-85238095D02*
X160802619Y-85809523D01*
X160802619Y-85523809D02*
X159802619Y-85523809D01*
X159802619Y-85523809D02*
X159945476Y-85619047D01*
X159945476Y-85619047D02*
X160040714Y-85714285D01*
X160040714Y-85714285D02*
X160088333Y-85809523D01*
%TO.C,D10*%
X240562619Y-127214285D02*
X239562619Y-127214285D01*
X239562619Y-127214285D02*
X239562619Y-126976190D01*
X239562619Y-126976190D02*
X239610238Y-126833333D01*
X239610238Y-126833333D02*
X239705476Y-126738095D01*
X239705476Y-126738095D02*
X239800714Y-126690476D01*
X239800714Y-126690476D02*
X239991190Y-126642857D01*
X239991190Y-126642857D02*
X240134047Y-126642857D01*
X240134047Y-126642857D02*
X240324523Y-126690476D01*
X240324523Y-126690476D02*
X240419761Y-126738095D01*
X240419761Y-126738095D02*
X240515000Y-126833333D01*
X240515000Y-126833333D02*
X240562619Y-126976190D01*
X240562619Y-126976190D02*
X240562619Y-127214285D01*
X240562619Y-125690476D02*
X240562619Y-126261904D01*
X240562619Y-125976190D02*
X239562619Y-125976190D01*
X239562619Y-125976190D02*
X239705476Y-126071428D01*
X239705476Y-126071428D02*
X239800714Y-126166666D01*
X239800714Y-126166666D02*
X239848333Y-126261904D01*
X239562619Y-125071428D02*
X239562619Y-124976190D01*
X239562619Y-124976190D02*
X239610238Y-124880952D01*
X239610238Y-124880952D02*
X239657857Y-124833333D01*
X239657857Y-124833333D02*
X239753095Y-124785714D01*
X239753095Y-124785714D02*
X239943571Y-124738095D01*
X239943571Y-124738095D02*
X240181666Y-124738095D01*
X240181666Y-124738095D02*
X240372142Y-124785714D01*
X240372142Y-124785714D02*
X240467380Y-124833333D01*
X240467380Y-124833333D02*
X240515000Y-124880952D01*
X240515000Y-124880952D02*
X240562619Y-124976190D01*
X240562619Y-124976190D02*
X240562619Y-125071428D01*
X240562619Y-125071428D02*
X240515000Y-125166666D01*
X240515000Y-125166666D02*
X240467380Y-125214285D01*
X240467380Y-125214285D02*
X240372142Y-125261904D01*
X240372142Y-125261904D02*
X240181666Y-125309523D01*
X240181666Y-125309523D02*
X239943571Y-125309523D01*
X239943571Y-125309523D02*
X239753095Y-125261904D01*
X239753095Y-125261904D02*
X239657857Y-125214285D01*
X239657857Y-125214285D02*
X239610238Y-125166666D01*
X239610238Y-125166666D02*
X239562619Y-125071428D01*
%TO.C,D9*%
X231691507Y-126738094D02*
X230691507Y-126738094D01*
X230691507Y-126738094D02*
X230691507Y-126499999D01*
X230691507Y-126499999D02*
X230739126Y-126357142D01*
X230739126Y-126357142D02*
X230834364Y-126261904D01*
X230834364Y-126261904D02*
X230929602Y-126214285D01*
X230929602Y-126214285D02*
X231120078Y-126166666D01*
X231120078Y-126166666D02*
X231262935Y-126166666D01*
X231262935Y-126166666D02*
X231453411Y-126214285D01*
X231453411Y-126214285D02*
X231548649Y-126261904D01*
X231548649Y-126261904D02*
X231643888Y-126357142D01*
X231643888Y-126357142D02*
X231691507Y-126499999D01*
X231691507Y-126499999D02*
X231691507Y-126738094D01*
X231691507Y-125690475D02*
X231691507Y-125499999D01*
X231691507Y-125499999D02*
X231643888Y-125404761D01*
X231643888Y-125404761D02*
X231596268Y-125357142D01*
X231596268Y-125357142D02*
X231453411Y-125261904D01*
X231453411Y-125261904D02*
X231262935Y-125214285D01*
X231262935Y-125214285D02*
X230881983Y-125214285D01*
X230881983Y-125214285D02*
X230786745Y-125261904D01*
X230786745Y-125261904D02*
X230739126Y-125309523D01*
X230739126Y-125309523D02*
X230691507Y-125404761D01*
X230691507Y-125404761D02*
X230691507Y-125595237D01*
X230691507Y-125595237D02*
X230739126Y-125690475D01*
X230739126Y-125690475D02*
X230786745Y-125738094D01*
X230786745Y-125738094D02*
X230881983Y-125785713D01*
X230881983Y-125785713D02*
X231120078Y-125785713D01*
X231120078Y-125785713D02*
X231215316Y-125738094D01*
X231215316Y-125738094D02*
X231262935Y-125690475D01*
X231262935Y-125690475D02*
X231310554Y-125595237D01*
X231310554Y-125595237D02*
X231310554Y-125404761D01*
X231310554Y-125404761D02*
X231262935Y-125309523D01*
X231262935Y-125309523D02*
X231215316Y-125261904D01*
X231215316Y-125261904D02*
X231120078Y-125214285D01*
%TO.C,D8*%
X222820396Y-126738094D02*
X221820396Y-126738094D01*
X221820396Y-126738094D02*
X221820396Y-126499999D01*
X221820396Y-126499999D02*
X221868015Y-126357142D01*
X221868015Y-126357142D02*
X221963253Y-126261904D01*
X221963253Y-126261904D02*
X222058491Y-126214285D01*
X222058491Y-126214285D02*
X222248967Y-126166666D01*
X222248967Y-126166666D02*
X222391824Y-126166666D01*
X222391824Y-126166666D02*
X222582300Y-126214285D01*
X222582300Y-126214285D02*
X222677538Y-126261904D01*
X222677538Y-126261904D02*
X222772777Y-126357142D01*
X222772777Y-126357142D02*
X222820396Y-126499999D01*
X222820396Y-126499999D02*
X222820396Y-126738094D01*
X222248967Y-125595237D02*
X222201348Y-125690475D01*
X222201348Y-125690475D02*
X222153729Y-125738094D01*
X222153729Y-125738094D02*
X222058491Y-125785713D01*
X222058491Y-125785713D02*
X222010872Y-125785713D01*
X222010872Y-125785713D02*
X221915634Y-125738094D01*
X221915634Y-125738094D02*
X221868015Y-125690475D01*
X221868015Y-125690475D02*
X221820396Y-125595237D01*
X221820396Y-125595237D02*
X221820396Y-125404761D01*
X221820396Y-125404761D02*
X221868015Y-125309523D01*
X221868015Y-125309523D02*
X221915634Y-125261904D01*
X221915634Y-125261904D02*
X222010872Y-125214285D01*
X222010872Y-125214285D02*
X222058491Y-125214285D01*
X222058491Y-125214285D02*
X222153729Y-125261904D01*
X222153729Y-125261904D02*
X222201348Y-125309523D01*
X222201348Y-125309523D02*
X222248967Y-125404761D01*
X222248967Y-125404761D02*
X222248967Y-125595237D01*
X222248967Y-125595237D02*
X222296586Y-125690475D01*
X222296586Y-125690475D02*
X222344205Y-125738094D01*
X222344205Y-125738094D02*
X222439443Y-125785713D01*
X222439443Y-125785713D02*
X222629919Y-125785713D01*
X222629919Y-125785713D02*
X222725157Y-125738094D01*
X222725157Y-125738094D02*
X222772777Y-125690475D01*
X222772777Y-125690475D02*
X222820396Y-125595237D01*
X222820396Y-125595237D02*
X222820396Y-125404761D01*
X222820396Y-125404761D02*
X222772777Y-125309523D01*
X222772777Y-125309523D02*
X222725157Y-125261904D01*
X222725157Y-125261904D02*
X222629919Y-125214285D01*
X222629919Y-125214285D02*
X222439443Y-125214285D01*
X222439443Y-125214285D02*
X222344205Y-125261904D01*
X222344205Y-125261904D02*
X222296586Y-125309523D01*
X222296586Y-125309523D02*
X222248967Y-125404761D01*
%TO.C,D7*%
X213949285Y-126738094D02*
X212949285Y-126738094D01*
X212949285Y-126738094D02*
X212949285Y-126499999D01*
X212949285Y-126499999D02*
X212996904Y-126357142D01*
X212996904Y-126357142D02*
X213092142Y-126261904D01*
X213092142Y-126261904D02*
X213187380Y-126214285D01*
X213187380Y-126214285D02*
X213377856Y-126166666D01*
X213377856Y-126166666D02*
X213520713Y-126166666D01*
X213520713Y-126166666D02*
X213711189Y-126214285D01*
X213711189Y-126214285D02*
X213806427Y-126261904D01*
X213806427Y-126261904D02*
X213901666Y-126357142D01*
X213901666Y-126357142D02*
X213949285Y-126499999D01*
X213949285Y-126499999D02*
X213949285Y-126738094D01*
X212949285Y-125833332D02*
X212949285Y-125166666D01*
X212949285Y-125166666D02*
X213949285Y-125595237D01*
%TO.C,D6*%
X205078174Y-126738094D02*
X204078174Y-126738094D01*
X204078174Y-126738094D02*
X204078174Y-126499999D01*
X204078174Y-126499999D02*
X204125793Y-126357142D01*
X204125793Y-126357142D02*
X204221031Y-126261904D01*
X204221031Y-126261904D02*
X204316269Y-126214285D01*
X204316269Y-126214285D02*
X204506745Y-126166666D01*
X204506745Y-126166666D02*
X204649602Y-126166666D01*
X204649602Y-126166666D02*
X204840078Y-126214285D01*
X204840078Y-126214285D02*
X204935316Y-126261904D01*
X204935316Y-126261904D02*
X205030555Y-126357142D01*
X205030555Y-126357142D02*
X205078174Y-126499999D01*
X205078174Y-126499999D02*
X205078174Y-126738094D01*
X204078174Y-125309523D02*
X204078174Y-125499999D01*
X204078174Y-125499999D02*
X204125793Y-125595237D01*
X204125793Y-125595237D02*
X204173412Y-125642856D01*
X204173412Y-125642856D02*
X204316269Y-125738094D01*
X204316269Y-125738094D02*
X204506745Y-125785713D01*
X204506745Y-125785713D02*
X204887697Y-125785713D01*
X204887697Y-125785713D02*
X204982935Y-125738094D01*
X204982935Y-125738094D02*
X205030555Y-125690475D01*
X205030555Y-125690475D02*
X205078174Y-125595237D01*
X205078174Y-125595237D02*
X205078174Y-125404761D01*
X205078174Y-125404761D02*
X205030555Y-125309523D01*
X205030555Y-125309523D02*
X204982935Y-125261904D01*
X204982935Y-125261904D02*
X204887697Y-125214285D01*
X204887697Y-125214285D02*
X204649602Y-125214285D01*
X204649602Y-125214285D02*
X204554364Y-125261904D01*
X204554364Y-125261904D02*
X204506745Y-125309523D01*
X204506745Y-125309523D02*
X204459126Y-125404761D01*
X204459126Y-125404761D02*
X204459126Y-125595237D01*
X204459126Y-125595237D02*
X204506745Y-125690475D01*
X204506745Y-125690475D02*
X204554364Y-125738094D01*
X204554364Y-125738094D02*
X204649602Y-125785713D01*
%TO.C,D5*%
X196207063Y-126738094D02*
X195207063Y-126738094D01*
X195207063Y-126738094D02*
X195207063Y-126499999D01*
X195207063Y-126499999D02*
X195254682Y-126357142D01*
X195254682Y-126357142D02*
X195349920Y-126261904D01*
X195349920Y-126261904D02*
X195445158Y-126214285D01*
X195445158Y-126214285D02*
X195635634Y-126166666D01*
X195635634Y-126166666D02*
X195778491Y-126166666D01*
X195778491Y-126166666D02*
X195968967Y-126214285D01*
X195968967Y-126214285D02*
X196064205Y-126261904D01*
X196064205Y-126261904D02*
X196159444Y-126357142D01*
X196159444Y-126357142D02*
X196207063Y-126499999D01*
X196207063Y-126499999D02*
X196207063Y-126738094D01*
X195207063Y-125261904D02*
X195207063Y-125738094D01*
X195207063Y-125738094D02*
X195683253Y-125785713D01*
X195683253Y-125785713D02*
X195635634Y-125738094D01*
X195635634Y-125738094D02*
X195588015Y-125642856D01*
X195588015Y-125642856D02*
X195588015Y-125404761D01*
X195588015Y-125404761D02*
X195635634Y-125309523D01*
X195635634Y-125309523D02*
X195683253Y-125261904D01*
X195683253Y-125261904D02*
X195778491Y-125214285D01*
X195778491Y-125214285D02*
X196016586Y-125214285D01*
X196016586Y-125214285D02*
X196111824Y-125261904D01*
X196111824Y-125261904D02*
X196159444Y-125309523D01*
X196159444Y-125309523D02*
X196207063Y-125404761D01*
X196207063Y-125404761D02*
X196207063Y-125642856D01*
X196207063Y-125642856D02*
X196159444Y-125738094D01*
X196159444Y-125738094D02*
X196111824Y-125785713D01*
%TO.C,D4*%
X187335952Y-126738094D02*
X186335952Y-126738094D01*
X186335952Y-126738094D02*
X186335952Y-126499999D01*
X186335952Y-126499999D02*
X186383571Y-126357142D01*
X186383571Y-126357142D02*
X186478809Y-126261904D01*
X186478809Y-126261904D02*
X186574047Y-126214285D01*
X186574047Y-126214285D02*
X186764523Y-126166666D01*
X186764523Y-126166666D02*
X186907380Y-126166666D01*
X186907380Y-126166666D02*
X187097856Y-126214285D01*
X187097856Y-126214285D02*
X187193094Y-126261904D01*
X187193094Y-126261904D02*
X187288333Y-126357142D01*
X187288333Y-126357142D02*
X187335952Y-126499999D01*
X187335952Y-126499999D02*
X187335952Y-126738094D01*
X186669285Y-125309523D02*
X187335952Y-125309523D01*
X186288333Y-125547618D02*
X187002618Y-125785713D01*
X187002618Y-125785713D02*
X187002618Y-125166666D01*
%TO.C,D3*%
X178464841Y-126738094D02*
X177464841Y-126738094D01*
X177464841Y-126738094D02*
X177464841Y-126499999D01*
X177464841Y-126499999D02*
X177512460Y-126357142D01*
X177512460Y-126357142D02*
X177607698Y-126261904D01*
X177607698Y-126261904D02*
X177702936Y-126214285D01*
X177702936Y-126214285D02*
X177893412Y-126166666D01*
X177893412Y-126166666D02*
X178036269Y-126166666D01*
X178036269Y-126166666D02*
X178226745Y-126214285D01*
X178226745Y-126214285D02*
X178321983Y-126261904D01*
X178321983Y-126261904D02*
X178417222Y-126357142D01*
X178417222Y-126357142D02*
X178464841Y-126499999D01*
X178464841Y-126499999D02*
X178464841Y-126738094D01*
X177464841Y-125833332D02*
X177464841Y-125214285D01*
X177464841Y-125214285D02*
X177845793Y-125547618D01*
X177845793Y-125547618D02*
X177845793Y-125404761D01*
X177845793Y-125404761D02*
X177893412Y-125309523D01*
X177893412Y-125309523D02*
X177941031Y-125261904D01*
X177941031Y-125261904D02*
X178036269Y-125214285D01*
X178036269Y-125214285D02*
X178274364Y-125214285D01*
X178274364Y-125214285D02*
X178369602Y-125261904D01*
X178369602Y-125261904D02*
X178417222Y-125309523D01*
X178417222Y-125309523D02*
X178464841Y-125404761D01*
X178464841Y-125404761D02*
X178464841Y-125690475D01*
X178464841Y-125690475D02*
X178417222Y-125785713D01*
X178417222Y-125785713D02*
X178369602Y-125833332D01*
%TO.C,D2*%
X169593730Y-126738094D02*
X168593730Y-126738094D01*
X168593730Y-126738094D02*
X168593730Y-126499999D01*
X168593730Y-126499999D02*
X168641349Y-126357142D01*
X168641349Y-126357142D02*
X168736587Y-126261904D01*
X168736587Y-126261904D02*
X168831825Y-126214285D01*
X168831825Y-126214285D02*
X169022301Y-126166666D01*
X169022301Y-126166666D02*
X169165158Y-126166666D01*
X169165158Y-126166666D02*
X169355634Y-126214285D01*
X169355634Y-126214285D02*
X169450872Y-126261904D01*
X169450872Y-126261904D02*
X169546111Y-126357142D01*
X169546111Y-126357142D02*
X169593730Y-126499999D01*
X169593730Y-126499999D02*
X169593730Y-126738094D01*
X168688968Y-125785713D02*
X168641349Y-125738094D01*
X168641349Y-125738094D02*
X168593730Y-125642856D01*
X168593730Y-125642856D02*
X168593730Y-125404761D01*
X168593730Y-125404761D02*
X168641349Y-125309523D01*
X168641349Y-125309523D02*
X168688968Y-125261904D01*
X168688968Y-125261904D02*
X168784206Y-125214285D01*
X168784206Y-125214285D02*
X168879444Y-125214285D01*
X168879444Y-125214285D02*
X169022301Y-125261904D01*
X169022301Y-125261904D02*
X169593730Y-125833332D01*
X169593730Y-125833332D02*
X169593730Y-125214285D01*
%TO.C,D1*%
X160722619Y-126738094D02*
X159722619Y-126738094D01*
X159722619Y-126738094D02*
X159722619Y-126499999D01*
X159722619Y-126499999D02*
X159770238Y-126357142D01*
X159770238Y-126357142D02*
X159865476Y-126261904D01*
X159865476Y-126261904D02*
X159960714Y-126214285D01*
X159960714Y-126214285D02*
X160151190Y-126166666D01*
X160151190Y-126166666D02*
X160294047Y-126166666D01*
X160294047Y-126166666D02*
X160484523Y-126214285D01*
X160484523Y-126214285D02*
X160579761Y-126261904D01*
X160579761Y-126261904D02*
X160675000Y-126357142D01*
X160675000Y-126357142D02*
X160722619Y-126499999D01*
X160722619Y-126499999D02*
X160722619Y-126738094D01*
X160722619Y-125214285D02*
X160722619Y-125785713D01*
X160722619Y-125499999D02*
X159722619Y-125499999D01*
X159722619Y-125499999D02*
X159865476Y-125595237D01*
X159865476Y-125595237D02*
X159960714Y-125690475D01*
X159960714Y-125690475D02*
X160008333Y-125785713D01*
%TO.C,C8*%
X224910826Y-118939612D02*
X224863207Y-118987232D01*
X224863207Y-118987232D02*
X224720350Y-119034851D01*
X224720350Y-119034851D02*
X224625112Y-119034851D01*
X224625112Y-119034851D02*
X224482255Y-118987232D01*
X224482255Y-118987232D02*
X224387017Y-118891993D01*
X224387017Y-118891993D02*
X224339398Y-118796755D01*
X224339398Y-118796755D02*
X224291779Y-118606279D01*
X224291779Y-118606279D02*
X224291779Y-118463422D01*
X224291779Y-118463422D02*
X224339398Y-118272946D01*
X224339398Y-118272946D02*
X224387017Y-118177708D01*
X224387017Y-118177708D02*
X224482255Y-118082470D01*
X224482255Y-118082470D02*
X224625112Y-118034851D01*
X224625112Y-118034851D02*
X224720350Y-118034851D01*
X224720350Y-118034851D02*
X224863207Y-118082470D01*
X224863207Y-118082470D02*
X224910826Y-118130089D01*
X225482255Y-118463422D02*
X225387017Y-118415803D01*
X225387017Y-118415803D02*
X225339398Y-118368184D01*
X225339398Y-118368184D02*
X225291779Y-118272946D01*
X225291779Y-118272946D02*
X225291779Y-118225327D01*
X225291779Y-118225327D02*
X225339398Y-118130089D01*
X225339398Y-118130089D02*
X225387017Y-118082470D01*
X225387017Y-118082470D02*
X225482255Y-118034851D01*
X225482255Y-118034851D02*
X225672731Y-118034851D01*
X225672731Y-118034851D02*
X225767969Y-118082470D01*
X225767969Y-118082470D02*
X225815588Y-118130089D01*
X225815588Y-118130089D02*
X225863207Y-118225327D01*
X225863207Y-118225327D02*
X225863207Y-118272946D01*
X225863207Y-118272946D02*
X225815588Y-118368184D01*
X225815588Y-118368184D02*
X225767969Y-118415803D01*
X225767969Y-118415803D02*
X225672731Y-118463422D01*
X225672731Y-118463422D02*
X225482255Y-118463422D01*
X225482255Y-118463422D02*
X225387017Y-118511041D01*
X225387017Y-118511041D02*
X225339398Y-118558660D01*
X225339398Y-118558660D02*
X225291779Y-118653898D01*
X225291779Y-118653898D02*
X225291779Y-118844374D01*
X225291779Y-118844374D02*
X225339398Y-118939612D01*
X225339398Y-118939612D02*
X225387017Y-118987232D01*
X225387017Y-118987232D02*
X225482255Y-119034851D01*
X225482255Y-119034851D02*
X225672731Y-119034851D01*
X225672731Y-119034851D02*
X225767969Y-118987232D01*
X225767969Y-118987232D02*
X225815588Y-118939612D01*
X225815588Y-118939612D02*
X225863207Y-118844374D01*
X225863207Y-118844374D02*
X225863207Y-118653898D01*
X225863207Y-118653898D02*
X225815588Y-118558660D01*
X225815588Y-118558660D02*
X225767969Y-118511041D01*
X225767969Y-118511041D02*
X225672731Y-118463422D01*
%TO.C,C7*%
X216041039Y-118939612D02*
X215993420Y-118987232D01*
X215993420Y-118987232D02*
X215850563Y-119034851D01*
X215850563Y-119034851D02*
X215755325Y-119034851D01*
X215755325Y-119034851D02*
X215612468Y-118987232D01*
X215612468Y-118987232D02*
X215517230Y-118891993D01*
X215517230Y-118891993D02*
X215469611Y-118796755D01*
X215469611Y-118796755D02*
X215421992Y-118606279D01*
X215421992Y-118606279D02*
X215421992Y-118463422D01*
X215421992Y-118463422D02*
X215469611Y-118272946D01*
X215469611Y-118272946D02*
X215517230Y-118177708D01*
X215517230Y-118177708D02*
X215612468Y-118082470D01*
X215612468Y-118082470D02*
X215755325Y-118034851D01*
X215755325Y-118034851D02*
X215850563Y-118034851D01*
X215850563Y-118034851D02*
X215993420Y-118082470D01*
X215993420Y-118082470D02*
X216041039Y-118130089D01*
X216374373Y-118034851D02*
X217041039Y-118034851D01*
X217041039Y-118034851D02*
X216612468Y-119034851D01*
%TO.C,C6*%
X207171252Y-118939612D02*
X207123633Y-118987232D01*
X207123633Y-118987232D02*
X206980776Y-119034851D01*
X206980776Y-119034851D02*
X206885538Y-119034851D01*
X206885538Y-119034851D02*
X206742681Y-118987232D01*
X206742681Y-118987232D02*
X206647443Y-118891993D01*
X206647443Y-118891993D02*
X206599824Y-118796755D01*
X206599824Y-118796755D02*
X206552205Y-118606279D01*
X206552205Y-118606279D02*
X206552205Y-118463422D01*
X206552205Y-118463422D02*
X206599824Y-118272946D01*
X206599824Y-118272946D02*
X206647443Y-118177708D01*
X206647443Y-118177708D02*
X206742681Y-118082470D01*
X206742681Y-118082470D02*
X206885538Y-118034851D01*
X206885538Y-118034851D02*
X206980776Y-118034851D01*
X206980776Y-118034851D02*
X207123633Y-118082470D01*
X207123633Y-118082470D02*
X207171252Y-118130089D01*
X208028395Y-118034851D02*
X207837919Y-118034851D01*
X207837919Y-118034851D02*
X207742681Y-118082470D01*
X207742681Y-118082470D02*
X207695062Y-118130089D01*
X207695062Y-118130089D02*
X207599824Y-118272946D01*
X207599824Y-118272946D02*
X207552205Y-118463422D01*
X207552205Y-118463422D02*
X207552205Y-118844374D01*
X207552205Y-118844374D02*
X207599824Y-118939612D01*
X207599824Y-118939612D02*
X207647443Y-118987232D01*
X207647443Y-118987232D02*
X207742681Y-119034851D01*
X207742681Y-119034851D02*
X207933157Y-119034851D01*
X207933157Y-119034851D02*
X208028395Y-118987232D01*
X208028395Y-118987232D02*
X208076014Y-118939612D01*
X208076014Y-118939612D02*
X208123633Y-118844374D01*
X208123633Y-118844374D02*
X208123633Y-118606279D01*
X208123633Y-118606279D02*
X208076014Y-118511041D01*
X208076014Y-118511041D02*
X208028395Y-118463422D01*
X208028395Y-118463422D02*
X207933157Y-118415803D01*
X207933157Y-118415803D02*
X207742681Y-118415803D01*
X207742681Y-118415803D02*
X207647443Y-118463422D01*
X207647443Y-118463422D02*
X207599824Y-118511041D01*
X207599824Y-118511041D02*
X207552205Y-118606279D01*
%TO.C,C5*%
X198301465Y-118939612D02*
X198253846Y-118987232D01*
X198253846Y-118987232D02*
X198110989Y-119034851D01*
X198110989Y-119034851D02*
X198015751Y-119034851D01*
X198015751Y-119034851D02*
X197872894Y-118987232D01*
X197872894Y-118987232D02*
X197777656Y-118891993D01*
X197777656Y-118891993D02*
X197730037Y-118796755D01*
X197730037Y-118796755D02*
X197682418Y-118606279D01*
X197682418Y-118606279D02*
X197682418Y-118463422D01*
X197682418Y-118463422D02*
X197730037Y-118272946D01*
X197730037Y-118272946D02*
X197777656Y-118177708D01*
X197777656Y-118177708D02*
X197872894Y-118082470D01*
X197872894Y-118082470D02*
X198015751Y-118034851D01*
X198015751Y-118034851D02*
X198110989Y-118034851D01*
X198110989Y-118034851D02*
X198253846Y-118082470D01*
X198253846Y-118082470D02*
X198301465Y-118130089D01*
X199206227Y-118034851D02*
X198730037Y-118034851D01*
X198730037Y-118034851D02*
X198682418Y-118511041D01*
X198682418Y-118511041D02*
X198730037Y-118463422D01*
X198730037Y-118463422D02*
X198825275Y-118415803D01*
X198825275Y-118415803D02*
X199063370Y-118415803D01*
X199063370Y-118415803D02*
X199158608Y-118463422D01*
X199158608Y-118463422D02*
X199206227Y-118511041D01*
X199206227Y-118511041D02*
X199253846Y-118606279D01*
X199253846Y-118606279D02*
X199253846Y-118844374D01*
X199253846Y-118844374D02*
X199206227Y-118939612D01*
X199206227Y-118939612D02*
X199158608Y-118987232D01*
X199158608Y-118987232D02*
X199063370Y-119034851D01*
X199063370Y-119034851D02*
X198825275Y-119034851D01*
X198825275Y-119034851D02*
X198730037Y-118987232D01*
X198730037Y-118987232D02*
X198682418Y-118939612D01*
%TO.C,C4*%
X189431678Y-118939612D02*
X189384059Y-118987232D01*
X189384059Y-118987232D02*
X189241202Y-119034851D01*
X189241202Y-119034851D02*
X189145964Y-119034851D01*
X189145964Y-119034851D02*
X189003107Y-118987232D01*
X189003107Y-118987232D02*
X188907869Y-118891993D01*
X188907869Y-118891993D02*
X188860250Y-118796755D01*
X188860250Y-118796755D02*
X188812631Y-118606279D01*
X188812631Y-118606279D02*
X188812631Y-118463422D01*
X188812631Y-118463422D02*
X188860250Y-118272946D01*
X188860250Y-118272946D02*
X188907869Y-118177708D01*
X188907869Y-118177708D02*
X189003107Y-118082470D01*
X189003107Y-118082470D02*
X189145964Y-118034851D01*
X189145964Y-118034851D02*
X189241202Y-118034851D01*
X189241202Y-118034851D02*
X189384059Y-118082470D01*
X189384059Y-118082470D02*
X189431678Y-118130089D01*
X190288821Y-118368184D02*
X190288821Y-119034851D01*
X190050726Y-117987232D02*
X189812631Y-118701517D01*
X189812631Y-118701517D02*
X190431678Y-118701517D01*
%TO.C,C3*%
X180561891Y-118939612D02*
X180514272Y-118987232D01*
X180514272Y-118987232D02*
X180371415Y-119034851D01*
X180371415Y-119034851D02*
X180276177Y-119034851D01*
X180276177Y-119034851D02*
X180133320Y-118987232D01*
X180133320Y-118987232D02*
X180038082Y-118891993D01*
X180038082Y-118891993D02*
X179990463Y-118796755D01*
X179990463Y-118796755D02*
X179942844Y-118606279D01*
X179942844Y-118606279D02*
X179942844Y-118463422D01*
X179942844Y-118463422D02*
X179990463Y-118272946D01*
X179990463Y-118272946D02*
X180038082Y-118177708D01*
X180038082Y-118177708D02*
X180133320Y-118082470D01*
X180133320Y-118082470D02*
X180276177Y-118034851D01*
X180276177Y-118034851D02*
X180371415Y-118034851D01*
X180371415Y-118034851D02*
X180514272Y-118082470D01*
X180514272Y-118082470D02*
X180561891Y-118130089D01*
X180895225Y-118034851D02*
X181514272Y-118034851D01*
X181514272Y-118034851D02*
X181180939Y-118415803D01*
X181180939Y-118415803D02*
X181323796Y-118415803D01*
X181323796Y-118415803D02*
X181419034Y-118463422D01*
X181419034Y-118463422D02*
X181466653Y-118511041D01*
X181466653Y-118511041D02*
X181514272Y-118606279D01*
X181514272Y-118606279D02*
X181514272Y-118844374D01*
X181514272Y-118844374D02*
X181466653Y-118939612D01*
X181466653Y-118939612D02*
X181419034Y-118987232D01*
X181419034Y-118987232D02*
X181323796Y-119034851D01*
X181323796Y-119034851D02*
X181038082Y-119034851D01*
X181038082Y-119034851D02*
X180942844Y-118987232D01*
X180942844Y-118987232D02*
X180895225Y-118939612D01*
%TO.C,C2*%
X171692104Y-118939612D02*
X171644485Y-118987232D01*
X171644485Y-118987232D02*
X171501628Y-119034851D01*
X171501628Y-119034851D02*
X171406390Y-119034851D01*
X171406390Y-119034851D02*
X171263533Y-118987232D01*
X171263533Y-118987232D02*
X171168295Y-118891993D01*
X171168295Y-118891993D02*
X171120676Y-118796755D01*
X171120676Y-118796755D02*
X171073057Y-118606279D01*
X171073057Y-118606279D02*
X171073057Y-118463422D01*
X171073057Y-118463422D02*
X171120676Y-118272946D01*
X171120676Y-118272946D02*
X171168295Y-118177708D01*
X171168295Y-118177708D02*
X171263533Y-118082470D01*
X171263533Y-118082470D02*
X171406390Y-118034851D01*
X171406390Y-118034851D02*
X171501628Y-118034851D01*
X171501628Y-118034851D02*
X171644485Y-118082470D01*
X171644485Y-118082470D02*
X171692104Y-118130089D01*
X172073057Y-118130089D02*
X172120676Y-118082470D01*
X172120676Y-118082470D02*
X172215914Y-118034851D01*
X172215914Y-118034851D02*
X172454009Y-118034851D01*
X172454009Y-118034851D02*
X172549247Y-118082470D01*
X172549247Y-118082470D02*
X172596866Y-118130089D01*
X172596866Y-118130089D02*
X172644485Y-118225327D01*
X172644485Y-118225327D02*
X172644485Y-118320565D01*
X172644485Y-118320565D02*
X172596866Y-118463422D01*
X172596866Y-118463422D02*
X172025438Y-119034851D01*
X172025438Y-119034851D02*
X172644485Y-119034851D01*
%TO.C,C1*%
X162822317Y-118937380D02*
X162774698Y-118985000D01*
X162774698Y-118985000D02*
X162631841Y-119032619D01*
X162631841Y-119032619D02*
X162536603Y-119032619D01*
X162536603Y-119032619D02*
X162393746Y-118985000D01*
X162393746Y-118985000D02*
X162298508Y-118889761D01*
X162298508Y-118889761D02*
X162250889Y-118794523D01*
X162250889Y-118794523D02*
X162203270Y-118604047D01*
X162203270Y-118604047D02*
X162203270Y-118461190D01*
X162203270Y-118461190D02*
X162250889Y-118270714D01*
X162250889Y-118270714D02*
X162298508Y-118175476D01*
X162298508Y-118175476D02*
X162393746Y-118080238D01*
X162393746Y-118080238D02*
X162536603Y-118032619D01*
X162536603Y-118032619D02*
X162631841Y-118032619D01*
X162631841Y-118032619D02*
X162774698Y-118080238D01*
X162774698Y-118080238D02*
X162822317Y-118127857D01*
X163774698Y-119032619D02*
X163203270Y-119032619D01*
X163488984Y-119032619D02*
X163488984Y-118032619D01*
X163488984Y-118032619D02*
X163393746Y-118175476D01*
X163393746Y-118175476D02*
X163298508Y-118270714D01*
X163298508Y-118270714D02*
X163203270Y-118318333D01*
D11*
%TO.C,J6*%
X251330000Y-44650000D02*
X251330000Y-52330000D01*
X248670000Y-43380000D02*
X248670000Y-42050000D01*
X248670000Y-52330000D02*
X251330000Y-52330000D01*
X248670000Y-44650000D02*
X251330000Y-44650000D01*
X248670000Y-42050000D02*
X250000000Y-42050000D01*
X248670000Y-44650000D02*
X248670000Y-52330000D01*
%TO.C,J5*%
X157730000Y-44650000D02*
X157730000Y-52330000D01*
X155070000Y-43380000D02*
X155070000Y-42050000D01*
X155070000Y-52330000D02*
X157730000Y-52330000D01*
X155070000Y-44650000D02*
X157730000Y-44650000D01*
X155070000Y-42050000D02*
X156400000Y-42050000D01*
X155070000Y-44650000D02*
X155070000Y-52330000D01*
%TO.C,J4*%
X248670000Y-84150000D02*
X248670000Y-91830000D01*
X248670000Y-81550000D02*
X250000000Y-81550000D01*
X248670000Y-84150000D02*
X251330000Y-84150000D01*
X248670000Y-91830000D02*
X251330000Y-91830000D01*
X248670000Y-82880000D02*
X248670000Y-81550000D01*
X251330000Y-84150000D02*
X251330000Y-91830000D01*
%TO.C,J3*%
X154995303Y-84150000D02*
X154995303Y-91830000D01*
X154995303Y-81550000D02*
X156325303Y-81550000D01*
X154995303Y-84150000D02*
X157655303Y-84150000D01*
X154995303Y-91830000D02*
X157655303Y-91830000D01*
X154995303Y-82880000D02*
X154995303Y-81550000D01*
X157655303Y-84150000D02*
X157655303Y-91830000D01*
%TO.C,J2*%
X251330000Y-123470000D02*
X251330000Y-131150000D01*
X248670000Y-122200000D02*
X248670000Y-120870000D01*
X248670000Y-131150000D02*
X251330000Y-131150000D01*
X248670000Y-123470000D02*
X251330000Y-123470000D01*
X248670000Y-120870000D02*
X250000000Y-120870000D01*
X248670000Y-123470000D02*
X248670000Y-131150000D01*
%TO.C,C30*%
X242503483Y-40490000D02*
X242784643Y-40490000D01*
X242503483Y-41510000D02*
X242784643Y-41510000D01*
%TO.C,C29*%
X233634664Y-40490000D02*
X233915824Y-40490000D01*
X233634664Y-41510000D02*
X233915824Y-41510000D01*
%TO.C,C28*%
X224765853Y-40490000D02*
X225047013Y-40490000D01*
X224765853Y-41510000D02*
X225047013Y-41510000D01*
%TO.C,C27*%
X215897042Y-40490000D02*
X216178202Y-40490000D01*
X215897042Y-41510000D02*
X216178202Y-41510000D01*
%TO.C,C26*%
X198159420Y-40490000D02*
X198440580Y-40490000D01*
X198159420Y-41510000D02*
X198440580Y-41510000D01*
%TO.C,C25*%
X189290609Y-40490000D02*
X189571769Y-40490000D01*
X189290609Y-41510000D02*
X189571769Y-41510000D01*
%TO.C,C24*%
X180421798Y-40490000D02*
X180702958Y-40490000D01*
X180421798Y-41510000D02*
X180702958Y-41510000D01*
%TO.C,C23*%
X171552987Y-40490000D02*
X171834147Y-40490000D01*
X171552987Y-41510000D02*
X171834147Y-41510000D01*
%TO.C,C22*%
X207028231Y-40490000D02*
X207309391Y-40490000D01*
X207028231Y-41510000D02*
X207309391Y-41510000D01*
%TO.C,C21*%
X162684176Y-40490000D02*
X162965336Y-40490000D01*
X162684176Y-41510000D02*
X162965336Y-41510000D01*
%TO.C,C20*%
X242665612Y-80810000D02*
X242946772Y-80810000D01*
X242665612Y-79790000D02*
X242946772Y-79790000D01*
%TO.C,C19*%
X198321964Y-80810000D02*
X198603124Y-80810000D01*
X198321964Y-79790000D02*
X198603124Y-79790000D01*
%TO.C,C18*%
X233796876Y-80810000D02*
X234078036Y-80810000D01*
X233796876Y-79790000D02*
X234078036Y-79790000D01*
%TO.C,C17*%
X207190692Y-80810000D02*
X207471852Y-80810000D01*
X207190692Y-79790000D02*
X207471852Y-79790000D01*
%TO.C,C16*%
X224928148Y-80810000D02*
X225209308Y-80810000D01*
X224928148Y-79790000D02*
X225209308Y-79790000D01*
%TO.C,C15*%
X216059420Y-80810000D02*
X216340580Y-80810000D01*
X216059420Y-79790000D02*
X216340580Y-79790000D01*
%TO.C,C14*%
X189453236Y-79790000D02*
X189734396Y-79790000D01*
X189453236Y-80810000D02*
X189734396Y-80810000D01*
%TO.C,C13*%
X180584508Y-79790000D02*
X180865668Y-79790000D01*
X180584508Y-80810000D02*
X180865668Y-80810000D01*
%TO.C,C12*%
X171715780Y-79790000D02*
X171996940Y-79790000D01*
X171715780Y-80810000D02*
X171996940Y-80810000D01*
%TO.C,C11*%
X162847052Y-79790000D02*
X163128212Y-79790000D01*
X162847052Y-80810000D02*
X163128212Y-80810000D01*
%TO.C,C10*%
X242676495Y-120512232D02*
X242957655Y-120512232D01*
X242676495Y-119492232D02*
X242957655Y-119492232D01*
%TO.C,C9*%
X233806700Y-120512232D02*
X234087860Y-120512232D01*
X233806700Y-119492232D02*
X234087860Y-119492232D01*
%TO.C,J1*%
X157655303Y-123470000D02*
X157655303Y-131150000D01*
X154995303Y-122200000D02*
X154995303Y-120870000D01*
X154995303Y-131150000D02*
X157655303Y-131150000D01*
X154995303Y-123470000D02*
X157655303Y-123470000D01*
X154995303Y-120870000D02*
X156325303Y-120870000D01*
X154995303Y-123470000D02*
X154995303Y-131150000D01*
%TO.C,D30*%
X240850000Y-50650000D02*
X240850000Y-43350000D01*
X242000000Y-50650000D02*
X240850000Y-50650000D01*
X246350000Y-50650000D02*
X246350000Y-43350000D01*
%TO.C,D29*%
X231961104Y-50650000D02*
X231961104Y-43350000D01*
X233111104Y-50650000D02*
X231961104Y-50650000D01*
X237461104Y-50650000D02*
X237461104Y-43350000D01*
%TO.C,D28*%
X223072216Y-50650000D02*
X223072216Y-43350000D01*
X224222216Y-50650000D02*
X223072216Y-50650000D01*
X228572216Y-50650000D02*
X228572216Y-43350000D01*
%TO.C,D27*%
X214183328Y-50650000D02*
X214183328Y-43350000D01*
X215333328Y-50650000D02*
X214183328Y-50650000D01*
X219683328Y-50650000D02*
X219683328Y-43350000D01*
%TO.C,D26*%
X205294440Y-50650000D02*
X205294440Y-43350000D01*
X206444440Y-50650000D02*
X205294440Y-50650000D01*
X210794440Y-50650000D02*
X210794440Y-43350000D01*
%TO.C,D25*%
X196405552Y-50650000D02*
X196405552Y-43350000D01*
X197555552Y-50650000D02*
X196405552Y-50650000D01*
X201905552Y-50650000D02*
X201905552Y-43350000D01*
%TO.C,D24*%
X187516664Y-50650000D02*
X187516664Y-43350000D01*
X188666664Y-50650000D02*
X187516664Y-50650000D01*
X193016664Y-50650000D02*
X193016664Y-43350000D01*
%TO.C,D23*%
X178627776Y-50650000D02*
X178627776Y-43350000D01*
X179777776Y-50650000D02*
X178627776Y-50650000D01*
X184127776Y-50650000D02*
X184127776Y-43350000D01*
%TO.C,D22*%
X169738888Y-50650000D02*
X169738888Y-43350000D01*
X170888888Y-50650000D02*
X169738888Y-50650000D01*
X175238888Y-50650000D02*
X175238888Y-43350000D01*
%TO.C,D21*%
X160850000Y-50650000D02*
X160850000Y-43350000D01*
X162000000Y-50650000D02*
X160850000Y-50650000D01*
X166350000Y-50650000D02*
X166350000Y-43350000D01*
%TO.C,D20*%
X240850000Y-90150000D02*
X240850000Y-82850000D01*
X242000000Y-90150000D02*
X240850000Y-90150000D01*
X246350000Y-90150000D02*
X246350000Y-82850000D01*
%TO.C,D19*%
X231987776Y-90150000D02*
X231987776Y-82850000D01*
X233137776Y-90150000D02*
X231987776Y-90150000D01*
X237487776Y-90150000D02*
X237487776Y-82850000D01*
%TO.C,D18*%
X223125554Y-90150000D02*
X223125554Y-82850000D01*
X224275554Y-90150000D02*
X223125554Y-90150000D01*
X228625554Y-90150000D02*
X228625554Y-82850000D01*
%TO.C,D17*%
X214263332Y-90150000D02*
X214263332Y-82850000D01*
X215413332Y-90150000D02*
X214263332Y-90150000D01*
X219763332Y-90150000D02*
X219763332Y-82850000D01*
%TO.C,D16*%
X205401110Y-90150000D02*
X205401110Y-82850000D01*
X206551110Y-90150000D02*
X205401110Y-90150000D01*
X210901110Y-90150000D02*
X210901110Y-82850000D01*
%TO.C,D15*%
X196538888Y-90150000D02*
X196538888Y-82850000D01*
X197688888Y-90150000D02*
X196538888Y-90150000D01*
X202038888Y-90150000D02*
X202038888Y-82850000D01*
%TO.C,D14*%
X187676666Y-90150000D02*
X187676666Y-82850000D01*
X188826666Y-90150000D02*
X187676666Y-90150000D01*
X193176666Y-90150000D02*
X193176666Y-82850000D01*
%TO.C,D13*%
X178814444Y-90150000D02*
X178814444Y-82850000D01*
X179964444Y-90150000D02*
X178814444Y-90150000D01*
X184314444Y-90150000D02*
X184314444Y-82850000D01*
%TO.C,D12*%
X169952222Y-90150000D02*
X169952222Y-82850000D01*
X171102222Y-90150000D02*
X169952222Y-90150000D01*
X175452222Y-90150000D02*
X175452222Y-82850000D01*
%TO.C,D11*%
X161090000Y-90150000D02*
X161090000Y-82850000D01*
X162240000Y-90150000D02*
X161090000Y-90150000D01*
X166590000Y-90150000D02*
X166590000Y-82850000D01*
%TO.C,D10*%
X246350000Y-129650000D02*
X246350000Y-122350000D01*
X242000000Y-129650000D02*
X240850000Y-129650000D01*
X240850000Y-129650000D02*
X240850000Y-122350000D01*
%TO.C,D9*%
X237478888Y-129650000D02*
X237478888Y-122350000D01*
X233128888Y-129650000D02*
X231978888Y-129650000D01*
X231978888Y-129650000D02*
X231978888Y-122350000D01*
%TO.C,D8*%
X228607777Y-129650000D02*
X228607777Y-122350000D01*
X224257777Y-129650000D02*
X223107777Y-129650000D01*
X223107777Y-129650000D02*
X223107777Y-122350000D01*
%TO.C,D7*%
X219736666Y-129650000D02*
X219736666Y-122350000D01*
X215386666Y-129650000D02*
X214236666Y-129650000D01*
X214236666Y-129650000D02*
X214236666Y-122350000D01*
%TO.C,D6*%
X210865555Y-129650000D02*
X210865555Y-122350000D01*
X206515555Y-129650000D02*
X205365555Y-129650000D01*
X205365555Y-129650000D02*
X205365555Y-122350000D01*
%TO.C,D5*%
X201994444Y-129650000D02*
X201994444Y-122350000D01*
X197644444Y-129650000D02*
X196494444Y-129650000D01*
X196494444Y-129650000D02*
X196494444Y-122350000D01*
%TO.C,D4*%
X193123333Y-129650000D02*
X193123333Y-122350000D01*
X188773333Y-129650000D02*
X187623333Y-129650000D01*
X187623333Y-129650000D02*
X187623333Y-122350000D01*
%TO.C,D3*%
X184252222Y-129650000D02*
X184252222Y-122350000D01*
X179902222Y-129650000D02*
X178752222Y-129650000D01*
X178752222Y-129650000D02*
X178752222Y-122350000D01*
%TO.C,D2*%
X175381111Y-129650000D02*
X175381111Y-122350000D01*
X171031111Y-129650000D02*
X169881111Y-129650000D01*
X169881111Y-129650000D02*
X169881111Y-122350000D01*
%TO.C,D1*%
X166510000Y-129650000D02*
X166510000Y-122350000D01*
X162160000Y-129650000D02*
X161010000Y-129650000D01*
X161010000Y-129650000D02*
X161010000Y-122350000D01*
%TO.C,C8*%
X224936913Y-120512232D02*
X225218073Y-120512232D01*
X224936913Y-119492232D02*
X225218073Y-119492232D01*
%TO.C,C7*%
X216067126Y-120512232D02*
X216348286Y-120512232D01*
X216067126Y-119492232D02*
X216348286Y-119492232D01*
%TO.C,C6*%
X207197339Y-120512232D02*
X207478499Y-120512232D01*
X207197339Y-119492232D02*
X207478499Y-119492232D01*
%TO.C,C5*%
X198327552Y-120512232D02*
X198608712Y-120512232D01*
X198327552Y-119492232D02*
X198608712Y-119492232D01*
%TO.C,C4*%
X189457765Y-120512232D02*
X189738925Y-120512232D01*
X189457765Y-119492232D02*
X189738925Y-119492232D01*
%TO.C,C3*%
X180587978Y-120512232D02*
X180869138Y-120512232D01*
X180587978Y-119492232D02*
X180869138Y-119492232D01*
%TO.C,C2*%
X171718191Y-120512232D02*
X171999351Y-120512232D01*
X171718191Y-119492232D02*
X171999351Y-119492232D01*
%TO.C,C1*%
X162848404Y-120510000D02*
X163129564Y-120510000D01*
X162848404Y-119490000D02*
X163129564Y-119490000D01*
%TD*%
%LPC*%
D12*
%TO.C,J6*%
X250000000Y-43380000D03*
D13*
X250000000Y-45920000D03*
X250000000Y-48460000D03*
X250000000Y-51000000D03*
%TD*%
D12*
%TO.C,J5*%
X156400000Y-43380000D03*
D13*
X156400000Y-45920000D03*
X156400000Y-48460000D03*
X156400000Y-51000000D03*
%TD*%
%TO.C,J4*%
X250000000Y-90500000D03*
X250000000Y-87960000D03*
X250000000Y-85420000D03*
D12*
X250000000Y-82880000D03*
%TD*%
D13*
%TO.C,J3*%
X156325303Y-90500000D03*
X156325303Y-87960000D03*
X156325303Y-85420000D03*
D12*
X156325303Y-82880000D03*
%TD*%
%TO.C,J2*%
X250000000Y-122200000D03*
D13*
X250000000Y-124740000D03*
X250000000Y-127280000D03*
X250000000Y-129820000D03*
%TD*%
D14*
%TO.C,C30*%
X243419063Y-41000000D03*
X241869063Y-41000000D03*
%TD*%
%TO.C,C29*%
X234550244Y-41000000D03*
X233000244Y-41000000D03*
%TD*%
%TO.C,C28*%
X225681433Y-41000000D03*
X224131433Y-41000000D03*
%TD*%
%TO.C,C27*%
X216812622Y-41000000D03*
X215262622Y-41000000D03*
%TD*%
%TO.C,C26*%
X199075000Y-41000000D03*
X197525000Y-41000000D03*
%TD*%
%TO.C,C25*%
X190206189Y-41000000D03*
X188656189Y-41000000D03*
%TD*%
%TO.C,C24*%
X181337378Y-41000000D03*
X179787378Y-41000000D03*
%TD*%
%TO.C,C23*%
X172468567Y-41000000D03*
X170918567Y-41000000D03*
%TD*%
%TO.C,C22*%
X207943811Y-41000000D03*
X206393811Y-41000000D03*
%TD*%
%TO.C,C21*%
X163599756Y-41000000D03*
X162049756Y-41000000D03*
%TD*%
%TO.C,C20*%
X242031192Y-80300000D03*
X243581192Y-80300000D03*
%TD*%
%TO.C,C19*%
X197687544Y-80300000D03*
X199237544Y-80300000D03*
%TD*%
%TO.C,C18*%
X233162456Y-80300000D03*
X234712456Y-80300000D03*
%TD*%
%TO.C,C17*%
X206556272Y-80300000D03*
X208106272Y-80300000D03*
%TD*%
%TO.C,C16*%
X224293728Y-80300000D03*
X225843728Y-80300000D03*
%TD*%
%TO.C,C15*%
X215425000Y-80300000D03*
X216975000Y-80300000D03*
%TD*%
%TO.C,C14*%
X190368816Y-80300000D03*
X188818816Y-80300000D03*
%TD*%
%TO.C,C13*%
X181500088Y-80300000D03*
X179950088Y-80300000D03*
%TD*%
%TO.C,C12*%
X172631360Y-80300000D03*
X171081360Y-80300000D03*
%TD*%
%TO.C,C11*%
X163762632Y-80300000D03*
X162212632Y-80300000D03*
%TD*%
%TO.C,C10*%
X242042075Y-120002232D03*
X243592075Y-120002232D03*
%TD*%
%TO.C,C9*%
X233172280Y-120002232D03*
X234722280Y-120002232D03*
%TD*%
D12*
%TO.C,J1*%
X156325303Y-122200000D03*
D13*
X156325303Y-124740000D03*
X156325303Y-127280000D03*
X156325303Y-129820000D03*
%TD*%
D15*
%TO.C,D30*%
X242000000Y-49450000D03*
X243600000Y-49450000D03*
X245200000Y-49450000D03*
X245200000Y-44550000D03*
X243600000Y-44550000D03*
X242000000Y-44550000D03*
%TD*%
%TO.C,D29*%
X233111104Y-49450000D03*
X234711104Y-49450000D03*
X236311104Y-49450000D03*
X236311104Y-44550000D03*
X234711104Y-44550000D03*
X233111104Y-44550000D03*
%TD*%
%TO.C,D28*%
X224222216Y-49450000D03*
X225822216Y-49450000D03*
X227422216Y-49450000D03*
X227422216Y-44550000D03*
X225822216Y-44550000D03*
X224222216Y-44550000D03*
%TD*%
%TO.C,D27*%
X215333328Y-49450000D03*
X216933328Y-49450000D03*
X218533328Y-49450000D03*
X218533328Y-44550000D03*
X216933328Y-44550000D03*
X215333328Y-44550000D03*
%TD*%
%TO.C,D26*%
X206444440Y-49450000D03*
X208044440Y-49450000D03*
X209644440Y-49450000D03*
X209644440Y-44550000D03*
X208044440Y-44550000D03*
X206444440Y-44550000D03*
%TD*%
%TO.C,D25*%
X197555552Y-49450000D03*
X199155552Y-49450000D03*
X200755552Y-49450000D03*
X200755552Y-44550000D03*
X199155552Y-44550000D03*
X197555552Y-44550000D03*
%TD*%
%TO.C,D24*%
X188666664Y-49450000D03*
X190266664Y-49450000D03*
X191866664Y-49450000D03*
X191866664Y-44550000D03*
X190266664Y-44550000D03*
X188666664Y-44550000D03*
%TD*%
%TO.C,D23*%
X179777776Y-49450000D03*
X181377776Y-49450000D03*
X182977776Y-49450000D03*
X182977776Y-44550000D03*
X181377776Y-44550000D03*
X179777776Y-44550000D03*
%TD*%
%TO.C,D22*%
X170888888Y-49450000D03*
X172488888Y-49450000D03*
X174088888Y-49450000D03*
X174088888Y-44550000D03*
X172488888Y-44550000D03*
X170888888Y-44550000D03*
%TD*%
%TO.C,D21*%
X162000000Y-49450000D03*
X163600000Y-49450000D03*
X165200000Y-49450000D03*
X165200000Y-44550000D03*
X163600000Y-44550000D03*
X162000000Y-44550000D03*
%TD*%
%TO.C,D20*%
X242000000Y-88950000D03*
X243600000Y-88950000D03*
X245200000Y-88950000D03*
X245200000Y-84050000D03*
X243600000Y-84050000D03*
X242000000Y-84050000D03*
%TD*%
%TO.C,D19*%
X233137776Y-88950000D03*
X234737776Y-88950000D03*
X236337776Y-88950000D03*
X236337776Y-84050000D03*
X234737776Y-84050000D03*
X233137776Y-84050000D03*
%TD*%
%TO.C,D18*%
X224275554Y-88950000D03*
X225875554Y-88950000D03*
X227475554Y-88950000D03*
X227475554Y-84050000D03*
X225875554Y-84050000D03*
X224275554Y-84050000D03*
%TD*%
%TO.C,D17*%
X215413332Y-88950000D03*
X217013332Y-88950000D03*
X218613332Y-88950000D03*
X218613332Y-84050000D03*
X217013332Y-84050000D03*
X215413332Y-84050000D03*
%TD*%
%TO.C,D16*%
X206551110Y-88950000D03*
X208151110Y-88950000D03*
X209751110Y-88950000D03*
X209751110Y-84050000D03*
X208151110Y-84050000D03*
X206551110Y-84050000D03*
%TD*%
%TO.C,D15*%
X197688888Y-88950000D03*
X199288888Y-88950000D03*
X200888888Y-88950000D03*
X200888888Y-84050000D03*
X199288888Y-84050000D03*
X197688888Y-84050000D03*
%TD*%
%TO.C,D14*%
X188826666Y-88950000D03*
X190426666Y-88950000D03*
X192026666Y-88950000D03*
X192026666Y-84050000D03*
X190426666Y-84050000D03*
X188826666Y-84050000D03*
%TD*%
%TO.C,D13*%
X179964444Y-88950000D03*
X181564444Y-88950000D03*
X183164444Y-88950000D03*
X183164444Y-84050000D03*
X181564444Y-84050000D03*
X179964444Y-84050000D03*
%TD*%
%TO.C,D12*%
X171102222Y-88950000D03*
X172702222Y-88950000D03*
X174302222Y-88950000D03*
X174302222Y-84050000D03*
X172702222Y-84050000D03*
X171102222Y-84050000D03*
%TD*%
%TO.C,D11*%
X162240000Y-88950000D03*
X163840000Y-88950000D03*
X165440000Y-88950000D03*
X165440000Y-84050000D03*
X163840000Y-84050000D03*
X162240000Y-84050000D03*
%TD*%
%TO.C,D10*%
X242000000Y-123550000D03*
X243600000Y-123550000D03*
X245200000Y-123550000D03*
X245200000Y-128450000D03*
X243600000Y-128450000D03*
X242000000Y-128450000D03*
%TD*%
%TO.C,D9*%
X233128888Y-123550000D03*
X234728888Y-123550000D03*
X236328888Y-123550000D03*
X236328888Y-128450000D03*
X234728888Y-128450000D03*
X233128888Y-128450000D03*
%TD*%
%TO.C,D8*%
X224257777Y-123550000D03*
X225857777Y-123550000D03*
X227457777Y-123550000D03*
X227457777Y-128450000D03*
X225857777Y-128450000D03*
X224257777Y-128450000D03*
%TD*%
%TO.C,D7*%
X215386666Y-123550000D03*
X216986666Y-123550000D03*
X218586666Y-123550000D03*
X218586666Y-128450000D03*
X216986666Y-128450000D03*
X215386666Y-128450000D03*
%TD*%
%TO.C,D6*%
X206515555Y-123550000D03*
X208115555Y-123550000D03*
X209715555Y-123550000D03*
X209715555Y-128450000D03*
X208115555Y-128450000D03*
X206515555Y-128450000D03*
%TD*%
%TO.C,D5*%
X197644444Y-123550000D03*
X199244444Y-123550000D03*
X200844444Y-123550000D03*
X200844444Y-128450000D03*
X199244444Y-128450000D03*
X197644444Y-128450000D03*
%TD*%
%TO.C,D4*%
X188773333Y-123550000D03*
X190373333Y-123550000D03*
X191973333Y-123550000D03*
X191973333Y-128450000D03*
X190373333Y-128450000D03*
X188773333Y-128450000D03*
%TD*%
%TO.C,D3*%
X179902222Y-123550000D03*
X181502222Y-123550000D03*
X183102222Y-123550000D03*
X183102222Y-128450000D03*
X181502222Y-128450000D03*
X179902222Y-128450000D03*
%TD*%
%TO.C,D2*%
X171031111Y-123550000D03*
X172631111Y-123550000D03*
X174231111Y-123550000D03*
X174231111Y-128450000D03*
X172631111Y-128450000D03*
X171031111Y-128450000D03*
%TD*%
%TO.C,D1*%
X162160000Y-123550000D03*
X163760000Y-123550000D03*
X165360000Y-123550000D03*
X165360000Y-128450000D03*
X163760000Y-128450000D03*
X162160000Y-128450000D03*
%TD*%
D14*
%TO.C,C8*%
X224302493Y-120002232D03*
X225852493Y-120002232D03*
%TD*%
%TO.C,C7*%
X215432706Y-120002232D03*
X216982706Y-120002232D03*
%TD*%
%TO.C,C6*%
X206562919Y-120002232D03*
X208112919Y-120002232D03*
%TD*%
%TO.C,C5*%
X197693132Y-120002232D03*
X199243132Y-120002232D03*
%TD*%
%TO.C,C4*%
X188823345Y-120002232D03*
X190373345Y-120002232D03*
%TD*%
%TO.C,C3*%
X179953558Y-120002232D03*
X181503558Y-120002232D03*
%TD*%
%TO.C,C2*%
X171083771Y-120002232D03*
X172633771Y-120002232D03*
%TD*%
%TO.C,C1*%
X162213984Y-120000000D03*
X163763984Y-120000000D03*
%TD*%
%LPD*%
M02*
