M48
; DRILL file {KiCad 7.0.2} date Wed Aug 16 13:52:22 2023
; FORMAT={-:-/ absolute / inch / decimal}
; #@! TF.CreationDate,2023-08-16T13:52:22+02:00
; #@! TF.GenerationSoftware,Kicad,Pcbnew,7.0.2
; #@! TF.FileFunction,Plated,1,2,PTH
FMAT,2
INCH
; #@! TA.AperFunction,Plated,PTH,ViaDrill
T1C0.0157
; #@! TA.AperFunction,Plated,PTH,ComponentDrill
T2C0.0394
%
G90
G05
T1
X6.3806Y-1.6659
X6.3841Y-4.7756
X6.387Y-3.2239
X6.73Y-1.6659
X6.7336Y-4.7756
X6.7365Y-3.2239
X7.0787Y-1.6659
X7.0823Y-4.7756
X7.0852Y-3.2239
X7.4282Y-1.6659
X7.4317Y-4.7756
X7.4346Y-3.2239
X7.7789Y-1.6659
X7.7824Y-4.7756
X7.7853Y-3.2239
X8.1283Y-1.6659
X8.1319Y-4.7756
X8.1348Y-3.2239
X8.4757Y-1.6659
X8.4793Y-4.7756
X8.4822Y-3.2239
X8.8252Y-1.6659
X8.8287Y-4.7756
X8.8316Y-3.2239
X9.1745Y-1.6659
X9.1781Y-4.7756
X9.181Y-3.2239
X9.524Y-1.6659
X9.5276Y-4.7756
X9.5305Y-3.2239
T2
X6.1545Y-3.263
X6.1545Y-3.363
X6.1545Y-3.463
X6.1545Y-3.563
X6.1545Y-4.811
X6.1545Y-4.911
X6.1545Y-5.011
X6.1545Y-5.111
X6.1575Y-1.7079
X6.1575Y-1.8079
X6.1575Y-1.9079
X6.1575Y-2.0079
X9.8425Y-1.7079
X9.8425Y-1.8079
X9.8425Y-1.9079
X9.8425Y-2.0079
X9.8425Y-3.263
X9.8425Y-3.363
X9.8425Y-3.463
X9.8425Y-3.563
X9.8425Y-4.811
X9.8425Y-4.911
X9.8425Y-5.011
X9.8425Y-5.111
T0
M30
