%TF.GenerationSoftware,KiCad,Pcbnew,7.0.2*%
%TF.CreationDate,2023-08-23T15:03:45+02:00*%
%TF.ProjectId,TestingRig,54657374-696e-4675-9269-672e6b696361,rev?*%
%TF.SameCoordinates,Original*%
%TF.FileFunction,Legend,Top*%
%TF.FilePolarity,Positive*%
%FSLAX46Y46*%
G04 Gerber Fmt 4.6, Leading zero omitted, Abs format (unit mm)*
G04 Created by KiCad (PCBNEW 7.0.2) date 2023-08-23 15:03:45*
%MOMM*%
%LPD*%
G01*
G04 APERTURE LIST*
G04 Aperture macros list*
%AMRoundRect*
0 Rectangle with rounded corners*
0 $1 Rounding radius*
0 $2 $3 $4 $5 $6 $7 $8 $9 X,Y pos of 4 corners*
0 Add a 4 corners polygon primitive as box body*
4,1,4,$2,$3,$4,$5,$6,$7,$8,$9,$2,$3,0*
0 Add four circle primitives for the rounded corners*
1,1,$1+$1,$2,$3*
1,1,$1+$1,$4,$5*
1,1,$1+$1,$6,$7*
1,1,$1+$1,$8,$9*
0 Add four rect primitives between the rounded corners*
20,1,$1+$1,$2,$3,$4,$5,0*
20,1,$1+$1,$4,$5,$6,$7,0*
20,1,$1+$1,$6,$7,$8,$9,0*
20,1,$1+$1,$8,$9,$2,$3,0*%
G04 Aperture macros list end*
%ADD10C,0.150000*%
%ADD11C,0.120000*%
%ADD12RoundRect,0.225000X-0.250000X0.225000X-0.250000X-0.225000X0.250000X-0.225000X0.250000X0.225000X0*%
%ADD13R,1.700000X1.700000*%
%ADD14O,1.700000X1.700000*%
%ADD15R,1.000000X1.500000*%
G04 APERTURE END LIST*
D10*
X98438095Y-64577619D02*
X98438095Y-63577619D01*
X98438095Y-63577619D02*
X98676190Y-63577619D01*
X98676190Y-63577619D02*
X98819047Y-63625238D01*
X98819047Y-63625238D02*
X98914285Y-63720476D01*
X98914285Y-63720476D02*
X98961904Y-63815714D01*
X98961904Y-63815714D02*
X99009523Y-64006190D01*
X99009523Y-64006190D02*
X99009523Y-64149047D01*
X99009523Y-64149047D02*
X98961904Y-64339523D01*
X98961904Y-64339523D02*
X98914285Y-64434761D01*
X98914285Y-64434761D02*
X98819047Y-64530000D01*
X98819047Y-64530000D02*
X98676190Y-64577619D01*
X98676190Y-64577619D02*
X98438095Y-64577619D01*
X99438095Y-64577619D02*
X99438095Y-63910952D01*
X99438095Y-63577619D02*
X99390476Y-63625238D01*
X99390476Y-63625238D02*
X99438095Y-63672857D01*
X99438095Y-63672857D02*
X99485714Y-63625238D01*
X99485714Y-63625238D02*
X99438095Y-63577619D01*
X99438095Y-63577619D02*
X99438095Y-63672857D01*
X99914285Y-63910952D02*
X99914285Y-64577619D01*
X99914285Y-64006190D02*
X99961904Y-63958571D01*
X99961904Y-63958571D02*
X100057142Y-63910952D01*
X100057142Y-63910952D02*
X100199999Y-63910952D01*
X100199999Y-63910952D02*
X100295237Y-63958571D01*
X100295237Y-63958571D02*
X100342856Y-64053809D01*
X100342856Y-64053809D02*
X100342856Y-64577619D01*
X98338095Y-61696666D02*
X99100000Y-61696666D01*
X98719047Y-62077619D02*
X98719047Y-61315714D01*
X100052380Y-61077619D02*
X99576190Y-61077619D01*
X99576190Y-61077619D02*
X99528571Y-61553809D01*
X99528571Y-61553809D02*
X99576190Y-61506190D01*
X99576190Y-61506190D02*
X99671428Y-61458571D01*
X99671428Y-61458571D02*
X99909523Y-61458571D01*
X99909523Y-61458571D02*
X100004761Y-61506190D01*
X100004761Y-61506190D02*
X100052380Y-61553809D01*
X100052380Y-61553809D02*
X100099999Y-61649047D01*
X100099999Y-61649047D02*
X100099999Y-61887142D01*
X100099999Y-61887142D02*
X100052380Y-61982380D01*
X100052380Y-61982380D02*
X100004761Y-62030000D01*
X100004761Y-62030000D02*
X99909523Y-62077619D01*
X99909523Y-62077619D02*
X99671428Y-62077619D01*
X99671428Y-62077619D02*
X99576190Y-62030000D01*
X99576190Y-62030000D02*
X99528571Y-61982380D01*
X100385714Y-61077619D02*
X100719047Y-62077619D01*
X100719047Y-62077619D02*
X101052380Y-61077619D01*
X182438095Y-136577619D02*
X182438095Y-135577619D01*
X182438095Y-135577619D02*
X182676190Y-135577619D01*
X182676190Y-135577619D02*
X182819047Y-135625238D01*
X182819047Y-135625238D02*
X182914285Y-135720476D01*
X182914285Y-135720476D02*
X182961904Y-135815714D01*
X182961904Y-135815714D02*
X183009523Y-136006190D01*
X183009523Y-136006190D02*
X183009523Y-136149047D01*
X183009523Y-136149047D02*
X182961904Y-136339523D01*
X182961904Y-136339523D02*
X182914285Y-136434761D01*
X182914285Y-136434761D02*
X182819047Y-136530000D01*
X182819047Y-136530000D02*
X182676190Y-136577619D01*
X182676190Y-136577619D02*
X182438095Y-136577619D01*
X183580952Y-136577619D02*
X183485714Y-136530000D01*
X183485714Y-136530000D02*
X183438095Y-136482380D01*
X183438095Y-136482380D02*
X183390476Y-136387142D01*
X183390476Y-136387142D02*
X183390476Y-136101428D01*
X183390476Y-136101428D02*
X183438095Y-136006190D01*
X183438095Y-136006190D02*
X183485714Y-135958571D01*
X183485714Y-135958571D02*
X183580952Y-135910952D01*
X183580952Y-135910952D02*
X183723809Y-135910952D01*
X183723809Y-135910952D02*
X183819047Y-135958571D01*
X183819047Y-135958571D02*
X183866666Y-136006190D01*
X183866666Y-136006190D02*
X183914285Y-136101428D01*
X183914285Y-136101428D02*
X183914285Y-136387142D01*
X183914285Y-136387142D02*
X183866666Y-136482380D01*
X183866666Y-136482380D02*
X183819047Y-136530000D01*
X183819047Y-136530000D02*
X183723809Y-136577619D01*
X183723809Y-136577619D02*
X183580952Y-136577619D01*
X184771428Y-135910952D02*
X184771428Y-136577619D01*
X184342857Y-135910952D02*
X184342857Y-136434761D01*
X184342857Y-136434761D02*
X184390476Y-136530000D01*
X184390476Y-136530000D02*
X184485714Y-136577619D01*
X184485714Y-136577619D02*
X184628571Y-136577619D01*
X184628571Y-136577619D02*
X184723809Y-136530000D01*
X184723809Y-136530000D02*
X184771428Y-136482380D01*
X185104762Y-135910952D02*
X185485714Y-135910952D01*
X185247619Y-135577619D02*
X185247619Y-136434761D01*
X185247619Y-136434761D02*
X185295238Y-136530000D01*
X185295238Y-136530000D02*
X185390476Y-136577619D01*
X185390476Y-136577619D02*
X185485714Y-136577619D01*
X182771429Y-97696666D02*
X183533334Y-97696666D01*
X183152381Y-98077619D02*
X183152381Y-97315714D01*
X184485714Y-97077619D02*
X184009524Y-97077619D01*
X184009524Y-97077619D02*
X183961905Y-97553809D01*
X183961905Y-97553809D02*
X184009524Y-97506190D01*
X184009524Y-97506190D02*
X184104762Y-97458571D01*
X184104762Y-97458571D02*
X184342857Y-97458571D01*
X184342857Y-97458571D02*
X184438095Y-97506190D01*
X184438095Y-97506190D02*
X184485714Y-97553809D01*
X184485714Y-97553809D02*
X184533333Y-97649047D01*
X184533333Y-97649047D02*
X184533333Y-97887142D01*
X184533333Y-97887142D02*
X184485714Y-97982380D01*
X184485714Y-97982380D02*
X184438095Y-98030000D01*
X184438095Y-98030000D02*
X184342857Y-98077619D01*
X184342857Y-98077619D02*
X184104762Y-98077619D01*
X184104762Y-98077619D02*
X184009524Y-98030000D01*
X184009524Y-98030000D02*
X183961905Y-97982380D01*
X184819048Y-97077619D02*
X185152381Y-98077619D01*
X185152381Y-98077619D02*
X185485714Y-97077619D01*
X98961904Y-102225238D02*
X98866666Y-102177619D01*
X98866666Y-102177619D02*
X98723809Y-102177619D01*
X98723809Y-102177619D02*
X98580952Y-102225238D01*
X98580952Y-102225238D02*
X98485714Y-102320476D01*
X98485714Y-102320476D02*
X98438095Y-102415714D01*
X98438095Y-102415714D02*
X98390476Y-102606190D01*
X98390476Y-102606190D02*
X98390476Y-102749047D01*
X98390476Y-102749047D02*
X98438095Y-102939523D01*
X98438095Y-102939523D02*
X98485714Y-103034761D01*
X98485714Y-103034761D02*
X98580952Y-103130000D01*
X98580952Y-103130000D02*
X98723809Y-103177619D01*
X98723809Y-103177619D02*
X98819047Y-103177619D01*
X98819047Y-103177619D02*
X98961904Y-103130000D01*
X98961904Y-103130000D02*
X99009523Y-103082380D01*
X99009523Y-103082380D02*
X99009523Y-102749047D01*
X99009523Y-102749047D02*
X98819047Y-102749047D01*
X99438095Y-103177619D02*
X99438095Y-102177619D01*
X99438095Y-102177619D02*
X100009523Y-103177619D01*
X100009523Y-103177619D02*
X100009523Y-102177619D01*
X100485714Y-103177619D02*
X100485714Y-102177619D01*
X100485714Y-102177619D02*
X100723809Y-102177619D01*
X100723809Y-102177619D02*
X100866666Y-102225238D01*
X100866666Y-102225238D02*
X100961904Y-102320476D01*
X100961904Y-102320476D02*
X101009523Y-102415714D01*
X101009523Y-102415714D02*
X101057142Y-102606190D01*
X101057142Y-102606190D02*
X101057142Y-102749047D01*
X101057142Y-102749047D02*
X101009523Y-102939523D01*
X101009523Y-102939523D02*
X100961904Y-103034761D01*
X100961904Y-103034761D02*
X100866666Y-103130000D01*
X100866666Y-103130000D02*
X100723809Y-103177619D01*
X100723809Y-103177619D02*
X100485714Y-103177619D01*
X183295238Y-68725238D02*
X183200000Y-68677619D01*
X183200000Y-68677619D02*
X183057143Y-68677619D01*
X183057143Y-68677619D02*
X182914286Y-68725238D01*
X182914286Y-68725238D02*
X182819048Y-68820476D01*
X182819048Y-68820476D02*
X182771429Y-68915714D01*
X182771429Y-68915714D02*
X182723810Y-69106190D01*
X182723810Y-69106190D02*
X182723810Y-69249047D01*
X182723810Y-69249047D02*
X182771429Y-69439523D01*
X182771429Y-69439523D02*
X182819048Y-69534761D01*
X182819048Y-69534761D02*
X182914286Y-69630000D01*
X182914286Y-69630000D02*
X183057143Y-69677619D01*
X183057143Y-69677619D02*
X183152381Y-69677619D01*
X183152381Y-69677619D02*
X183295238Y-69630000D01*
X183295238Y-69630000D02*
X183342857Y-69582380D01*
X183342857Y-69582380D02*
X183342857Y-69249047D01*
X183342857Y-69249047D02*
X183152381Y-69249047D01*
X183771429Y-69677619D02*
X183771429Y-68677619D01*
X183771429Y-68677619D02*
X184342857Y-69677619D01*
X184342857Y-69677619D02*
X184342857Y-68677619D01*
X184819048Y-69677619D02*
X184819048Y-68677619D01*
X184819048Y-68677619D02*
X185057143Y-68677619D01*
X185057143Y-68677619D02*
X185200000Y-68725238D01*
X185200000Y-68725238D02*
X185295238Y-68820476D01*
X185295238Y-68820476D02*
X185342857Y-68915714D01*
X185342857Y-68915714D02*
X185390476Y-69106190D01*
X185390476Y-69106190D02*
X185390476Y-69249047D01*
X185390476Y-69249047D02*
X185342857Y-69439523D01*
X185342857Y-69439523D02*
X185295238Y-69534761D01*
X185295238Y-69534761D02*
X185200000Y-69630000D01*
X185200000Y-69630000D02*
X185057143Y-69677619D01*
X185057143Y-69677619D02*
X184819048Y-69677619D01*
X182771429Y-61696666D02*
X183533334Y-61696666D01*
X183152381Y-62077619D02*
X183152381Y-61315714D01*
X184485714Y-61077619D02*
X184009524Y-61077619D01*
X184009524Y-61077619D02*
X183961905Y-61553809D01*
X183961905Y-61553809D02*
X184009524Y-61506190D01*
X184009524Y-61506190D02*
X184104762Y-61458571D01*
X184104762Y-61458571D02*
X184342857Y-61458571D01*
X184342857Y-61458571D02*
X184438095Y-61506190D01*
X184438095Y-61506190D02*
X184485714Y-61553809D01*
X184485714Y-61553809D02*
X184533333Y-61649047D01*
X184533333Y-61649047D02*
X184533333Y-61887142D01*
X184533333Y-61887142D02*
X184485714Y-61982380D01*
X184485714Y-61982380D02*
X184438095Y-62030000D01*
X184438095Y-62030000D02*
X184342857Y-62077619D01*
X184342857Y-62077619D02*
X184104762Y-62077619D01*
X184104762Y-62077619D02*
X184009524Y-62030000D01*
X184009524Y-62030000D02*
X183961905Y-61982380D01*
X184819048Y-61077619D02*
X185152381Y-62077619D01*
X185152381Y-62077619D02*
X185485714Y-61077619D01*
X98438095Y-136577619D02*
X98438095Y-135577619D01*
X98438095Y-135577619D02*
X98676190Y-135577619D01*
X98676190Y-135577619D02*
X98819047Y-135625238D01*
X98819047Y-135625238D02*
X98914285Y-135720476D01*
X98914285Y-135720476D02*
X98961904Y-135815714D01*
X98961904Y-135815714D02*
X99009523Y-136006190D01*
X99009523Y-136006190D02*
X99009523Y-136149047D01*
X99009523Y-136149047D02*
X98961904Y-136339523D01*
X98961904Y-136339523D02*
X98914285Y-136434761D01*
X98914285Y-136434761D02*
X98819047Y-136530000D01*
X98819047Y-136530000D02*
X98676190Y-136577619D01*
X98676190Y-136577619D02*
X98438095Y-136577619D01*
X99438095Y-136577619D02*
X99438095Y-135910952D01*
X99438095Y-135577619D02*
X99390476Y-135625238D01*
X99390476Y-135625238D02*
X99438095Y-135672857D01*
X99438095Y-135672857D02*
X99485714Y-135625238D01*
X99485714Y-135625238D02*
X99438095Y-135577619D01*
X99438095Y-135577619D02*
X99438095Y-135672857D01*
X99914285Y-135910952D02*
X99914285Y-136577619D01*
X99914285Y-136006190D02*
X99961904Y-135958571D01*
X99961904Y-135958571D02*
X100057142Y-135910952D01*
X100057142Y-135910952D02*
X100199999Y-135910952D01*
X100199999Y-135910952D02*
X100295237Y-135958571D01*
X100295237Y-135958571D02*
X100342856Y-136053809D01*
X100342856Y-136053809D02*
X100342856Y-136577619D01*
X98961904Y-66225238D02*
X98866666Y-66177619D01*
X98866666Y-66177619D02*
X98723809Y-66177619D01*
X98723809Y-66177619D02*
X98580952Y-66225238D01*
X98580952Y-66225238D02*
X98485714Y-66320476D01*
X98485714Y-66320476D02*
X98438095Y-66415714D01*
X98438095Y-66415714D02*
X98390476Y-66606190D01*
X98390476Y-66606190D02*
X98390476Y-66749047D01*
X98390476Y-66749047D02*
X98438095Y-66939523D01*
X98438095Y-66939523D02*
X98485714Y-67034761D01*
X98485714Y-67034761D02*
X98580952Y-67130000D01*
X98580952Y-67130000D02*
X98723809Y-67177619D01*
X98723809Y-67177619D02*
X98819047Y-67177619D01*
X98819047Y-67177619D02*
X98961904Y-67130000D01*
X98961904Y-67130000D02*
X99009523Y-67082380D01*
X99009523Y-67082380D02*
X99009523Y-66749047D01*
X99009523Y-66749047D02*
X98819047Y-66749047D01*
X99438095Y-67177619D02*
X99438095Y-66177619D01*
X99438095Y-66177619D02*
X100009523Y-67177619D01*
X100009523Y-67177619D02*
X100009523Y-66177619D01*
X100485714Y-67177619D02*
X100485714Y-66177619D01*
X100485714Y-66177619D02*
X100723809Y-66177619D01*
X100723809Y-66177619D02*
X100866666Y-66225238D01*
X100866666Y-66225238D02*
X100961904Y-66320476D01*
X100961904Y-66320476D02*
X101009523Y-66415714D01*
X101009523Y-66415714D02*
X101057142Y-66606190D01*
X101057142Y-66606190D02*
X101057142Y-66749047D01*
X101057142Y-66749047D02*
X101009523Y-66939523D01*
X101009523Y-66939523D02*
X100961904Y-67034761D01*
X100961904Y-67034761D02*
X100866666Y-67130000D01*
X100866666Y-67130000D02*
X100723809Y-67177619D01*
X100723809Y-67177619D02*
X100485714Y-67177619D01*
X182438095Y-64577619D02*
X182438095Y-63577619D01*
X182438095Y-63577619D02*
X182676190Y-63577619D01*
X182676190Y-63577619D02*
X182819047Y-63625238D01*
X182819047Y-63625238D02*
X182914285Y-63720476D01*
X182914285Y-63720476D02*
X182961904Y-63815714D01*
X182961904Y-63815714D02*
X183009523Y-64006190D01*
X183009523Y-64006190D02*
X183009523Y-64149047D01*
X183009523Y-64149047D02*
X182961904Y-64339523D01*
X182961904Y-64339523D02*
X182914285Y-64434761D01*
X182914285Y-64434761D02*
X182819047Y-64530000D01*
X182819047Y-64530000D02*
X182676190Y-64577619D01*
X182676190Y-64577619D02*
X182438095Y-64577619D01*
X183580952Y-64577619D02*
X183485714Y-64530000D01*
X183485714Y-64530000D02*
X183438095Y-64482380D01*
X183438095Y-64482380D02*
X183390476Y-64387142D01*
X183390476Y-64387142D02*
X183390476Y-64101428D01*
X183390476Y-64101428D02*
X183438095Y-64006190D01*
X183438095Y-64006190D02*
X183485714Y-63958571D01*
X183485714Y-63958571D02*
X183580952Y-63910952D01*
X183580952Y-63910952D02*
X183723809Y-63910952D01*
X183723809Y-63910952D02*
X183819047Y-63958571D01*
X183819047Y-63958571D02*
X183866666Y-64006190D01*
X183866666Y-64006190D02*
X183914285Y-64101428D01*
X183914285Y-64101428D02*
X183914285Y-64387142D01*
X183914285Y-64387142D02*
X183866666Y-64482380D01*
X183866666Y-64482380D02*
X183819047Y-64530000D01*
X183819047Y-64530000D02*
X183723809Y-64577619D01*
X183723809Y-64577619D02*
X183580952Y-64577619D01*
X184771428Y-63910952D02*
X184771428Y-64577619D01*
X184342857Y-63910952D02*
X184342857Y-64434761D01*
X184342857Y-64434761D02*
X184390476Y-64530000D01*
X184390476Y-64530000D02*
X184485714Y-64577619D01*
X184485714Y-64577619D02*
X184628571Y-64577619D01*
X184628571Y-64577619D02*
X184723809Y-64530000D01*
X184723809Y-64530000D02*
X184771428Y-64482380D01*
X185104762Y-63910952D02*
X185485714Y-63910952D01*
X185247619Y-63577619D02*
X185247619Y-64434761D01*
X185247619Y-64434761D02*
X185295238Y-64530000D01*
X185295238Y-64530000D02*
X185390476Y-64577619D01*
X185390476Y-64577619D02*
X185485714Y-64577619D01*
X119690476Y-148430000D02*
X119833333Y-148477619D01*
X119833333Y-148477619D02*
X120071428Y-148477619D01*
X120071428Y-148477619D02*
X120166666Y-148430000D01*
X120166666Y-148430000D02*
X120214285Y-148382380D01*
X120214285Y-148382380D02*
X120261904Y-148287142D01*
X120261904Y-148287142D02*
X120261904Y-148191904D01*
X120261904Y-148191904D02*
X120214285Y-148096666D01*
X120214285Y-148096666D02*
X120166666Y-148049047D01*
X120166666Y-148049047D02*
X120071428Y-148001428D01*
X120071428Y-148001428D02*
X119880952Y-147953809D01*
X119880952Y-147953809D02*
X119785714Y-147906190D01*
X119785714Y-147906190D02*
X119738095Y-147858571D01*
X119738095Y-147858571D02*
X119690476Y-147763333D01*
X119690476Y-147763333D02*
X119690476Y-147668095D01*
X119690476Y-147668095D02*
X119738095Y-147572857D01*
X119738095Y-147572857D02*
X119785714Y-147525238D01*
X119785714Y-147525238D02*
X119880952Y-147477619D01*
X119880952Y-147477619D02*
X120119047Y-147477619D01*
X120119047Y-147477619D02*
X120261904Y-147525238D01*
X121119047Y-148477619D02*
X121119047Y-147953809D01*
X121119047Y-147953809D02*
X121071428Y-147858571D01*
X121071428Y-147858571D02*
X120976190Y-147810952D01*
X120976190Y-147810952D02*
X120785714Y-147810952D01*
X120785714Y-147810952D02*
X120690476Y-147858571D01*
X121119047Y-148430000D02*
X121023809Y-148477619D01*
X121023809Y-148477619D02*
X120785714Y-148477619D01*
X120785714Y-148477619D02*
X120690476Y-148430000D01*
X120690476Y-148430000D02*
X120642857Y-148334761D01*
X120642857Y-148334761D02*
X120642857Y-148239523D01*
X120642857Y-148239523D02*
X120690476Y-148144285D01*
X120690476Y-148144285D02*
X120785714Y-148096666D01*
X120785714Y-148096666D02*
X121023809Y-148096666D01*
X121023809Y-148096666D02*
X121119047Y-148049047D01*
X121595238Y-148477619D02*
X121595238Y-147810952D01*
X121595238Y-148001428D02*
X121642857Y-147906190D01*
X121642857Y-147906190D02*
X121690476Y-147858571D01*
X121690476Y-147858571D02*
X121785714Y-147810952D01*
X121785714Y-147810952D02*
X121880952Y-147810952D01*
X122642857Y-148477619D02*
X122642857Y-147953809D01*
X122642857Y-147953809D02*
X122595238Y-147858571D01*
X122595238Y-147858571D02*
X122500000Y-147810952D01*
X122500000Y-147810952D02*
X122309524Y-147810952D01*
X122309524Y-147810952D02*
X122214286Y-147858571D01*
X122642857Y-148430000D02*
X122547619Y-148477619D01*
X122547619Y-148477619D02*
X122309524Y-148477619D01*
X122309524Y-148477619D02*
X122214286Y-148430000D01*
X122214286Y-148430000D02*
X122166667Y-148334761D01*
X122166667Y-148334761D02*
X122166667Y-148239523D01*
X122166667Y-148239523D02*
X122214286Y-148144285D01*
X122214286Y-148144285D02*
X122309524Y-148096666D01*
X122309524Y-148096666D02*
X122547619Y-148096666D01*
X122547619Y-148096666D02*
X122642857Y-148049047D01*
X123119048Y-148477619D02*
X123119048Y-147477619D01*
X123547619Y-148477619D02*
X123547619Y-147953809D01*
X123547619Y-147953809D02*
X123500000Y-147858571D01*
X123500000Y-147858571D02*
X123404762Y-147810952D01*
X123404762Y-147810952D02*
X123261905Y-147810952D01*
X123261905Y-147810952D02*
X123166667Y-147858571D01*
X123166667Y-147858571D02*
X123119048Y-147906190D01*
X124642858Y-147477619D02*
X125214286Y-147477619D01*
X124928572Y-148477619D02*
X124928572Y-147477619D01*
X125976191Y-148477619D02*
X125976191Y-147953809D01*
X125976191Y-147953809D02*
X125928572Y-147858571D01*
X125928572Y-147858571D02*
X125833334Y-147810952D01*
X125833334Y-147810952D02*
X125642858Y-147810952D01*
X125642858Y-147810952D02*
X125547620Y-147858571D01*
X125976191Y-148430000D02*
X125880953Y-148477619D01*
X125880953Y-148477619D02*
X125642858Y-148477619D01*
X125642858Y-148477619D02*
X125547620Y-148430000D01*
X125547620Y-148430000D02*
X125500001Y-148334761D01*
X125500001Y-148334761D02*
X125500001Y-148239523D01*
X125500001Y-148239523D02*
X125547620Y-148144285D01*
X125547620Y-148144285D02*
X125642858Y-148096666D01*
X125642858Y-148096666D02*
X125880953Y-148096666D01*
X125880953Y-148096666D02*
X125976191Y-148049047D01*
X126595239Y-148477619D02*
X126500001Y-148430000D01*
X126500001Y-148430000D02*
X126452382Y-148334761D01*
X126452382Y-148334761D02*
X126452382Y-147477619D01*
X127119049Y-148477619D02*
X127023811Y-148430000D01*
X127023811Y-148430000D02*
X126976192Y-148334761D01*
X126976192Y-148334761D02*
X126976192Y-147477619D01*
X127928573Y-148477619D02*
X127928573Y-147953809D01*
X127928573Y-147953809D02*
X127880954Y-147858571D01*
X127880954Y-147858571D02*
X127785716Y-147810952D01*
X127785716Y-147810952D02*
X127595240Y-147810952D01*
X127595240Y-147810952D02*
X127500002Y-147858571D01*
X127928573Y-148430000D02*
X127833335Y-148477619D01*
X127833335Y-148477619D02*
X127595240Y-148477619D01*
X127595240Y-148477619D02*
X127500002Y-148430000D01*
X127500002Y-148430000D02*
X127452383Y-148334761D01*
X127452383Y-148334761D02*
X127452383Y-148239523D01*
X127452383Y-148239523D02*
X127500002Y-148144285D01*
X127500002Y-148144285D02*
X127595240Y-148096666D01*
X127595240Y-148096666D02*
X127833335Y-148096666D01*
X127833335Y-148096666D02*
X127928573Y-148049047D01*
X128833335Y-148430000D02*
X128738097Y-148477619D01*
X128738097Y-148477619D02*
X128547621Y-148477619D01*
X128547621Y-148477619D02*
X128452383Y-148430000D01*
X128452383Y-148430000D02*
X128404764Y-148382380D01*
X128404764Y-148382380D02*
X128357145Y-148287142D01*
X128357145Y-148287142D02*
X128357145Y-148001428D01*
X128357145Y-148001428D02*
X128404764Y-147906190D01*
X128404764Y-147906190D02*
X128452383Y-147858571D01*
X128452383Y-147858571D02*
X128547621Y-147810952D01*
X128547621Y-147810952D02*
X128738097Y-147810952D01*
X128738097Y-147810952D02*
X128833335Y-147858571D01*
X129261907Y-148477619D02*
X129261907Y-147477619D01*
X129357145Y-148096666D02*
X129642859Y-148477619D01*
X129642859Y-147810952D02*
X129261907Y-148191904D01*
X130785717Y-147572857D02*
X130833336Y-147525238D01*
X130833336Y-147525238D02*
X130928574Y-147477619D01*
X130928574Y-147477619D02*
X131166669Y-147477619D01*
X131166669Y-147477619D02*
X131261907Y-147525238D01*
X131261907Y-147525238D02*
X131309526Y-147572857D01*
X131309526Y-147572857D02*
X131357145Y-147668095D01*
X131357145Y-147668095D02*
X131357145Y-147763333D01*
X131357145Y-147763333D02*
X131309526Y-147906190D01*
X131309526Y-147906190D02*
X130738098Y-148477619D01*
X130738098Y-148477619D02*
X131357145Y-148477619D01*
X131976193Y-147477619D02*
X132071431Y-147477619D01*
X132071431Y-147477619D02*
X132166669Y-147525238D01*
X132166669Y-147525238D02*
X132214288Y-147572857D01*
X132214288Y-147572857D02*
X132261907Y-147668095D01*
X132261907Y-147668095D02*
X132309526Y-147858571D01*
X132309526Y-147858571D02*
X132309526Y-148096666D01*
X132309526Y-148096666D02*
X132261907Y-148287142D01*
X132261907Y-148287142D02*
X132214288Y-148382380D01*
X132214288Y-148382380D02*
X132166669Y-148430000D01*
X132166669Y-148430000D02*
X132071431Y-148477619D01*
X132071431Y-148477619D02*
X131976193Y-148477619D01*
X131976193Y-148477619D02*
X131880955Y-148430000D01*
X131880955Y-148430000D02*
X131833336Y-148382380D01*
X131833336Y-148382380D02*
X131785717Y-148287142D01*
X131785717Y-148287142D02*
X131738098Y-148096666D01*
X131738098Y-148096666D02*
X131738098Y-147858571D01*
X131738098Y-147858571D02*
X131785717Y-147668095D01*
X131785717Y-147668095D02*
X131833336Y-147572857D01*
X131833336Y-147572857D02*
X131880955Y-147525238D01*
X131880955Y-147525238D02*
X131976193Y-147477619D01*
X132690479Y-147572857D02*
X132738098Y-147525238D01*
X132738098Y-147525238D02*
X132833336Y-147477619D01*
X132833336Y-147477619D02*
X133071431Y-147477619D01*
X133071431Y-147477619D02*
X133166669Y-147525238D01*
X133166669Y-147525238D02*
X133214288Y-147572857D01*
X133214288Y-147572857D02*
X133261907Y-147668095D01*
X133261907Y-147668095D02*
X133261907Y-147763333D01*
X133261907Y-147763333D02*
X133214288Y-147906190D01*
X133214288Y-147906190D02*
X132642860Y-148477619D01*
X132642860Y-148477619D02*
X133261907Y-148477619D01*
X133595241Y-147477619D02*
X134214288Y-147477619D01*
X134214288Y-147477619D02*
X133880955Y-147858571D01*
X133880955Y-147858571D02*
X134023812Y-147858571D01*
X134023812Y-147858571D02*
X134119050Y-147906190D01*
X134119050Y-147906190D02*
X134166669Y-147953809D01*
X134166669Y-147953809D02*
X134214288Y-148049047D01*
X134214288Y-148049047D02*
X134214288Y-148287142D01*
X134214288Y-148287142D02*
X134166669Y-148382380D01*
X134166669Y-148382380D02*
X134119050Y-148430000D01*
X134119050Y-148430000D02*
X134023812Y-148477619D01*
X134023812Y-148477619D02*
X133738098Y-148477619D01*
X133738098Y-148477619D02*
X133642860Y-148430000D01*
X133642860Y-148430000D02*
X133595241Y-148382380D01*
X182771429Y-133696666D02*
X183533334Y-133696666D01*
X183152381Y-134077619D02*
X183152381Y-133315714D01*
X184485714Y-133077619D02*
X184009524Y-133077619D01*
X184009524Y-133077619D02*
X183961905Y-133553809D01*
X183961905Y-133553809D02*
X184009524Y-133506190D01*
X184009524Y-133506190D02*
X184104762Y-133458571D01*
X184104762Y-133458571D02*
X184342857Y-133458571D01*
X184342857Y-133458571D02*
X184438095Y-133506190D01*
X184438095Y-133506190D02*
X184485714Y-133553809D01*
X184485714Y-133553809D02*
X184533333Y-133649047D01*
X184533333Y-133649047D02*
X184533333Y-133887142D01*
X184533333Y-133887142D02*
X184485714Y-133982380D01*
X184485714Y-133982380D02*
X184438095Y-134030000D01*
X184438095Y-134030000D02*
X184342857Y-134077619D01*
X184342857Y-134077619D02*
X184104762Y-134077619D01*
X184104762Y-134077619D02*
X184009524Y-134030000D01*
X184009524Y-134030000D02*
X183961905Y-133982380D01*
X184819048Y-133077619D02*
X185152381Y-134077619D01*
X185152381Y-134077619D02*
X185485714Y-133077619D01*
X98338095Y-133696666D02*
X99100000Y-133696666D01*
X98719047Y-134077619D02*
X98719047Y-133315714D01*
X100052380Y-133077619D02*
X99576190Y-133077619D01*
X99576190Y-133077619D02*
X99528571Y-133553809D01*
X99528571Y-133553809D02*
X99576190Y-133506190D01*
X99576190Y-133506190D02*
X99671428Y-133458571D01*
X99671428Y-133458571D02*
X99909523Y-133458571D01*
X99909523Y-133458571D02*
X100004761Y-133506190D01*
X100004761Y-133506190D02*
X100052380Y-133553809D01*
X100052380Y-133553809D02*
X100099999Y-133649047D01*
X100099999Y-133649047D02*
X100099999Y-133887142D01*
X100099999Y-133887142D02*
X100052380Y-133982380D01*
X100052380Y-133982380D02*
X100004761Y-134030000D01*
X100004761Y-134030000D02*
X99909523Y-134077619D01*
X99909523Y-134077619D02*
X99671428Y-134077619D01*
X99671428Y-134077619D02*
X99576190Y-134030000D01*
X99576190Y-134030000D02*
X99528571Y-133982380D01*
X100385714Y-133077619D02*
X100719047Y-134077619D01*
X100719047Y-134077619D02*
X101052380Y-133077619D01*
X98338095Y-97696666D02*
X99100000Y-97696666D01*
X98719047Y-98077619D02*
X98719047Y-97315714D01*
X100052380Y-97077619D02*
X99576190Y-97077619D01*
X99576190Y-97077619D02*
X99528571Y-97553809D01*
X99528571Y-97553809D02*
X99576190Y-97506190D01*
X99576190Y-97506190D02*
X99671428Y-97458571D01*
X99671428Y-97458571D02*
X99909523Y-97458571D01*
X99909523Y-97458571D02*
X100004761Y-97506190D01*
X100004761Y-97506190D02*
X100052380Y-97553809D01*
X100052380Y-97553809D02*
X100099999Y-97649047D01*
X100099999Y-97649047D02*
X100099999Y-97887142D01*
X100099999Y-97887142D02*
X100052380Y-97982380D01*
X100052380Y-97982380D02*
X100004761Y-98030000D01*
X100004761Y-98030000D02*
X99909523Y-98077619D01*
X99909523Y-98077619D02*
X99671428Y-98077619D01*
X99671428Y-98077619D02*
X99576190Y-98030000D01*
X99576190Y-98030000D02*
X99528571Y-97982380D01*
X100385714Y-97077619D02*
X100719047Y-98077619D01*
X100719047Y-98077619D02*
X101052380Y-97077619D01*
X183295238Y-104725238D02*
X183200000Y-104677619D01*
X183200000Y-104677619D02*
X183057143Y-104677619D01*
X183057143Y-104677619D02*
X182914286Y-104725238D01*
X182914286Y-104725238D02*
X182819048Y-104820476D01*
X182819048Y-104820476D02*
X182771429Y-104915714D01*
X182771429Y-104915714D02*
X182723810Y-105106190D01*
X182723810Y-105106190D02*
X182723810Y-105249047D01*
X182723810Y-105249047D02*
X182771429Y-105439523D01*
X182771429Y-105439523D02*
X182819048Y-105534761D01*
X182819048Y-105534761D02*
X182914286Y-105630000D01*
X182914286Y-105630000D02*
X183057143Y-105677619D01*
X183057143Y-105677619D02*
X183152381Y-105677619D01*
X183152381Y-105677619D02*
X183295238Y-105630000D01*
X183295238Y-105630000D02*
X183342857Y-105582380D01*
X183342857Y-105582380D02*
X183342857Y-105249047D01*
X183342857Y-105249047D02*
X183152381Y-105249047D01*
X183771429Y-105677619D02*
X183771429Y-104677619D01*
X183771429Y-104677619D02*
X184342857Y-105677619D01*
X184342857Y-105677619D02*
X184342857Y-104677619D01*
X184819048Y-105677619D02*
X184819048Y-104677619D01*
X184819048Y-104677619D02*
X185057143Y-104677619D01*
X185057143Y-104677619D02*
X185200000Y-104725238D01*
X185200000Y-104725238D02*
X185295238Y-104820476D01*
X185295238Y-104820476D02*
X185342857Y-104915714D01*
X185342857Y-104915714D02*
X185390476Y-105106190D01*
X185390476Y-105106190D02*
X185390476Y-105249047D01*
X185390476Y-105249047D02*
X185342857Y-105439523D01*
X185342857Y-105439523D02*
X185295238Y-105534761D01*
X185295238Y-105534761D02*
X185200000Y-105630000D01*
X185200000Y-105630000D02*
X185057143Y-105677619D01*
X185057143Y-105677619D02*
X184819048Y-105677619D01*
X98961904Y-68725238D02*
X98866666Y-68677619D01*
X98866666Y-68677619D02*
X98723809Y-68677619D01*
X98723809Y-68677619D02*
X98580952Y-68725238D01*
X98580952Y-68725238D02*
X98485714Y-68820476D01*
X98485714Y-68820476D02*
X98438095Y-68915714D01*
X98438095Y-68915714D02*
X98390476Y-69106190D01*
X98390476Y-69106190D02*
X98390476Y-69249047D01*
X98390476Y-69249047D02*
X98438095Y-69439523D01*
X98438095Y-69439523D02*
X98485714Y-69534761D01*
X98485714Y-69534761D02*
X98580952Y-69630000D01*
X98580952Y-69630000D02*
X98723809Y-69677619D01*
X98723809Y-69677619D02*
X98819047Y-69677619D01*
X98819047Y-69677619D02*
X98961904Y-69630000D01*
X98961904Y-69630000D02*
X99009523Y-69582380D01*
X99009523Y-69582380D02*
X99009523Y-69249047D01*
X99009523Y-69249047D02*
X98819047Y-69249047D01*
X99438095Y-69677619D02*
X99438095Y-68677619D01*
X99438095Y-68677619D02*
X100009523Y-69677619D01*
X100009523Y-69677619D02*
X100009523Y-68677619D01*
X100485714Y-69677619D02*
X100485714Y-68677619D01*
X100485714Y-68677619D02*
X100723809Y-68677619D01*
X100723809Y-68677619D02*
X100866666Y-68725238D01*
X100866666Y-68725238D02*
X100961904Y-68820476D01*
X100961904Y-68820476D02*
X101009523Y-68915714D01*
X101009523Y-68915714D02*
X101057142Y-69106190D01*
X101057142Y-69106190D02*
X101057142Y-69249047D01*
X101057142Y-69249047D02*
X101009523Y-69439523D01*
X101009523Y-69439523D02*
X100961904Y-69534761D01*
X100961904Y-69534761D02*
X100866666Y-69630000D01*
X100866666Y-69630000D02*
X100723809Y-69677619D01*
X100723809Y-69677619D02*
X100485714Y-69677619D01*
X98961904Y-104725238D02*
X98866666Y-104677619D01*
X98866666Y-104677619D02*
X98723809Y-104677619D01*
X98723809Y-104677619D02*
X98580952Y-104725238D01*
X98580952Y-104725238D02*
X98485714Y-104820476D01*
X98485714Y-104820476D02*
X98438095Y-104915714D01*
X98438095Y-104915714D02*
X98390476Y-105106190D01*
X98390476Y-105106190D02*
X98390476Y-105249047D01*
X98390476Y-105249047D02*
X98438095Y-105439523D01*
X98438095Y-105439523D02*
X98485714Y-105534761D01*
X98485714Y-105534761D02*
X98580952Y-105630000D01*
X98580952Y-105630000D02*
X98723809Y-105677619D01*
X98723809Y-105677619D02*
X98819047Y-105677619D01*
X98819047Y-105677619D02*
X98961904Y-105630000D01*
X98961904Y-105630000D02*
X99009523Y-105582380D01*
X99009523Y-105582380D02*
X99009523Y-105249047D01*
X99009523Y-105249047D02*
X98819047Y-105249047D01*
X99438095Y-105677619D02*
X99438095Y-104677619D01*
X99438095Y-104677619D02*
X100009523Y-105677619D01*
X100009523Y-105677619D02*
X100009523Y-104677619D01*
X100485714Y-105677619D02*
X100485714Y-104677619D01*
X100485714Y-104677619D02*
X100723809Y-104677619D01*
X100723809Y-104677619D02*
X100866666Y-104725238D01*
X100866666Y-104725238D02*
X100961904Y-104820476D01*
X100961904Y-104820476D02*
X101009523Y-104915714D01*
X101009523Y-104915714D02*
X101057142Y-105106190D01*
X101057142Y-105106190D02*
X101057142Y-105249047D01*
X101057142Y-105249047D02*
X101009523Y-105439523D01*
X101009523Y-105439523D02*
X100961904Y-105534761D01*
X100961904Y-105534761D02*
X100866666Y-105630000D01*
X100866666Y-105630000D02*
X100723809Y-105677619D01*
X100723809Y-105677619D02*
X100485714Y-105677619D01*
X98961904Y-138225238D02*
X98866666Y-138177619D01*
X98866666Y-138177619D02*
X98723809Y-138177619D01*
X98723809Y-138177619D02*
X98580952Y-138225238D01*
X98580952Y-138225238D02*
X98485714Y-138320476D01*
X98485714Y-138320476D02*
X98438095Y-138415714D01*
X98438095Y-138415714D02*
X98390476Y-138606190D01*
X98390476Y-138606190D02*
X98390476Y-138749047D01*
X98390476Y-138749047D02*
X98438095Y-138939523D01*
X98438095Y-138939523D02*
X98485714Y-139034761D01*
X98485714Y-139034761D02*
X98580952Y-139130000D01*
X98580952Y-139130000D02*
X98723809Y-139177619D01*
X98723809Y-139177619D02*
X98819047Y-139177619D01*
X98819047Y-139177619D02*
X98961904Y-139130000D01*
X98961904Y-139130000D02*
X99009523Y-139082380D01*
X99009523Y-139082380D02*
X99009523Y-138749047D01*
X99009523Y-138749047D02*
X98819047Y-138749047D01*
X99438095Y-139177619D02*
X99438095Y-138177619D01*
X99438095Y-138177619D02*
X100009523Y-139177619D01*
X100009523Y-139177619D02*
X100009523Y-138177619D01*
X100485714Y-139177619D02*
X100485714Y-138177619D01*
X100485714Y-138177619D02*
X100723809Y-138177619D01*
X100723809Y-138177619D02*
X100866666Y-138225238D01*
X100866666Y-138225238D02*
X100961904Y-138320476D01*
X100961904Y-138320476D02*
X101009523Y-138415714D01*
X101009523Y-138415714D02*
X101057142Y-138606190D01*
X101057142Y-138606190D02*
X101057142Y-138749047D01*
X101057142Y-138749047D02*
X101009523Y-138939523D01*
X101009523Y-138939523D02*
X100961904Y-139034761D01*
X100961904Y-139034761D02*
X100866666Y-139130000D01*
X100866666Y-139130000D02*
X100723809Y-139177619D01*
X100723809Y-139177619D02*
X100485714Y-139177619D01*
X183295238Y-138225238D02*
X183200000Y-138177619D01*
X183200000Y-138177619D02*
X183057143Y-138177619D01*
X183057143Y-138177619D02*
X182914286Y-138225238D01*
X182914286Y-138225238D02*
X182819048Y-138320476D01*
X182819048Y-138320476D02*
X182771429Y-138415714D01*
X182771429Y-138415714D02*
X182723810Y-138606190D01*
X182723810Y-138606190D02*
X182723810Y-138749047D01*
X182723810Y-138749047D02*
X182771429Y-138939523D01*
X182771429Y-138939523D02*
X182819048Y-139034761D01*
X182819048Y-139034761D02*
X182914286Y-139130000D01*
X182914286Y-139130000D02*
X183057143Y-139177619D01*
X183057143Y-139177619D02*
X183152381Y-139177619D01*
X183152381Y-139177619D02*
X183295238Y-139130000D01*
X183295238Y-139130000D02*
X183342857Y-139082380D01*
X183342857Y-139082380D02*
X183342857Y-138749047D01*
X183342857Y-138749047D02*
X183152381Y-138749047D01*
X183771429Y-139177619D02*
X183771429Y-138177619D01*
X183771429Y-138177619D02*
X184342857Y-139177619D01*
X184342857Y-139177619D02*
X184342857Y-138177619D01*
X184819048Y-139177619D02*
X184819048Y-138177619D01*
X184819048Y-138177619D02*
X185057143Y-138177619D01*
X185057143Y-138177619D02*
X185200000Y-138225238D01*
X185200000Y-138225238D02*
X185295238Y-138320476D01*
X185295238Y-138320476D02*
X185342857Y-138415714D01*
X185342857Y-138415714D02*
X185390476Y-138606190D01*
X185390476Y-138606190D02*
X185390476Y-138749047D01*
X185390476Y-138749047D02*
X185342857Y-138939523D01*
X185342857Y-138939523D02*
X185295238Y-139034761D01*
X185295238Y-139034761D02*
X185200000Y-139130000D01*
X185200000Y-139130000D02*
X185057143Y-139177619D01*
X185057143Y-139177619D02*
X184819048Y-139177619D01*
X183295238Y-66225238D02*
X183200000Y-66177619D01*
X183200000Y-66177619D02*
X183057143Y-66177619D01*
X183057143Y-66177619D02*
X182914286Y-66225238D01*
X182914286Y-66225238D02*
X182819048Y-66320476D01*
X182819048Y-66320476D02*
X182771429Y-66415714D01*
X182771429Y-66415714D02*
X182723810Y-66606190D01*
X182723810Y-66606190D02*
X182723810Y-66749047D01*
X182723810Y-66749047D02*
X182771429Y-66939523D01*
X182771429Y-66939523D02*
X182819048Y-67034761D01*
X182819048Y-67034761D02*
X182914286Y-67130000D01*
X182914286Y-67130000D02*
X183057143Y-67177619D01*
X183057143Y-67177619D02*
X183152381Y-67177619D01*
X183152381Y-67177619D02*
X183295238Y-67130000D01*
X183295238Y-67130000D02*
X183342857Y-67082380D01*
X183342857Y-67082380D02*
X183342857Y-66749047D01*
X183342857Y-66749047D02*
X183152381Y-66749047D01*
X183771429Y-67177619D02*
X183771429Y-66177619D01*
X183771429Y-66177619D02*
X184342857Y-67177619D01*
X184342857Y-67177619D02*
X184342857Y-66177619D01*
X184819048Y-67177619D02*
X184819048Y-66177619D01*
X184819048Y-66177619D02*
X185057143Y-66177619D01*
X185057143Y-66177619D02*
X185200000Y-66225238D01*
X185200000Y-66225238D02*
X185295238Y-66320476D01*
X185295238Y-66320476D02*
X185342857Y-66415714D01*
X185342857Y-66415714D02*
X185390476Y-66606190D01*
X185390476Y-66606190D02*
X185390476Y-66749047D01*
X185390476Y-66749047D02*
X185342857Y-66939523D01*
X185342857Y-66939523D02*
X185295238Y-67034761D01*
X185295238Y-67034761D02*
X185200000Y-67130000D01*
X185200000Y-67130000D02*
X185057143Y-67177619D01*
X185057143Y-67177619D02*
X184819048Y-67177619D01*
X98438095Y-100577619D02*
X98438095Y-99577619D01*
X98438095Y-99577619D02*
X98676190Y-99577619D01*
X98676190Y-99577619D02*
X98819047Y-99625238D01*
X98819047Y-99625238D02*
X98914285Y-99720476D01*
X98914285Y-99720476D02*
X98961904Y-99815714D01*
X98961904Y-99815714D02*
X99009523Y-100006190D01*
X99009523Y-100006190D02*
X99009523Y-100149047D01*
X99009523Y-100149047D02*
X98961904Y-100339523D01*
X98961904Y-100339523D02*
X98914285Y-100434761D01*
X98914285Y-100434761D02*
X98819047Y-100530000D01*
X98819047Y-100530000D02*
X98676190Y-100577619D01*
X98676190Y-100577619D02*
X98438095Y-100577619D01*
X99438095Y-100577619D02*
X99438095Y-99910952D01*
X99438095Y-99577619D02*
X99390476Y-99625238D01*
X99390476Y-99625238D02*
X99438095Y-99672857D01*
X99438095Y-99672857D02*
X99485714Y-99625238D01*
X99485714Y-99625238D02*
X99438095Y-99577619D01*
X99438095Y-99577619D02*
X99438095Y-99672857D01*
X99914285Y-99910952D02*
X99914285Y-100577619D01*
X99914285Y-100006190D02*
X99961904Y-99958571D01*
X99961904Y-99958571D02*
X100057142Y-99910952D01*
X100057142Y-99910952D02*
X100199999Y-99910952D01*
X100199999Y-99910952D02*
X100295237Y-99958571D01*
X100295237Y-99958571D02*
X100342856Y-100053809D01*
X100342856Y-100053809D02*
X100342856Y-100577619D01*
X182438095Y-100577619D02*
X182438095Y-99577619D01*
X182438095Y-99577619D02*
X182676190Y-99577619D01*
X182676190Y-99577619D02*
X182819047Y-99625238D01*
X182819047Y-99625238D02*
X182914285Y-99720476D01*
X182914285Y-99720476D02*
X182961904Y-99815714D01*
X182961904Y-99815714D02*
X183009523Y-100006190D01*
X183009523Y-100006190D02*
X183009523Y-100149047D01*
X183009523Y-100149047D02*
X182961904Y-100339523D01*
X182961904Y-100339523D02*
X182914285Y-100434761D01*
X182914285Y-100434761D02*
X182819047Y-100530000D01*
X182819047Y-100530000D02*
X182676190Y-100577619D01*
X182676190Y-100577619D02*
X182438095Y-100577619D01*
X183580952Y-100577619D02*
X183485714Y-100530000D01*
X183485714Y-100530000D02*
X183438095Y-100482380D01*
X183438095Y-100482380D02*
X183390476Y-100387142D01*
X183390476Y-100387142D02*
X183390476Y-100101428D01*
X183390476Y-100101428D02*
X183438095Y-100006190D01*
X183438095Y-100006190D02*
X183485714Y-99958571D01*
X183485714Y-99958571D02*
X183580952Y-99910952D01*
X183580952Y-99910952D02*
X183723809Y-99910952D01*
X183723809Y-99910952D02*
X183819047Y-99958571D01*
X183819047Y-99958571D02*
X183866666Y-100006190D01*
X183866666Y-100006190D02*
X183914285Y-100101428D01*
X183914285Y-100101428D02*
X183914285Y-100387142D01*
X183914285Y-100387142D02*
X183866666Y-100482380D01*
X183866666Y-100482380D02*
X183819047Y-100530000D01*
X183819047Y-100530000D02*
X183723809Y-100577619D01*
X183723809Y-100577619D02*
X183580952Y-100577619D01*
X184771428Y-99910952D02*
X184771428Y-100577619D01*
X184342857Y-99910952D02*
X184342857Y-100434761D01*
X184342857Y-100434761D02*
X184390476Y-100530000D01*
X184390476Y-100530000D02*
X184485714Y-100577619D01*
X184485714Y-100577619D02*
X184628571Y-100577619D01*
X184628571Y-100577619D02*
X184723809Y-100530000D01*
X184723809Y-100530000D02*
X184771428Y-100482380D01*
X185104762Y-99910952D02*
X185485714Y-99910952D01*
X185247619Y-99577619D02*
X185247619Y-100434761D01*
X185247619Y-100434761D02*
X185295238Y-100530000D01*
X185295238Y-100530000D02*
X185390476Y-100577619D01*
X185390476Y-100577619D02*
X185485714Y-100577619D01*
X98961904Y-140725238D02*
X98866666Y-140677619D01*
X98866666Y-140677619D02*
X98723809Y-140677619D01*
X98723809Y-140677619D02*
X98580952Y-140725238D01*
X98580952Y-140725238D02*
X98485714Y-140820476D01*
X98485714Y-140820476D02*
X98438095Y-140915714D01*
X98438095Y-140915714D02*
X98390476Y-141106190D01*
X98390476Y-141106190D02*
X98390476Y-141249047D01*
X98390476Y-141249047D02*
X98438095Y-141439523D01*
X98438095Y-141439523D02*
X98485714Y-141534761D01*
X98485714Y-141534761D02*
X98580952Y-141630000D01*
X98580952Y-141630000D02*
X98723809Y-141677619D01*
X98723809Y-141677619D02*
X98819047Y-141677619D01*
X98819047Y-141677619D02*
X98961904Y-141630000D01*
X98961904Y-141630000D02*
X99009523Y-141582380D01*
X99009523Y-141582380D02*
X99009523Y-141249047D01*
X99009523Y-141249047D02*
X98819047Y-141249047D01*
X99438095Y-141677619D02*
X99438095Y-140677619D01*
X99438095Y-140677619D02*
X100009523Y-141677619D01*
X100009523Y-141677619D02*
X100009523Y-140677619D01*
X100485714Y-141677619D02*
X100485714Y-140677619D01*
X100485714Y-140677619D02*
X100723809Y-140677619D01*
X100723809Y-140677619D02*
X100866666Y-140725238D01*
X100866666Y-140725238D02*
X100961904Y-140820476D01*
X100961904Y-140820476D02*
X101009523Y-140915714D01*
X101009523Y-140915714D02*
X101057142Y-141106190D01*
X101057142Y-141106190D02*
X101057142Y-141249047D01*
X101057142Y-141249047D02*
X101009523Y-141439523D01*
X101009523Y-141439523D02*
X100961904Y-141534761D01*
X100961904Y-141534761D02*
X100866666Y-141630000D01*
X100866666Y-141630000D02*
X100723809Y-141677619D01*
X100723809Y-141677619D02*
X100485714Y-141677619D01*
X183295238Y-140725238D02*
X183200000Y-140677619D01*
X183200000Y-140677619D02*
X183057143Y-140677619D01*
X183057143Y-140677619D02*
X182914286Y-140725238D01*
X182914286Y-140725238D02*
X182819048Y-140820476D01*
X182819048Y-140820476D02*
X182771429Y-140915714D01*
X182771429Y-140915714D02*
X182723810Y-141106190D01*
X182723810Y-141106190D02*
X182723810Y-141249047D01*
X182723810Y-141249047D02*
X182771429Y-141439523D01*
X182771429Y-141439523D02*
X182819048Y-141534761D01*
X182819048Y-141534761D02*
X182914286Y-141630000D01*
X182914286Y-141630000D02*
X183057143Y-141677619D01*
X183057143Y-141677619D02*
X183152381Y-141677619D01*
X183152381Y-141677619D02*
X183295238Y-141630000D01*
X183295238Y-141630000D02*
X183342857Y-141582380D01*
X183342857Y-141582380D02*
X183342857Y-141249047D01*
X183342857Y-141249047D02*
X183152381Y-141249047D01*
X183771429Y-141677619D02*
X183771429Y-140677619D01*
X183771429Y-140677619D02*
X184342857Y-141677619D01*
X184342857Y-141677619D02*
X184342857Y-140677619D01*
X184819048Y-141677619D02*
X184819048Y-140677619D01*
X184819048Y-140677619D02*
X185057143Y-140677619D01*
X185057143Y-140677619D02*
X185200000Y-140725238D01*
X185200000Y-140725238D02*
X185295238Y-140820476D01*
X185295238Y-140820476D02*
X185342857Y-140915714D01*
X185342857Y-140915714D02*
X185390476Y-141106190D01*
X185390476Y-141106190D02*
X185390476Y-141249047D01*
X185390476Y-141249047D02*
X185342857Y-141439523D01*
X185342857Y-141439523D02*
X185295238Y-141534761D01*
X185295238Y-141534761D02*
X185200000Y-141630000D01*
X185200000Y-141630000D02*
X185057143Y-141677619D01*
X185057143Y-141677619D02*
X184819048Y-141677619D01*
X141009523Y-148577619D02*
X140676190Y-148101428D01*
X140438095Y-148577619D02*
X140438095Y-147577619D01*
X140438095Y-147577619D02*
X140819047Y-147577619D01*
X140819047Y-147577619D02*
X140914285Y-147625238D01*
X140914285Y-147625238D02*
X140961904Y-147672857D01*
X140961904Y-147672857D02*
X141009523Y-147768095D01*
X141009523Y-147768095D02*
X141009523Y-147910952D01*
X141009523Y-147910952D02*
X140961904Y-148006190D01*
X140961904Y-148006190D02*
X140914285Y-148053809D01*
X140914285Y-148053809D02*
X140819047Y-148101428D01*
X140819047Y-148101428D02*
X140438095Y-148101428D01*
X141961904Y-147625238D02*
X141866666Y-147577619D01*
X141866666Y-147577619D02*
X141723809Y-147577619D01*
X141723809Y-147577619D02*
X141580952Y-147625238D01*
X141580952Y-147625238D02*
X141485714Y-147720476D01*
X141485714Y-147720476D02*
X141438095Y-147815714D01*
X141438095Y-147815714D02*
X141390476Y-148006190D01*
X141390476Y-148006190D02*
X141390476Y-148149047D01*
X141390476Y-148149047D02*
X141438095Y-148339523D01*
X141438095Y-148339523D02*
X141485714Y-148434761D01*
X141485714Y-148434761D02*
X141580952Y-148530000D01*
X141580952Y-148530000D02*
X141723809Y-148577619D01*
X141723809Y-148577619D02*
X141819047Y-148577619D01*
X141819047Y-148577619D02*
X141961904Y-148530000D01*
X141961904Y-148530000D02*
X142009523Y-148482380D01*
X142009523Y-148482380D02*
X142009523Y-148149047D01*
X142009523Y-148149047D02*
X141819047Y-148149047D01*
X142771428Y-148053809D02*
X142914285Y-148101428D01*
X142914285Y-148101428D02*
X142961904Y-148149047D01*
X142961904Y-148149047D02*
X143009523Y-148244285D01*
X143009523Y-148244285D02*
X143009523Y-148387142D01*
X143009523Y-148387142D02*
X142961904Y-148482380D01*
X142961904Y-148482380D02*
X142914285Y-148530000D01*
X142914285Y-148530000D02*
X142819047Y-148577619D01*
X142819047Y-148577619D02*
X142438095Y-148577619D01*
X142438095Y-148577619D02*
X142438095Y-147577619D01*
X142438095Y-147577619D02*
X142771428Y-147577619D01*
X142771428Y-147577619D02*
X142866666Y-147625238D01*
X142866666Y-147625238D02*
X142914285Y-147672857D01*
X142914285Y-147672857D02*
X142961904Y-147768095D01*
X142961904Y-147768095D02*
X142961904Y-147863333D01*
X142961904Y-147863333D02*
X142914285Y-147958571D01*
X142914285Y-147958571D02*
X142866666Y-148006190D01*
X142866666Y-148006190D02*
X142771428Y-148053809D01*
X142771428Y-148053809D02*
X142438095Y-148053809D01*
X144676190Y-148577619D02*
X144200000Y-148577619D01*
X144200000Y-148577619D02*
X144200000Y-147577619D01*
X145009524Y-148053809D02*
X145342857Y-148053809D01*
X145485714Y-148577619D02*
X145009524Y-148577619D01*
X145009524Y-148577619D02*
X145009524Y-147577619D01*
X145009524Y-147577619D02*
X145485714Y-147577619D01*
X145914286Y-148577619D02*
X145914286Y-147577619D01*
X145914286Y-147577619D02*
X146152381Y-147577619D01*
X146152381Y-147577619D02*
X146295238Y-147625238D01*
X146295238Y-147625238D02*
X146390476Y-147720476D01*
X146390476Y-147720476D02*
X146438095Y-147815714D01*
X146438095Y-147815714D02*
X146485714Y-148006190D01*
X146485714Y-148006190D02*
X146485714Y-148149047D01*
X146485714Y-148149047D02*
X146438095Y-148339523D01*
X146438095Y-148339523D02*
X146390476Y-148434761D01*
X146390476Y-148434761D02*
X146295238Y-148530000D01*
X146295238Y-148530000D02*
X146152381Y-148577619D01*
X146152381Y-148577619D02*
X145914286Y-148577619D01*
X147628572Y-148291904D02*
X148104762Y-148291904D01*
X147533334Y-148577619D02*
X147866667Y-147577619D01*
X147866667Y-147577619D02*
X148200000Y-148577619D01*
X148533334Y-148577619D02*
X148533334Y-147910952D01*
X148533334Y-148101428D02*
X148580953Y-148006190D01*
X148580953Y-148006190D02*
X148628572Y-147958571D01*
X148628572Y-147958571D02*
X148723810Y-147910952D01*
X148723810Y-147910952D02*
X148819048Y-147910952D01*
X149152382Y-148577619D02*
X149152382Y-147910952D01*
X149152382Y-148101428D02*
X149200001Y-148006190D01*
X149200001Y-148006190D02*
X149247620Y-147958571D01*
X149247620Y-147958571D02*
X149342858Y-147910952D01*
X149342858Y-147910952D02*
X149438096Y-147910952D01*
X150200001Y-148577619D02*
X150200001Y-148053809D01*
X150200001Y-148053809D02*
X150152382Y-147958571D01*
X150152382Y-147958571D02*
X150057144Y-147910952D01*
X150057144Y-147910952D02*
X149866668Y-147910952D01*
X149866668Y-147910952D02*
X149771430Y-147958571D01*
X150200001Y-148530000D02*
X150104763Y-148577619D01*
X150104763Y-148577619D02*
X149866668Y-148577619D01*
X149866668Y-148577619D02*
X149771430Y-148530000D01*
X149771430Y-148530000D02*
X149723811Y-148434761D01*
X149723811Y-148434761D02*
X149723811Y-148339523D01*
X149723811Y-148339523D02*
X149771430Y-148244285D01*
X149771430Y-148244285D02*
X149866668Y-148196666D01*
X149866668Y-148196666D02*
X150104763Y-148196666D01*
X150104763Y-148196666D02*
X150200001Y-148149047D01*
X150580954Y-147910952D02*
X150819049Y-148577619D01*
X151057144Y-147910952D02*
X150819049Y-148577619D01*
X150819049Y-148577619D02*
X150723811Y-148815714D01*
X150723811Y-148815714D02*
X150676192Y-148863333D01*
X150676192Y-148863333D02*
X150580954Y-148910952D01*
X152057145Y-147577619D02*
X152390478Y-148577619D01*
X152390478Y-148577619D02*
X152723811Y-147577619D01*
X153580954Y-148577619D02*
X153009526Y-148577619D01*
X153295240Y-148577619D02*
X153295240Y-147577619D01*
X153295240Y-147577619D02*
X153200002Y-147720476D01*
X153200002Y-147720476D02*
X153104764Y-147815714D01*
X153104764Y-147815714D02*
X153009526Y-147863333D01*
X183295238Y-102225238D02*
X183200000Y-102177619D01*
X183200000Y-102177619D02*
X183057143Y-102177619D01*
X183057143Y-102177619D02*
X182914286Y-102225238D01*
X182914286Y-102225238D02*
X182819048Y-102320476D01*
X182819048Y-102320476D02*
X182771429Y-102415714D01*
X182771429Y-102415714D02*
X182723810Y-102606190D01*
X182723810Y-102606190D02*
X182723810Y-102749047D01*
X182723810Y-102749047D02*
X182771429Y-102939523D01*
X182771429Y-102939523D02*
X182819048Y-103034761D01*
X182819048Y-103034761D02*
X182914286Y-103130000D01*
X182914286Y-103130000D02*
X183057143Y-103177619D01*
X183057143Y-103177619D02*
X183152381Y-103177619D01*
X183152381Y-103177619D02*
X183295238Y-103130000D01*
X183295238Y-103130000D02*
X183342857Y-103082380D01*
X183342857Y-103082380D02*
X183342857Y-102749047D01*
X183342857Y-102749047D02*
X183152381Y-102749047D01*
X183771429Y-103177619D02*
X183771429Y-102177619D01*
X183771429Y-102177619D02*
X184342857Y-103177619D01*
X184342857Y-103177619D02*
X184342857Y-102177619D01*
X184819048Y-103177619D02*
X184819048Y-102177619D01*
X184819048Y-102177619D02*
X185057143Y-102177619D01*
X185057143Y-102177619D02*
X185200000Y-102225238D01*
X185200000Y-102225238D02*
X185295238Y-102320476D01*
X185295238Y-102320476D02*
X185342857Y-102415714D01*
X185342857Y-102415714D02*
X185390476Y-102606190D01*
X185390476Y-102606190D02*
X185390476Y-102749047D01*
X185390476Y-102749047D02*
X185342857Y-102939523D01*
X185342857Y-102939523D02*
X185295238Y-103034761D01*
X185295238Y-103034761D02*
X185200000Y-103130000D01*
X185200000Y-103130000D02*
X185057143Y-103177619D01*
X185057143Y-103177619D02*
X184819048Y-103177619D01*
%TO.C,C9*%
X180271755Y-131884485D02*
X180319375Y-131932104D01*
X180319375Y-131932104D02*
X180366994Y-132074961D01*
X180366994Y-132074961D02*
X180366994Y-132170199D01*
X180366994Y-132170199D02*
X180319375Y-132313056D01*
X180319375Y-132313056D02*
X180224136Y-132408294D01*
X180224136Y-132408294D02*
X180128898Y-132455913D01*
X180128898Y-132455913D02*
X179938422Y-132503532D01*
X179938422Y-132503532D02*
X179795565Y-132503532D01*
X179795565Y-132503532D02*
X179605089Y-132455913D01*
X179605089Y-132455913D02*
X179509851Y-132408294D01*
X179509851Y-132408294D02*
X179414613Y-132313056D01*
X179414613Y-132313056D02*
X179366994Y-132170199D01*
X179366994Y-132170199D02*
X179366994Y-132074961D01*
X179366994Y-132074961D02*
X179414613Y-131932104D01*
X179414613Y-131932104D02*
X179462232Y-131884485D01*
X180366994Y-131408294D02*
X180366994Y-131217818D01*
X180366994Y-131217818D02*
X180319375Y-131122580D01*
X180319375Y-131122580D02*
X180271755Y-131074961D01*
X180271755Y-131074961D02*
X180128898Y-130979723D01*
X180128898Y-130979723D02*
X179938422Y-130932104D01*
X179938422Y-130932104D02*
X179557470Y-130932104D01*
X179557470Y-130932104D02*
X179462232Y-130979723D01*
X179462232Y-130979723D02*
X179414613Y-131027342D01*
X179414613Y-131027342D02*
X179366994Y-131122580D01*
X179366994Y-131122580D02*
X179366994Y-131313056D01*
X179366994Y-131313056D02*
X179414613Y-131408294D01*
X179414613Y-131408294D02*
X179462232Y-131455913D01*
X179462232Y-131455913D02*
X179557470Y-131503532D01*
X179557470Y-131503532D02*
X179795565Y-131503532D01*
X179795565Y-131503532D02*
X179890803Y-131455913D01*
X179890803Y-131455913D02*
X179938422Y-131408294D01*
X179938422Y-131408294D02*
X179986041Y-131313056D01*
X179986041Y-131313056D02*
X179986041Y-131122580D01*
X179986041Y-131122580D02*
X179938422Y-131027342D01*
X179938422Y-131027342D02*
X179890803Y-130979723D01*
X179890803Y-130979723D02*
X179795565Y-130932104D01*
%TO.C,J3*%
X95716666Y-94678869D02*
X95716666Y-95393154D01*
X95716666Y-95393154D02*
X95669047Y-95536011D01*
X95669047Y-95536011D02*
X95573809Y-95631250D01*
X95573809Y-95631250D02*
X95430952Y-95678869D01*
X95430952Y-95678869D02*
X95335714Y-95678869D01*
X96097619Y-94678869D02*
X96716666Y-94678869D01*
X96716666Y-94678869D02*
X96383333Y-95059821D01*
X96383333Y-95059821D02*
X96526190Y-95059821D01*
X96526190Y-95059821D02*
X96621428Y-95107440D01*
X96621428Y-95107440D02*
X96669047Y-95155059D01*
X96669047Y-95155059D02*
X96716666Y-95250297D01*
X96716666Y-95250297D02*
X96716666Y-95488392D01*
X96716666Y-95488392D02*
X96669047Y-95583630D01*
X96669047Y-95583630D02*
X96621428Y-95631250D01*
X96621428Y-95631250D02*
X96526190Y-95678869D01*
X96526190Y-95678869D02*
X96240476Y-95678869D01*
X96240476Y-95678869D02*
X96145238Y-95631250D01*
X96145238Y-95631250D02*
X96097619Y-95583630D01*
%TO.C,C16*%
X162371755Y-96912542D02*
X162419375Y-96960161D01*
X162419375Y-96960161D02*
X162466994Y-97103018D01*
X162466994Y-97103018D02*
X162466994Y-97198256D01*
X162466994Y-97198256D02*
X162419375Y-97341113D01*
X162419375Y-97341113D02*
X162324136Y-97436351D01*
X162324136Y-97436351D02*
X162228898Y-97483970D01*
X162228898Y-97483970D02*
X162038422Y-97531589D01*
X162038422Y-97531589D02*
X161895565Y-97531589D01*
X161895565Y-97531589D02*
X161705089Y-97483970D01*
X161705089Y-97483970D02*
X161609851Y-97436351D01*
X161609851Y-97436351D02*
X161514613Y-97341113D01*
X161514613Y-97341113D02*
X161466994Y-97198256D01*
X161466994Y-97198256D02*
X161466994Y-97103018D01*
X161466994Y-97103018D02*
X161514613Y-96960161D01*
X161514613Y-96960161D02*
X161562232Y-96912542D01*
X162466994Y-95960161D02*
X162466994Y-96531589D01*
X162466994Y-96245875D02*
X161466994Y-96245875D01*
X161466994Y-96245875D02*
X161609851Y-96341113D01*
X161609851Y-96341113D02*
X161705089Y-96436351D01*
X161705089Y-96436351D02*
X161752708Y-96531589D01*
X161466994Y-95103018D02*
X161466994Y-95293494D01*
X161466994Y-95293494D02*
X161514613Y-95388732D01*
X161514613Y-95388732D02*
X161562232Y-95436351D01*
X161562232Y-95436351D02*
X161705089Y-95531589D01*
X161705089Y-95531589D02*
X161895565Y-95579208D01*
X161895565Y-95579208D02*
X162276517Y-95579208D01*
X162276517Y-95579208D02*
X162371755Y-95531589D01*
X162371755Y-95531589D02*
X162419375Y-95483970D01*
X162419375Y-95483970D02*
X162466994Y-95388732D01*
X162466994Y-95388732D02*
X162466994Y-95198256D01*
X162466994Y-95198256D02*
X162419375Y-95103018D01*
X162419375Y-95103018D02*
X162371755Y-95055399D01*
X162371755Y-95055399D02*
X162276517Y-95007780D01*
X162276517Y-95007780D02*
X162038422Y-95007780D01*
X162038422Y-95007780D02*
X161943184Y-95055399D01*
X161943184Y-95055399D02*
X161895565Y-95103018D01*
X161895565Y-95103018D02*
X161847946Y-95198256D01*
X161847946Y-95198256D02*
X161847946Y-95388732D01*
X161847946Y-95388732D02*
X161895565Y-95483970D01*
X161895565Y-95483970D02*
X161943184Y-95531589D01*
X161943184Y-95531589D02*
X162038422Y-95579208D01*
%TO.C,D26*%
X166205744Y-67865242D02*
X165205744Y-67865242D01*
X165205744Y-67865242D02*
X165205744Y-67627147D01*
X165205744Y-67627147D02*
X165253363Y-67484290D01*
X165253363Y-67484290D02*
X165348601Y-67389052D01*
X165348601Y-67389052D02*
X165443839Y-67341433D01*
X165443839Y-67341433D02*
X165634315Y-67293814D01*
X165634315Y-67293814D02*
X165777172Y-67293814D01*
X165777172Y-67293814D02*
X165967648Y-67341433D01*
X165967648Y-67341433D02*
X166062886Y-67389052D01*
X166062886Y-67389052D02*
X166158125Y-67484290D01*
X166158125Y-67484290D02*
X166205744Y-67627147D01*
X166205744Y-67627147D02*
X166205744Y-67865242D01*
X165300982Y-66912861D02*
X165253363Y-66865242D01*
X165253363Y-66865242D02*
X165205744Y-66770004D01*
X165205744Y-66770004D02*
X165205744Y-66531909D01*
X165205744Y-66531909D02*
X165253363Y-66436671D01*
X165253363Y-66436671D02*
X165300982Y-66389052D01*
X165300982Y-66389052D02*
X165396220Y-66341433D01*
X165396220Y-66341433D02*
X165491458Y-66341433D01*
X165491458Y-66341433D02*
X165634315Y-66389052D01*
X165634315Y-66389052D02*
X166205744Y-66960480D01*
X166205744Y-66960480D02*
X166205744Y-66341433D01*
X165205744Y-65484290D02*
X165205744Y-65674766D01*
X165205744Y-65674766D02*
X165253363Y-65770004D01*
X165253363Y-65770004D02*
X165300982Y-65817623D01*
X165300982Y-65817623D02*
X165443839Y-65912861D01*
X165443839Y-65912861D02*
X165634315Y-65960480D01*
X165634315Y-65960480D02*
X166015267Y-65960480D01*
X166015267Y-65960480D02*
X166110505Y-65912861D01*
X166110505Y-65912861D02*
X166158125Y-65865242D01*
X166158125Y-65865242D02*
X166205744Y-65770004D01*
X166205744Y-65770004D02*
X166205744Y-65579528D01*
X166205744Y-65579528D02*
X166158125Y-65484290D01*
X166158125Y-65484290D02*
X166110505Y-65436671D01*
X166110505Y-65436671D02*
X166015267Y-65389052D01*
X166015267Y-65389052D02*
X165777172Y-65389052D01*
X165777172Y-65389052D02*
X165681934Y-65436671D01*
X165681934Y-65436671D02*
X165634315Y-65484290D01*
X165634315Y-65484290D02*
X165586696Y-65579528D01*
X165586696Y-65579528D02*
X165586696Y-65770004D01*
X165586696Y-65770004D02*
X165634315Y-65865242D01*
X165634315Y-65865242D02*
X165681934Y-65912861D01*
X165681934Y-65912861D02*
X165777172Y-65960480D01*
%TO.C,D20*%
X112205744Y-67865242D02*
X111205744Y-67865242D01*
X111205744Y-67865242D02*
X111205744Y-67627147D01*
X111205744Y-67627147D02*
X111253363Y-67484290D01*
X111253363Y-67484290D02*
X111348601Y-67389052D01*
X111348601Y-67389052D02*
X111443839Y-67341433D01*
X111443839Y-67341433D02*
X111634315Y-67293814D01*
X111634315Y-67293814D02*
X111777172Y-67293814D01*
X111777172Y-67293814D02*
X111967648Y-67341433D01*
X111967648Y-67341433D02*
X112062886Y-67389052D01*
X112062886Y-67389052D02*
X112158125Y-67484290D01*
X112158125Y-67484290D02*
X112205744Y-67627147D01*
X112205744Y-67627147D02*
X112205744Y-67865242D01*
X111300982Y-66912861D02*
X111253363Y-66865242D01*
X111253363Y-66865242D02*
X111205744Y-66770004D01*
X111205744Y-66770004D02*
X111205744Y-66531909D01*
X111205744Y-66531909D02*
X111253363Y-66436671D01*
X111253363Y-66436671D02*
X111300982Y-66389052D01*
X111300982Y-66389052D02*
X111396220Y-66341433D01*
X111396220Y-66341433D02*
X111491458Y-66341433D01*
X111491458Y-66341433D02*
X111634315Y-66389052D01*
X111634315Y-66389052D02*
X112205744Y-66960480D01*
X112205744Y-66960480D02*
X112205744Y-66341433D01*
X111205744Y-65722385D02*
X111205744Y-65627147D01*
X111205744Y-65627147D02*
X111253363Y-65531909D01*
X111253363Y-65531909D02*
X111300982Y-65484290D01*
X111300982Y-65484290D02*
X111396220Y-65436671D01*
X111396220Y-65436671D02*
X111586696Y-65389052D01*
X111586696Y-65389052D02*
X111824791Y-65389052D01*
X111824791Y-65389052D02*
X112015267Y-65436671D01*
X112015267Y-65436671D02*
X112110505Y-65484290D01*
X112110505Y-65484290D02*
X112158125Y-65531909D01*
X112158125Y-65531909D02*
X112205744Y-65627147D01*
X112205744Y-65627147D02*
X112205744Y-65722385D01*
X112205744Y-65722385D02*
X112158125Y-65817623D01*
X112158125Y-65817623D02*
X112110505Y-65865242D01*
X112110505Y-65865242D02*
X112015267Y-65912861D01*
X112015267Y-65912861D02*
X111824791Y-65960480D01*
X111824791Y-65960480D02*
X111586696Y-65960480D01*
X111586696Y-65960480D02*
X111396220Y-65912861D01*
X111396220Y-65912861D02*
X111300982Y-65865242D01*
X111300982Y-65865242D02*
X111253363Y-65817623D01*
X111253363Y-65817623D02*
X111205744Y-65722385D01*
%TO.C,D16*%
X157155744Y-103957253D02*
X156155744Y-103957253D01*
X156155744Y-103957253D02*
X156155744Y-103719158D01*
X156155744Y-103719158D02*
X156203363Y-103576301D01*
X156203363Y-103576301D02*
X156298601Y-103481063D01*
X156298601Y-103481063D02*
X156393839Y-103433444D01*
X156393839Y-103433444D02*
X156584315Y-103385825D01*
X156584315Y-103385825D02*
X156727172Y-103385825D01*
X156727172Y-103385825D02*
X156917648Y-103433444D01*
X156917648Y-103433444D02*
X157012886Y-103481063D01*
X157012886Y-103481063D02*
X157108125Y-103576301D01*
X157108125Y-103576301D02*
X157155744Y-103719158D01*
X157155744Y-103719158D02*
X157155744Y-103957253D01*
X157155744Y-102433444D02*
X157155744Y-103004872D01*
X157155744Y-102719158D02*
X156155744Y-102719158D01*
X156155744Y-102719158D02*
X156298601Y-102814396D01*
X156298601Y-102814396D02*
X156393839Y-102909634D01*
X156393839Y-102909634D02*
X156441458Y-103004872D01*
X156155744Y-101576301D02*
X156155744Y-101766777D01*
X156155744Y-101766777D02*
X156203363Y-101862015D01*
X156203363Y-101862015D02*
X156250982Y-101909634D01*
X156250982Y-101909634D02*
X156393839Y-102004872D01*
X156393839Y-102004872D02*
X156584315Y-102052491D01*
X156584315Y-102052491D02*
X156965267Y-102052491D01*
X156965267Y-102052491D02*
X157060505Y-102004872D01*
X157060505Y-102004872D02*
X157108125Y-101957253D01*
X157108125Y-101957253D02*
X157155744Y-101862015D01*
X157155744Y-101862015D02*
X157155744Y-101671539D01*
X157155744Y-101671539D02*
X157108125Y-101576301D01*
X157108125Y-101576301D02*
X157060505Y-101528682D01*
X157060505Y-101528682D02*
X156965267Y-101481063D01*
X156965267Y-101481063D02*
X156727172Y-101481063D01*
X156727172Y-101481063D02*
X156631934Y-101528682D01*
X156631934Y-101528682D02*
X156584315Y-101576301D01*
X156584315Y-101576301D02*
X156536696Y-101671539D01*
X156536696Y-101671539D02*
X156536696Y-101862015D01*
X156536696Y-101862015D02*
X156584315Y-101957253D01*
X156584315Y-101957253D02*
X156631934Y-102004872D01*
X156631934Y-102004872D02*
X156727172Y-102052491D01*
%TO.C,J2*%
X187616666Y-130678869D02*
X187616666Y-131393154D01*
X187616666Y-131393154D02*
X187569047Y-131536011D01*
X187569047Y-131536011D02*
X187473809Y-131631250D01*
X187473809Y-131631250D02*
X187330952Y-131678869D01*
X187330952Y-131678869D02*
X187235714Y-131678869D01*
X188045238Y-130774107D02*
X188092857Y-130726488D01*
X188092857Y-130726488D02*
X188188095Y-130678869D01*
X188188095Y-130678869D02*
X188426190Y-130678869D01*
X188426190Y-130678869D02*
X188521428Y-130726488D01*
X188521428Y-130726488D02*
X188569047Y-130774107D01*
X188569047Y-130774107D02*
X188616666Y-130869345D01*
X188616666Y-130869345D02*
X188616666Y-130964583D01*
X188616666Y-130964583D02*
X188569047Y-131107440D01*
X188569047Y-131107440D02*
X187997619Y-131678869D01*
X187997619Y-131678869D02*
X188616666Y-131678869D01*
%TO.C,C1*%
X108271755Y-131884485D02*
X108319375Y-131932104D01*
X108319375Y-131932104D02*
X108366994Y-132074961D01*
X108366994Y-132074961D02*
X108366994Y-132170199D01*
X108366994Y-132170199D02*
X108319375Y-132313056D01*
X108319375Y-132313056D02*
X108224136Y-132408294D01*
X108224136Y-132408294D02*
X108128898Y-132455913D01*
X108128898Y-132455913D02*
X107938422Y-132503532D01*
X107938422Y-132503532D02*
X107795565Y-132503532D01*
X107795565Y-132503532D02*
X107605089Y-132455913D01*
X107605089Y-132455913D02*
X107509851Y-132408294D01*
X107509851Y-132408294D02*
X107414613Y-132313056D01*
X107414613Y-132313056D02*
X107366994Y-132170199D01*
X107366994Y-132170199D02*
X107366994Y-132074961D01*
X107366994Y-132074961D02*
X107414613Y-131932104D01*
X107414613Y-131932104D02*
X107462232Y-131884485D01*
X108366994Y-130932104D02*
X108366994Y-131503532D01*
X108366994Y-131217818D02*
X107366994Y-131217818D01*
X107366994Y-131217818D02*
X107509851Y-131313056D01*
X107509851Y-131313056D02*
X107605089Y-131408294D01*
X107605089Y-131408294D02*
X107652708Y-131503532D01*
%TO.C,D2*%
X112155744Y-139405913D02*
X111155744Y-139405913D01*
X111155744Y-139405913D02*
X111155744Y-139167818D01*
X111155744Y-139167818D02*
X111203363Y-139024961D01*
X111203363Y-139024961D02*
X111298601Y-138929723D01*
X111298601Y-138929723D02*
X111393839Y-138882104D01*
X111393839Y-138882104D02*
X111584315Y-138834485D01*
X111584315Y-138834485D02*
X111727172Y-138834485D01*
X111727172Y-138834485D02*
X111917648Y-138882104D01*
X111917648Y-138882104D02*
X112012886Y-138929723D01*
X112012886Y-138929723D02*
X112108125Y-139024961D01*
X112108125Y-139024961D02*
X112155744Y-139167818D01*
X112155744Y-139167818D02*
X112155744Y-139405913D01*
X111250982Y-138453532D02*
X111203363Y-138405913D01*
X111203363Y-138405913D02*
X111155744Y-138310675D01*
X111155744Y-138310675D02*
X111155744Y-138072580D01*
X111155744Y-138072580D02*
X111203363Y-137977342D01*
X111203363Y-137977342D02*
X111250982Y-137929723D01*
X111250982Y-137929723D02*
X111346220Y-137882104D01*
X111346220Y-137882104D02*
X111441458Y-137882104D01*
X111441458Y-137882104D02*
X111584315Y-137929723D01*
X111584315Y-137929723D02*
X112155744Y-138501151D01*
X112155744Y-138501151D02*
X112155744Y-137882104D01*
%TO.C,D10*%
X103155744Y-103957253D02*
X102155744Y-103957253D01*
X102155744Y-103957253D02*
X102155744Y-103719158D01*
X102155744Y-103719158D02*
X102203363Y-103576301D01*
X102203363Y-103576301D02*
X102298601Y-103481063D01*
X102298601Y-103481063D02*
X102393839Y-103433444D01*
X102393839Y-103433444D02*
X102584315Y-103385825D01*
X102584315Y-103385825D02*
X102727172Y-103385825D01*
X102727172Y-103385825D02*
X102917648Y-103433444D01*
X102917648Y-103433444D02*
X103012886Y-103481063D01*
X103012886Y-103481063D02*
X103108125Y-103576301D01*
X103108125Y-103576301D02*
X103155744Y-103719158D01*
X103155744Y-103719158D02*
X103155744Y-103957253D01*
X103155744Y-102433444D02*
X103155744Y-103004872D01*
X103155744Y-102719158D02*
X102155744Y-102719158D01*
X102155744Y-102719158D02*
X102298601Y-102814396D01*
X102298601Y-102814396D02*
X102393839Y-102909634D01*
X102393839Y-102909634D02*
X102441458Y-103004872D01*
X102155744Y-101814396D02*
X102155744Y-101719158D01*
X102155744Y-101719158D02*
X102203363Y-101623920D01*
X102203363Y-101623920D02*
X102250982Y-101576301D01*
X102250982Y-101576301D02*
X102346220Y-101528682D01*
X102346220Y-101528682D02*
X102536696Y-101481063D01*
X102536696Y-101481063D02*
X102774791Y-101481063D01*
X102774791Y-101481063D02*
X102965267Y-101528682D01*
X102965267Y-101528682D02*
X103060505Y-101576301D01*
X103060505Y-101576301D02*
X103108125Y-101623920D01*
X103108125Y-101623920D02*
X103155744Y-101719158D01*
X103155744Y-101719158D02*
X103155744Y-101814396D01*
X103155744Y-101814396D02*
X103108125Y-101909634D01*
X103108125Y-101909634D02*
X103060505Y-101957253D01*
X103060505Y-101957253D02*
X102965267Y-102004872D01*
X102965267Y-102004872D02*
X102774791Y-102052491D01*
X102774791Y-102052491D02*
X102536696Y-102052491D01*
X102536696Y-102052491D02*
X102346220Y-102004872D01*
X102346220Y-102004872D02*
X102250982Y-101957253D01*
X102250982Y-101957253D02*
X102203363Y-101909634D01*
X102203363Y-101909634D02*
X102155744Y-101814396D01*
%TO.C,C26*%
X171421755Y-60864919D02*
X171469375Y-60912538D01*
X171469375Y-60912538D02*
X171516994Y-61055395D01*
X171516994Y-61055395D02*
X171516994Y-61150633D01*
X171516994Y-61150633D02*
X171469375Y-61293490D01*
X171469375Y-61293490D02*
X171374136Y-61388728D01*
X171374136Y-61388728D02*
X171278898Y-61436347D01*
X171278898Y-61436347D02*
X171088422Y-61483966D01*
X171088422Y-61483966D02*
X170945565Y-61483966D01*
X170945565Y-61483966D02*
X170755089Y-61436347D01*
X170755089Y-61436347D02*
X170659851Y-61388728D01*
X170659851Y-61388728D02*
X170564613Y-61293490D01*
X170564613Y-61293490D02*
X170516994Y-61150633D01*
X170516994Y-61150633D02*
X170516994Y-61055395D01*
X170516994Y-61055395D02*
X170564613Y-60912538D01*
X170564613Y-60912538D02*
X170612232Y-60864919D01*
X170612232Y-60483966D02*
X170564613Y-60436347D01*
X170564613Y-60436347D02*
X170516994Y-60341109D01*
X170516994Y-60341109D02*
X170516994Y-60103014D01*
X170516994Y-60103014D02*
X170564613Y-60007776D01*
X170564613Y-60007776D02*
X170612232Y-59960157D01*
X170612232Y-59960157D02*
X170707470Y-59912538D01*
X170707470Y-59912538D02*
X170802708Y-59912538D01*
X170802708Y-59912538D02*
X170945565Y-59960157D01*
X170945565Y-59960157D02*
X171516994Y-60531585D01*
X171516994Y-60531585D02*
X171516994Y-59912538D01*
X170516994Y-59055395D02*
X170516994Y-59245871D01*
X170516994Y-59245871D02*
X170564613Y-59341109D01*
X170564613Y-59341109D02*
X170612232Y-59388728D01*
X170612232Y-59388728D02*
X170755089Y-59483966D01*
X170755089Y-59483966D02*
X170945565Y-59531585D01*
X170945565Y-59531585D02*
X171326517Y-59531585D01*
X171326517Y-59531585D02*
X171421755Y-59483966D01*
X171421755Y-59483966D02*
X171469375Y-59436347D01*
X171469375Y-59436347D02*
X171516994Y-59341109D01*
X171516994Y-59341109D02*
X171516994Y-59150633D01*
X171516994Y-59150633D02*
X171469375Y-59055395D01*
X171469375Y-59055395D02*
X171421755Y-59007776D01*
X171421755Y-59007776D02*
X171326517Y-58960157D01*
X171326517Y-58960157D02*
X171088422Y-58960157D01*
X171088422Y-58960157D02*
X170993184Y-59007776D01*
X170993184Y-59007776D02*
X170945565Y-59055395D01*
X170945565Y-59055395D02*
X170897946Y-59150633D01*
X170897946Y-59150633D02*
X170897946Y-59341109D01*
X170897946Y-59341109D02*
X170945565Y-59436347D01*
X170945565Y-59436347D02*
X170993184Y-59483966D01*
X170993184Y-59483966D02*
X171088422Y-59531585D01*
%TO.C,D7*%
X157155744Y-139405913D02*
X156155744Y-139405913D01*
X156155744Y-139405913D02*
X156155744Y-139167818D01*
X156155744Y-139167818D02*
X156203363Y-139024961D01*
X156203363Y-139024961D02*
X156298601Y-138929723D01*
X156298601Y-138929723D02*
X156393839Y-138882104D01*
X156393839Y-138882104D02*
X156584315Y-138834485D01*
X156584315Y-138834485D02*
X156727172Y-138834485D01*
X156727172Y-138834485D02*
X156917648Y-138882104D01*
X156917648Y-138882104D02*
X157012886Y-138929723D01*
X157012886Y-138929723D02*
X157108125Y-139024961D01*
X157108125Y-139024961D02*
X157155744Y-139167818D01*
X157155744Y-139167818D02*
X157155744Y-139405913D01*
X156155744Y-138501151D02*
X156155744Y-137834485D01*
X156155744Y-137834485D02*
X157155744Y-138263056D01*
%TO.C,C18*%
X180371755Y-96912542D02*
X180419375Y-96960161D01*
X180419375Y-96960161D02*
X180466994Y-97103018D01*
X180466994Y-97103018D02*
X180466994Y-97198256D01*
X180466994Y-97198256D02*
X180419375Y-97341113D01*
X180419375Y-97341113D02*
X180324136Y-97436351D01*
X180324136Y-97436351D02*
X180228898Y-97483970D01*
X180228898Y-97483970D02*
X180038422Y-97531589D01*
X180038422Y-97531589D02*
X179895565Y-97531589D01*
X179895565Y-97531589D02*
X179705089Y-97483970D01*
X179705089Y-97483970D02*
X179609851Y-97436351D01*
X179609851Y-97436351D02*
X179514613Y-97341113D01*
X179514613Y-97341113D02*
X179466994Y-97198256D01*
X179466994Y-97198256D02*
X179466994Y-97103018D01*
X179466994Y-97103018D02*
X179514613Y-96960161D01*
X179514613Y-96960161D02*
X179562232Y-96912542D01*
X180466994Y-95960161D02*
X180466994Y-96531589D01*
X180466994Y-96245875D02*
X179466994Y-96245875D01*
X179466994Y-96245875D02*
X179609851Y-96341113D01*
X179609851Y-96341113D02*
X179705089Y-96436351D01*
X179705089Y-96436351D02*
X179752708Y-96531589D01*
X179895565Y-95388732D02*
X179847946Y-95483970D01*
X179847946Y-95483970D02*
X179800327Y-95531589D01*
X179800327Y-95531589D02*
X179705089Y-95579208D01*
X179705089Y-95579208D02*
X179657470Y-95579208D01*
X179657470Y-95579208D02*
X179562232Y-95531589D01*
X179562232Y-95531589D02*
X179514613Y-95483970D01*
X179514613Y-95483970D02*
X179466994Y-95388732D01*
X179466994Y-95388732D02*
X179466994Y-95198256D01*
X179466994Y-95198256D02*
X179514613Y-95103018D01*
X179514613Y-95103018D02*
X179562232Y-95055399D01*
X179562232Y-95055399D02*
X179657470Y-95007780D01*
X179657470Y-95007780D02*
X179705089Y-95007780D01*
X179705089Y-95007780D02*
X179800327Y-95055399D01*
X179800327Y-95055399D02*
X179847946Y-95103018D01*
X179847946Y-95103018D02*
X179895565Y-95198256D01*
X179895565Y-95198256D02*
X179895565Y-95388732D01*
X179895565Y-95388732D02*
X179943184Y-95483970D01*
X179943184Y-95483970D02*
X179990803Y-95531589D01*
X179990803Y-95531589D02*
X180086041Y-95579208D01*
X180086041Y-95579208D02*
X180276517Y-95579208D01*
X180276517Y-95579208D02*
X180371755Y-95531589D01*
X180371755Y-95531589D02*
X180419375Y-95483970D01*
X180419375Y-95483970D02*
X180466994Y-95388732D01*
X180466994Y-95388732D02*
X180466994Y-95198256D01*
X180466994Y-95198256D02*
X180419375Y-95103018D01*
X180419375Y-95103018D02*
X180371755Y-95055399D01*
X180371755Y-95055399D02*
X180276517Y-95007780D01*
X180276517Y-95007780D02*
X180086041Y-95007780D01*
X180086041Y-95007780D02*
X179990803Y-95055399D01*
X179990803Y-95055399D02*
X179943184Y-95103018D01*
X179943184Y-95103018D02*
X179895565Y-95198256D01*
%TO.C,J6*%
X187616666Y-58678869D02*
X187616666Y-59393154D01*
X187616666Y-59393154D02*
X187569047Y-59536011D01*
X187569047Y-59536011D02*
X187473809Y-59631250D01*
X187473809Y-59631250D02*
X187330952Y-59678869D01*
X187330952Y-59678869D02*
X187235714Y-59678869D01*
X188521428Y-58678869D02*
X188330952Y-58678869D01*
X188330952Y-58678869D02*
X188235714Y-58726488D01*
X188235714Y-58726488D02*
X188188095Y-58774107D01*
X188188095Y-58774107D02*
X188092857Y-58916964D01*
X188092857Y-58916964D02*
X188045238Y-59107440D01*
X188045238Y-59107440D02*
X188045238Y-59488392D01*
X188045238Y-59488392D02*
X188092857Y-59583630D01*
X188092857Y-59583630D02*
X188140476Y-59631250D01*
X188140476Y-59631250D02*
X188235714Y-59678869D01*
X188235714Y-59678869D02*
X188426190Y-59678869D01*
X188426190Y-59678869D02*
X188521428Y-59631250D01*
X188521428Y-59631250D02*
X188569047Y-59583630D01*
X188569047Y-59583630D02*
X188616666Y-59488392D01*
X188616666Y-59488392D02*
X188616666Y-59250297D01*
X188616666Y-59250297D02*
X188569047Y-59155059D01*
X188569047Y-59155059D02*
X188521428Y-59107440D01*
X188521428Y-59107440D02*
X188426190Y-59059821D01*
X188426190Y-59059821D02*
X188235714Y-59059821D01*
X188235714Y-59059821D02*
X188140476Y-59107440D01*
X188140476Y-59107440D02*
X188092857Y-59155059D01*
X188092857Y-59155059D02*
X188045238Y-59250297D01*
%TO.C,D25*%
X157205744Y-67865242D02*
X156205744Y-67865242D01*
X156205744Y-67865242D02*
X156205744Y-67627147D01*
X156205744Y-67627147D02*
X156253363Y-67484290D01*
X156253363Y-67484290D02*
X156348601Y-67389052D01*
X156348601Y-67389052D02*
X156443839Y-67341433D01*
X156443839Y-67341433D02*
X156634315Y-67293814D01*
X156634315Y-67293814D02*
X156777172Y-67293814D01*
X156777172Y-67293814D02*
X156967648Y-67341433D01*
X156967648Y-67341433D02*
X157062886Y-67389052D01*
X157062886Y-67389052D02*
X157158125Y-67484290D01*
X157158125Y-67484290D02*
X157205744Y-67627147D01*
X157205744Y-67627147D02*
X157205744Y-67865242D01*
X156300982Y-66912861D02*
X156253363Y-66865242D01*
X156253363Y-66865242D02*
X156205744Y-66770004D01*
X156205744Y-66770004D02*
X156205744Y-66531909D01*
X156205744Y-66531909D02*
X156253363Y-66436671D01*
X156253363Y-66436671D02*
X156300982Y-66389052D01*
X156300982Y-66389052D02*
X156396220Y-66341433D01*
X156396220Y-66341433D02*
X156491458Y-66341433D01*
X156491458Y-66341433D02*
X156634315Y-66389052D01*
X156634315Y-66389052D02*
X157205744Y-66960480D01*
X157205744Y-66960480D02*
X157205744Y-66341433D01*
X156205744Y-65436671D02*
X156205744Y-65912861D01*
X156205744Y-65912861D02*
X156681934Y-65960480D01*
X156681934Y-65960480D02*
X156634315Y-65912861D01*
X156634315Y-65912861D02*
X156586696Y-65817623D01*
X156586696Y-65817623D02*
X156586696Y-65579528D01*
X156586696Y-65579528D02*
X156634315Y-65484290D01*
X156634315Y-65484290D02*
X156681934Y-65436671D01*
X156681934Y-65436671D02*
X156777172Y-65389052D01*
X156777172Y-65389052D02*
X157015267Y-65389052D01*
X157015267Y-65389052D02*
X157110505Y-65436671D01*
X157110505Y-65436671D02*
X157158125Y-65484290D01*
X157158125Y-65484290D02*
X157205744Y-65579528D01*
X157205744Y-65579528D02*
X157205744Y-65817623D01*
X157205744Y-65817623D02*
X157158125Y-65912861D01*
X157158125Y-65912861D02*
X157110505Y-65960480D01*
%TO.C,D8*%
X166155744Y-139405913D02*
X165155744Y-139405913D01*
X165155744Y-139405913D02*
X165155744Y-139167818D01*
X165155744Y-139167818D02*
X165203363Y-139024961D01*
X165203363Y-139024961D02*
X165298601Y-138929723D01*
X165298601Y-138929723D02*
X165393839Y-138882104D01*
X165393839Y-138882104D02*
X165584315Y-138834485D01*
X165584315Y-138834485D02*
X165727172Y-138834485D01*
X165727172Y-138834485D02*
X165917648Y-138882104D01*
X165917648Y-138882104D02*
X166012886Y-138929723D01*
X166012886Y-138929723D02*
X166108125Y-139024961D01*
X166108125Y-139024961D02*
X166155744Y-139167818D01*
X166155744Y-139167818D02*
X166155744Y-139405913D01*
X165584315Y-138263056D02*
X165536696Y-138358294D01*
X165536696Y-138358294D02*
X165489077Y-138405913D01*
X165489077Y-138405913D02*
X165393839Y-138453532D01*
X165393839Y-138453532D02*
X165346220Y-138453532D01*
X165346220Y-138453532D02*
X165250982Y-138405913D01*
X165250982Y-138405913D02*
X165203363Y-138358294D01*
X165203363Y-138358294D02*
X165155744Y-138263056D01*
X165155744Y-138263056D02*
X165155744Y-138072580D01*
X165155744Y-138072580D02*
X165203363Y-137977342D01*
X165203363Y-137977342D02*
X165250982Y-137929723D01*
X165250982Y-137929723D02*
X165346220Y-137882104D01*
X165346220Y-137882104D02*
X165393839Y-137882104D01*
X165393839Y-137882104D02*
X165489077Y-137929723D01*
X165489077Y-137929723D02*
X165536696Y-137977342D01*
X165536696Y-137977342D02*
X165584315Y-138072580D01*
X165584315Y-138072580D02*
X165584315Y-138263056D01*
X165584315Y-138263056D02*
X165631934Y-138358294D01*
X165631934Y-138358294D02*
X165679553Y-138405913D01*
X165679553Y-138405913D02*
X165774791Y-138453532D01*
X165774791Y-138453532D02*
X165965267Y-138453532D01*
X165965267Y-138453532D02*
X166060505Y-138405913D01*
X166060505Y-138405913D02*
X166108125Y-138358294D01*
X166108125Y-138358294D02*
X166155744Y-138263056D01*
X166155744Y-138263056D02*
X166155744Y-138072580D01*
X166155744Y-138072580D02*
X166108125Y-137977342D01*
X166108125Y-137977342D02*
X166060505Y-137929723D01*
X166060505Y-137929723D02*
X165965267Y-137882104D01*
X165965267Y-137882104D02*
X165774791Y-137882104D01*
X165774791Y-137882104D02*
X165679553Y-137929723D01*
X165679553Y-137929723D02*
X165631934Y-137977342D01*
X165631934Y-137977342D02*
X165584315Y-138072580D01*
%TO.C,D9*%
X175155744Y-139405913D02*
X174155744Y-139405913D01*
X174155744Y-139405913D02*
X174155744Y-139167818D01*
X174155744Y-139167818D02*
X174203363Y-139024961D01*
X174203363Y-139024961D02*
X174298601Y-138929723D01*
X174298601Y-138929723D02*
X174393839Y-138882104D01*
X174393839Y-138882104D02*
X174584315Y-138834485D01*
X174584315Y-138834485D02*
X174727172Y-138834485D01*
X174727172Y-138834485D02*
X174917648Y-138882104D01*
X174917648Y-138882104D02*
X175012886Y-138929723D01*
X175012886Y-138929723D02*
X175108125Y-139024961D01*
X175108125Y-139024961D02*
X175155744Y-139167818D01*
X175155744Y-139167818D02*
X175155744Y-139405913D01*
X175155744Y-138358294D02*
X175155744Y-138167818D01*
X175155744Y-138167818D02*
X175108125Y-138072580D01*
X175108125Y-138072580D02*
X175060505Y-138024961D01*
X175060505Y-138024961D02*
X174917648Y-137929723D01*
X174917648Y-137929723D02*
X174727172Y-137882104D01*
X174727172Y-137882104D02*
X174346220Y-137882104D01*
X174346220Y-137882104D02*
X174250982Y-137929723D01*
X174250982Y-137929723D02*
X174203363Y-137977342D01*
X174203363Y-137977342D02*
X174155744Y-138072580D01*
X174155744Y-138072580D02*
X174155744Y-138263056D01*
X174155744Y-138263056D02*
X174203363Y-138358294D01*
X174203363Y-138358294D02*
X174250982Y-138405913D01*
X174250982Y-138405913D02*
X174346220Y-138453532D01*
X174346220Y-138453532D02*
X174584315Y-138453532D01*
X174584315Y-138453532D02*
X174679553Y-138405913D01*
X174679553Y-138405913D02*
X174727172Y-138358294D01*
X174727172Y-138358294D02*
X174774791Y-138263056D01*
X174774791Y-138263056D02*
X174774791Y-138072580D01*
X174774791Y-138072580D02*
X174727172Y-137977342D01*
X174727172Y-137977342D02*
X174679553Y-137929723D01*
X174679553Y-137929723D02*
X174584315Y-137882104D01*
%TO.C,D18*%
X175155744Y-103957253D02*
X174155744Y-103957253D01*
X174155744Y-103957253D02*
X174155744Y-103719158D01*
X174155744Y-103719158D02*
X174203363Y-103576301D01*
X174203363Y-103576301D02*
X174298601Y-103481063D01*
X174298601Y-103481063D02*
X174393839Y-103433444D01*
X174393839Y-103433444D02*
X174584315Y-103385825D01*
X174584315Y-103385825D02*
X174727172Y-103385825D01*
X174727172Y-103385825D02*
X174917648Y-103433444D01*
X174917648Y-103433444D02*
X175012886Y-103481063D01*
X175012886Y-103481063D02*
X175108125Y-103576301D01*
X175108125Y-103576301D02*
X175155744Y-103719158D01*
X175155744Y-103719158D02*
X175155744Y-103957253D01*
X175155744Y-102433444D02*
X175155744Y-103004872D01*
X175155744Y-102719158D02*
X174155744Y-102719158D01*
X174155744Y-102719158D02*
X174298601Y-102814396D01*
X174298601Y-102814396D02*
X174393839Y-102909634D01*
X174393839Y-102909634D02*
X174441458Y-103004872D01*
X174584315Y-101862015D02*
X174536696Y-101957253D01*
X174536696Y-101957253D02*
X174489077Y-102004872D01*
X174489077Y-102004872D02*
X174393839Y-102052491D01*
X174393839Y-102052491D02*
X174346220Y-102052491D01*
X174346220Y-102052491D02*
X174250982Y-102004872D01*
X174250982Y-102004872D02*
X174203363Y-101957253D01*
X174203363Y-101957253D02*
X174155744Y-101862015D01*
X174155744Y-101862015D02*
X174155744Y-101671539D01*
X174155744Y-101671539D02*
X174203363Y-101576301D01*
X174203363Y-101576301D02*
X174250982Y-101528682D01*
X174250982Y-101528682D02*
X174346220Y-101481063D01*
X174346220Y-101481063D02*
X174393839Y-101481063D01*
X174393839Y-101481063D02*
X174489077Y-101528682D01*
X174489077Y-101528682D02*
X174536696Y-101576301D01*
X174536696Y-101576301D02*
X174584315Y-101671539D01*
X174584315Y-101671539D02*
X174584315Y-101862015D01*
X174584315Y-101862015D02*
X174631934Y-101957253D01*
X174631934Y-101957253D02*
X174679553Y-102004872D01*
X174679553Y-102004872D02*
X174774791Y-102052491D01*
X174774791Y-102052491D02*
X174965267Y-102052491D01*
X174965267Y-102052491D02*
X175060505Y-102004872D01*
X175060505Y-102004872D02*
X175108125Y-101957253D01*
X175108125Y-101957253D02*
X175155744Y-101862015D01*
X175155744Y-101862015D02*
X175155744Y-101671539D01*
X175155744Y-101671539D02*
X175108125Y-101576301D01*
X175108125Y-101576301D02*
X175060505Y-101528682D01*
X175060505Y-101528682D02*
X174965267Y-101481063D01*
X174965267Y-101481063D02*
X174774791Y-101481063D01*
X174774791Y-101481063D02*
X174679553Y-101528682D01*
X174679553Y-101528682D02*
X174631934Y-101576301D01*
X174631934Y-101576301D02*
X174584315Y-101671539D01*
%TO.C,D21*%
X121205744Y-67865242D02*
X120205744Y-67865242D01*
X120205744Y-67865242D02*
X120205744Y-67627147D01*
X120205744Y-67627147D02*
X120253363Y-67484290D01*
X120253363Y-67484290D02*
X120348601Y-67389052D01*
X120348601Y-67389052D02*
X120443839Y-67341433D01*
X120443839Y-67341433D02*
X120634315Y-67293814D01*
X120634315Y-67293814D02*
X120777172Y-67293814D01*
X120777172Y-67293814D02*
X120967648Y-67341433D01*
X120967648Y-67341433D02*
X121062886Y-67389052D01*
X121062886Y-67389052D02*
X121158125Y-67484290D01*
X121158125Y-67484290D02*
X121205744Y-67627147D01*
X121205744Y-67627147D02*
X121205744Y-67865242D01*
X120300982Y-66912861D02*
X120253363Y-66865242D01*
X120253363Y-66865242D02*
X120205744Y-66770004D01*
X120205744Y-66770004D02*
X120205744Y-66531909D01*
X120205744Y-66531909D02*
X120253363Y-66436671D01*
X120253363Y-66436671D02*
X120300982Y-66389052D01*
X120300982Y-66389052D02*
X120396220Y-66341433D01*
X120396220Y-66341433D02*
X120491458Y-66341433D01*
X120491458Y-66341433D02*
X120634315Y-66389052D01*
X120634315Y-66389052D02*
X121205744Y-66960480D01*
X121205744Y-66960480D02*
X121205744Y-66341433D01*
X121205744Y-65389052D02*
X121205744Y-65960480D01*
X121205744Y-65674766D02*
X120205744Y-65674766D01*
X120205744Y-65674766D02*
X120348601Y-65770004D01*
X120348601Y-65770004D02*
X120443839Y-65865242D01*
X120443839Y-65865242D02*
X120491458Y-65960480D01*
%TO.C,D22*%
X130205744Y-67865242D02*
X129205744Y-67865242D01*
X129205744Y-67865242D02*
X129205744Y-67627147D01*
X129205744Y-67627147D02*
X129253363Y-67484290D01*
X129253363Y-67484290D02*
X129348601Y-67389052D01*
X129348601Y-67389052D02*
X129443839Y-67341433D01*
X129443839Y-67341433D02*
X129634315Y-67293814D01*
X129634315Y-67293814D02*
X129777172Y-67293814D01*
X129777172Y-67293814D02*
X129967648Y-67341433D01*
X129967648Y-67341433D02*
X130062886Y-67389052D01*
X130062886Y-67389052D02*
X130158125Y-67484290D01*
X130158125Y-67484290D02*
X130205744Y-67627147D01*
X130205744Y-67627147D02*
X130205744Y-67865242D01*
X129300982Y-66912861D02*
X129253363Y-66865242D01*
X129253363Y-66865242D02*
X129205744Y-66770004D01*
X129205744Y-66770004D02*
X129205744Y-66531909D01*
X129205744Y-66531909D02*
X129253363Y-66436671D01*
X129253363Y-66436671D02*
X129300982Y-66389052D01*
X129300982Y-66389052D02*
X129396220Y-66341433D01*
X129396220Y-66341433D02*
X129491458Y-66341433D01*
X129491458Y-66341433D02*
X129634315Y-66389052D01*
X129634315Y-66389052D02*
X130205744Y-66960480D01*
X130205744Y-66960480D02*
X130205744Y-66341433D01*
X129300982Y-65960480D02*
X129253363Y-65912861D01*
X129253363Y-65912861D02*
X129205744Y-65817623D01*
X129205744Y-65817623D02*
X129205744Y-65579528D01*
X129205744Y-65579528D02*
X129253363Y-65484290D01*
X129253363Y-65484290D02*
X129300982Y-65436671D01*
X129300982Y-65436671D02*
X129396220Y-65389052D01*
X129396220Y-65389052D02*
X129491458Y-65389052D01*
X129491458Y-65389052D02*
X129634315Y-65436671D01*
X129634315Y-65436671D02*
X130205744Y-66008099D01*
X130205744Y-66008099D02*
X130205744Y-65389052D01*
%TO.C,C4*%
X135271755Y-131884485D02*
X135319375Y-131932104D01*
X135319375Y-131932104D02*
X135366994Y-132074961D01*
X135366994Y-132074961D02*
X135366994Y-132170199D01*
X135366994Y-132170199D02*
X135319375Y-132313056D01*
X135319375Y-132313056D02*
X135224136Y-132408294D01*
X135224136Y-132408294D02*
X135128898Y-132455913D01*
X135128898Y-132455913D02*
X134938422Y-132503532D01*
X134938422Y-132503532D02*
X134795565Y-132503532D01*
X134795565Y-132503532D02*
X134605089Y-132455913D01*
X134605089Y-132455913D02*
X134509851Y-132408294D01*
X134509851Y-132408294D02*
X134414613Y-132313056D01*
X134414613Y-132313056D02*
X134366994Y-132170199D01*
X134366994Y-132170199D02*
X134366994Y-132074961D01*
X134366994Y-132074961D02*
X134414613Y-131932104D01*
X134414613Y-131932104D02*
X134462232Y-131884485D01*
X134700327Y-131027342D02*
X135366994Y-131027342D01*
X134319375Y-131265437D02*
X135033660Y-131503532D01*
X135033660Y-131503532D02*
X135033660Y-130884485D01*
%TO.C,C6*%
X153271755Y-131884485D02*
X153319375Y-131932104D01*
X153319375Y-131932104D02*
X153366994Y-132074961D01*
X153366994Y-132074961D02*
X153366994Y-132170199D01*
X153366994Y-132170199D02*
X153319375Y-132313056D01*
X153319375Y-132313056D02*
X153224136Y-132408294D01*
X153224136Y-132408294D02*
X153128898Y-132455913D01*
X153128898Y-132455913D02*
X152938422Y-132503532D01*
X152938422Y-132503532D02*
X152795565Y-132503532D01*
X152795565Y-132503532D02*
X152605089Y-132455913D01*
X152605089Y-132455913D02*
X152509851Y-132408294D01*
X152509851Y-132408294D02*
X152414613Y-132313056D01*
X152414613Y-132313056D02*
X152366994Y-132170199D01*
X152366994Y-132170199D02*
X152366994Y-132074961D01*
X152366994Y-132074961D02*
X152414613Y-131932104D01*
X152414613Y-131932104D02*
X152462232Y-131884485D01*
X152366994Y-131027342D02*
X152366994Y-131217818D01*
X152366994Y-131217818D02*
X152414613Y-131313056D01*
X152414613Y-131313056D02*
X152462232Y-131360675D01*
X152462232Y-131360675D02*
X152605089Y-131455913D01*
X152605089Y-131455913D02*
X152795565Y-131503532D01*
X152795565Y-131503532D02*
X153176517Y-131503532D01*
X153176517Y-131503532D02*
X153271755Y-131455913D01*
X153271755Y-131455913D02*
X153319375Y-131408294D01*
X153319375Y-131408294D02*
X153366994Y-131313056D01*
X153366994Y-131313056D02*
X153366994Y-131122580D01*
X153366994Y-131122580D02*
X153319375Y-131027342D01*
X153319375Y-131027342D02*
X153271755Y-130979723D01*
X153271755Y-130979723D02*
X153176517Y-130932104D01*
X153176517Y-130932104D02*
X152938422Y-130932104D01*
X152938422Y-130932104D02*
X152843184Y-130979723D01*
X152843184Y-130979723D02*
X152795565Y-131027342D01*
X152795565Y-131027342D02*
X152747946Y-131122580D01*
X152747946Y-131122580D02*
X152747946Y-131313056D01*
X152747946Y-131313056D02*
X152795565Y-131408294D01*
X152795565Y-131408294D02*
X152843184Y-131455913D01*
X152843184Y-131455913D02*
X152938422Y-131503532D01*
%TO.C,C13*%
X135371755Y-96912542D02*
X135419375Y-96960161D01*
X135419375Y-96960161D02*
X135466994Y-97103018D01*
X135466994Y-97103018D02*
X135466994Y-97198256D01*
X135466994Y-97198256D02*
X135419375Y-97341113D01*
X135419375Y-97341113D02*
X135324136Y-97436351D01*
X135324136Y-97436351D02*
X135228898Y-97483970D01*
X135228898Y-97483970D02*
X135038422Y-97531589D01*
X135038422Y-97531589D02*
X134895565Y-97531589D01*
X134895565Y-97531589D02*
X134705089Y-97483970D01*
X134705089Y-97483970D02*
X134609851Y-97436351D01*
X134609851Y-97436351D02*
X134514613Y-97341113D01*
X134514613Y-97341113D02*
X134466994Y-97198256D01*
X134466994Y-97198256D02*
X134466994Y-97103018D01*
X134466994Y-97103018D02*
X134514613Y-96960161D01*
X134514613Y-96960161D02*
X134562232Y-96912542D01*
X135466994Y-95960161D02*
X135466994Y-96531589D01*
X135466994Y-96245875D02*
X134466994Y-96245875D01*
X134466994Y-96245875D02*
X134609851Y-96341113D01*
X134609851Y-96341113D02*
X134705089Y-96436351D01*
X134705089Y-96436351D02*
X134752708Y-96531589D01*
X134466994Y-95626827D02*
X134466994Y-95007780D01*
X134466994Y-95007780D02*
X134847946Y-95341113D01*
X134847946Y-95341113D02*
X134847946Y-95198256D01*
X134847946Y-95198256D02*
X134895565Y-95103018D01*
X134895565Y-95103018D02*
X134943184Y-95055399D01*
X134943184Y-95055399D02*
X135038422Y-95007780D01*
X135038422Y-95007780D02*
X135276517Y-95007780D01*
X135276517Y-95007780D02*
X135371755Y-95055399D01*
X135371755Y-95055399D02*
X135419375Y-95103018D01*
X135419375Y-95103018D02*
X135466994Y-95198256D01*
X135466994Y-95198256D02*
X135466994Y-95483970D01*
X135466994Y-95483970D02*
X135419375Y-95579208D01*
X135419375Y-95579208D02*
X135371755Y-95626827D01*
%TO.C,C17*%
X171371755Y-96912542D02*
X171419375Y-96960161D01*
X171419375Y-96960161D02*
X171466994Y-97103018D01*
X171466994Y-97103018D02*
X171466994Y-97198256D01*
X171466994Y-97198256D02*
X171419375Y-97341113D01*
X171419375Y-97341113D02*
X171324136Y-97436351D01*
X171324136Y-97436351D02*
X171228898Y-97483970D01*
X171228898Y-97483970D02*
X171038422Y-97531589D01*
X171038422Y-97531589D02*
X170895565Y-97531589D01*
X170895565Y-97531589D02*
X170705089Y-97483970D01*
X170705089Y-97483970D02*
X170609851Y-97436351D01*
X170609851Y-97436351D02*
X170514613Y-97341113D01*
X170514613Y-97341113D02*
X170466994Y-97198256D01*
X170466994Y-97198256D02*
X170466994Y-97103018D01*
X170466994Y-97103018D02*
X170514613Y-96960161D01*
X170514613Y-96960161D02*
X170562232Y-96912542D01*
X171466994Y-95960161D02*
X171466994Y-96531589D01*
X171466994Y-96245875D02*
X170466994Y-96245875D01*
X170466994Y-96245875D02*
X170609851Y-96341113D01*
X170609851Y-96341113D02*
X170705089Y-96436351D01*
X170705089Y-96436351D02*
X170752708Y-96531589D01*
X170466994Y-95626827D02*
X170466994Y-94960161D01*
X170466994Y-94960161D02*
X171466994Y-95388732D01*
%TO.C,C7*%
X162271755Y-131884485D02*
X162319375Y-131932104D01*
X162319375Y-131932104D02*
X162366994Y-132074961D01*
X162366994Y-132074961D02*
X162366994Y-132170199D01*
X162366994Y-132170199D02*
X162319375Y-132313056D01*
X162319375Y-132313056D02*
X162224136Y-132408294D01*
X162224136Y-132408294D02*
X162128898Y-132455913D01*
X162128898Y-132455913D02*
X161938422Y-132503532D01*
X161938422Y-132503532D02*
X161795565Y-132503532D01*
X161795565Y-132503532D02*
X161605089Y-132455913D01*
X161605089Y-132455913D02*
X161509851Y-132408294D01*
X161509851Y-132408294D02*
X161414613Y-132313056D01*
X161414613Y-132313056D02*
X161366994Y-132170199D01*
X161366994Y-132170199D02*
X161366994Y-132074961D01*
X161366994Y-132074961D02*
X161414613Y-131932104D01*
X161414613Y-131932104D02*
X161462232Y-131884485D01*
X161366994Y-131551151D02*
X161366994Y-130884485D01*
X161366994Y-130884485D02*
X162366994Y-131313056D01*
%TO.C,D1*%
X103155744Y-139405913D02*
X102155744Y-139405913D01*
X102155744Y-139405913D02*
X102155744Y-139167818D01*
X102155744Y-139167818D02*
X102203363Y-139024961D01*
X102203363Y-139024961D02*
X102298601Y-138929723D01*
X102298601Y-138929723D02*
X102393839Y-138882104D01*
X102393839Y-138882104D02*
X102584315Y-138834485D01*
X102584315Y-138834485D02*
X102727172Y-138834485D01*
X102727172Y-138834485D02*
X102917648Y-138882104D01*
X102917648Y-138882104D02*
X103012886Y-138929723D01*
X103012886Y-138929723D02*
X103108125Y-139024961D01*
X103108125Y-139024961D02*
X103155744Y-139167818D01*
X103155744Y-139167818D02*
X103155744Y-139405913D01*
X103155744Y-137882104D02*
X103155744Y-138453532D01*
X103155744Y-138167818D02*
X102155744Y-138167818D01*
X102155744Y-138167818D02*
X102298601Y-138263056D01*
X102298601Y-138263056D02*
X102393839Y-138358294D01*
X102393839Y-138358294D02*
X102441458Y-138453532D01*
%TO.C,C24*%
X153421755Y-60864919D02*
X153469375Y-60912538D01*
X153469375Y-60912538D02*
X153516994Y-61055395D01*
X153516994Y-61055395D02*
X153516994Y-61150633D01*
X153516994Y-61150633D02*
X153469375Y-61293490D01*
X153469375Y-61293490D02*
X153374136Y-61388728D01*
X153374136Y-61388728D02*
X153278898Y-61436347D01*
X153278898Y-61436347D02*
X153088422Y-61483966D01*
X153088422Y-61483966D02*
X152945565Y-61483966D01*
X152945565Y-61483966D02*
X152755089Y-61436347D01*
X152755089Y-61436347D02*
X152659851Y-61388728D01*
X152659851Y-61388728D02*
X152564613Y-61293490D01*
X152564613Y-61293490D02*
X152516994Y-61150633D01*
X152516994Y-61150633D02*
X152516994Y-61055395D01*
X152516994Y-61055395D02*
X152564613Y-60912538D01*
X152564613Y-60912538D02*
X152612232Y-60864919D01*
X152612232Y-60483966D02*
X152564613Y-60436347D01*
X152564613Y-60436347D02*
X152516994Y-60341109D01*
X152516994Y-60341109D02*
X152516994Y-60103014D01*
X152516994Y-60103014D02*
X152564613Y-60007776D01*
X152564613Y-60007776D02*
X152612232Y-59960157D01*
X152612232Y-59960157D02*
X152707470Y-59912538D01*
X152707470Y-59912538D02*
X152802708Y-59912538D01*
X152802708Y-59912538D02*
X152945565Y-59960157D01*
X152945565Y-59960157D02*
X153516994Y-60531585D01*
X153516994Y-60531585D02*
X153516994Y-59912538D01*
X152850327Y-59055395D02*
X153516994Y-59055395D01*
X152469375Y-59293490D02*
X153183660Y-59531585D01*
X153183660Y-59531585D02*
X153183660Y-58912538D01*
%TO.C,D23*%
X139205744Y-67865242D02*
X138205744Y-67865242D01*
X138205744Y-67865242D02*
X138205744Y-67627147D01*
X138205744Y-67627147D02*
X138253363Y-67484290D01*
X138253363Y-67484290D02*
X138348601Y-67389052D01*
X138348601Y-67389052D02*
X138443839Y-67341433D01*
X138443839Y-67341433D02*
X138634315Y-67293814D01*
X138634315Y-67293814D02*
X138777172Y-67293814D01*
X138777172Y-67293814D02*
X138967648Y-67341433D01*
X138967648Y-67341433D02*
X139062886Y-67389052D01*
X139062886Y-67389052D02*
X139158125Y-67484290D01*
X139158125Y-67484290D02*
X139205744Y-67627147D01*
X139205744Y-67627147D02*
X139205744Y-67865242D01*
X138300982Y-66912861D02*
X138253363Y-66865242D01*
X138253363Y-66865242D02*
X138205744Y-66770004D01*
X138205744Y-66770004D02*
X138205744Y-66531909D01*
X138205744Y-66531909D02*
X138253363Y-66436671D01*
X138253363Y-66436671D02*
X138300982Y-66389052D01*
X138300982Y-66389052D02*
X138396220Y-66341433D01*
X138396220Y-66341433D02*
X138491458Y-66341433D01*
X138491458Y-66341433D02*
X138634315Y-66389052D01*
X138634315Y-66389052D02*
X139205744Y-66960480D01*
X139205744Y-66960480D02*
X139205744Y-66341433D01*
X138205744Y-66008099D02*
X138205744Y-65389052D01*
X138205744Y-65389052D02*
X138586696Y-65722385D01*
X138586696Y-65722385D02*
X138586696Y-65579528D01*
X138586696Y-65579528D02*
X138634315Y-65484290D01*
X138634315Y-65484290D02*
X138681934Y-65436671D01*
X138681934Y-65436671D02*
X138777172Y-65389052D01*
X138777172Y-65389052D02*
X139015267Y-65389052D01*
X139015267Y-65389052D02*
X139110505Y-65436671D01*
X139110505Y-65436671D02*
X139158125Y-65484290D01*
X139158125Y-65484290D02*
X139205744Y-65579528D01*
X139205744Y-65579528D02*
X139205744Y-65865242D01*
X139205744Y-65865242D02*
X139158125Y-65960480D01*
X139158125Y-65960480D02*
X139110505Y-66008099D01*
%TO.C,J1*%
X95716666Y-130678869D02*
X95716666Y-131393154D01*
X95716666Y-131393154D02*
X95669047Y-131536011D01*
X95669047Y-131536011D02*
X95573809Y-131631250D01*
X95573809Y-131631250D02*
X95430952Y-131678869D01*
X95430952Y-131678869D02*
X95335714Y-131678869D01*
X96716666Y-131678869D02*
X96145238Y-131678869D01*
X96430952Y-131678869D02*
X96430952Y-130678869D01*
X96430952Y-130678869D02*
X96335714Y-130821726D01*
X96335714Y-130821726D02*
X96240476Y-130916964D01*
X96240476Y-130916964D02*
X96145238Y-130964583D01*
%TO.C,C15*%
X153371755Y-96912542D02*
X153419375Y-96960161D01*
X153419375Y-96960161D02*
X153466994Y-97103018D01*
X153466994Y-97103018D02*
X153466994Y-97198256D01*
X153466994Y-97198256D02*
X153419375Y-97341113D01*
X153419375Y-97341113D02*
X153324136Y-97436351D01*
X153324136Y-97436351D02*
X153228898Y-97483970D01*
X153228898Y-97483970D02*
X153038422Y-97531589D01*
X153038422Y-97531589D02*
X152895565Y-97531589D01*
X152895565Y-97531589D02*
X152705089Y-97483970D01*
X152705089Y-97483970D02*
X152609851Y-97436351D01*
X152609851Y-97436351D02*
X152514613Y-97341113D01*
X152514613Y-97341113D02*
X152466994Y-97198256D01*
X152466994Y-97198256D02*
X152466994Y-97103018D01*
X152466994Y-97103018D02*
X152514613Y-96960161D01*
X152514613Y-96960161D02*
X152562232Y-96912542D01*
X153466994Y-95960161D02*
X153466994Y-96531589D01*
X153466994Y-96245875D02*
X152466994Y-96245875D01*
X152466994Y-96245875D02*
X152609851Y-96341113D01*
X152609851Y-96341113D02*
X152705089Y-96436351D01*
X152705089Y-96436351D02*
X152752708Y-96531589D01*
X152466994Y-95055399D02*
X152466994Y-95531589D01*
X152466994Y-95531589D02*
X152943184Y-95579208D01*
X152943184Y-95579208D02*
X152895565Y-95531589D01*
X152895565Y-95531589D02*
X152847946Y-95436351D01*
X152847946Y-95436351D02*
X152847946Y-95198256D01*
X152847946Y-95198256D02*
X152895565Y-95103018D01*
X152895565Y-95103018D02*
X152943184Y-95055399D01*
X152943184Y-95055399D02*
X153038422Y-95007780D01*
X153038422Y-95007780D02*
X153276517Y-95007780D01*
X153276517Y-95007780D02*
X153371755Y-95055399D01*
X153371755Y-95055399D02*
X153419375Y-95103018D01*
X153419375Y-95103018D02*
X153466994Y-95198256D01*
X153466994Y-95198256D02*
X153466994Y-95436351D01*
X153466994Y-95436351D02*
X153419375Y-95531589D01*
X153419375Y-95531589D02*
X153371755Y-95579208D01*
%TO.C,C22*%
X135421755Y-60864919D02*
X135469375Y-60912538D01*
X135469375Y-60912538D02*
X135516994Y-61055395D01*
X135516994Y-61055395D02*
X135516994Y-61150633D01*
X135516994Y-61150633D02*
X135469375Y-61293490D01*
X135469375Y-61293490D02*
X135374136Y-61388728D01*
X135374136Y-61388728D02*
X135278898Y-61436347D01*
X135278898Y-61436347D02*
X135088422Y-61483966D01*
X135088422Y-61483966D02*
X134945565Y-61483966D01*
X134945565Y-61483966D02*
X134755089Y-61436347D01*
X134755089Y-61436347D02*
X134659851Y-61388728D01*
X134659851Y-61388728D02*
X134564613Y-61293490D01*
X134564613Y-61293490D02*
X134516994Y-61150633D01*
X134516994Y-61150633D02*
X134516994Y-61055395D01*
X134516994Y-61055395D02*
X134564613Y-60912538D01*
X134564613Y-60912538D02*
X134612232Y-60864919D01*
X134612232Y-60483966D02*
X134564613Y-60436347D01*
X134564613Y-60436347D02*
X134516994Y-60341109D01*
X134516994Y-60341109D02*
X134516994Y-60103014D01*
X134516994Y-60103014D02*
X134564613Y-60007776D01*
X134564613Y-60007776D02*
X134612232Y-59960157D01*
X134612232Y-59960157D02*
X134707470Y-59912538D01*
X134707470Y-59912538D02*
X134802708Y-59912538D01*
X134802708Y-59912538D02*
X134945565Y-59960157D01*
X134945565Y-59960157D02*
X135516994Y-60531585D01*
X135516994Y-60531585D02*
X135516994Y-59912538D01*
X134612232Y-59531585D02*
X134564613Y-59483966D01*
X134564613Y-59483966D02*
X134516994Y-59388728D01*
X134516994Y-59388728D02*
X134516994Y-59150633D01*
X134516994Y-59150633D02*
X134564613Y-59055395D01*
X134564613Y-59055395D02*
X134612232Y-59007776D01*
X134612232Y-59007776D02*
X134707470Y-58960157D01*
X134707470Y-58960157D02*
X134802708Y-58960157D01*
X134802708Y-58960157D02*
X134945565Y-59007776D01*
X134945565Y-59007776D02*
X135516994Y-59579204D01*
X135516994Y-59579204D02*
X135516994Y-58960157D01*
%TO.C,C27*%
X180421755Y-60864919D02*
X180469375Y-60912538D01*
X180469375Y-60912538D02*
X180516994Y-61055395D01*
X180516994Y-61055395D02*
X180516994Y-61150633D01*
X180516994Y-61150633D02*
X180469375Y-61293490D01*
X180469375Y-61293490D02*
X180374136Y-61388728D01*
X180374136Y-61388728D02*
X180278898Y-61436347D01*
X180278898Y-61436347D02*
X180088422Y-61483966D01*
X180088422Y-61483966D02*
X179945565Y-61483966D01*
X179945565Y-61483966D02*
X179755089Y-61436347D01*
X179755089Y-61436347D02*
X179659851Y-61388728D01*
X179659851Y-61388728D02*
X179564613Y-61293490D01*
X179564613Y-61293490D02*
X179516994Y-61150633D01*
X179516994Y-61150633D02*
X179516994Y-61055395D01*
X179516994Y-61055395D02*
X179564613Y-60912538D01*
X179564613Y-60912538D02*
X179612232Y-60864919D01*
X179612232Y-60483966D02*
X179564613Y-60436347D01*
X179564613Y-60436347D02*
X179516994Y-60341109D01*
X179516994Y-60341109D02*
X179516994Y-60103014D01*
X179516994Y-60103014D02*
X179564613Y-60007776D01*
X179564613Y-60007776D02*
X179612232Y-59960157D01*
X179612232Y-59960157D02*
X179707470Y-59912538D01*
X179707470Y-59912538D02*
X179802708Y-59912538D01*
X179802708Y-59912538D02*
X179945565Y-59960157D01*
X179945565Y-59960157D02*
X180516994Y-60531585D01*
X180516994Y-60531585D02*
X180516994Y-59912538D01*
X179516994Y-59579204D02*
X179516994Y-58912538D01*
X179516994Y-58912538D02*
X180516994Y-59341109D01*
%TO.C,J5*%
X95716666Y-58678869D02*
X95716666Y-59393154D01*
X95716666Y-59393154D02*
X95669047Y-59536011D01*
X95669047Y-59536011D02*
X95573809Y-59631250D01*
X95573809Y-59631250D02*
X95430952Y-59678869D01*
X95430952Y-59678869D02*
X95335714Y-59678869D01*
X96669047Y-58678869D02*
X96192857Y-58678869D01*
X96192857Y-58678869D02*
X96145238Y-59155059D01*
X96145238Y-59155059D02*
X96192857Y-59107440D01*
X96192857Y-59107440D02*
X96288095Y-59059821D01*
X96288095Y-59059821D02*
X96526190Y-59059821D01*
X96526190Y-59059821D02*
X96621428Y-59107440D01*
X96621428Y-59107440D02*
X96669047Y-59155059D01*
X96669047Y-59155059D02*
X96716666Y-59250297D01*
X96716666Y-59250297D02*
X96716666Y-59488392D01*
X96716666Y-59488392D02*
X96669047Y-59583630D01*
X96669047Y-59583630D02*
X96621428Y-59631250D01*
X96621428Y-59631250D02*
X96526190Y-59678869D01*
X96526190Y-59678869D02*
X96288095Y-59678869D01*
X96288095Y-59678869D02*
X96192857Y-59631250D01*
X96192857Y-59631250D02*
X96145238Y-59583630D01*
%TO.C,C3*%
X126271755Y-131884485D02*
X126319375Y-131932104D01*
X126319375Y-131932104D02*
X126366994Y-132074961D01*
X126366994Y-132074961D02*
X126366994Y-132170199D01*
X126366994Y-132170199D02*
X126319375Y-132313056D01*
X126319375Y-132313056D02*
X126224136Y-132408294D01*
X126224136Y-132408294D02*
X126128898Y-132455913D01*
X126128898Y-132455913D02*
X125938422Y-132503532D01*
X125938422Y-132503532D02*
X125795565Y-132503532D01*
X125795565Y-132503532D02*
X125605089Y-132455913D01*
X125605089Y-132455913D02*
X125509851Y-132408294D01*
X125509851Y-132408294D02*
X125414613Y-132313056D01*
X125414613Y-132313056D02*
X125366994Y-132170199D01*
X125366994Y-132170199D02*
X125366994Y-132074961D01*
X125366994Y-132074961D02*
X125414613Y-131932104D01*
X125414613Y-131932104D02*
X125462232Y-131884485D01*
X125366994Y-131551151D02*
X125366994Y-130932104D01*
X125366994Y-130932104D02*
X125747946Y-131265437D01*
X125747946Y-131265437D02*
X125747946Y-131122580D01*
X125747946Y-131122580D02*
X125795565Y-131027342D01*
X125795565Y-131027342D02*
X125843184Y-130979723D01*
X125843184Y-130979723D02*
X125938422Y-130932104D01*
X125938422Y-130932104D02*
X126176517Y-130932104D01*
X126176517Y-130932104D02*
X126271755Y-130979723D01*
X126271755Y-130979723D02*
X126319375Y-131027342D01*
X126319375Y-131027342D02*
X126366994Y-131122580D01*
X126366994Y-131122580D02*
X126366994Y-131408294D01*
X126366994Y-131408294D02*
X126319375Y-131503532D01*
X126319375Y-131503532D02*
X126271755Y-131551151D01*
%TO.C,D19*%
X103205744Y-67865242D02*
X102205744Y-67865242D01*
X102205744Y-67865242D02*
X102205744Y-67627147D01*
X102205744Y-67627147D02*
X102253363Y-67484290D01*
X102253363Y-67484290D02*
X102348601Y-67389052D01*
X102348601Y-67389052D02*
X102443839Y-67341433D01*
X102443839Y-67341433D02*
X102634315Y-67293814D01*
X102634315Y-67293814D02*
X102777172Y-67293814D01*
X102777172Y-67293814D02*
X102967648Y-67341433D01*
X102967648Y-67341433D02*
X103062886Y-67389052D01*
X103062886Y-67389052D02*
X103158125Y-67484290D01*
X103158125Y-67484290D02*
X103205744Y-67627147D01*
X103205744Y-67627147D02*
X103205744Y-67865242D01*
X103205744Y-66341433D02*
X103205744Y-66912861D01*
X103205744Y-66627147D02*
X102205744Y-66627147D01*
X102205744Y-66627147D02*
X102348601Y-66722385D01*
X102348601Y-66722385D02*
X102443839Y-66817623D01*
X102443839Y-66817623D02*
X102491458Y-66912861D01*
X103205744Y-65865242D02*
X103205744Y-65674766D01*
X103205744Y-65674766D02*
X103158125Y-65579528D01*
X103158125Y-65579528D02*
X103110505Y-65531909D01*
X103110505Y-65531909D02*
X102967648Y-65436671D01*
X102967648Y-65436671D02*
X102777172Y-65389052D01*
X102777172Y-65389052D02*
X102396220Y-65389052D01*
X102396220Y-65389052D02*
X102300982Y-65436671D01*
X102300982Y-65436671D02*
X102253363Y-65484290D01*
X102253363Y-65484290D02*
X102205744Y-65579528D01*
X102205744Y-65579528D02*
X102205744Y-65770004D01*
X102205744Y-65770004D02*
X102253363Y-65865242D01*
X102253363Y-65865242D02*
X102300982Y-65912861D01*
X102300982Y-65912861D02*
X102396220Y-65960480D01*
X102396220Y-65960480D02*
X102634315Y-65960480D01*
X102634315Y-65960480D02*
X102729553Y-65912861D01*
X102729553Y-65912861D02*
X102777172Y-65865242D01*
X102777172Y-65865242D02*
X102824791Y-65770004D01*
X102824791Y-65770004D02*
X102824791Y-65579528D01*
X102824791Y-65579528D02*
X102777172Y-65484290D01*
X102777172Y-65484290D02*
X102729553Y-65436671D01*
X102729553Y-65436671D02*
X102634315Y-65389052D01*
%TO.C,D5*%
X139155744Y-139405913D02*
X138155744Y-139405913D01*
X138155744Y-139405913D02*
X138155744Y-139167818D01*
X138155744Y-139167818D02*
X138203363Y-139024961D01*
X138203363Y-139024961D02*
X138298601Y-138929723D01*
X138298601Y-138929723D02*
X138393839Y-138882104D01*
X138393839Y-138882104D02*
X138584315Y-138834485D01*
X138584315Y-138834485D02*
X138727172Y-138834485D01*
X138727172Y-138834485D02*
X138917648Y-138882104D01*
X138917648Y-138882104D02*
X139012886Y-138929723D01*
X139012886Y-138929723D02*
X139108125Y-139024961D01*
X139108125Y-139024961D02*
X139155744Y-139167818D01*
X139155744Y-139167818D02*
X139155744Y-139405913D01*
X138155744Y-137929723D02*
X138155744Y-138405913D01*
X138155744Y-138405913D02*
X138631934Y-138453532D01*
X138631934Y-138453532D02*
X138584315Y-138405913D01*
X138584315Y-138405913D02*
X138536696Y-138310675D01*
X138536696Y-138310675D02*
X138536696Y-138072580D01*
X138536696Y-138072580D02*
X138584315Y-137977342D01*
X138584315Y-137977342D02*
X138631934Y-137929723D01*
X138631934Y-137929723D02*
X138727172Y-137882104D01*
X138727172Y-137882104D02*
X138965267Y-137882104D01*
X138965267Y-137882104D02*
X139060505Y-137929723D01*
X139060505Y-137929723D02*
X139108125Y-137977342D01*
X139108125Y-137977342D02*
X139155744Y-138072580D01*
X139155744Y-138072580D02*
X139155744Y-138310675D01*
X139155744Y-138310675D02*
X139108125Y-138405913D01*
X139108125Y-138405913D02*
X139060505Y-138453532D01*
%TO.C,D6*%
X148155744Y-139405913D02*
X147155744Y-139405913D01*
X147155744Y-139405913D02*
X147155744Y-139167818D01*
X147155744Y-139167818D02*
X147203363Y-139024961D01*
X147203363Y-139024961D02*
X147298601Y-138929723D01*
X147298601Y-138929723D02*
X147393839Y-138882104D01*
X147393839Y-138882104D02*
X147584315Y-138834485D01*
X147584315Y-138834485D02*
X147727172Y-138834485D01*
X147727172Y-138834485D02*
X147917648Y-138882104D01*
X147917648Y-138882104D02*
X148012886Y-138929723D01*
X148012886Y-138929723D02*
X148108125Y-139024961D01*
X148108125Y-139024961D02*
X148155744Y-139167818D01*
X148155744Y-139167818D02*
X148155744Y-139405913D01*
X147155744Y-137977342D02*
X147155744Y-138167818D01*
X147155744Y-138167818D02*
X147203363Y-138263056D01*
X147203363Y-138263056D02*
X147250982Y-138310675D01*
X147250982Y-138310675D02*
X147393839Y-138405913D01*
X147393839Y-138405913D02*
X147584315Y-138453532D01*
X147584315Y-138453532D02*
X147965267Y-138453532D01*
X147965267Y-138453532D02*
X148060505Y-138405913D01*
X148060505Y-138405913D02*
X148108125Y-138358294D01*
X148108125Y-138358294D02*
X148155744Y-138263056D01*
X148155744Y-138263056D02*
X148155744Y-138072580D01*
X148155744Y-138072580D02*
X148108125Y-137977342D01*
X148108125Y-137977342D02*
X148060505Y-137929723D01*
X148060505Y-137929723D02*
X147965267Y-137882104D01*
X147965267Y-137882104D02*
X147727172Y-137882104D01*
X147727172Y-137882104D02*
X147631934Y-137929723D01*
X147631934Y-137929723D02*
X147584315Y-137977342D01*
X147584315Y-137977342D02*
X147536696Y-138072580D01*
X147536696Y-138072580D02*
X147536696Y-138263056D01*
X147536696Y-138263056D02*
X147584315Y-138358294D01*
X147584315Y-138358294D02*
X147631934Y-138405913D01*
X147631934Y-138405913D02*
X147727172Y-138453532D01*
%TO.C,D11*%
X112155744Y-103957253D02*
X111155744Y-103957253D01*
X111155744Y-103957253D02*
X111155744Y-103719158D01*
X111155744Y-103719158D02*
X111203363Y-103576301D01*
X111203363Y-103576301D02*
X111298601Y-103481063D01*
X111298601Y-103481063D02*
X111393839Y-103433444D01*
X111393839Y-103433444D02*
X111584315Y-103385825D01*
X111584315Y-103385825D02*
X111727172Y-103385825D01*
X111727172Y-103385825D02*
X111917648Y-103433444D01*
X111917648Y-103433444D02*
X112012886Y-103481063D01*
X112012886Y-103481063D02*
X112108125Y-103576301D01*
X112108125Y-103576301D02*
X112155744Y-103719158D01*
X112155744Y-103719158D02*
X112155744Y-103957253D01*
X112155744Y-102433444D02*
X112155744Y-103004872D01*
X112155744Y-102719158D02*
X111155744Y-102719158D01*
X111155744Y-102719158D02*
X111298601Y-102814396D01*
X111298601Y-102814396D02*
X111393839Y-102909634D01*
X111393839Y-102909634D02*
X111441458Y-103004872D01*
X112155744Y-101481063D02*
X112155744Y-102052491D01*
X112155744Y-101766777D02*
X111155744Y-101766777D01*
X111155744Y-101766777D02*
X111298601Y-101862015D01*
X111298601Y-101862015D02*
X111393839Y-101957253D01*
X111393839Y-101957253D02*
X111441458Y-102052491D01*
%TO.C,C10*%
X108371755Y-96912542D02*
X108419375Y-96960161D01*
X108419375Y-96960161D02*
X108466994Y-97103018D01*
X108466994Y-97103018D02*
X108466994Y-97198256D01*
X108466994Y-97198256D02*
X108419375Y-97341113D01*
X108419375Y-97341113D02*
X108324136Y-97436351D01*
X108324136Y-97436351D02*
X108228898Y-97483970D01*
X108228898Y-97483970D02*
X108038422Y-97531589D01*
X108038422Y-97531589D02*
X107895565Y-97531589D01*
X107895565Y-97531589D02*
X107705089Y-97483970D01*
X107705089Y-97483970D02*
X107609851Y-97436351D01*
X107609851Y-97436351D02*
X107514613Y-97341113D01*
X107514613Y-97341113D02*
X107466994Y-97198256D01*
X107466994Y-97198256D02*
X107466994Y-97103018D01*
X107466994Y-97103018D02*
X107514613Y-96960161D01*
X107514613Y-96960161D02*
X107562232Y-96912542D01*
X108466994Y-95960161D02*
X108466994Y-96531589D01*
X108466994Y-96245875D02*
X107466994Y-96245875D01*
X107466994Y-96245875D02*
X107609851Y-96341113D01*
X107609851Y-96341113D02*
X107705089Y-96436351D01*
X107705089Y-96436351D02*
X107752708Y-96531589D01*
X107466994Y-95341113D02*
X107466994Y-95245875D01*
X107466994Y-95245875D02*
X107514613Y-95150637D01*
X107514613Y-95150637D02*
X107562232Y-95103018D01*
X107562232Y-95103018D02*
X107657470Y-95055399D01*
X107657470Y-95055399D02*
X107847946Y-95007780D01*
X107847946Y-95007780D02*
X108086041Y-95007780D01*
X108086041Y-95007780D02*
X108276517Y-95055399D01*
X108276517Y-95055399D02*
X108371755Y-95103018D01*
X108371755Y-95103018D02*
X108419375Y-95150637D01*
X108419375Y-95150637D02*
X108466994Y-95245875D01*
X108466994Y-95245875D02*
X108466994Y-95341113D01*
X108466994Y-95341113D02*
X108419375Y-95436351D01*
X108419375Y-95436351D02*
X108371755Y-95483970D01*
X108371755Y-95483970D02*
X108276517Y-95531589D01*
X108276517Y-95531589D02*
X108086041Y-95579208D01*
X108086041Y-95579208D02*
X107847946Y-95579208D01*
X107847946Y-95579208D02*
X107657470Y-95531589D01*
X107657470Y-95531589D02*
X107562232Y-95483970D01*
X107562232Y-95483970D02*
X107514613Y-95436351D01*
X107514613Y-95436351D02*
X107466994Y-95341113D01*
%TO.C,C23*%
X144421755Y-60864919D02*
X144469375Y-60912538D01*
X144469375Y-60912538D02*
X144516994Y-61055395D01*
X144516994Y-61055395D02*
X144516994Y-61150633D01*
X144516994Y-61150633D02*
X144469375Y-61293490D01*
X144469375Y-61293490D02*
X144374136Y-61388728D01*
X144374136Y-61388728D02*
X144278898Y-61436347D01*
X144278898Y-61436347D02*
X144088422Y-61483966D01*
X144088422Y-61483966D02*
X143945565Y-61483966D01*
X143945565Y-61483966D02*
X143755089Y-61436347D01*
X143755089Y-61436347D02*
X143659851Y-61388728D01*
X143659851Y-61388728D02*
X143564613Y-61293490D01*
X143564613Y-61293490D02*
X143516994Y-61150633D01*
X143516994Y-61150633D02*
X143516994Y-61055395D01*
X143516994Y-61055395D02*
X143564613Y-60912538D01*
X143564613Y-60912538D02*
X143612232Y-60864919D01*
X143612232Y-60483966D02*
X143564613Y-60436347D01*
X143564613Y-60436347D02*
X143516994Y-60341109D01*
X143516994Y-60341109D02*
X143516994Y-60103014D01*
X143516994Y-60103014D02*
X143564613Y-60007776D01*
X143564613Y-60007776D02*
X143612232Y-59960157D01*
X143612232Y-59960157D02*
X143707470Y-59912538D01*
X143707470Y-59912538D02*
X143802708Y-59912538D01*
X143802708Y-59912538D02*
X143945565Y-59960157D01*
X143945565Y-59960157D02*
X144516994Y-60531585D01*
X144516994Y-60531585D02*
X144516994Y-59912538D01*
X143516994Y-59579204D02*
X143516994Y-58960157D01*
X143516994Y-58960157D02*
X143897946Y-59293490D01*
X143897946Y-59293490D02*
X143897946Y-59150633D01*
X143897946Y-59150633D02*
X143945565Y-59055395D01*
X143945565Y-59055395D02*
X143993184Y-59007776D01*
X143993184Y-59007776D02*
X144088422Y-58960157D01*
X144088422Y-58960157D02*
X144326517Y-58960157D01*
X144326517Y-58960157D02*
X144421755Y-59007776D01*
X144421755Y-59007776D02*
X144469375Y-59055395D01*
X144469375Y-59055395D02*
X144516994Y-59150633D01*
X144516994Y-59150633D02*
X144516994Y-59436347D01*
X144516994Y-59436347D02*
X144469375Y-59531585D01*
X144469375Y-59531585D02*
X144421755Y-59579204D01*
%TO.C,C2*%
X117271755Y-131884485D02*
X117319375Y-131932104D01*
X117319375Y-131932104D02*
X117366994Y-132074961D01*
X117366994Y-132074961D02*
X117366994Y-132170199D01*
X117366994Y-132170199D02*
X117319375Y-132313056D01*
X117319375Y-132313056D02*
X117224136Y-132408294D01*
X117224136Y-132408294D02*
X117128898Y-132455913D01*
X117128898Y-132455913D02*
X116938422Y-132503532D01*
X116938422Y-132503532D02*
X116795565Y-132503532D01*
X116795565Y-132503532D02*
X116605089Y-132455913D01*
X116605089Y-132455913D02*
X116509851Y-132408294D01*
X116509851Y-132408294D02*
X116414613Y-132313056D01*
X116414613Y-132313056D02*
X116366994Y-132170199D01*
X116366994Y-132170199D02*
X116366994Y-132074961D01*
X116366994Y-132074961D02*
X116414613Y-131932104D01*
X116414613Y-131932104D02*
X116462232Y-131884485D01*
X116462232Y-131503532D02*
X116414613Y-131455913D01*
X116414613Y-131455913D02*
X116366994Y-131360675D01*
X116366994Y-131360675D02*
X116366994Y-131122580D01*
X116366994Y-131122580D02*
X116414613Y-131027342D01*
X116414613Y-131027342D02*
X116462232Y-130979723D01*
X116462232Y-130979723D02*
X116557470Y-130932104D01*
X116557470Y-130932104D02*
X116652708Y-130932104D01*
X116652708Y-130932104D02*
X116795565Y-130979723D01*
X116795565Y-130979723D02*
X117366994Y-131551151D01*
X117366994Y-131551151D02*
X117366994Y-130932104D01*
%TO.C,C11*%
X117371755Y-96912542D02*
X117419375Y-96960161D01*
X117419375Y-96960161D02*
X117466994Y-97103018D01*
X117466994Y-97103018D02*
X117466994Y-97198256D01*
X117466994Y-97198256D02*
X117419375Y-97341113D01*
X117419375Y-97341113D02*
X117324136Y-97436351D01*
X117324136Y-97436351D02*
X117228898Y-97483970D01*
X117228898Y-97483970D02*
X117038422Y-97531589D01*
X117038422Y-97531589D02*
X116895565Y-97531589D01*
X116895565Y-97531589D02*
X116705089Y-97483970D01*
X116705089Y-97483970D02*
X116609851Y-97436351D01*
X116609851Y-97436351D02*
X116514613Y-97341113D01*
X116514613Y-97341113D02*
X116466994Y-97198256D01*
X116466994Y-97198256D02*
X116466994Y-97103018D01*
X116466994Y-97103018D02*
X116514613Y-96960161D01*
X116514613Y-96960161D02*
X116562232Y-96912542D01*
X117466994Y-95960161D02*
X117466994Y-96531589D01*
X117466994Y-96245875D02*
X116466994Y-96245875D01*
X116466994Y-96245875D02*
X116609851Y-96341113D01*
X116609851Y-96341113D02*
X116705089Y-96436351D01*
X116705089Y-96436351D02*
X116752708Y-96531589D01*
X117466994Y-95007780D02*
X117466994Y-95579208D01*
X117466994Y-95293494D02*
X116466994Y-95293494D01*
X116466994Y-95293494D02*
X116609851Y-95388732D01*
X116609851Y-95388732D02*
X116705089Y-95483970D01*
X116705089Y-95483970D02*
X116752708Y-95579208D01*
%TO.C,D17*%
X166155744Y-103957253D02*
X165155744Y-103957253D01*
X165155744Y-103957253D02*
X165155744Y-103719158D01*
X165155744Y-103719158D02*
X165203363Y-103576301D01*
X165203363Y-103576301D02*
X165298601Y-103481063D01*
X165298601Y-103481063D02*
X165393839Y-103433444D01*
X165393839Y-103433444D02*
X165584315Y-103385825D01*
X165584315Y-103385825D02*
X165727172Y-103385825D01*
X165727172Y-103385825D02*
X165917648Y-103433444D01*
X165917648Y-103433444D02*
X166012886Y-103481063D01*
X166012886Y-103481063D02*
X166108125Y-103576301D01*
X166108125Y-103576301D02*
X166155744Y-103719158D01*
X166155744Y-103719158D02*
X166155744Y-103957253D01*
X166155744Y-102433444D02*
X166155744Y-103004872D01*
X166155744Y-102719158D02*
X165155744Y-102719158D01*
X165155744Y-102719158D02*
X165298601Y-102814396D01*
X165298601Y-102814396D02*
X165393839Y-102909634D01*
X165393839Y-102909634D02*
X165441458Y-103004872D01*
X165155744Y-102100110D02*
X165155744Y-101433444D01*
X165155744Y-101433444D02*
X166155744Y-101862015D01*
%TO.C,D4*%
X130155744Y-139405913D02*
X129155744Y-139405913D01*
X129155744Y-139405913D02*
X129155744Y-139167818D01*
X129155744Y-139167818D02*
X129203363Y-139024961D01*
X129203363Y-139024961D02*
X129298601Y-138929723D01*
X129298601Y-138929723D02*
X129393839Y-138882104D01*
X129393839Y-138882104D02*
X129584315Y-138834485D01*
X129584315Y-138834485D02*
X129727172Y-138834485D01*
X129727172Y-138834485D02*
X129917648Y-138882104D01*
X129917648Y-138882104D02*
X130012886Y-138929723D01*
X130012886Y-138929723D02*
X130108125Y-139024961D01*
X130108125Y-139024961D02*
X130155744Y-139167818D01*
X130155744Y-139167818D02*
X130155744Y-139405913D01*
X129489077Y-137977342D02*
X130155744Y-137977342D01*
X129108125Y-138215437D02*
X129822410Y-138453532D01*
X129822410Y-138453532D02*
X129822410Y-137834485D01*
%TO.C,C8*%
X171271755Y-131884485D02*
X171319375Y-131932104D01*
X171319375Y-131932104D02*
X171366994Y-132074961D01*
X171366994Y-132074961D02*
X171366994Y-132170199D01*
X171366994Y-132170199D02*
X171319375Y-132313056D01*
X171319375Y-132313056D02*
X171224136Y-132408294D01*
X171224136Y-132408294D02*
X171128898Y-132455913D01*
X171128898Y-132455913D02*
X170938422Y-132503532D01*
X170938422Y-132503532D02*
X170795565Y-132503532D01*
X170795565Y-132503532D02*
X170605089Y-132455913D01*
X170605089Y-132455913D02*
X170509851Y-132408294D01*
X170509851Y-132408294D02*
X170414613Y-132313056D01*
X170414613Y-132313056D02*
X170366994Y-132170199D01*
X170366994Y-132170199D02*
X170366994Y-132074961D01*
X170366994Y-132074961D02*
X170414613Y-131932104D01*
X170414613Y-131932104D02*
X170462232Y-131884485D01*
X170795565Y-131313056D02*
X170747946Y-131408294D01*
X170747946Y-131408294D02*
X170700327Y-131455913D01*
X170700327Y-131455913D02*
X170605089Y-131503532D01*
X170605089Y-131503532D02*
X170557470Y-131503532D01*
X170557470Y-131503532D02*
X170462232Y-131455913D01*
X170462232Y-131455913D02*
X170414613Y-131408294D01*
X170414613Y-131408294D02*
X170366994Y-131313056D01*
X170366994Y-131313056D02*
X170366994Y-131122580D01*
X170366994Y-131122580D02*
X170414613Y-131027342D01*
X170414613Y-131027342D02*
X170462232Y-130979723D01*
X170462232Y-130979723D02*
X170557470Y-130932104D01*
X170557470Y-130932104D02*
X170605089Y-130932104D01*
X170605089Y-130932104D02*
X170700327Y-130979723D01*
X170700327Y-130979723D02*
X170747946Y-131027342D01*
X170747946Y-131027342D02*
X170795565Y-131122580D01*
X170795565Y-131122580D02*
X170795565Y-131313056D01*
X170795565Y-131313056D02*
X170843184Y-131408294D01*
X170843184Y-131408294D02*
X170890803Y-131455913D01*
X170890803Y-131455913D02*
X170986041Y-131503532D01*
X170986041Y-131503532D02*
X171176517Y-131503532D01*
X171176517Y-131503532D02*
X171271755Y-131455913D01*
X171271755Y-131455913D02*
X171319375Y-131408294D01*
X171319375Y-131408294D02*
X171366994Y-131313056D01*
X171366994Y-131313056D02*
X171366994Y-131122580D01*
X171366994Y-131122580D02*
X171319375Y-131027342D01*
X171319375Y-131027342D02*
X171271755Y-130979723D01*
X171271755Y-130979723D02*
X171176517Y-130932104D01*
X171176517Y-130932104D02*
X170986041Y-130932104D01*
X170986041Y-130932104D02*
X170890803Y-130979723D01*
X170890803Y-130979723D02*
X170843184Y-131027342D01*
X170843184Y-131027342D02*
X170795565Y-131122580D01*
%TO.C,C14*%
X144371755Y-96912542D02*
X144419375Y-96960161D01*
X144419375Y-96960161D02*
X144466994Y-97103018D01*
X144466994Y-97103018D02*
X144466994Y-97198256D01*
X144466994Y-97198256D02*
X144419375Y-97341113D01*
X144419375Y-97341113D02*
X144324136Y-97436351D01*
X144324136Y-97436351D02*
X144228898Y-97483970D01*
X144228898Y-97483970D02*
X144038422Y-97531589D01*
X144038422Y-97531589D02*
X143895565Y-97531589D01*
X143895565Y-97531589D02*
X143705089Y-97483970D01*
X143705089Y-97483970D02*
X143609851Y-97436351D01*
X143609851Y-97436351D02*
X143514613Y-97341113D01*
X143514613Y-97341113D02*
X143466994Y-97198256D01*
X143466994Y-97198256D02*
X143466994Y-97103018D01*
X143466994Y-97103018D02*
X143514613Y-96960161D01*
X143514613Y-96960161D02*
X143562232Y-96912542D01*
X144466994Y-95960161D02*
X144466994Y-96531589D01*
X144466994Y-96245875D02*
X143466994Y-96245875D01*
X143466994Y-96245875D02*
X143609851Y-96341113D01*
X143609851Y-96341113D02*
X143705089Y-96436351D01*
X143705089Y-96436351D02*
X143752708Y-96531589D01*
X143800327Y-95103018D02*
X144466994Y-95103018D01*
X143419375Y-95341113D02*
X144133660Y-95579208D01*
X144133660Y-95579208D02*
X144133660Y-94960161D01*
%TO.C,C20*%
X117421755Y-60864919D02*
X117469375Y-60912538D01*
X117469375Y-60912538D02*
X117516994Y-61055395D01*
X117516994Y-61055395D02*
X117516994Y-61150633D01*
X117516994Y-61150633D02*
X117469375Y-61293490D01*
X117469375Y-61293490D02*
X117374136Y-61388728D01*
X117374136Y-61388728D02*
X117278898Y-61436347D01*
X117278898Y-61436347D02*
X117088422Y-61483966D01*
X117088422Y-61483966D02*
X116945565Y-61483966D01*
X116945565Y-61483966D02*
X116755089Y-61436347D01*
X116755089Y-61436347D02*
X116659851Y-61388728D01*
X116659851Y-61388728D02*
X116564613Y-61293490D01*
X116564613Y-61293490D02*
X116516994Y-61150633D01*
X116516994Y-61150633D02*
X116516994Y-61055395D01*
X116516994Y-61055395D02*
X116564613Y-60912538D01*
X116564613Y-60912538D02*
X116612232Y-60864919D01*
X116612232Y-60483966D02*
X116564613Y-60436347D01*
X116564613Y-60436347D02*
X116516994Y-60341109D01*
X116516994Y-60341109D02*
X116516994Y-60103014D01*
X116516994Y-60103014D02*
X116564613Y-60007776D01*
X116564613Y-60007776D02*
X116612232Y-59960157D01*
X116612232Y-59960157D02*
X116707470Y-59912538D01*
X116707470Y-59912538D02*
X116802708Y-59912538D01*
X116802708Y-59912538D02*
X116945565Y-59960157D01*
X116945565Y-59960157D02*
X117516994Y-60531585D01*
X117516994Y-60531585D02*
X117516994Y-59912538D01*
X116516994Y-59293490D02*
X116516994Y-59198252D01*
X116516994Y-59198252D02*
X116564613Y-59103014D01*
X116564613Y-59103014D02*
X116612232Y-59055395D01*
X116612232Y-59055395D02*
X116707470Y-59007776D01*
X116707470Y-59007776D02*
X116897946Y-58960157D01*
X116897946Y-58960157D02*
X117136041Y-58960157D01*
X117136041Y-58960157D02*
X117326517Y-59007776D01*
X117326517Y-59007776D02*
X117421755Y-59055395D01*
X117421755Y-59055395D02*
X117469375Y-59103014D01*
X117469375Y-59103014D02*
X117516994Y-59198252D01*
X117516994Y-59198252D02*
X117516994Y-59293490D01*
X117516994Y-59293490D02*
X117469375Y-59388728D01*
X117469375Y-59388728D02*
X117421755Y-59436347D01*
X117421755Y-59436347D02*
X117326517Y-59483966D01*
X117326517Y-59483966D02*
X117136041Y-59531585D01*
X117136041Y-59531585D02*
X116897946Y-59531585D01*
X116897946Y-59531585D02*
X116707470Y-59483966D01*
X116707470Y-59483966D02*
X116612232Y-59436347D01*
X116612232Y-59436347D02*
X116564613Y-59388728D01*
X116564613Y-59388728D02*
X116516994Y-59293490D01*
%TO.C,D15*%
X148155744Y-103957253D02*
X147155744Y-103957253D01*
X147155744Y-103957253D02*
X147155744Y-103719158D01*
X147155744Y-103719158D02*
X147203363Y-103576301D01*
X147203363Y-103576301D02*
X147298601Y-103481063D01*
X147298601Y-103481063D02*
X147393839Y-103433444D01*
X147393839Y-103433444D02*
X147584315Y-103385825D01*
X147584315Y-103385825D02*
X147727172Y-103385825D01*
X147727172Y-103385825D02*
X147917648Y-103433444D01*
X147917648Y-103433444D02*
X148012886Y-103481063D01*
X148012886Y-103481063D02*
X148108125Y-103576301D01*
X148108125Y-103576301D02*
X148155744Y-103719158D01*
X148155744Y-103719158D02*
X148155744Y-103957253D01*
X148155744Y-102433444D02*
X148155744Y-103004872D01*
X148155744Y-102719158D02*
X147155744Y-102719158D01*
X147155744Y-102719158D02*
X147298601Y-102814396D01*
X147298601Y-102814396D02*
X147393839Y-102909634D01*
X147393839Y-102909634D02*
X147441458Y-103004872D01*
X147155744Y-101528682D02*
X147155744Y-102004872D01*
X147155744Y-102004872D02*
X147631934Y-102052491D01*
X147631934Y-102052491D02*
X147584315Y-102004872D01*
X147584315Y-102004872D02*
X147536696Y-101909634D01*
X147536696Y-101909634D02*
X147536696Y-101671539D01*
X147536696Y-101671539D02*
X147584315Y-101576301D01*
X147584315Y-101576301D02*
X147631934Y-101528682D01*
X147631934Y-101528682D02*
X147727172Y-101481063D01*
X147727172Y-101481063D02*
X147965267Y-101481063D01*
X147965267Y-101481063D02*
X148060505Y-101528682D01*
X148060505Y-101528682D02*
X148108125Y-101576301D01*
X148108125Y-101576301D02*
X148155744Y-101671539D01*
X148155744Y-101671539D02*
X148155744Y-101909634D01*
X148155744Y-101909634D02*
X148108125Y-102004872D01*
X148108125Y-102004872D02*
X148060505Y-102052491D01*
%TO.C,J4*%
X187616666Y-94678869D02*
X187616666Y-95393154D01*
X187616666Y-95393154D02*
X187569047Y-95536011D01*
X187569047Y-95536011D02*
X187473809Y-95631250D01*
X187473809Y-95631250D02*
X187330952Y-95678869D01*
X187330952Y-95678869D02*
X187235714Y-95678869D01*
X188521428Y-95012202D02*
X188521428Y-95678869D01*
X188283333Y-94631250D02*
X188045238Y-95345535D01*
X188045238Y-95345535D02*
X188664285Y-95345535D01*
%TO.C,D14*%
X139155744Y-103957253D02*
X138155744Y-103957253D01*
X138155744Y-103957253D02*
X138155744Y-103719158D01*
X138155744Y-103719158D02*
X138203363Y-103576301D01*
X138203363Y-103576301D02*
X138298601Y-103481063D01*
X138298601Y-103481063D02*
X138393839Y-103433444D01*
X138393839Y-103433444D02*
X138584315Y-103385825D01*
X138584315Y-103385825D02*
X138727172Y-103385825D01*
X138727172Y-103385825D02*
X138917648Y-103433444D01*
X138917648Y-103433444D02*
X139012886Y-103481063D01*
X139012886Y-103481063D02*
X139108125Y-103576301D01*
X139108125Y-103576301D02*
X139155744Y-103719158D01*
X139155744Y-103719158D02*
X139155744Y-103957253D01*
X139155744Y-102433444D02*
X139155744Y-103004872D01*
X139155744Y-102719158D02*
X138155744Y-102719158D01*
X138155744Y-102719158D02*
X138298601Y-102814396D01*
X138298601Y-102814396D02*
X138393839Y-102909634D01*
X138393839Y-102909634D02*
X138441458Y-103004872D01*
X138489077Y-101576301D02*
X139155744Y-101576301D01*
X138108125Y-101814396D02*
X138822410Y-102052491D01*
X138822410Y-102052491D02*
X138822410Y-101433444D01*
%TO.C,D27*%
X175205744Y-67865242D02*
X174205744Y-67865242D01*
X174205744Y-67865242D02*
X174205744Y-67627147D01*
X174205744Y-67627147D02*
X174253363Y-67484290D01*
X174253363Y-67484290D02*
X174348601Y-67389052D01*
X174348601Y-67389052D02*
X174443839Y-67341433D01*
X174443839Y-67341433D02*
X174634315Y-67293814D01*
X174634315Y-67293814D02*
X174777172Y-67293814D01*
X174777172Y-67293814D02*
X174967648Y-67341433D01*
X174967648Y-67341433D02*
X175062886Y-67389052D01*
X175062886Y-67389052D02*
X175158125Y-67484290D01*
X175158125Y-67484290D02*
X175205744Y-67627147D01*
X175205744Y-67627147D02*
X175205744Y-67865242D01*
X174300982Y-66912861D02*
X174253363Y-66865242D01*
X174253363Y-66865242D02*
X174205744Y-66770004D01*
X174205744Y-66770004D02*
X174205744Y-66531909D01*
X174205744Y-66531909D02*
X174253363Y-66436671D01*
X174253363Y-66436671D02*
X174300982Y-66389052D01*
X174300982Y-66389052D02*
X174396220Y-66341433D01*
X174396220Y-66341433D02*
X174491458Y-66341433D01*
X174491458Y-66341433D02*
X174634315Y-66389052D01*
X174634315Y-66389052D02*
X175205744Y-66960480D01*
X175205744Y-66960480D02*
X175205744Y-66341433D01*
X174205744Y-66008099D02*
X174205744Y-65341433D01*
X174205744Y-65341433D02*
X175205744Y-65770004D01*
%TO.C,C19*%
X108421755Y-60864919D02*
X108469375Y-60912538D01*
X108469375Y-60912538D02*
X108516994Y-61055395D01*
X108516994Y-61055395D02*
X108516994Y-61150633D01*
X108516994Y-61150633D02*
X108469375Y-61293490D01*
X108469375Y-61293490D02*
X108374136Y-61388728D01*
X108374136Y-61388728D02*
X108278898Y-61436347D01*
X108278898Y-61436347D02*
X108088422Y-61483966D01*
X108088422Y-61483966D02*
X107945565Y-61483966D01*
X107945565Y-61483966D02*
X107755089Y-61436347D01*
X107755089Y-61436347D02*
X107659851Y-61388728D01*
X107659851Y-61388728D02*
X107564613Y-61293490D01*
X107564613Y-61293490D02*
X107516994Y-61150633D01*
X107516994Y-61150633D02*
X107516994Y-61055395D01*
X107516994Y-61055395D02*
X107564613Y-60912538D01*
X107564613Y-60912538D02*
X107612232Y-60864919D01*
X108516994Y-59912538D02*
X108516994Y-60483966D01*
X108516994Y-60198252D02*
X107516994Y-60198252D01*
X107516994Y-60198252D02*
X107659851Y-60293490D01*
X107659851Y-60293490D02*
X107755089Y-60388728D01*
X107755089Y-60388728D02*
X107802708Y-60483966D01*
X108516994Y-59436347D02*
X108516994Y-59245871D01*
X108516994Y-59245871D02*
X108469375Y-59150633D01*
X108469375Y-59150633D02*
X108421755Y-59103014D01*
X108421755Y-59103014D02*
X108278898Y-59007776D01*
X108278898Y-59007776D02*
X108088422Y-58960157D01*
X108088422Y-58960157D02*
X107707470Y-58960157D01*
X107707470Y-58960157D02*
X107612232Y-59007776D01*
X107612232Y-59007776D02*
X107564613Y-59055395D01*
X107564613Y-59055395D02*
X107516994Y-59150633D01*
X107516994Y-59150633D02*
X107516994Y-59341109D01*
X107516994Y-59341109D02*
X107564613Y-59436347D01*
X107564613Y-59436347D02*
X107612232Y-59483966D01*
X107612232Y-59483966D02*
X107707470Y-59531585D01*
X107707470Y-59531585D02*
X107945565Y-59531585D01*
X107945565Y-59531585D02*
X108040803Y-59483966D01*
X108040803Y-59483966D02*
X108088422Y-59436347D01*
X108088422Y-59436347D02*
X108136041Y-59341109D01*
X108136041Y-59341109D02*
X108136041Y-59150633D01*
X108136041Y-59150633D02*
X108088422Y-59055395D01*
X108088422Y-59055395D02*
X108040803Y-59007776D01*
X108040803Y-59007776D02*
X107945565Y-58960157D01*
%TO.C,C5*%
X144271755Y-131884485D02*
X144319375Y-131932104D01*
X144319375Y-131932104D02*
X144366994Y-132074961D01*
X144366994Y-132074961D02*
X144366994Y-132170199D01*
X144366994Y-132170199D02*
X144319375Y-132313056D01*
X144319375Y-132313056D02*
X144224136Y-132408294D01*
X144224136Y-132408294D02*
X144128898Y-132455913D01*
X144128898Y-132455913D02*
X143938422Y-132503532D01*
X143938422Y-132503532D02*
X143795565Y-132503532D01*
X143795565Y-132503532D02*
X143605089Y-132455913D01*
X143605089Y-132455913D02*
X143509851Y-132408294D01*
X143509851Y-132408294D02*
X143414613Y-132313056D01*
X143414613Y-132313056D02*
X143366994Y-132170199D01*
X143366994Y-132170199D02*
X143366994Y-132074961D01*
X143366994Y-132074961D02*
X143414613Y-131932104D01*
X143414613Y-131932104D02*
X143462232Y-131884485D01*
X143366994Y-130979723D02*
X143366994Y-131455913D01*
X143366994Y-131455913D02*
X143843184Y-131503532D01*
X143843184Y-131503532D02*
X143795565Y-131455913D01*
X143795565Y-131455913D02*
X143747946Y-131360675D01*
X143747946Y-131360675D02*
X143747946Y-131122580D01*
X143747946Y-131122580D02*
X143795565Y-131027342D01*
X143795565Y-131027342D02*
X143843184Y-130979723D01*
X143843184Y-130979723D02*
X143938422Y-130932104D01*
X143938422Y-130932104D02*
X144176517Y-130932104D01*
X144176517Y-130932104D02*
X144271755Y-130979723D01*
X144271755Y-130979723D02*
X144319375Y-131027342D01*
X144319375Y-131027342D02*
X144366994Y-131122580D01*
X144366994Y-131122580D02*
X144366994Y-131360675D01*
X144366994Y-131360675D02*
X144319375Y-131455913D01*
X144319375Y-131455913D02*
X144271755Y-131503532D01*
%TO.C,D13*%
X130155744Y-103957253D02*
X129155744Y-103957253D01*
X129155744Y-103957253D02*
X129155744Y-103719158D01*
X129155744Y-103719158D02*
X129203363Y-103576301D01*
X129203363Y-103576301D02*
X129298601Y-103481063D01*
X129298601Y-103481063D02*
X129393839Y-103433444D01*
X129393839Y-103433444D02*
X129584315Y-103385825D01*
X129584315Y-103385825D02*
X129727172Y-103385825D01*
X129727172Y-103385825D02*
X129917648Y-103433444D01*
X129917648Y-103433444D02*
X130012886Y-103481063D01*
X130012886Y-103481063D02*
X130108125Y-103576301D01*
X130108125Y-103576301D02*
X130155744Y-103719158D01*
X130155744Y-103719158D02*
X130155744Y-103957253D01*
X130155744Y-102433444D02*
X130155744Y-103004872D01*
X130155744Y-102719158D02*
X129155744Y-102719158D01*
X129155744Y-102719158D02*
X129298601Y-102814396D01*
X129298601Y-102814396D02*
X129393839Y-102909634D01*
X129393839Y-102909634D02*
X129441458Y-103004872D01*
X129155744Y-102100110D02*
X129155744Y-101481063D01*
X129155744Y-101481063D02*
X129536696Y-101814396D01*
X129536696Y-101814396D02*
X129536696Y-101671539D01*
X129536696Y-101671539D02*
X129584315Y-101576301D01*
X129584315Y-101576301D02*
X129631934Y-101528682D01*
X129631934Y-101528682D02*
X129727172Y-101481063D01*
X129727172Y-101481063D02*
X129965267Y-101481063D01*
X129965267Y-101481063D02*
X130060505Y-101528682D01*
X130060505Y-101528682D02*
X130108125Y-101576301D01*
X130108125Y-101576301D02*
X130155744Y-101671539D01*
X130155744Y-101671539D02*
X130155744Y-101957253D01*
X130155744Y-101957253D02*
X130108125Y-102052491D01*
X130108125Y-102052491D02*
X130060505Y-102100110D01*
%TO.C,C25*%
X162421755Y-60864919D02*
X162469375Y-60912538D01*
X162469375Y-60912538D02*
X162516994Y-61055395D01*
X162516994Y-61055395D02*
X162516994Y-61150633D01*
X162516994Y-61150633D02*
X162469375Y-61293490D01*
X162469375Y-61293490D02*
X162374136Y-61388728D01*
X162374136Y-61388728D02*
X162278898Y-61436347D01*
X162278898Y-61436347D02*
X162088422Y-61483966D01*
X162088422Y-61483966D02*
X161945565Y-61483966D01*
X161945565Y-61483966D02*
X161755089Y-61436347D01*
X161755089Y-61436347D02*
X161659851Y-61388728D01*
X161659851Y-61388728D02*
X161564613Y-61293490D01*
X161564613Y-61293490D02*
X161516994Y-61150633D01*
X161516994Y-61150633D02*
X161516994Y-61055395D01*
X161516994Y-61055395D02*
X161564613Y-60912538D01*
X161564613Y-60912538D02*
X161612232Y-60864919D01*
X161612232Y-60483966D02*
X161564613Y-60436347D01*
X161564613Y-60436347D02*
X161516994Y-60341109D01*
X161516994Y-60341109D02*
X161516994Y-60103014D01*
X161516994Y-60103014D02*
X161564613Y-60007776D01*
X161564613Y-60007776D02*
X161612232Y-59960157D01*
X161612232Y-59960157D02*
X161707470Y-59912538D01*
X161707470Y-59912538D02*
X161802708Y-59912538D01*
X161802708Y-59912538D02*
X161945565Y-59960157D01*
X161945565Y-59960157D02*
X162516994Y-60531585D01*
X162516994Y-60531585D02*
X162516994Y-59912538D01*
X161516994Y-59007776D02*
X161516994Y-59483966D01*
X161516994Y-59483966D02*
X161993184Y-59531585D01*
X161993184Y-59531585D02*
X161945565Y-59483966D01*
X161945565Y-59483966D02*
X161897946Y-59388728D01*
X161897946Y-59388728D02*
X161897946Y-59150633D01*
X161897946Y-59150633D02*
X161945565Y-59055395D01*
X161945565Y-59055395D02*
X161993184Y-59007776D01*
X161993184Y-59007776D02*
X162088422Y-58960157D01*
X162088422Y-58960157D02*
X162326517Y-58960157D01*
X162326517Y-58960157D02*
X162421755Y-59007776D01*
X162421755Y-59007776D02*
X162469375Y-59055395D01*
X162469375Y-59055395D02*
X162516994Y-59150633D01*
X162516994Y-59150633D02*
X162516994Y-59388728D01*
X162516994Y-59388728D02*
X162469375Y-59483966D01*
X162469375Y-59483966D02*
X162421755Y-59531585D01*
%TO.C,C12*%
X126371755Y-96912542D02*
X126419375Y-96960161D01*
X126419375Y-96960161D02*
X126466994Y-97103018D01*
X126466994Y-97103018D02*
X126466994Y-97198256D01*
X126466994Y-97198256D02*
X126419375Y-97341113D01*
X126419375Y-97341113D02*
X126324136Y-97436351D01*
X126324136Y-97436351D02*
X126228898Y-97483970D01*
X126228898Y-97483970D02*
X126038422Y-97531589D01*
X126038422Y-97531589D02*
X125895565Y-97531589D01*
X125895565Y-97531589D02*
X125705089Y-97483970D01*
X125705089Y-97483970D02*
X125609851Y-97436351D01*
X125609851Y-97436351D02*
X125514613Y-97341113D01*
X125514613Y-97341113D02*
X125466994Y-97198256D01*
X125466994Y-97198256D02*
X125466994Y-97103018D01*
X125466994Y-97103018D02*
X125514613Y-96960161D01*
X125514613Y-96960161D02*
X125562232Y-96912542D01*
X126466994Y-95960161D02*
X126466994Y-96531589D01*
X126466994Y-96245875D02*
X125466994Y-96245875D01*
X125466994Y-96245875D02*
X125609851Y-96341113D01*
X125609851Y-96341113D02*
X125705089Y-96436351D01*
X125705089Y-96436351D02*
X125752708Y-96531589D01*
X125562232Y-95579208D02*
X125514613Y-95531589D01*
X125514613Y-95531589D02*
X125466994Y-95436351D01*
X125466994Y-95436351D02*
X125466994Y-95198256D01*
X125466994Y-95198256D02*
X125514613Y-95103018D01*
X125514613Y-95103018D02*
X125562232Y-95055399D01*
X125562232Y-95055399D02*
X125657470Y-95007780D01*
X125657470Y-95007780D02*
X125752708Y-95007780D01*
X125752708Y-95007780D02*
X125895565Y-95055399D01*
X125895565Y-95055399D02*
X126466994Y-95626827D01*
X126466994Y-95626827D02*
X126466994Y-95007780D01*
%TO.C,D12*%
X121155744Y-103957253D02*
X120155744Y-103957253D01*
X120155744Y-103957253D02*
X120155744Y-103719158D01*
X120155744Y-103719158D02*
X120203363Y-103576301D01*
X120203363Y-103576301D02*
X120298601Y-103481063D01*
X120298601Y-103481063D02*
X120393839Y-103433444D01*
X120393839Y-103433444D02*
X120584315Y-103385825D01*
X120584315Y-103385825D02*
X120727172Y-103385825D01*
X120727172Y-103385825D02*
X120917648Y-103433444D01*
X120917648Y-103433444D02*
X121012886Y-103481063D01*
X121012886Y-103481063D02*
X121108125Y-103576301D01*
X121108125Y-103576301D02*
X121155744Y-103719158D01*
X121155744Y-103719158D02*
X121155744Y-103957253D01*
X121155744Y-102433444D02*
X121155744Y-103004872D01*
X121155744Y-102719158D02*
X120155744Y-102719158D01*
X120155744Y-102719158D02*
X120298601Y-102814396D01*
X120298601Y-102814396D02*
X120393839Y-102909634D01*
X120393839Y-102909634D02*
X120441458Y-103004872D01*
X120250982Y-102052491D02*
X120203363Y-102004872D01*
X120203363Y-102004872D02*
X120155744Y-101909634D01*
X120155744Y-101909634D02*
X120155744Y-101671539D01*
X120155744Y-101671539D02*
X120203363Y-101576301D01*
X120203363Y-101576301D02*
X120250982Y-101528682D01*
X120250982Y-101528682D02*
X120346220Y-101481063D01*
X120346220Y-101481063D02*
X120441458Y-101481063D01*
X120441458Y-101481063D02*
X120584315Y-101528682D01*
X120584315Y-101528682D02*
X121155744Y-102100110D01*
X121155744Y-102100110D02*
X121155744Y-101481063D01*
%TO.C,D3*%
X121155744Y-139405913D02*
X120155744Y-139405913D01*
X120155744Y-139405913D02*
X120155744Y-139167818D01*
X120155744Y-139167818D02*
X120203363Y-139024961D01*
X120203363Y-139024961D02*
X120298601Y-138929723D01*
X120298601Y-138929723D02*
X120393839Y-138882104D01*
X120393839Y-138882104D02*
X120584315Y-138834485D01*
X120584315Y-138834485D02*
X120727172Y-138834485D01*
X120727172Y-138834485D02*
X120917648Y-138882104D01*
X120917648Y-138882104D02*
X121012886Y-138929723D01*
X121012886Y-138929723D02*
X121108125Y-139024961D01*
X121108125Y-139024961D02*
X121155744Y-139167818D01*
X121155744Y-139167818D02*
X121155744Y-139405913D01*
X120155744Y-138501151D02*
X120155744Y-137882104D01*
X120155744Y-137882104D02*
X120536696Y-138215437D01*
X120536696Y-138215437D02*
X120536696Y-138072580D01*
X120536696Y-138072580D02*
X120584315Y-137977342D01*
X120584315Y-137977342D02*
X120631934Y-137929723D01*
X120631934Y-137929723D02*
X120727172Y-137882104D01*
X120727172Y-137882104D02*
X120965267Y-137882104D01*
X120965267Y-137882104D02*
X121060505Y-137929723D01*
X121060505Y-137929723D02*
X121108125Y-137977342D01*
X121108125Y-137977342D02*
X121155744Y-138072580D01*
X121155744Y-138072580D02*
X121155744Y-138358294D01*
X121155744Y-138358294D02*
X121108125Y-138453532D01*
X121108125Y-138453532D02*
X121060505Y-138501151D01*
%TO.C,C21*%
X126421755Y-60864919D02*
X126469375Y-60912538D01*
X126469375Y-60912538D02*
X126516994Y-61055395D01*
X126516994Y-61055395D02*
X126516994Y-61150633D01*
X126516994Y-61150633D02*
X126469375Y-61293490D01*
X126469375Y-61293490D02*
X126374136Y-61388728D01*
X126374136Y-61388728D02*
X126278898Y-61436347D01*
X126278898Y-61436347D02*
X126088422Y-61483966D01*
X126088422Y-61483966D02*
X125945565Y-61483966D01*
X125945565Y-61483966D02*
X125755089Y-61436347D01*
X125755089Y-61436347D02*
X125659851Y-61388728D01*
X125659851Y-61388728D02*
X125564613Y-61293490D01*
X125564613Y-61293490D02*
X125516994Y-61150633D01*
X125516994Y-61150633D02*
X125516994Y-61055395D01*
X125516994Y-61055395D02*
X125564613Y-60912538D01*
X125564613Y-60912538D02*
X125612232Y-60864919D01*
X125612232Y-60483966D02*
X125564613Y-60436347D01*
X125564613Y-60436347D02*
X125516994Y-60341109D01*
X125516994Y-60341109D02*
X125516994Y-60103014D01*
X125516994Y-60103014D02*
X125564613Y-60007776D01*
X125564613Y-60007776D02*
X125612232Y-59960157D01*
X125612232Y-59960157D02*
X125707470Y-59912538D01*
X125707470Y-59912538D02*
X125802708Y-59912538D01*
X125802708Y-59912538D02*
X125945565Y-59960157D01*
X125945565Y-59960157D02*
X126516994Y-60531585D01*
X126516994Y-60531585D02*
X126516994Y-59912538D01*
X126516994Y-58960157D02*
X126516994Y-59531585D01*
X126516994Y-59245871D02*
X125516994Y-59245871D01*
X125516994Y-59245871D02*
X125659851Y-59341109D01*
X125659851Y-59341109D02*
X125755089Y-59436347D01*
X125755089Y-59436347D02*
X125802708Y-59531585D01*
%TO.C,D24*%
X148205744Y-67865242D02*
X147205744Y-67865242D01*
X147205744Y-67865242D02*
X147205744Y-67627147D01*
X147205744Y-67627147D02*
X147253363Y-67484290D01*
X147253363Y-67484290D02*
X147348601Y-67389052D01*
X147348601Y-67389052D02*
X147443839Y-67341433D01*
X147443839Y-67341433D02*
X147634315Y-67293814D01*
X147634315Y-67293814D02*
X147777172Y-67293814D01*
X147777172Y-67293814D02*
X147967648Y-67341433D01*
X147967648Y-67341433D02*
X148062886Y-67389052D01*
X148062886Y-67389052D02*
X148158125Y-67484290D01*
X148158125Y-67484290D02*
X148205744Y-67627147D01*
X148205744Y-67627147D02*
X148205744Y-67865242D01*
X147300982Y-66912861D02*
X147253363Y-66865242D01*
X147253363Y-66865242D02*
X147205744Y-66770004D01*
X147205744Y-66770004D02*
X147205744Y-66531909D01*
X147205744Y-66531909D02*
X147253363Y-66436671D01*
X147253363Y-66436671D02*
X147300982Y-66389052D01*
X147300982Y-66389052D02*
X147396220Y-66341433D01*
X147396220Y-66341433D02*
X147491458Y-66341433D01*
X147491458Y-66341433D02*
X147634315Y-66389052D01*
X147634315Y-66389052D02*
X148205744Y-66960480D01*
X148205744Y-66960480D02*
X148205744Y-66341433D01*
X147539077Y-65484290D02*
X148205744Y-65484290D01*
X147158125Y-65722385D02*
X147872410Y-65960480D01*
X147872410Y-65960480D02*
X147872410Y-65341433D01*
D11*
%TO.C,C9*%
X178714375Y-132077239D02*
X178714375Y-132358399D01*
X177694375Y-132077239D02*
X177694375Y-132358399D01*
%TO.C,J3*%
X94720000Y-96216250D02*
X96050000Y-96216250D01*
X94720000Y-97546250D02*
X94720000Y-96216250D01*
X94720000Y-98816250D02*
X94720000Y-106496250D01*
X94720000Y-98816250D02*
X97380000Y-98816250D01*
X94720000Y-106496250D02*
X97380000Y-106496250D01*
X97380000Y-98816250D02*
X97380000Y-106496250D01*
%TO.C,C16*%
X160714375Y-96152388D02*
X160714375Y-96433548D01*
X159694375Y-96152388D02*
X159694375Y-96433548D01*
%TO.C,D26*%
X166493125Y-70300957D02*
X166493125Y-63000957D01*
X167643125Y-70300957D02*
X166493125Y-70300957D01*
X171993125Y-70300957D02*
X171993125Y-63000957D01*
%TO.C,D20*%
X112493125Y-70300957D02*
X112493125Y-63000957D01*
X113643125Y-70300957D02*
X112493125Y-70300957D01*
X117993125Y-70300957D02*
X117993125Y-63000957D01*
%TO.C,D16*%
X157443125Y-106392968D02*
X157443125Y-99092968D01*
X158593125Y-106392968D02*
X157443125Y-106392968D01*
X162943125Y-106392968D02*
X162943125Y-99092968D01*
%TO.C,J2*%
X186620000Y-132216250D02*
X187950000Y-132216250D01*
X186620000Y-133546250D02*
X186620000Y-132216250D01*
X186620000Y-134816250D02*
X186620000Y-142496250D01*
X186620000Y-134816250D02*
X189280000Y-134816250D01*
X186620000Y-142496250D02*
X189280000Y-142496250D01*
X189280000Y-134816250D02*
X189280000Y-142496250D01*
%TO.C,C1*%
X106714375Y-132077239D02*
X106714375Y-132358399D01*
X105694375Y-132077239D02*
X105694375Y-132358399D01*
%TO.C,D2*%
X112443125Y-142317819D02*
X112443125Y-135017819D01*
X113593125Y-142317819D02*
X112443125Y-142317819D01*
X117943125Y-142317819D02*
X117943125Y-135017819D01*
%TO.C,D10*%
X103443125Y-106392968D02*
X103443125Y-99092968D01*
X104593125Y-106392968D02*
X103443125Y-106392968D01*
X108943125Y-106392968D02*
X108943125Y-99092968D01*
%TO.C,C26*%
X169764375Y-60085377D02*
X169764375Y-60366537D01*
X168744375Y-60085377D02*
X168744375Y-60366537D01*
%TO.C,D7*%
X157443125Y-142317819D02*
X157443125Y-135017819D01*
X158593125Y-142317819D02*
X157443125Y-142317819D01*
X162943125Y-142317819D02*
X162943125Y-135017819D01*
%TO.C,C18*%
X178714375Y-96152388D02*
X178714375Y-96433548D01*
X177694375Y-96152388D02*
X177694375Y-96433548D01*
%TO.C,J6*%
X186620000Y-60216250D02*
X187950000Y-60216250D01*
X186620000Y-61546250D02*
X186620000Y-60216250D01*
X186620000Y-62816250D02*
X186620000Y-70496250D01*
X186620000Y-62816250D02*
X189280000Y-62816250D01*
X186620000Y-70496250D02*
X189280000Y-70496250D01*
X189280000Y-62816250D02*
X189280000Y-70496250D01*
%TO.C,D25*%
X157493125Y-70300957D02*
X157493125Y-63000957D01*
X158643125Y-70300957D02*
X157493125Y-70300957D01*
X162993125Y-70300957D02*
X162993125Y-63000957D01*
%TO.C,D8*%
X166443125Y-142317819D02*
X166443125Y-135017819D01*
X167593125Y-142317819D02*
X166443125Y-142317819D01*
X171943125Y-142317819D02*
X171943125Y-135017819D01*
%TO.C,D9*%
X175443125Y-142317819D02*
X175443125Y-135017819D01*
X176593125Y-142317819D02*
X175443125Y-142317819D01*
X180943125Y-142317819D02*
X180943125Y-135017819D01*
%TO.C,D18*%
X175443125Y-106392968D02*
X175443125Y-99092968D01*
X176593125Y-106392968D02*
X175443125Y-106392968D01*
X180943125Y-106392968D02*
X180943125Y-99092968D01*
%TO.C,D21*%
X121493125Y-70300957D02*
X121493125Y-63000957D01*
X122643125Y-70300957D02*
X121493125Y-70300957D01*
X126993125Y-70300957D02*
X126993125Y-63000957D01*
%TO.C,D22*%
X130493125Y-70300957D02*
X130493125Y-63000957D01*
X131643125Y-70300957D02*
X130493125Y-70300957D01*
X135993125Y-70300957D02*
X135993125Y-63000957D01*
%TO.C,C4*%
X133714375Y-132077239D02*
X133714375Y-132358399D01*
X132694375Y-132077239D02*
X132694375Y-132358399D01*
%TO.C,C6*%
X151714375Y-132077239D02*
X151714375Y-132358399D01*
X150694375Y-132077239D02*
X150694375Y-132358399D01*
%TO.C,C13*%
X133714375Y-96152388D02*
X133714375Y-96433548D01*
X132694375Y-96152388D02*
X132694375Y-96433548D01*
%TO.C,C17*%
X169714375Y-96152388D02*
X169714375Y-96433548D01*
X168694375Y-96152388D02*
X168694375Y-96433548D01*
%TO.C,C7*%
X160714375Y-132077239D02*
X160714375Y-132358399D01*
X159694375Y-132077239D02*
X159694375Y-132358399D01*
%TO.C,D1*%
X103443125Y-142317819D02*
X103443125Y-135017819D01*
X104593125Y-142317819D02*
X103443125Y-142317819D01*
X108943125Y-142317819D02*
X108943125Y-135017819D01*
%TO.C,C24*%
X151764375Y-60085377D02*
X151764375Y-60366537D01*
X150744375Y-60085377D02*
X150744375Y-60366537D01*
%TO.C,D23*%
X139493125Y-70300957D02*
X139493125Y-63000957D01*
X140643125Y-70300957D02*
X139493125Y-70300957D01*
X144993125Y-70300957D02*
X144993125Y-63000957D01*
%TO.C,J1*%
X94720000Y-132216250D02*
X96050000Y-132216250D01*
X94720000Y-133546250D02*
X94720000Y-132216250D01*
X94720000Y-134816250D02*
X94720000Y-142496250D01*
X94720000Y-134816250D02*
X97380000Y-134816250D01*
X94720000Y-142496250D02*
X97380000Y-142496250D01*
X97380000Y-134816250D02*
X97380000Y-142496250D01*
%TO.C,C15*%
X151714375Y-96152388D02*
X151714375Y-96433548D01*
X150694375Y-96152388D02*
X150694375Y-96433548D01*
%TO.C,C22*%
X133764375Y-60085377D02*
X133764375Y-60366537D01*
X132744375Y-60085377D02*
X132744375Y-60366537D01*
%TO.C,C27*%
X178764375Y-60085377D02*
X178764375Y-60366537D01*
X177744375Y-60085377D02*
X177744375Y-60366537D01*
%TO.C,J5*%
X94720000Y-60216250D02*
X96050000Y-60216250D01*
X94720000Y-61546250D02*
X94720000Y-60216250D01*
X94720000Y-62816250D02*
X94720000Y-70496250D01*
X94720000Y-62816250D02*
X97380000Y-62816250D01*
X94720000Y-70496250D02*
X97380000Y-70496250D01*
X97380000Y-62816250D02*
X97380000Y-70496250D01*
%TO.C,C3*%
X124714375Y-132077239D02*
X124714375Y-132358399D01*
X123694375Y-132077239D02*
X123694375Y-132358399D01*
%TO.C,D19*%
X103493125Y-70300957D02*
X103493125Y-63000957D01*
X104643125Y-70300957D02*
X103493125Y-70300957D01*
X108993125Y-70300957D02*
X108993125Y-63000957D01*
%TO.C,D5*%
X139443125Y-142317819D02*
X139443125Y-135017819D01*
X140593125Y-142317819D02*
X139443125Y-142317819D01*
X144943125Y-142317819D02*
X144943125Y-135017819D01*
%TO.C,D6*%
X148443125Y-142317819D02*
X148443125Y-135017819D01*
X149593125Y-142317819D02*
X148443125Y-142317819D01*
X153943125Y-142317819D02*
X153943125Y-135017819D01*
%TO.C,D11*%
X112443125Y-106392968D02*
X112443125Y-99092968D01*
X113593125Y-106392968D02*
X112443125Y-106392968D01*
X117943125Y-106392968D02*
X117943125Y-99092968D01*
%TO.C,C10*%
X106714375Y-96152388D02*
X106714375Y-96433548D01*
X105694375Y-96152388D02*
X105694375Y-96433548D01*
%TO.C,C23*%
X142764375Y-60085377D02*
X142764375Y-60366537D01*
X141744375Y-60085377D02*
X141744375Y-60366537D01*
%TO.C,C2*%
X115714375Y-132077239D02*
X115714375Y-132358399D01*
X114694375Y-132077239D02*
X114694375Y-132358399D01*
%TO.C,C11*%
X115714375Y-96152388D02*
X115714375Y-96433548D01*
X114694375Y-96152388D02*
X114694375Y-96433548D01*
%TO.C,D17*%
X166443125Y-106392968D02*
X166443125Y-99092968D01*
X167593125Y-106392968D02*
X166443125Y-106392968D01*
X171943125Y-106392968D02*
X171943125Y-99092968D01*
%TO.C,D4*%
X130443125Y-142317819D02*
X130443125Y-135017819D01*
X131593125Y-142317819D02*
X130443125Y-142317819D01*
X135943125Y-142317819D02*
X135943125Y-135017819D01*
%TO.C,C8*%
X169714375Y-132077239D02*
X169714375Y-132358399D01*
X168694375Y-132077239D02*
X168694375Y-132358399D01*
%TO.C,C14*%
X142714375Y-96152388D02*
X142714375Y-96433548D01*
X141694375Y-96152388D02*
X141694375Y-96433548D01*
%TO.C,C20*%
X115764375Y-60085377D02*
X115764375Y-60366537D01*
X114744375Y-60085377D02*
X114744375Y-60366537D01*
%TO.C,D15*%
X148443125Y-106392968D02*
X148443125Y-99092968D01*
X149593125Y-106392968D02*
X148443125Y-106392968D01*
X153943125Y-106392968D02*
X153943125Y-99092968D01*
%TO.C,J4*%
X186620000Y-96216250D02*
X187950000Y-96216250D01*
X186620000Y-97546250D02*
X186620000Y-96216250D01*
X186620000Y-98816250D02*
X186620000Y-106496250D01*
X186620000Y-98816250D02*
X189280000Y-98816250D01*
X186620000Y-106496250D02*
X189280000Y-106496250D01*
X189280000Y-98816250D02*
X189280000Y-106496250D01*
%TO.C,D14*%
X139443125Y-106392968D02*
X139443125Y-99092968D01*
X140593125Y-106392968D02*
X139443125Y-106392968D01*
X144943125Y-106392968D02*
X144943125Y-99092968D01*
%TO.C,D27*%
X175493125Y-70300957D02*
X175493125Y-63000957D01*
X176643125Y-70300957D02*
X175493125Y-70300957D01*
X180993125Y-70300957D02*
X180993125Y-63000957D01*
%TO.C,C19*%
X106764375Y-60085377D02*
X106764375Y-60366537D01*
X105744375Y-60085377D02*
X105744375Y-60366537D01*
%TO.C,C5*%
X142714375Y-132077239D02*
X142714375Y-132358399D01*
X141694375Y-132077239D02*
X141694375Y-132358399D01*
%TO.C,D13*%
X130443125Y-106392968D02*
X130443125Y-99092968D01*
X131593125Y-106392968D02*
X130443125Y-106392968D01*
X135943125Y-106392968D02*
X135943125Y-99092968D01*
%TO.C,C25*%
X160764375Y-60085377D02*
X160764375Y-60366537D01*
X159744375Y-60085377D02*
X159744375Y-60366537D01*
%TO.C,C12*%
X124714375Y-96152388D02*
X124714375Y-96433548D01*
X123694375Y-96152388D02*
X123694375Y-96433548D01*
%TO.C,D12*%
X121443125Y-106392968D02*
X121443125Y-99092968D01*
X122593125Y-106392968D02*
X121443125Y-106392968D01*
X126943125Y-106392968D02*
X126943125Y-99092968D01*
%TO.C,D3*%
X121443125Y-142317819D02*
X121443125Y-135017819D01*
X122593125Y-142317819D02*
X121443125Y-142317819D01*
X126943125Y-142317819D02*
X126943125Y-135017819D01*
%TO.C,C21*%
X124764375Y-60085377D02*
X124764375Y-60366537D01*
X123744375Y-60085377D02*
X123744375Y-60366537D01*
%TO.C,D24*%
X148493125Y-70300957D02*
X148493125Y-63000957D01*
X149643125Y-70300957D02*
X148493125Y-70300957D01*
X153993125Y-70300957D02*
X153993125Y-63000957D01*
%TD*%
%LPC*%
D12*
%TO.C,C9*%
X178204375Y-131442819D03*
X178204375Y-132992819D03*
%TD*%
D13*
%TO.C,J3*%
X96050000Y-97546250D03*
D14*
X96050000Y-100086250D03*
X96050000Y-102626250D03*
X96050000Y-105166250D03*
%TD*%
D12*
%TO.C,C16*%
X160204375Y-95517968D03*
X160204375Y-97067968D03*
%TD*%
D15*
%TO.C,D26*%
X167643125Y-69100957D03*
X169243125Y-69100957D03*
X170843125Y-69100957D03*
X170843125Y-64200957D03*
X169243125Y-64200957D03*
X167643125Y-64200957D03*
%TD*%
%TO.C,D20*%
X113643125Y-69100957D03*
X115243125Y-69100957D03*
X116843125Y-69100957D03*
X116843125Y-64200957D03*
X115243125Y-64200957D03*
X113643125Y-64200957D03*
%TD*%
%TO.C,D16*%
X158593125Y-105192968D03*
X160193125Y-105192968D03*
X161793125Y-105192968D03*
X161793125Y-100292968D03*
X160193125Y-100292968D03*
X158593125Y-100292968D03*
%TD*%
D13*
%TO.C,J2*%
X187950000Y-133546250D03*
D14*
X187950000Y-136086250D03*
X187950000Y-138626250D03*
X187950000Y-141166250D03*
%TD*%
D12*
%TO.C,C1*%
X106204375Y-131442819D03*
X106204375Y-132992819D03*
%TD*%
D15*
%TO.C,D2*%
X113593125Y-141117819D03*
X115193125Y-141117819D03*
X116793125Y-141117819D03*
X116793125Y-136217819D03*
X115193125Y-136217819D03*
X113593125Y-136217819D03*
%TD*%
%TO.C,D10*%
X104593125Y-105192968D03*
X106193125Y-105192968D03*
X107793125Y-105192968D03*
X107793125Y-100292968D03*
X106193125Y-100292968D03*
X104593125Y-100292968D03*
%TD*%
D12*
%TO.C,C26*%
X169254375Y-59450957D03*
X169254375Y-61000957D03*
%TD*%
D15*
%TO.C,D7*%
X158593125Y-141117819D03*
X160193125Y-141117819D03*
X161793125Y-141117819D03*
X161793125Y-136217819D03*
X160193125Y-136217819D03*
X158593125Y-136217819D03*
%TD*%
D12*
%TO.C,C18*%
X178204375Y-95517968D03*
X178204375Y-97067968D03*
%TD*%
D13*
%TO.C,J6*%
X187950000Y-61546250D03*
D14*
X187950000Y-64086250D03*
X187950000Y-66626250D03*
X187950000Y-69166250D03*
%TD*%
D15*
%TO.C,D25*%
X158643125Y-69100957D03*
X160243125Y-69100957D03*
X161843125Y-69100957D03*
X161843125Y-64200957D03*
X160243125Y-64200957D03*
X158643125Y-64200957D03*
%TD*%
%TO.C,D8*%
X167593125Y-141117819D03*
X169193125Y-141117819D03*
X170793125Y-141117819D03*
X170793125Y-136217819D03*
X169193125Y-136217819D03*
X167593125Y-136217819D03*
%TD*%
%TO.C,D9*%
X176593125Y-141117819D03*
X178193125Y-141117819D03*
X179793125Y-141117819D03*
X179793125Y-136217819D03*
X178193125Y-136217819D03*
X176593125Y-136217819D03*
%TD*%
%TO.C,D18*%
X176593125Y-105192968D03*
X178193125Y-105192968D03*
X179793125Y-105192968D03*
X179793125Y-100292968D03*
X178193125Y-100292968D03*
X176593125Y-100292968D03*
%TD*%
%TO.C,D21*%
X122643125Y-69100957D03*
X124243125Y-69100957D03*
X125843125Y-69100957D03*
X125843125Y-64200957D03*
X124243125Y-64200957D03*
X122643125Y-64200957D03*
%TD*%
%TO.C,D22*%
X131643125Y-69100957D03*
X133243125Y-69100957D03*
X134843125Y-69100957D03*
X134843125Y-64200957D03*
X133243125Y-64200957D03*
X131643125Y-64200957D03*
%TD*%
D12*
%TO.C,C4*%
X133204375Y-131442819D03*
X133204375Y-132992819D03*
%TD*%
%TO.C,C6*%
X151204375Y-131442819D03*
X151204375Y-132992819D03*
%TD*%
%TO.C,C13*%
X133204375Y-95517968D03*
X133204375Y-97067968D03*
%TD*%
%TO.C,C17*%
X169204375Y-95517968D03*
X169204375Y-97067968D03*
%TD*%
%TO.C,C7*%
X160204375Y-131442819D03*
X160204375Y-132992819D03*
%TD*%
D15*
%TO.C,D1*%
X104593125Y-141117819D03*
X106193125Y-141117819D03*
X107793125Y-141117819D03*
X107793125Y-136217819D03*
X106193125Y-136217819D03*
X104593125Y-136217819D03*
%TD*%
D12*
%TO.C,C24*%
X151254375Y-59450957D03*
X151254375Y-61000957D03*
%TD*%
D15*
%TO.C,D23*%
X140643125Y-69100957D03*
X142243125Y-69100957D03*
X143843125Y-69100957D03*
X143843125Y-64200957D03*
X142243125Y-64200957D03*
X140643125Y-64200957D03*
%TD*%
D13*
%TO.C,J1*%
X96050000Y-133546250D03*
D14*
X96050000Y-136086250D03*
X96050000Y-138626250D03*
X96050000Y-141166250D03*
%TD*%
D12*
%TO.C,C15*%
X151204375Y-95517968D03*
X151204375Y-97067968D03*
%TD*%
%TO.C,C22*%
X133254375Y-59450957D03*
X133254375Y-61000957D03*
%TD*%
%TO.C,C27*%
X178254375Y-59450957D03*
X178254375Y-61000957D03*
%TD*%
D13*
%TO.C,J5*%
X96050000Y-61546250D03*
D14*
X96050000Y-64086250D03*
X96050000Y-66626250D03*
X96050000Y-69166250D03*
%TD*%
D12*
%TO.C,C3*%
X124204375Y-131442819D03*
X124204375Y-132992819D03*
%TD*%
D15*
%TO.C,D19*%
X104643125Y-69100957D03*
X106243125Y-69100957D03*
X107843125Y-69100957D03*
X107843125Y-64200957D03*
X106243125Y-64200957D03*
X104643125Y-64200957D03*
%TD*%
%TO.C,D5*%
X140593125Y-141117819D03*
X142193125Y-141117819D03*
X143793125Y-141117819D03*
X143793125Y-136217819D03*
X142193125Y-136217819D03*
X140593125Y-136217819D03*
%TD*%
%TO.C,D6*%
X149593125Y-141117819D03*
X151193125Y-141117819D03*
X152793125Y-141117819D03*
X152793125Y-136217819D03*
X151193125Y-136217819D03*
X149593125Y-136217819D03*
%TD*%
%TO.C,D11*%
X113593125Y-105192968D03*
X115193125Y-105192968D03*
X116793125Y-105192968D03*
X116793125Y-100292968D03*
X115193125Y-100292968D03*
X113593125Y-100292968D03*
%TD*%
D12*
%TO.C,C10*%
X106204375Y-95517968D03*
X106204375Y-97067968D03*
%TD*%
%TO.C,C23*%
X142254375Y-59450957D03*
X142254375Y-61000957D03*
%TD*%
%TO.C,C2*%
X115204375Y-131442819D03*
X115204375Y-132992819D03*
%TD*%
%TO.C,C11*%
X115204375Y-95517968D03*
X115204375Y-97067968D03*
%TD*%
D15*
%TO.C,D17*%
X167593125Y-105192968D03*
X169193125Y-105192968D03*
X170793125Y-105192968D03*
X170793125Y-100292968D03*
X169193125Y-100292968D03*
X167593125Y-100292968D03*
%TD*%
%TO.C,D4*%
X131593125Y-141117819D03*
X133193125Y-141117819D03*
X134793125Y-141117819D03*
X134793125Y-136217819D03*
X133193125Y-136217819D03*
X131593125Y-136217819D03*
%TD*%
D12*
%TO.C,C8*%
X169204375Y-131442819D03*
X169204375Y-132992819D03*
%TD*%
%TO.C,C14*%
X142204375Y-95517968D03*
X142204375Y-97067968D03*
%TD*%
%TO.C,C20*%
X115254375Y-59450957D03*
X115254375Y-61000957D03*
%TD*%
D15*
%TO.C,D15*%
X149593125Y-105192968D03*
X151193125Y-105192968D03*
X152793125Y-105192968D03*
X152793125Y-100292968D03*
X151193125Y-100292968D03*
X149593125Y-100292968D03*
%TD*%
D13*
%TO.C,J4*%
X187950000Y-97546250D03*
D14*
X187950000Y-100086250D03*
X187950000Y-102626250D03*
X187950000Y-105166250D03*
%TD*%
D15*
%TO.C,D14*%
X140593125Y-105192968D03*
X142193125Y-105192968D03*
X143793125Y-105192968D03*
X143793125Y-100292968D03*
X142193125Y-100292968D03*
X140593125Y-100292968D03*
%TD*%
%TO.C,D27*%
X176643125Y-69100957D03*
X178243125Y-69100957D03*
X179843125Y-69100957D03*
X179843125Y-64200957D03*
X178243125Y-64200957D03*
X176643125Y-64200957D03*
%TD*%
D12*
%TO.C,C19*%
X106254375Y-59450957D03*
X106254375Y-61000957D03*
%TD*%
%TO.C,C5*%
X142204375Y-131442819D03*
X142204375Y-132992819D03*
%TD*%
D15*
%TO.C,D13*%
X131593125Y-105192968D03*
X133193125Y-105192968D03*
X134793125Y-105192968D03*
X134793125Y-100292968D03*
X133193125Y-100292968D03*
X131593125Y-100292968D03*
%TD*%
D12*
%TO.C,C25*%
X160254375Y-59450957D03*
X160254375Y-61000957D03*
%TD*%
%TO.C,C12*%
X124204375Y-95517968D03*
X124204375Y-97067968D03*
%TD*%
D15*
%TO.C,D12*%
X122593125Y-105192968D03*
X124193125Y-105192968D03*
X125793125Y-105192968D03*
X125793125Y-100292968D03*
X124193125Y-100292968D03*
X122593125Y-100292968D03*
%TD*%
%TO.C,D3*%
X122593125Y-141117819D03*
X124193125Y-141117819D03*
X125793125Y-141117819D03*
X125793125Y-136217819D03*
X124193125Y-136217819D03*
X122593125Y-136217819D03*
%TD*%
D12*
%TO.C,C21*%
X124254375Y-59450957D03*
X124254375Y-61000957D03*
%TD*%
D15*
%TO.C,D24*%
X149643125Y-69100957D03*
X151243125Y-69100957D03*
X152843125Y-69100957D03*
X152843125Y-64200957D03*
X151243125Y-64200957D03*
X149643125Y-64200957D03*
%TD*%
%LPD*%
M02*
