%TF.GenerationSoftware,KiCad,Pcbnew,7.0.2*%
%TF.CreationDate,2023-08-16T13:52:21+02:00*%
%TF.ProjectId,TestingRig,54657374-696e-4675-9269-672e6b696361,rev?*%
%TF.SameCoordinates,Original*%
%TF.FileFunction,Copper,L1,Top*%
%TF.FilePolarity,Positive*%
%FSLAX46Y46*%
G04 Gerber Fmt 4.6, Leading zero omitted, Abs format (unit mm)*
G04 Created by KiCad (PCBNEW 7.0.2) date 2023-08-16 13:52:21*
%MOMM*%
%LPD*%
G01*
G04 APERTURE LIST*
G04 Aperture macros list*
%AMRoundRect*
0 Rectangle with rounded corners*
0 $1 Rounding radius*
0 $2 $3 $4 $5 $6 $7 $8 $9 X,Y pos of 4 corners*
0 Add a 4 corners polygon primitive as box body*
4,1,4,$2,$3,$4,$5,$6,$7,$8,$9,$2,$3,0*
0 Add four circle primitives for the rounded corners*
1,1,$1+$1,$2,$3*
1,1,$1+$1,$4,$5*
1,1,$1+$1,$6,$7*
1,1,$1+$1,$8,$9*
0 Add four rect primitives between the rounded corners*
20,1,$1+$1,$2,$3,$4,$5,0*
20,1,$1+$1,$4,$5,$6,$7,0*
20,1,$1+$1,$6,$7,$8,$9,0*
20,1,$1+$1,$8,$9,$2,$3,0*%
G04 Aperture macros list end*
%TA.AperFunction,ComponentPad*%
%ADD10R,1.700000X1.700000*%
%TD*%
%TA.AperFunction,ComponentPad*%
%ADD11O,1.700000X1.700000*%
%TD*%
%TA.AperFunction,SMDPad,CuDef*%
%ADD12RoundRect,0.225000X-0.225000X-0.250000X0.225000X-0.250000X0.225000X0.250000X-0.225000X0.250000X0*%
%TD*%
%TA.AperFunction,SMDPad,CuDef*%
%ADD13R,1.000000X1.500000*%
%TD*%
%TA.AperFunction,ViaPad*%
%ADD14C,0.800000*%
%TD*%
%TA.AperFunction,Conductor*%
%ADD15C,0.500000*%
%TD*%
G04 APERTURE END LIST*
D10*
%TO.P,J6,1,Pin_1*%
%TO.N,/+5V*%
X250000000Y-43380000D03*
D11*
%TO.P,J6,2,Pin_2*%
%TO.N,/Dout30*%
X250000000Y-45920000D03*
%TO.P,J6,3,Pin_3*%
%TO.N,GND*%
X250000000Y-48460000D03*
%TO.P,J6,4,Pin_4*%
X250000000Y-51000000D03*
%TD*%
D10*
%TO.P,J5,1,Pin_1*%
%TO.N,/+5V*%
X156400000Y-43380000D03*
D11*
%TO.P,J5,2,Pin_2*%
%TO.N,/Din21*%
X156400000Y-45920000D03*
%TO.P,J5,3,Pin_3*%
%TO.N,GND*%
X156400000Y-48460000D03*
%TO.P,J5,4,Pin_4*%
X156400000Y-51000000D03*
%TD*%
%TO.P,J4,4,Pin_4*%
%TO.N,GND*%
X250000000Y-90500000D03*
%TO.P,J4,3,Pin_3*%
X250000000Y-87960000D03*
%TO.P,J4,2,Pin_2*%
%TO.N,/Dout20*%
X250000000Y-85420000D03*
D10*
%TO.P,J4,1,Pin_1*%
%TO.N,/+5V*%
X250000000Y-82880000D03*
%TD*%
D11*
%TO.P,J3,4,Pin_4*%
%TO.N,GND*%
X156325303Y-90500000D03*
%TO.P,J3,3,Pin_3*%
X156325303Y-87960000D03*
%TO.P,J3,2,Pin_2*%
%TO.N,/Din11*%
X156325303Y-85420000D03*
D10*
%TO.P,J3,1,Pin_1*%
%TO.N,/+5V*%
X156325303Y-82880000D03*
%TD*%
%TO.P,J2,1,Pin_1*%
%TO.N,/+5V*%
X250000000Y-122200000D03*
D11*
%TO.P,J2,2,Pin_2*%
%TO.N,/Dout10*%
X250000000Y-124740000D03*
%TO.P,J2,3,Pin_3*%
%TO.N,GND*%
X250000000Y-127280000D03*
%TO.P,J2,4,Pin_4*%
X250000000Y-129820000D03*
%TD*%
D12*
%TO.P,C30,2*%
%TO.N,/+5V*%
X243419063Y-41000000D03*
%TO.P,C30,1*%
%TO.N,GND*%
X241869063Y-41000000D03*
%TD*%
%TO.P,C29,2*%
%TO.N,/+5V*%
X234550244Y-41000000D03*
%TO.P,C29,1*%
%TO.N,GND*%
X233000244Y-41000000D03*
%TD*%
%TO.P,C28,2*%
%TO.N,/+5V*%
X225681433Y-41000000D03*
%TO.P,C28,1*%
%TO.N,GND*%
X224131433Y-41000000D03*
%TD*%
%TO.P,C27,2*%
%TO.N,/+5V*%
X216812622Y-41000000D03*
%TO.P,C27,1*%
%TO.N,GND*%
X215262622Y-41000000D03*
%TD*%
%TO.P,C26,2*%
%TO.N,/+5V*%
X199075000Y-41000000D03*
%TO.P,C26,1*%
%TO.N,GND*%
X197525000Y-41000000D03*
%TD*%
%TO.P,C25,2*%
%TO.N,/+5V*%
X190206189Y-41000000D03*
%TO.P,C25,1*%
%TO.N,GND*%
X188656189Y-41000000D03*
%TD*%
%TO.P,C24,2*%
%TO.N,/+5V*%
X181337378Y-41000000D03*
%TO.P,C24,1*%
%TO.N,GND*%
X179787378Y-41000000D03*
%TD*%
%TO.P,C23,2*%
%TO.N,/+5V*%
X172468567Y-41000000D03*
%TO.P,C23,1*%
%TO.N,GND*%
X170918567Y-41000000D03*
%TD*%
%TO.P,C22,2*%
%TO.N,/+5V*%
X207943811Y-41000000D03*
%TO.P,C22,1*%
%TO.N,GND*%
X206393811Y-41000000D03*
%TD*%
%TO.P,C21,2*%
%TO.N,/+5V*%
X163599756Y-41000000D03*
%TO.P,C21,1*%
%TO.N,GND*%
X162049756Y-41000000D03*
%TD*%
%TO.P,C20,1*%
%TO.N,GND*%
X242031192Y-80300000D03*
%TO.P,C20,2*%
%TO.N,/+5V*%
X243581192Y-80300000D03*
%TD*%
%TO.P,C19,1*%
%TO.N,GND*%
X197687544Y-80300000D03*
%TO.P,C19,2*%
%TO.N,/+5V*%
X199237544Y-80300000D03*
%TD*%
%TO.P,C18,1*%
%TO.N,GND*%
X233162456Y-80300000D03*
%TO.P,C18,2*%
%TO.N,/+5V*%
X234712456Y-80300000D03*
%TD*%
%TO.P,C17,1*%
%TO.N,GND*%
X206556272Y-80300000D03*
%TO.P,C17,2*%
%TO.N,/+5V*%
X208106272Y-80300000D03*
%TD*%
%TO.P,C16,1*%
%TO.N,GND*%
X224293728Y-80300000D03*
%TO.P,C16,2*%
%TO.N,/+5V*%
X225843728Y-80300000D03*
%TD*%
%TO.P,C15,1*%
%TO.N,GND*%
X215425000Y-80300000D03*
%TO.P,C15,2*%
%TO.N,/+5V*%
X216975000Y-80300000D03*
%TD*%
%TO.P,C14,2*%
%TO.N,/+5V*%
X190368816Y-80300000D03*
%TO.P,C14,1*%
%TO.N,GND*%
X188818816Y-80300000D03*
%TD*%
%TO.P,C13,2*%
%TO.N,/+5V*%
X181500088Y-80300000D03*
%TO.P,C13,1*%
%TO.N,GND*%
X179950088Y-80300000D03*
%TD*%
%TO.P,C12,2*%
%TO.N,/+5V*%
X172631360Y-80300000D03*
%TO.P,C12,1*%
%TO.N,GND*%
X171081360Y-80300000D03*
%TD*%
%TO.P,C11,2*%
%TO.N,/+5V*%
X163762632Y-80300000D03*
%TO.P,C11,1*%
%TO.N,GND*%
X162212632Y-80300000D03*
%TD*%
%TO.P,C10,1*%
%TO.N,GND*%
X242042075Y-120002232D03*
%TO.P,C10,2*%
%TO.N,/+5V*%
X243592075Y-120002232D03*
%TD*%
%TO.P,C9,1*%
%TO.N,GND*%
X233172280Y-120002232D03*
%TO.P,C9,2*%
%TO.N,/+5V*%
X234722280Y-120002232D03*
%TD*%
D10*
%TO.P,J1,1,Pin_1*%
%TO.N,/+5V*%
X156325303Y-122200000D03*
D11*
%TO.P,J1,2,Pin_2*%
%TO.N,/Din1*%
X156325303Y-124740000D03*
%TO.P,J1,3,Pin_3*%
%TO.N,GND*%
X156325303Y-127280000D03*
%TO.P,J1,4,Pin_4*%
X156325303Y-129820000D03*
%TD*%
D13*
%TO.P,D30,1,DOUT*%
%TO.N,/Dout30*%
X242000000Y-49450000D03*
%TO.P,D30,2,DIN*%
%TO.N,/Dout29*%
X243600000Y-49450000D03*
%TO.P,D30,3,VCC*%
%TO.N,/+5V*%
X245200000Y-49450000D03*
%TO.P,D30,4,NC*%
%TO.N,unconnected-(D30-NC-Pad4)*%
X245200000Y-44550000D03*
%TO.P,D30,5,VDD*%
%TO.N,/+5V*%
X243600000Y-44550000D03*
%TO.P,D30,6,VSS*%
%TO.N,GND*%
X242000000Y-44550000D03*
%TD*%
%TO.P,D29,1,DOUT*%
%TO.N,/Dout29*%
X233111104Y-49450000D03*
%TO.P,D29,2,DIN*%
%TO.N,/Dout28*%
X234711104Y-49450000D03*
%TO.P,D29,3,VCC*%
%TO.N,/+5V*%
X236311104Y-49450000D03*
%TO.P,D29,4,NC*%
%TO.N,unconnected-(D29-NC-Pad4)*%
X236311104Y-44550000D03*
%TO.P,D29,5,VDD*%
%TO.N,/+5V*%
X234711104Y-44550000D03*
%TO.P,D29,6,VSS*%
%TO.N,GND*%
X233111104Y-44550000D03*
%TD*%
%TO.P,D28,1,DOUT*%
%TO.N,/Dout28*%
X224222216Y-49450000D03*
%TO.P,D28,2,DIN*%
%TO.N,/Dout27*%
X225822216Y-49450000D03*
%TO.P,D28,3,VCC*%
%TO.N,/+5V*%
X227422216Y-49450000D03*
%TO.P,D28,4,NC*%
%TO.N,unconnected-(D28-NC-Pad4)*%
X227422216Y-44550000D03*
%TO.P,D28,5,VDD*%
%TO.N,/+5V*%
X225822216Y-44550000D03*
%TO.P,D28,6,VSS*%
%TO.N,GND*%
X224222216Y-44550000D03*
%TD*%
%TO.P,D27,1,DOUT*%
%TO.N,/Dout27*%
X215333328Y-49450000D03*
%TO.P,D27,2,DIN*%
%TO.N,/Dout26*%
X216933328Y-49450000D03*
%TO.P,D27,3,VCC*%
%TO.N,/+5V*%
X218533328Y-49450000D03*
%TO.P,D27,4,NC*%
%TO.N,unconnected-(D27-NC-Pad4)*%
X218533328Y-44550000D03*
%TO.P,D27,5,VDD*%
%TO.N,/+5V*%
X216933328Y-44550000D03*
%TO.P,D27,6,VSS*%
%TO.N,GND*%
X215333328Y-44550000D03*
%TD*%
%TO.P,D26,1,DOUT*%
%TO.N,/Dout26*%
X206444440Y-49450000D03*
%TO.P,D26,2,DIN*%
%TO.N,/Dout25*%
X208044440Y-49450000D03*
%TO.P,D26,3,VCC*%
%TO.N,/+5V*%
X209644440Y-49450000D03*
%TO.P,D26,4,NC*%
%TO.N,unconnected-(D26-NC-Pad4)*%
X209644440Y-44550000D03*
%TO.P,D26,5,VDD*%
%TO.N,/+5V*%
X208044440Y-44550000D03*
%TO.P,D26,6,VSS*%
%TO.N,GND*%
X206444440Y-44550000D03*
%TD*%
%TO.P,D25,1,DOUT*%
%TO.N,/Dout25*%
X197555552Y-49450000D03*
%TO.P,D25,2,DIN*%
%TO.N,/Dout24*%
X199155552Y-49450000D03*
%TO.P,D25,3,VCC*%
%TO.N,/+5V*%
X200755552Y-49450000D03*
%TO.P,D25,4,NC*%
%TO.N,unconnected-(D25-NC-Pad4)*%
X200755552Y-44550000D03*
%TO.P,D25,5,VDD*%
%TO.N,/+5V*%
X199155552Y-44550000D03*
%TO.P,D25,6,VSS*%
%TO.N,GND*%
X197555552Y-44550000D03*
%TD*%
%TO.P,D24,1,DOUT*%
%TO.N,/Dout24*%
X188666664Y-49450000D03*
%TO.P,D24,2,DIN*%
%TO.N,/Dout23*%
X190266664Y-49450000D03*
%TO.P,D24,3,VCC*%
%TO.N,/+5V*%
X191866664Y-49450000D03*
%TO.P,D24,4,NC*%
%TO.N,unconnected-(D24-NC-Pad4)*%
X191866664Y-44550000D03*
%TO.P,D24,5,VDD*%
%TO.N,/+5V*%
X190266664Y-44550000D03*
%TO.P,D24,6,VSS*%
%TO.N,GND*%
X188666664Y-44550000D03*
%TD*%
%TO.P,D23,1,DOUT*%
%TO.N,/Dout23*%
X179777776Y-49450000D03*
%TO.P,D23,2,DIN*%
%TO.N,/Dout22*%
X181377776Y-49450000D03*
%TO.P,D23,3,VCC*%
%TO.N,/+5V*%
X182977776Y-49450000D03*
%TO.P,D23,4,NC*%
%TO.N,unconnected-(D23-NC-Pad4)*%
X182977776Y-44550000D03*
%TO.P,D23,5,VDD*%
%TO.N,/+5V*%
X181377776Y-44550000D03*
%TO.P,D23,6,VSS*%
%TO.N,GND*%
X179777776Y-44550000D03*
%TD*%
%TO.P,D22,1,DOUT*%
%TO.N,/Dout22*%
X170888888Y-49450000D03*
%TO.P,D22,2,DIN*%
%TO.N,/Dout21*%
X172488888Y-49450000D03*
%TO.P,D22,3,VCC*%
%TO.N,/+5V*%
X174088888Y-49450000D03*
%TO.P,D22,4,NC*%
%TO.N,unconnected-(D22-NC-Pad4)*%
X174088888Y-44550000D03*
%TO.P,D22,5,VDD*%
%TO.N,/+5V*%
X172488888Y-44550000D03*
%TO.P,D22,6,VSS*%
%TO.N,GND*%
X170888888Y-44550000D03*
%TD*%
%TO.P,D21,1,DOUT*%
%TO.N,/Dout21*%
X162000000Y-49450000D03*
%TO.P,D21,2,DIN*%
%TO.N,/Din21*%
X163600000Y-49450000D03*
%TO.P,D21,3,VCC*%
%TO.N,/+5V*%
X165200000Y-49450000D03*
%TO.P,D21,4,NC*%
%TO.N,unconnected-(D21-NC-Pad4)*%
X165200000Y-44550000D03*
%TO.P,D21,5,VDD*%
%TO.N,/+5V*%
X163600000Y-44550000D03*
%TO.P,D21,6,VSS*%
%TO.N,GND*%
X162000000Y-44550000D03*
%TD*%
%TO.P,D20,1,DOUT*%
%TO.N,/Dout20*%
X242000000Y-88950000D03*
%TO.P,D20,2,DIN*%
%TO.N,/Dout19*%
X243600000Y-88950000D03*
%TO.P,D20,3,VCC*%
%TO.N,/+5V*%
X245200000Y-88950000D03*
%TO.P,D20,4,NC*%
%TO.N,unconnected-(D20-NC-Pad4)*%
X245200000Y-84050000D03*
%TO.P,D20,5,VDD*%
%TO.N,/+5V*%
X243600000Y-84050000D03*
%TO.P,D20,6,VSS*%
%TO.N,GND*%
X242000000Y-84050000D03*
%TD*%
%TO.P,D19,1,DOUT*%
%TO.N,/Dout19*%
X233137776Y-88950000D03*
%TO.P,D19,2,DIN*%
%TO.N,/Dout18*%
X234737776Y-88950000D03*
%TO.P,D19,3,VCC*%
%TO.N,/+5V*%
X236337776Y-88950000D03*
%TO.P,D19,4,NC*%
%TO.N,unconnected-(D19-NC-Pad4)*%
X236337776Y-84050000D03*
%TO.P,D19,5,VDD*%
%TO.N,/+5V*%
X234737776Y-84050000D03*
%TO.P,D19,6,VSS*%
%TO.N,GND*%
X233137776Y-84050000D03*
%TD*%
%TO.P,D18,1,DOUT*%
%TO.N,/Dout18*%
X224275554Y-88950000D03*
%TO.P,D18,2,DIN*%
%TO.N,/Dout17*%
X225875554Y-88950000D03*
%TO.P,D18,3,VCC*%
%TO.N,/+5V*%
X227475554Y-88950000D03*
%TO.P,D18,4,NC*%
%TO.N,unconnected-(D18-NC-Pad4)*%
X227475554Y-84050000D03*
%TO.P,D18,5,VDD*%
%TO.N,/+5V*%
X225875554Y-84050000D03*
%TO.P,D18,6,VSS*%
%TO.N,GND*%
X224275554Y-84050000D03*
%TD*%
%TO.P,D17,1,DOUT*%
%TO.N,/Dout17*%
X215413332Y-88950000D03*
%TO.P,D17,2,DIN*%
%TO.N,/Dout16*%
X217013332Y-88950000D03*
%TO.P,D17,3,VCC*%
%TO.N,/+5V*%
X218613332Y-88950000D03*
%TO.P,D17,4,NC*%
%TO.N,unconnected-(D17-NC-Pad4)*%
X218613332Y-84050000D03*
%TO.P,D17,5,VDD*%
%TO.N,/+5V*%
X217013332Y-84050000D03*
%TO.P,D17,6,VSS*%
%TO.N,GND*%
X215413332Y-84050000D03*
%TD*%
%TO.P,D16,1,DOUT*%
%TO.N,/Dout16*%
X206551110Y-88950000D03*
%TO.P,D16,2,DIN*%
%TO.N,/Dout15*%
X208151110Y-88950000D03*
%TO.P,D16,3,VCC*%
%TO.N,/+5V*%
X209751110Y-88950000D03*
%TO.P,D16,4,NC*%
%TO.N,unconnected-(D16-NC-Pad4)*%
X209751110Y-84050000D03*
%TO.P,D16,5,VDD*%
%TO.N,/+5V*%
X208151110Y-84050000D03*
%TO.P,D16,6,VSS*%
%TO.N,GND*%
X206551110Y-84050000D03*
%TD*%
%TO.P,D15,1,DOUT*%
%TO.N,/Dout15*%
X197688888Y-88950000D03*
%TO.P,D15,2,DIN*%
%TO.N,/Dout14*%
X199288888Y-88950000D03*
%TO.P,D15,3,VCC*%
%TO.N,/+5V*%
X200888888Y-88950000D03*
%TO.P,D15,4,NC*%
%TO.N,unconnected-(D15-NC-Pad4)*%
X200888888Y-84050000D03*
%TO.P,D15,5,VDD*%
%TO.N,/+5V*%
X199288888Y-84050000D03*
%TO.P,D15,6,VSS*%
%TO.N,GND*%
X197688888Y-84050000D03*
%TD*%
%TO.P,D14,1,DOUT*%
%TO.N,/Dout14*%
X188826666Y-88950000D03*
%TO.P,D14,2,DIN*%
%TO.N,/Dout13*%
X190426666Y-88950000D03*
%TO.P,D14,3,VCC*%
%TO.N,/+5V*%
X192026666Y-88950000D03*
%TO.P,D14,4,NC*%
%TO.N,unconnected-(D14-NC-Pad4)*%
X192026666Y-84050000D03*
%TO.P,D14,5,VDD*%
%TO.N,/+5V*%
X190426666Y-84050000D03*
%TO.P,D14,6,VSS*%
%TO.N,GND*%
X188826666Y-84050000D03*
%TD*%
%TO.P,D13,1,DOUT*%
%TO.N,/Dout13*%
X179964444Y-88950000D03*
%TO.P,D13,2,DIN*%
%TO.N,/Dout12*%
X181564444Y-88950000D03*
%TO.P,D13,3,VCC*%
%TO.N,/+5V*%
X183164444Y-88950000D03*
%TO.P,D13,4,NC*%
%TO.N,unconnected-(D13-NC-Pad4)*%
X183164444Y-84050000D03*
%TO.P,D13,5,VDD*%
%TO.N,/+5V*%
X181564444Y-84050000D03*
%TO.P,D13,6,VSS*%
%TO.N,GND*%
X179964444Y-84050000D03*
%TD*%
%TO.P,D12,1,DOUT*%
%TO.N,/Dout12*%
X171102222Y-88950000D03*
%TO.P,D12,2,DIN*%
%TO.N,/Dout11*%
X172702222Y-88950000D03*
%TO.P,D12,3,VCC*%
%TO.N,/+5V*%
X174302222Y-88950000D03*
%TO.P,D12,4,NC*%
%TO.N,unconnected-(D12-NC-Pad4)*%
X174302222Y-84050000D03*
%TO.P,D12,5,VDD*%
%TO.N,/+5V*%
X172702222Y-84050000D03*
%TO.P,D12,6,VSS*%
%TO.N,GND*%
X171102222Y-84050000D03*
%TD*%
%TO.P,D11,1,DOUT*%
%TO.N,/Dout11*%
X162240000Y-88950000D03*
%TO.P,D11,2,DIN*%
%TO.N,/Din11*%
X163840000Y-88950000D03*
%TO.P,D11,3,VCC*%
%TO.N,/+5V*%
X165440000Y-88950000D03*
%TO.P,D11,4,NC*%
%TO.N,unconnected-(D11-NC-Pad4)*%
X165440000Y-84050000D03*
%TO.P,D11,5,VDD*%
%TO.N,/+5V*%
X163840000Y-84050000D03*
%TO.P,D11,6,VSS*%
%TO.N,GND*%
X162240000Y-84050000D03*
%TD*%
%TO.P,D10,6,VSS*%
%TO.N,GND*%
X242000000Y-123550000D03*
%TO.P,D10,5,VDD*%
%TO.N,/+5V*%
X243600000Y-123550000D03*
%TO.P,D10,4,NC*%
%TO.N,unconnected-(D10-NC-Pad4)*%
X245200000Y-123550000D03*
%TO.P,D10,3,VCC*%
%TO.N,/+5V*%
X245200000Y-128450000D03*
%TO.P,D10,2,DIN*%
%TO.N,/Dout9*%
X243600000Y-128450000D03*
%TO.P,D10,1,DOUT*%
%TO.N,/Dout10*%
X242000000Y-128450000D03*
%TD*%
%TO.P,D9,6,VSS*%
%TO.N,GND*%
X233128888Y-123550000D03*
%TO.P,D9,5,VDD*%
%TO.N,/+5V*%
X234728888Y-123550000D03*
%TO.P,D9,4,NC*%
%TO.N,unconnected-(D9-NC-Pad4)*%
X236328888Y-123550000D03*
%TO.P,D9,3,VCC*%
%TO.N,/+5V*%
X236328888Y-128450000D03*
%TO.P,D9,2,DIN*%
%TO.N,/Dout8*%
X234728888Y-128450000D03*
%TO.P,D9,1,DOUT*%
%TO.N,/Dout9*%
X233128888Y-128450000D03*
%TD*%
%TO.P,D8,6,VSS*%
%TO.N,GND*%
X224257777Y-123550000D03*
%TO.P,D8,5,VDD*%
%TO.N,/+5V*%
X225857777Y-123550000D03*
%TO.P,D8,4,NC*%
%TO.N,unconnected-(D8-NC-Pad4)*%
X227457777Y-123550000D03*
%TO.P,D8,3,VCC*%
%TO.N,/+5V*%
X227457777Y-128450000D03*
%TO.P,D8,2,DIN*%
%TO.N,/Dout7*%
X225857777Y-128450000D03*
%TO.P,D8,1,DOUT*%
%TO.N,/Dout8*%
X224257777Y-128450000D03*
%TD*%
%TO.P,D7,6,VSS*%
%TO.N,GND*%
X215386666Y-123550000D03*
%TO.P,D7,5,VDD*%
%TO.N,/+5V*%
X216986666Y-123550000D03*
%TO.P,D7,4,NC*%
%TO.N,unconnected-(D7-NC-Pad4)*%
X218586666Y-123550000D03*
%TO.P,D7,3,VCC*%
%TO.N,/+5V*%
X218586666Y-128450000D03*
%TO.P,D7,2,DIN*%
%TO.N,/Dout6*%
X216986666Y-128450000D03*
%TO.P,D7,1,DOUT*%
%TO.N,/Dout7*%
X215386666Y-128450000D03*
%TD*%
%TO.P,D6,6,VSS*%
%TO.N,GND*%
X206515555Y-123550000D03*
%TO.P,D6,5,VDD*%
%TO.N,/+5V*%
X208115555Y-123550000D03*
%TO.P,D6,4,NC*%
%TO.N,unconnected-(D6-NC-Pad4)*%
X209715555Y-123550000D03*
%TO.P,D6,3,VCC*%
%TO.N,/+5V*%
X209715555Y-128450000D03*
%TO.P,D6,2,DIN*%
%TO.N,/Dout5*%
X208115555Y-128450000D03*
%TO.P,D6,1,DOUT*%
%TO.N,/Dout6*%
X206515555Y-128450000D03*
%TD*%
%TO.P,D5,6,VSS*%
%TO.N,GND*%
X197644444Y-123550000D03*
%TO.P,D5,5,VDD*%
%TO.N,/+5V*%
X199244444Y-123550000D03*
%TO.P,D5,4,NC*%
%TO.N,unconnected-(D5-NC-Pad4)*%
X200844444Y-123550000D03*
%TO.P,D5,3,VCC*%
%TO.N,/+5V*%
X200844444Y-128450000D03*
%TO.P,D5,2,DIN*%
%TO.N,/Dout4*%
X199244444Y-128450000D03*
%TO.P,D5,1,DOUT*%
%TO.N,/Dout5*%
X197644444Y-128450000D03*
%TD*%
%TO.P,D4,6,VSS*%
%TO.N,GND*%
X188773333Y-123550000D03*
%TO.P,D4,5,VDD*%
%TO.N,/+5V*%
X190373333Y-123550000D03*
%TO.P,D4,4,NC*%
%TO.N,unconnected-(D4-NC-Pad4)*%
X191973333Y-123550000D03*
%TO.P,D4,3,VCC*%
%TO.N,/+5V*%
X191973333Y-128450000D03*
%TO.P,D4,2,DIN*%
%TO.N,/Dout3*%
X190373333Y-128450000D03*
%TO.P,D4,1,DOUT*%
%TO.N,/Dout4*%
X188773333Y-128450000D03*
%TD*%
%TO.P,D3,6,VSS*%
%TO.N,GND*%
X179902222Y-123550000D03*
%TO.P,D3,5,VDD*%
%TO.N,/+5V*%
X181502222Y-123550000D03*
%TO.P,D3,4,NC*%
%TO.N,unconnected-(D3-NC-Pad4)*%
X183102222Y-123550000D03*
%TO.P,D3,3,VCC*%
%TO.N,/+5V*%
X183102222Y-128450000D03*
%TO.P,D3,2,DIN*%
%TO.N,/Dout2*%
X181502222Y-128450000D03*
%TO.P,D3,1,DOUT*%
%TO.N,/Dout3*%
X179902222Y-128450000D03*
%TD*%
%TO.P,D2,6,VSS*%
%TO.N,GND*%
X171031111Y-123550000D03*
%TO.P,D2,5,VDD*%
%TO.N,/+5V*%
X172631111Y-123550000D03*
%TO.P,D2,4,NC*%
%TO.N,unconnected-(D2-NC-Pad4)*%
X174231111Y-123550000D03*
%TO.P,D2,3,VCC*%
%TO.N,/+5V*%
X174231111Y-128450000D03*
%TO.P,D2,2,DIN*%
%TO.N,/Dout1*%
X172631111Y-128450000D03*
%TO.P,D2,1,DOUT*%
%TO.N,/Dout2*%
X171031111Y-128450000D03*
%TD*%
%TO.P,D1,6,VSS*%
%TO.N,GND*%
X162160000Y-123550000D03*
%TO.P,D1,5,VDD*%
%TO.N,/+5V*%
X163760000Y-123550000D03*
%TO.P,D1,4,NC*%
%TO.N,unconnected-(D1-NC-Pad4)*%
X165360000Y-123550000D03*
%TO.P,D1,3,VCC*%
%TO.N,/+5V*%
X165360000Y-128450000D03*
%TO.P,D1,2,DIN*%
%TO.N,/Din1*%
X163760000Y-128450000D03*
%TO.P,D1,1,DOUT*%
%TO.N,/Dout1*%
X162160000Y-128450000D03*
%TD*%
D12*
%TO.P,C8,1*%
%TO.N,GND*%
X224302493Y-120002232D03*
%TO.P,C8,2*%
%TO.N,/+5V*%
X225852493Y-120002232D03*
%TD*%
%TO.P,C7,1*%
%TO.N,GND*%
X215432706Y-120002232D03*
%TO.P,C7,2*%
%TO.N,/+5V*%
X216982706Y-120002232D03*
%TD*%
%TO.P,C6,1*%
%TO.N,GND*%
X206562919Y-120002232D03*
%TO.P,C6,2*%
%TO.N,/+5V*%
X208112919Y-120002232D03*
%TD*%
%TO.P,C5,1*%
%TO.N,GND*%
X197693132Y-120002232D03*
%TO.P,C5,2*%
%TO.N,/+5V*%
X199243132Y-120002232D03*
%TD*%
%TO.P,C4,1*%
%TO.N,GND*%
X188823345Y-120002232D03*
%TO.P,C4,2*%
%TO.N,/+5V*%
X190373345Y-120002232D03*
%TD*%
%TO.P,C3,1*%
%TO.N,GND*%
X179953558Y-120002232D03*
%TO.P,C3,2*%
%TO.N,/+5V*%
X181503558Y-120002232D03*
%TD*%
%TO.P,C2,1*%
%TO.N,GND*%
X171083771Y-120002232D03*
%TO.P,C2,2*%
%TO.N,/+5V*%
X172633771Y-120002232D03*
%TD*%
%TO.P,C1,1*%
%TO.N,GND*%
X162213984Y-120000000D03*
%TO.P,C1,2*%
%TO.N,/+5V*%
X163763984Y-120000000D03*
%TD*%
D14*
%TO.N,GND*%
X197583560Y-42314875D03*
X179799238Y-42314875D03*
X188675444Y-42314875D03*
X215283560Y-42314875D03*
X170942272Y-42314875D03*
X233033560Y-42314875D03*
X224159766Y-42314875D03*
X162066066Y-42314875D03*
X206459766Y-42314875D03*
X241909766Y-42314875D03*
X197747411Y-81886361D03*
X179963089Y-81886361D03*
X188839295Y-81886361D03*
X215447411Y-81886361D03*
X171106123Y-81886361D03*
X233197411Y-81886361D03*
X224323617Y-81886361D03*
X162229917Y-81886361D03*
X206623617Y-81886361D03*
X242073617Y-81886361D03*
X242000000Y-121300173D03*
X233123794Y-121300173D03*
X224250000Y-121300173D03*
X215373794Y-121300173D03*
X206550000Y-121300173D03*
X197673794Y-121300173D03*
X188765678Y-121300173D03*
X179889472Y-121300173D03*
X171032506Y-121300173D03*
X162156300Y-121300173D03*
%TD*%
D15*
%TO.N,GND*%
X170942272Y-41068199D02*
X170993537Y-41016934D01*
%TO.N,/+5V*%
X225767543Y-44564702D02*
X225767543Y-41022218D01*
%TO.N,GND*%
X215283560Y-42314875D02*
X215283560Y-41075846D01*
X224159766Y-42314875D02*
X224159766Y-41069427D01*
%TO.N,/+5V*%
X225767543Y-41022218D02*
X225762259Y-41016934D01*
%TO.N,GND*%
X224159766Y-41069427D02*
X224212259Y-41016934D01*
X233033560Y-41065420D02*
X233082046Y-41016934D01*
X215283560Y-41075846D02*
X215342472Y-41016934D01*
%TO.N,/+5V*%
X190283111Y-41016934D02*
X190283111Y-44564690D01*
%TO.N,GND*%
X197583560Y-41036272D02*
X197602898Y-41016934D01*
X206459766Y-41029853D02*
X206472685Y-41016934D01*
X197583560Y-42314875D02*
X197583560Y-41036272D01*
%TO.N,/+5V*%
X181413324Y-41016934D02*
X181413324Y-44563366D01*
X172543537Y-41016934D02*
X172543537Y-44562042D01*
%TO.N,GND*%
X241909766Y-42314875D02*
X241909766Y-41059009D01*
%TO.N,/+5V*%
X243509766Y-41024859D02*
X243501841Y-41016934D01*
%TO.N,GND*%
X206459766Y-42314875D02*
X206459766Y-41029853D01*
X170942272Y-42314875D02*
X170942272Y-41068199D01*
%TO.N,/+5V*%
X216896432Y-41020894D02*
X216892472Y-41016934D01*
X216896432Y-44564702D02*
X216896432Y-41020894D01*
%TO.N,GND*%
X188675444Y-41074601D02*
X188733111Y-41016934D01*
%TO.N,/+5V*%
X243509766Y-44564702D02*
X243509766Y-41024859D01*
%TO.N,GND*%
X188675444Y-42314875D02*
X188675444Y-41074601D01*
X241909766Y-41059009D02*
X241951841Y-41016934D01*
%TO.N,/+5V*%
X208022685Y-41016934D02*
X208022685Y-44562066D01*
X163673750Y-41014702D02*
X163673750Y-44560718D01*
%TO.N,/Dout30*%
X247399766Y-48264702D02*
X249909766Y-45754702D01*
%TO.N,/Din21*%
X162669766Y-51014702D02*
X160909766Y-51014702D01*
%TO.N,/Dout30*%
X241909766Y-49464702D02*
X241909766Y-48914702D01*
X242559766Y-48264702D02*
X247399766Y-48264702D01*
%TO.N,/Din21*%
X163669766Y-50014702D02*
X162669766Y-51014702D01*
%TO.N,/Dout25*%
X208019766Y-50039702D02*
X208019766Y-49489702D01*
X198388655Y-48039702D02*
X201448655Y-48039702D01*
%TO.N,/Dout26*%
X213338655Y-51039702D02*
X215909766Y-51039702D01*
X207278655Y-48039702D02*
X210338655Y-48039702D01*
%TO.N,/Dout25*%
X201448655Y-48039702D02*
X204448655Y-51039702D01*
%TO.N,/Dout26*%
X215909766Y-51039702D02*
X216909766Y-50039702D01*
%TO.N,/Dout25*%
X204448655Y-51039702D02*
X207019766Y-51039702D01*
%TO.N,/Dout26*%
X206438655Y-49489702D02*
X206438655Y-48879702D01*
X210338655Y-48039702D02*
X213338655Y-51039702D01*
%TO.N,/Dout25*%
X197548655Y-48879702D02*
X198388655Y-48039702D01*
%TO.N,/Dout22*%
X170959766Y-49464702D02*
X170959766Y-48854702D01*
X171799766Y-48014702D02*
X174859766Y-48014702D01*
X180430877Y-51014702D02*
X181430877Y-50014702D01*
X181430877Y-50014702D02*
X181430877Y-49464702D01*
X174859766Y-48014702D02*
X177859766Y-51014702D01*
%TO.N,/Dout26*%
X216909766Y-50039702D02*
X216909766Y-49489702D01*
%TO.N,/Dout25*%
X197548655Y-49489702D02*
X197548655Y-48879702D01*
%TO.N,GND*%
X206459766Y-42314875D02*
X206459766Y-44530257D01*
%TO.N,/Dout29*%
X243519766Y-49989702D02*
X243519766Y-49439702D01*
X236948655Y-47989702D02*
X239948655Y-50989702D01*
X242519766Y-50989702D02*
X243519766Y-49989702D01*
%TO.N,GND*%
X224159766Y-42314875D02*
X224159766Y-44556925D01*
X179799238Y-42314875D02*
X179799238Y-44551952D01*
X188675444Y-42314875D02*
X188675444Y-44557047D01*
X215283560Y-42314875D02*
X215283560Y-44551830D01*
%TO.N,/Dout23*%
X180638655Y-47989702D02*
X183698655Y-47989702D01*
%TO.N,/Dout24*%
X188688655Y-49439702D02*
X188688655Y-48829702D01*
X188688655Y-48829702D02*
X189528655Y-47989702D01*
X189528655Y-47989702D02*
X192588655Y-47989702D01*
%TO.N,/Dout29*%
X239948655Y-50989702D02*
X242519766Y-50989702D01*
%TO.N,/Dout23*%
X179798655Y-49439702D02*
X179798655Y-48829702D01*
X189269766Y-50989702D02*
X190269766Y-49989702D01*
%TO.N,/Dout24*%
X192588655Y-47989702D02*
X195588655Y-50989702D01*
%TO.N,/Dout21*%
X172540877Y-50014702D02*
X172540877Y-49464702D01*
X162069766Y-49464702D02*
X162069766Y-48854702D01*
X165969766Y-48014702D02*
X168969766Y-51014702D01*
X162069766Y-48854702D02*
X162909766Y-48014702D01*
%TO.N,GND*%
X170942272Y-42314875D02*
X170942272Y-44563307D01*
%TO.N,/Dout21*%
X168969766Y-51014702D02*
X171540877Y-51014702D01*
X162909766Y-48014702D02*
X165969766Y-48014702D01*
%TO.N,/Dout23*%
X190269766Y-49989702D02*
X190269766Y-49439702D01*
%TO.N,GND*%
X197583560Y-42314875D02*
X197583560Y-44535352D01*
%TO.N,/Dout28*%
X225028655Y-47989702D02*
X228088655Y-47989702D01*
%TO.N,/Dout27*%
X215298655Y-49439702D02*
X215298655Y-48829702D01*
%TO.N,/Dout28*%
X231088655Y-50989702D02*
X233659766Y-50989702D01*
%TO.N,/Dout27*%
X219198655Y-47989702D02*
X222198655Y-50989702D01*
X215298655Y-48829702D02*
X216138655Y-47989702D01*
%TO.N,/Dout24*%
X195588655Y-50989702D02*
X198159766Y-50989702D01*
%TO.N,/Dout22*%
X177859766Y-51014702D02*
X180430877Y-51014702D01*
%TO.N,/Dout28*%
X228088655Y-47989702D02*
X231088655Y-50989702D01*
X224188655Y-49439702D02*
X224188655Y-48829702D01*
%TO.N,GND*%
X233033560Y-42314875D02*
X233033560Y-44559608D01*
%TO.N,/Dout29*%
X233888655Y-47989702D02*
X236948655Y-47989702D01*
%TO.N,/Dout23*%
X183698655Y-47989702D02*
X186698655Y-50989702D01*
%TO.N,/Dout22*%
X170959766Y-48854702D02*
X171799766Y-48014702D01*
%TO.N,/Dout28*%
X234659766Y-49989702D02*
X234659766Y-49439702D01*
%TO.N,/Dout24*%
X198159766Y-50989702D02*
X199159766Y-49989702D01*
%TO.N,/Dout23*%
X186698655Y-50989702D02*
X189269766Y-50989702D01*
%TO.N,/Dout24*%
X199159766Y-49989702D02*
X199159766Y-49439702D01*
%TO.N,/Dout29*%
X233048655Y-49439702D02*
X233048655Y-48829702D01*
%TO.N,/Dout28*%
X224188655Y-48829702D02*
X225028655Y-47989702D01*
%TO.N,/Dout25*%
X207019766Y-51039702D02*
X208019766Y-50039702D01*
%TO.N,/Dout27*%
X224769766Y-50989702D02*
X225769766Y-49989702D01*
X222198655Y-50989702D02*
X224769766Y-50989702D01*
X225769766Y-49989702D02*
X225769766Y-49439702D01*
%TO.N,GND*%
X162066066Y-42314875D02*
X162066066Y-44561002D01*
%TO.N,/Dout28*%
X233659766Y-50989702D02*
X234659766Y-49989702D01*
%TO.N,/Dout23*%
X179798655Y-48829702D02*
X180638655Y-47989702D01*
%TO.N,/Dout29*%
X233048655Y-48829702D02*
X233888655Y-47989702D01*
%TO.N,GND*%
X241909766Y-42314875D02*
X241909766Y-44564702D01*
%TO.N,/Dout27*%
X216138655Y-47989702D02*
X219198655Y-47989702D01*
%TO.N,/Dout26*%
X206438655Y-48879702D02*
X207278655Y-48039702D01*
%TO.N,/Dout21*%
X171540877Y-51014702D02*
X172540877Y-50014702D01*
%TO.N,/Dout30*%
X241909766Y-48914702D02*
X242559766Y-48264702D01*
%TO.N,/Din21*%
X160909766Y-51014702D02*
X156235069Y-46340005D01*
%TO.N,/+5V*%
X234638654Y-44564702D02*
X234638654Y-41023542D01*
%TO.N,GND*%
X233033560Y-42314875D02*
X233033560Y-41065420D01*
X179799238Y-41081020D02*
X179863324Y-41016934D01*
X162066066Y-42314875D02*
X162066066Y-41072386D01*
X162066066Y-41072386D02*
X162123750Y-41014702D01*
X179799238Y-42314875D02*
X179799238Y-41081020D01*
%TO.N,/+5V*%
X234638654Y-41023542D02*
X234632046Y-41016934D01*
X199152898Y-41016934D02*
X199152898Y-44563390D01*
%TO.N,GND*%
X171106123Y-80639685D02*
X171157388Y-80588420D01*
%TO.N,/+5V*%
X225931394Y-84136188D02*
X225931394Y-80593704D01*
%TO.N,GND*%
X215447411Y-81886361D02*
X215447411Y-80647332D01*
X224323617Y-81886361D02*
X224323617Y-80640913D01*
%TO.N,/+5V*%
X225931394Y-80593704D02*
X225926110Y-80588420D01*
%TO.N,GND*%
X224323617Y-80640913D02*
X224376110Y-80588420D01*
X233197411Y-80636906D02*
X233245897Y-80588420D01*
X215447411Y-80647332D02*
X215506323Y-80588420D01*
%TO.N,/+5V*%
X190446962Y-80588420D02*
X190446962Y-84136176D01*
%TO.N,GND*%
X197747411Y-80607758D02*
X197766749Y-80588420D01*
X206623617Y-80601339D02*
X206636536Y-80588420D01*
X197747411Y-81886361D02*
X197747411Y-80607758D01*
%TO.N,/+5V*%
X181577175Y-80588420D02*
X181577175Y-84134852D01*
X172707388Y-80588420D02*
X172707388Y-84133528D01*
%TO.N,GND*%
X242073617Y-81886361D02*
X242073617Y-80630495D01*
%TO.N,/+5V*%
X243673617Y-80596345D02*
X243665692Y-80588420D01*
%TO.N,GND*%
X206623617Y-81886361D02*
X206623617Y-80601339D01*
X171106123Y-81886361D02*
X171106123Y-80639685D01*
%TO.N,/+5V*%
X217060283Y-80592380D02*
X217056323Y-80588420D01*
X217060283Y-84136188D02*
X217060283Y-80592380D01*
%TO.N,GND*%
X188839295Y-80646087D02*
X188896962Y-80588420D01*
%TO.N,/+5V*%
X243673617Y-84136188D02*
X243673617Y-80596345D01*
%TO.N,GND*%
X188839295Y-81886361D02*
X188839295Y-80646087D01*
X242073617Y-80630495D02*
X242115692Y-80588420D01*
%TO.N,/+5V*%
X208186536Y-80588420D02*
X208186536Y-84133552D01*
X163837601Y-80586188D02*
X163837601Y-84132204D01*
%TO.N,/Dout20*%
X247563617Y-87836188D02*
X250073617Y-85326188D01*
%TO.N,/Din11*%
X162833617Y-90586188D02*
X161073617Y-90586188D01*
%TO.N,/Dout20*%
X242073617Y-89036188D02*
X242073617Y-88486188D01*
X242723617Y-87836188D02*
X247563617Y-87836188D01*
%TO.N,/Din11*%
X163833617Y-89586188D02*
X162833617Y-90586188D01*
%TO.N,/Dout15*%
X208183617Y-89611188D02*
X208183617Y-89061188D01*
X198552506Y-87611188D02*
X201612506Y-87611188D01*
%TO.N,/Dout16*%
X213502506Y-90611188D02*
X216073617Y-90611188D01*
X207442506Y-87611188D02*
X210502506Y-87611188D01*
%TO.N,/Dout15*%
X201612506Y-87611188D02*
X204612506Y-90611188D01*
%TO.N,/Dout16*%
X216073617Y-90611188D02*
X217073617Y-89611188D01*
%TO.N,/Dout15*%
X204612506Y-90611188D02*
X207183617Y-90611188D01*
%TO.N,/Dout16*%
X206602506Y-89061188D02*
X206602506Y-88451188D01*
X210502506Y-87611188D02*
X213502506Y-90611188D01*
%TO.N,/Dout15*%
X197712506Y-88451188D02*
X198552506Y-87611188D01*
%TO.N,/Dout12*%
X171123617Y-89036188D02*
X171123617Y-88426188D01*
X171963617Y-87586188D02*
X175023617Y-87586188D01*
X180594728Y-90586188D02*
X181594728Y-89586188D01*
X181594728Y-89586188D02*
X181594728Y-89036188D01*
X175023617Y-87586188D02*
X178023617Y-90586188D01*
%TO.N,/Dout16*%
X217073617Y-89611188D02*
X217073617Y-89061188D01*
%TO.N,/Dout15*%
X197712506Y-89061188D02*
X197712506Y-88451188D01*
%TO.N,GND*%
X206623617Y-81886361D02*
X206623617Y-84101743D01*
%TO.N,/Dout19*%
X243683617Y-89561188D02*
X243683617Y-89011188D01*
X237112506Y-87561188D02*
X240112506Y-90561188D01*
X242683617Y-90561188D02*
X243683617Y-89561188D01*
%TO.N,GND*%
X224323617Y-81886361D02*
X224323617Y-84128411D01*
X179963089Y-81886361D02*
X179963089Y-84123438D01*
X188839295Y-81886361D02*
X188839295Y-84128533D01*
X215447411Y-81886361D02*
X215447411Y-84123316D01*
%TO.N,/Dout13*%
X180802506Y-87561188D02*
X183862506Y-87561188D01*
%TO.N,/Dout14*%
X188852506Y-89011188D02*
X188852506Y-88401188D01*
X188852506Y-88401188D02*
X189692506Y-87561188D01*
X189692506Y-87561188D02*
X192752506Y-87561188D01*
%TO.N,/Dout19*%
X240112506Y-90561188D02*
X242683617Y-90561188D01*
%TO.N,/Dout13*%
X179962506Y-89011188D02*
X179962506Y-88401188D01*
X189433617Y-90561188D02*
X190433617Y-89561188D01*
%TO.N,/Dout14*%
X192752506Y-87561188D02*
X195752506Y-90561188D01*
%TO.N,/Dout11*%
X172704728Y-89586188D02*
X172704728Y-89036188D01*
X162233617Y-89036188D02*
X162233617Y-88426188D01*
X166133617Y-87586188D02*
X169133617Y-90586188D01*
X162233617Y-88426188D02*
X163073617Y-87586188D01*
%TO.N,GND*%
X171106123Y-81886361D02*
X171106123Y-84134793D01*
%TO.N,/Dout11*%
X169133617Y-90586188D02*
X171704728Y-90586188D01*
X163073617Y-87586188D02*
X166133617Y-87586188D01*
%TO.N,/Dout13*%
X190433617Y-89561188D02*
X190433617Y-89011188D01*
%TO.N,GND*%
X197747411Y-81886361D02*
X197747411Y-84106838D01*
%TO.N,/Dout18*%
X225192506Y-87561188D02*
X228252506Y-87561188D01*
%TO.N,/Dout17*%
X215462506Y-89011188D02*
X215462506Y-88401188D01*
%TO.N,/Dout18*%
X231252506Y-90561188D02*
X233823617Y-90561188D01*
%TO.N,/Dout17*%
X219362506Y-87561188D02*
X222362506Y-90561188D01*
X215462506Y-88401188D02*
X216302506Y-87561188D01*
%TO.N,/Dout14*%
X195752506Y-90561188D02*
X198323617Y-90561188D01*
%TO.N,/Dout12*%
X178023617Y-90586188D02*
X180594728Y-90586188D01*
%TO.N,/Dout18*%
X228252506Y-87561188D02*
X231252506Y-90561188D01*
X224352506Y-89011188D02*
X224352506Y-88401188D01*
%TO.N,GND*%
X233197411Y-81886361D02*
X233197411Y-84131094D01*
%TO.N,/Dout19*%
X234052506Y-87561188D02*
X237112506Y-87561188D01*
%TO.N,/Dout13*%
X183862506Y-87561188D02*
X186862506Y-90561188D01*
%TO.N,/Dout12*%
X171123617Y-88426188D02*
X171963617Y-87586188D01*
%TO.N,/Dout18*%
X234823617Y-89561188D02*
X234823617Y-89011188D01*
%TO.N,/Dout14*%
X198323617Y-90561188D02*
X199323617Y-89561188D01*
%TO.N,/Dout13*%
X186862506Y-90561188D02*
X189433617Y-90561188D01*
%TO.N,/Dout14*%
X199323617Y-89561188D02*
X199323617Y-89011188D01*
%TO.N,/Dout19*%
X233212506Y-89011188D02*
X233212506Y-88401188D01*
%TO.N,/Dout18*%
X224352506Y-88401188D02*
X225192506Y-87561188D01*
%TO.N,/Dout15*%
X207183617Y-90611188D02*
X208183617Y-89611188D01*
%TO.N,/Dout17*%
X224933617Y-90561188D02*
X225933617Y-89561188D01*
X222362506Y-90561188D02*
X224933617Y-90561188D01*
X225933617Y-89561188D02*
X225933617Y-89011188D01*
%TO.N,GND*%
X162229917Y-81886361D02*
X162229917Y-84132488D01*
%TO.N,/Dout18*%
X233823617Y-90561188D02*
X234823617Y-89561188D01*
%TO.N,/Dout13*%
X179962506Y-88401188D02*
X180802506Y-87561188D01*
%TO.N,/Dout19*%
X233212506Y-88401188D02*
X234052506Y-87561188D01*
%TO.N,GND*%
X242073617Y-81886361D02*
X242073617Y-84136188D01*
%TO.N,/Dout17*%
X216302506Y-87561188D02*
X219362506Y-87561188D01*
%TO.N,/Dout16*%
X206602506Y-88451188D02*
X207442506Y-87611188D01*
%TO.N,/Dout11*%
X171704728Y-90586188D02*
X172704728Y-89586188D01*
%TO.N,/Dout20*%
X242073617Y-88486188D02*
X242723617Y-87836188D01*
%TO.N,/Din11*%
X161073617Y-90586188D02*
X156398920Y-85911491D01*
%TO.N,/+5V*%
X234802505Y-84136188D02*
X234802505Y-80595028D01*
%TO.N,GND*%
X233197411Y-81886361D02*
X233197411Y-80636906D01*
X179963089Y-80652506D02*
X180027175Y-80588420D01*
X162229917Y-81886361D02*
X162229917Y-80643872D01*
X162229917Y-80643872D02*
X162287601Y-80586188D01*
X179963089Y-81886361D02*
X179963089Y-80652506D01*
%TO.N,/+5V*%
X234802505Y-80595028D02*
X234795897Y-80588420D01*
X199316749Y-80588420D02*
X199316749Y-84134876D01*
X243600000Y-120010157D02*
X243592075Y-120002232D01*
X243600000Y-123550000D02*
X243600000Y-120010157D01*
%TO.N,GND*%
X242000000Y-120044307D02*
X242042075Y-120002232D01*
X242000000Y-121300173D02*
X242000000Y-120044307D01*
%TO.N,/+5V*%
X234728888Y-120008840D02*
X234722280Y-120002232D01*
X234728888Y-123550000D02*
X234728888Y-120008840D01*
%TO.N,GND*%
X233123794Y-120050718D02*
X233172280Y-120002232D01*
X233123794Y-121300173D02*
X233123794Y-120050718D01*
%TO.N,/+5V*%
X225857777Y-120007516D02*
X225852493Y-120002232D01*
X225857777Y-123550000D02*
X225857777Y-120007516D01*
%TO.N,GND*%
X224250000Y-120054725D02*
X224302493Y-120002232D01*
X224250000Y-121300173D02*
X224250000Y-120054725D01*
%TO.N,/+5V*%
X216986666Y-120006192D02*
X216982706Y-120002232D01*
X216986666Y-123550000D02*
X216986666Y-120006192D01*
%TO.N,GND*%
X215373794Y-120061144D02*
X215432706Y-120002232D01*
X215373794Y-121300173D02*
X215373794Y-120061144D01*
X206550000Y-120015151D02*
X206562919Y-120002232D01*
X206550000Y-121300173D02*
X206550000Y-120015151D01*
%TO.N,/+5V*%
X208112919Y-123547364D02*
X208115555Y-123550000D01*
X208112919Y-120002232D02*
X208112919Y-123547364D01*
X199243132Y-123548688D02*
X199244444Y-123550000D01*
X199243132Y-120002232D02*
X199243132Y-123548688D01*
%TO.N,GND*%
X197673794Y-120021570D02*
X197693132Y-120002232D01*
X197673794Y-121300173D02*
X197673794Y-120021570D01*
%TO.N,/+5V*%
X181503558Y-123548664D02*
X181502222Y-123550000D01*
X181503558Y-120002232D02*
X181503558Y-123548664D01*
X190373345Y-123549988D02*
X190373333Y-123550000D01*
X190373345Y-120002232D02*
X190373345Y-123549988D01*
%TO.N,GND*%
X188765678Y-121300173D02*
X188765678Y-120059899D01*
X188765678Y-120059899D02*
X188823345Y-120002232D01*
X171032506Y-120053497D02*
X171083771Y-120002232D01*
X171032506Y-121300173D02*
X171032506Y-120053497D01*
X179889472Y-120066318D02*
X179953558Y-120002232D01*
X179889472Y-121300173D02*
X179889472Y-120066318D01*
%TO.N,/+5V*%
X172633771Y-123547340D02*
X172631111Y-123550000D01*
X172633771Y-120002232D02*
X172633771Y-123547340D01*
X163763984Y-123546016D02*
X163760000Y-123550000D01*
X163763984Y-120000000D02*
X163763984Y-123546016D01*
%TO.N,GND*%
X162156300Y-120057684D02*
X162213984Y-120000000D01*
X162156300Y-121300173D02*
X162156300Y-120057684D01*
%TO.N,/Din1*%
X161000000Y-130000000D02*
X156325303Y-125325303D01*
X156325303Y-125325303D02*
X156325303Y-124740000D01*
X162760000Y-130000000D02*
X161000000Y-130000000D01*
X163760000Y-129000000D02*
X162760000Y-130000000D01*
X163760000Y-128450000D02*
X163760000Y-129000000D01*
%TO.N,/Dout10*%
X242000000Y-127900000D02*
X242650000Y-127250000D01*
X242650000Y-127250000D02*
X247490000Y-127250000D01*
X242000000Y-128450000D02*
X242000000Y-127900000D01*
X247490000Y-127250000D02*
X250000000Y-124740000D01*
%TO.N,GND*%
X242000000Y-121300173D02*
X242000000Y-123550000D01*
X233123794Y-123544906D02*
X233128888Y-123550000D01*
X233123794Y-121300173D02*
X233123794Y-123544906D01*
X224250000Y-123542223D02*
X224257777Y-123550000D01*
X224250000Y-121300173D02*
X224250000Y-123542223D01*
X215373794Y-121300173D02*
X215373794Y-123537128D01*
X215373794Y-123537128D02*
X215386666Y-123550000D01*
X206550000Y-123515555D02*
X206515555Y-123550000D01*
X206550000Y-121300173D02*
X206550000Y-123515555D01*
X197673794Y-123520650D02*
X197644444Y-123550000D01*
X197673794Y-121300173D02*
X197673794Y-123520650D01*
X188765678Y-123542345D02*
X188773333Y-123550000D01*
X188765678Y-121300173D02*
X188765678Y-123542345D01*
X179889472Y-123537250D02*
X179902222Y-123550000D01*
X179889472Y-121300173D02*
X179889472Y-123537250D01*
X171032506Y-123548605D02*
X171031111Y-123550000D01*
X171032506Y-121300173D02*
X171032506Y-123548605D01*
X162156300Y-123546300D02*
X162160000Y-123550000D01*
X162156300Y-121300173D02*
X162156300Y-123546300D01*
%TO.N,/Dout9*%
X243610000Y-128975000D02*
X243610000Y-128425000D01*
X233138889Y-128425000D02*
X233138889Y-127815000D01*
X233138889Y-127815000D02*
X233978889Y-126975000D01*
X237038889Y-126975000D02*
X240038889Y-129975000D01*
X240038889Y-129975000D02*
X242610000Y-129975000D01*
X233978889Y-126975000D02*
X237038889Y-126975000D01*
X242610000Y-129975000D02*
X243610000Y-128975000D01*
%TO.N,/Dout8*%
X224278889Y-128425000D02*
X224278889Y-127815000D01*
X233750000Y-129975000D02*
X234750000Y-128975000D01*
X224278889Y-127815000D02*
X225118889Y-126975000D01*
X225118889Y-126975000D02*
X228178889Y-126975000D01*
X231178889Y-129975000D02*
X233750000Y-129975000D01*
X234750000Y-128975000D02*
X234750000Y-128425000D01*
X228178889Y-126975000D02*
X231178889Y-129975000D01*
%TO.N,/Dout7*%
X225860000Y-128975000D02*
X225860000Y-128425000D01*
X215388889Y-128425000D02*
X215388889Y-127815000D01*
X215388889Y-127815000D02*
X216228889Y-126975000D01*
X219288889Y-126975000D02*
X222288889Y-129975000D01*
X222288889Y-129975000D02*
X224860000Y-129975000D01*
X216228889Y-126975000D02*
X219288889Y-126975000D01*
X224860000Y-129975000D02*
X225860000Y-128975000D01*
%TO.N,/Dout6*%
X206528889Y-128475000D02*
X206528889Y-127865000D01*
X216000000Y-130025000D02*
X217000000Y-129025000D01*
X206528889Y-127865000D02*
X207368889Y-127025000D01*
X207368889Y-127025000D02*
X210428889Y-127025000D01*
X213428889Y-130025000D02*
X216000000Y-130025000D01*
X217000000Y-129025000D02*
X217000000Y-128475000D01*
X210428889Y-127025000D02*
X213428889Y-130025000D01*
%TO.N,/Dout5*%
X208110000Y-129025000D02*
X208110000Y-128475000D01*
X197638889Y-128475000D02*
X197638889Y-127865000D01*
X197638889Y-127865000D02*
X198478889Y-127025000D01*
X201538889Y-127025000D02*
X204538889Y-130025000D01*
X204538889Y-130025000D02*
X207110000Y-130025000D01*
X198478889Y-127025000D02*
X201538889Y-127025000D01*
X207110000Y-130025000D02*
X208110000Y-129025000D01*
%TO.N,/Dout4*%
X188778889Y-128425000D02*
X188778889Y-127815000D01*
X198250000Y-129975000D02*
X199250000Y-128975000D01*
X188778889Y-127815000D02*
X189618889Y-126975000D01*
X189618889Y-126975000D02*
X192678889Y-126975000D01*
X195678889Y-129975000D02*
X198250000Y-129975000D01*
X199250000Y-128975000D02*
X199250000Y-128425000D01*
X192678889Y-126975000D02*
X195678889Y-129975000D01*
%TO.N,/Dout3*%
X190360000Y-128975000D02*
X190360000Y-128425000D01*
X179888889Y-128425000D02*
X179888889Y-127815000D01*
X179888889Y-127815000D02*
X180728889Y-126975000D01*
X183788889Y-126975000D02*
X186788889Y-129975000D01*
X186788889Y-129975000D02*
X189360000Y-129975000D01*
X180728889Y-126975000D02*
X183788889Y-126975000D01*
X189360000Y-129975000D02*
X190360000Y-128975000D01*
%TO.N,/Dout2*%
X181521111Y-129000000D02*
X181521111Y-128450000D01*
X171050000Y-128450000D02*
X171050000Y-127840000D01*
X171050000Y-127840000D02*
X171890000Y-127000000D01*
X174950000Y-127000000D02*
X177950000Y-130000000D01*
X177950000Y-130000000D02*
X180521111Y-130000000D01*
X171890000Y-127000000D02*
X174950000Y-127000000D01*
X180521111Y-130000000D02*
X181521111Y-129000000D01*
%TO.N,/Dout1*%
X169060000Y-130000000D02*
X171631111Y-130000000D01*
X166060000Y-127000000D02*
X169060000Y-130000000D01*
X163000000Y-127000000D02*
X166060000Y-127000000D01*
X171631111Y-130000000D02*
X172631111Y-129000000D01*
X162160000Y-127840000D02*
X163000000Y-127000000D01*
X172631111Y-129000000D02*
X172631111Y-128450000D01*
X162160000Y-128450000D02*
X162160000Y-127840000D01*
%TD*%
M02*
