%TF.GenerationSoftware,KiCad,Pcbnew,7.0.2*%
%TF.CreationDate,2023-08-23T15:03:45+02:00*%
%TF.ProjectId,TestingRig,54657374-696e-4675-9269-672e6b696361,rev?*%
%TF.SameCoordinates,Original*%
%TF.FileFunction,Paste,Top*%
%TF.FilePolarity,Positive*%
%FSLAX46Y46*%
G04 Gerber Fmt 4.6, Leading zero omitted, Abs format (unit mm)*
G04 Created by KiCad (PCBNEW 7.0.2) date 2023-08-23 15:03:45*
%MOMM*%
%LPD*%
G01*
G04 APERTURE LIST*
G04 Aperture macros list*
%AMRoundRect*
0 Rectangle with rounded corners*
0 $1 Rounding radius*
0 $2 $3 $4 $5 $6 $7 $8 $9 X,Y pos of 4 corners*
0 Add a 4 corners polygon primitive as box body*
4,1,4,$2,$3,$4,$5,$6,$7,$8,$9,$2,$3,0*
0 Add four circle primitives for the rounded corners*
1,1,$1+$1,$2,$3*
1,1,$1+$1,$4,$5*
1,1,$1+$1,$6,$7*
1,1,$1+$1,$8,$9*
0 Add four rect primitives between the rounded corners*
20,1,$1+$1,$2,$3,$4,$5,0*
20,1,$1+$1,$4,$5,$6,$7,0*
20,1,$1+$1,$6,$7,$8,$9,0*
20,1,$1+$1,$8,$9,$2,$3,0*%
G04 Aperture macros list end*
%ADD10RoundRect,0.225000X-0.250000X0.225000X-0.250000X-0.225000X0.250000X-0.225000X0.250000X0.225000X0*%
%ADD11R,1.000000X1.500000*%
G04 APERTURE END LIST*
D10*
%TO.C,C9*%
X178204375Y-131442819D03*
X178204375Y-132992819D03*
%TD*%
%TO.C,C16*%
X160204375Y-95517968D03*
X160204375Y-97067968D03*
%TD*%
D11*
%TO.C,D26*%
X167643125Y-69100957D03*
X169243125Y-69100957D03*
X170843125Y-69100957D03*
X170843125Y-64200957D03*
X169243125Y-64200957D03*
X167643125Y-64200957D03*
%TD*%
%TO.C,D20*%
X113643125Y-69100957D03*
X115243125Y-69100957D03*
X116843125Y-69100957D03*
X116843125Y-64200957D03*
X115243125Y-64200957D03*
X113643125Y-64200957D03*
%TD*%
%TO.C,D16*%
X158593125Y-105192968D03*
X160193125Y-105192968D03*
X161793125Y-105192968D03*
X161793125Y-100292968D03*
X160193125Y-100292968D03*
X158593125Y-100292968D03*
%TD*%
D10*
%TO.C,C1*%
X106204375Y-131442819D03*
X106204375Y-132992819D03*
%TD*%
D11*
%TO.C,D2*%
X113593125Y-141117819D03*
X115193125Y-141117819D03*
X116793125Y-141117819D03*
X116793125Y-136217819D03*
X115193125Y-136217819D03*
X113593125Y-136217819D03*
%TD*%
%TO.C,D10*%
X104593125Y-105192968D03*
X106193125Y-105192968D03*
X107793125Y-105192968D03*
X107793125Y-100292968D03*
X106193125Y-100292968D03*
X104593125Y-100292968D03*
%TD*%
D10*
%TO.C,C26*%
X169254375Y-59450957D03*
X169254375Y-61000957D03*
%TD*%
D11*
%TO.C,D7*%
X158593125Y-141117819D03*
X160193125Y-141117819D03*
X161793125Y-141117819D03*
X161793125Y-136217819D03*
X160193125Y-136217819D03*
X158593125Y-136217819D03*
%TD*%
D10*
%TO.C,C18*%
X178204375Y-95517968D03*
X178204375Y-97067968D03*
%TD*%
D11*
%TO.C,D25*%
X158643125Y-69100957D03*
X160243125Y-69100957D03*
X161843125Y-69100957D03*
X161843125Y-64200957D03*
X160243125Y-64200957D03*
X158643125Y-64200957D03*
%TD*%
%TO.C,D8*%
X167593125Y-141117819D03*
X169193125Y-141117819D03*
X170793125Y-141117819D03*
X170793125Y-136217819D03*
X169193125Y-136217819D03*
X167593125Y-136217819D03*
%TD*%
%TO.C,D9*%
X176593125Y-141117819D03*
X178193125Y-141117819D03*
X179793125Y-141117819D03*
X179793125Y-136217819D03*
X178193125Y-136217819D03*
X176593125Y-136217819D03*
%TD*%
%TO.C,D18*%
X176593125Y-105192968D03*
X178193125Y-105192968D03*
X179793125Y-105192968D03*
X179793125Y-100292968D03*
X178193125Y-100292968D03*
X176593125Y-100292968D03*
%TD*%
%TO.C,D21*%
X122643125Y-69100957D03*
X124243125Y-69100957D03*
X125843125Y-69100957D03*
X125843125Y-64200957D03*
X124243125Y-64200957D03*
X122643125Y-64200957D03*
%TD*%
%TO.C,D22*%
X131643125Y-69100957D03*
X133243125Y-69100957D03*
X134843125Y-69100957D03*
X134843125Y-64200957D03*
X133243125Y-64200957D03*
X131643125Y-64200957D03*
%TD*%
D10*
%TO.C,C4*%
X133204375Y-131442819D03*
X133204375Y-132992819D03*
%TD*%
%TO.C,C6*%
X151204375Y-131442819D03*
X151204375Y-132992819D03*
%TD*%
%TO.C,C13*%
X133204375Y-95517968D03*
X133204375Y-97067968D03*
%TD*%
%TO.C,C17*%
X169204375Y-95517968D03*
X169204375Y-97067968D03*
%TD*%
%TO.C,C7*%
X160204375Y-131442819D03*
X160204375Y-132992819D03*
%TD*%
D11*
%TO.C,D1*%
X104593125Y-141117819D03*
X106193125Y-141117819D03*
X107793125Y-141117819D03*
X107793125Y-136217819D03*
X106193125Y-136217819D03*
X104593125Y-136217819D03*
%TD*%
D10*
%TO.C,C24*%
X151254375Y-59450957D03*
X151254375Y-61000957D03*
%TD*%
D11*
%TO.C,D23*%
X140643125Y-69100957D03*
X142243125Y-69100957D03*
X143843125Y-69100957D03*
X143843125Y-64200957D03*
X142243125Y-64200957D03*
X140643125Y-64200957D03*
%TD*%
D10*
%TO.C,C15*%
X151204375Y-95517968D03*
X151204375Y-97067968D03*
%TD*%
%TO.C,C22*%
X133254375Y-59450957D03*
X133254375Y-61000957D03*
%TD*%
%TO.C,C27*%
X178254375Y-59450957D03*
X178254375Y-61000957D03*
%TD*%
%TO.C,C3*%
X124204375Y-131442819D03*
X124204375Y-132992819D03*
%TD*%
D11*
%TO.C,D19*%
X104643125Y-69100957D03*
X106243125Y-69100957D03*
X107843125Y-69100957D03*
X107843125Y-64200957D03*
X106243125Y-64200957D03*
X104643125Y-64200957D03*
%TD*%
%TO.C,D5*%
X140593125Y-141117819D03*
X142193125Y-141117819D03*
X143793125Y-141117819D03*
X143793125Y-136217819D03*
X142193125Y-136217819D03*
X140593125Y-136217819D03*
%TD*%
%TO.C,D6*%
X149593125Y-141117819D03*
X151193125Y-141117819D03*
X152793125Y-141117819D03*
X152793125Y-136217819D03*
X151193125Y-136217819D03*
X149593125Y-136217819D03*
%TD*%
%TO.C,D11*%
X113593125Y-105192968D03*
X115193125Y-105192968D03*
X116793125Y-105192968D03*
X116793125Y-100292968D03*
X115193125Y-100292968D03*
X113593125Y-100292968D03*
%TD*%
D10*
%TO.C,C10*%
X106204375Y-95517968D03*
X106204375Y-97067968D03*
%TD*%
%TO.C,C23*%
X142254375Y-59450957D03*
X142254375Y-61000957D03*
%TD*%
%TO.C,C2*%
X115204375Y-131442819D03*
X115204375Y-132992819D03*
%TD*%
%TO.C,C11*%
X115204375Y-95517968D03*
X115204375Y-97067968D03*
%TD*%
D11*
%TO.C,D17*%
X167593125Y-105192968D03*
X169193125Y-105192968D03*
X170793125Y-105192968D03*
X170793125Y-100292968D03*
X169193125Y-100292968D03*
X167593125Y-100292968D03*
%TD*%
%TO.C,D4*%
X131593125Y-141117819D03*
X133193125Y-141117819D03*
X134793125Y-141117819D03*
X134793125Y-136217819D03*
X133193125Y-136217819D03*
X131593125Y-136217819D03*
%TD*%
D10*
%TO.C,C8*%
X169204375Y-131442819D03*
X169204375Y-132992819D03*
%TD*%
%TO.C,C14*%
X142204375Y-95517968D03*
X142204375Y-97067968D03*
%TD*%
%TO.C,C20*%
X115254375Y-59450957D03*
X115254375Y-61000957D03*
%TD*%
D11*
%TO.C,D15*%
X149593125Y-105192968D03*
X151193125Y-105192968D03*
X152793125Y-105192968D03*
X152793125Y-100292968D03*
X151193125Y-100292968D03*
X149593125Y-100292968D03*
%TD*%
%TO.C,D14*%
X140593125Y-105192968D03*
X142193125Y-105192968D03*
X143793125Y-105192968D03*
X143793125Y-100292968D03*
X142193125Y-100292968D03*
X140593125Y-100292968D03*
%TD*%
%TO.C,D27*%
X176643125Y-69100957D03*
X178243125Y-69100957D03*
X179843125Y-69100957D03*
X179843125Y-64200957D03*
X178243125Y-64200957D03*
X176643125Y-64200957D03*
%TD*%
D10*
%TO.C,C19*%
X106254375Y-59450957D03*
X106254375Y-61000957D03*
%TD*%
%TO.C,C5*%
X142204375Y-131442819D03*
X142204375Y-132992819D03*
%TD*%
D11*
%TO.C,D13*%
X131593125Y-105192968D03*
X133193125Y-105192968D03*
X134793125Y-105192968D03*
X134793125Y-100292968D03*
X133193125Y-100292968D03*
X131593125Y-100292968D03*
%TD*%
D10*
%TO.C,C25*%
X160254375Y-59450957D03*
X160254375Y-61000957D03*
%TD*%
%TO.C,C12*%
X124204375Y-95517968D03*
X124204375Y-97067968D03*
%TD*%
D11*
%TO.C,D12*%
X122593125Y-105192968D03*
X124193125Y-105192968D03*
X125793125Y-105192968D03*
X125793125Y-100292968D03*
X124193125Y-100292968D03*
X122593125Y-100292968D03*
%TD*%
%TO.C,D3*%
X122593125Y-141117819D03*
X124193125Y-141117819D03*
X125793125Y-141117819D03*
X125793125Y-136217819D03*
X124193125Y-136217819D03*
X122593125Y-136217819D03*
%TD*%
D10*
%TO.C,C21*%
X124254375Y-59450957D03*
X124254375Y-61000957D03*
%TD*%
D11*
%TO.C,D24*%
X149643125Y-69100957D03*
X151243125Y-69100957D03*
X152843125Y-69100957D03*
X152843125Y-64200957D03*
X151243125Y-64200957D03*
X149643125Y-64200957D03*
%TD*%
M02*
