%TF.GenerationSoftware,KiCad,Pcbnew,7.0.2*%
%TF.CreationDate,2023-08-23T15:25:31+02:00*%
%TF.ProjectId,LightSensor,4c696768-7453-4656-9e73-6f722e6b6963,rev?*%
%TF.SameCoordinates,Original*%
%TF.FileFunction,Copper,L2,Bot*%
%TF.FilePolarity,Positive*%
%FSLAX46Y46*%
G04 Gerber Fmt 4.6, Leading zero omitted, Abs format (unit mm)*
G04 Created by KiCad (PCBNEW 7.0.2) date 2023-08-23 15:25:31*
%MOMM*%
%LPD*%
G01*
G04 APERTURE LIST*
%TA.AperFunction,ComponentPad*%
%ADD10R,1.700000X1.700000*%
%TD*%
%TA.AperFunction,ComponentPad*%
%ADD11O,1.700000X1.700000*%
%TD*%
%TA.AperFunction,ViaPad*%
%ADD12C,3.000000*%
%TD*%
%TA.AperFunction,ViaPad*%
%ADD13C,0.800000*%
%TD*%
%TA.AperFunction,Conductor*%
%ADD14C,0.250000*%
%TD*%
G04 APERTURE END LIST*
D10*
%TO.P,J1,1,Pin_1*%
%TO.N,/SDA*%
X213800000Y-108020000D03*
D11*
%TO.P,J1,2,Pin_2*%
%TO.N,/SCL*%
X213800000Y-110560000D03*
%TO.P,J1,3,Pin_3*%
%TO.N,/ALERT*%
X213800000Y-113100000D03*
%TO.P,J1,4,Pin_4*%
%TO.N,/+3.3V*%
X213800000Y-115640000D03*
%TO.P,J1,5,Pin_5*%
%TO.N,GND*%
X213800000Y-118180000D03*
%TD*%
D12*
%TO.N,*%
X235000000Y-122600000D03*
X235000000Y-103600000D03*
D13*
%TO.N,GND*%
X224250000Y-113500000D03*
X227266089Y-115466483D03*
%TO.N,/+3.3V*%
X229238530Y-116257066D03*
%TO.N,/SCL*%
X223213465Y-110586595D03*
%TO.N,/SDA*%
X227266089Y-110579689D03*
%TO.N,/ALERT*%
X218600000Y-114500000D03*
X224512669Y-115140087D03*
%TD*%
D14*
%TO.N,/+3.3V*%
X229238530Y-116257066D02*
X214417066Y-116257066D01*
X214417066Y-116257066D02*
X213800000Y-115640000D01*
%TO.N,/SCL*%
X213800000Y-110560000D02*
X223186870Y-110560000D01*
X223186870Y-110560000D02*
X223213465Y-110586595D01*
%TO.N,/SDA*%
X227266089Y-110579689D02*
X224706400Y-108020000D01*
X224706400Y-108020000D02*
X213800000Y-108020000D01*
%TO.N,/ALERT*%
X219140087Y-115140087D02*
X218600000Y-114600000D01*
X224512669Y-115140087D02*
X219140087Y-115140087D01*
X218600000Y-114600000D02*
X218600000Y-114500000D01*
%TD*%
%TA.AperFunction,Conductor*%
%TO.N,GND*%
G36*
X233638043Y-101920185D02*
G01*
X233683798Y-101972989D01*
X233693742Y-102042147D01*
X233664717Y-102105703D01*
X233658685Y-102112181D01*
X233484263Y-102286602D01*
X233312772Y-102515686D01*
X233175634Y-102766836D01*
X233075629Y-103034958D01*
X233014804Y-103314570D01*
X232994389Y-103600000D01*
X233014804Y-103885429D01*
X233075629Y-104165041D01*
X233175634Y-104433163D01*
X233312772Y-104684313D01*
X233398517Y-104798854D01*
X233484261Y-104913395D01*
X233686605Y-105115739D01*
X233858415Y-105244354D01*
X233915686Y-105287227D01*
X234055435Y-105363535D01*
X234166839Y-105424367D01*
X234434954Y-105524369D01*
X234434957Y-105524369D01*
X234434958Y-105524370D01*
X234487217Y-105535738D01*
X234714572Y-105585196D01*
X235000000Y-105605610D01*
X235285428Y-105585196D01*
X235565046Y-105524369D01*
X235833161Y-105424367D01*
X236084315Y-105287226D01*
X236313395Y-105115739D01*
X236515739Y-104913395D01*
X236687226Y-104684315D01*
X236816669Y-104447257D01*
X236866073Y-104397854D01*
X236934346Y-104383002D01*
X236999810Y-104407419D01*
X237041682Y-104463352D01*
X237049500Y-104506686D01*
X237049500Y-121693313D01*
X237029815Y-121760352D01*
X236977011Y-121806107D01*
X236907853Y-121816051D01*
X236844297Y-121787026D01*
X236816668Y-121752740D01*
X236784218Y-121693313D01*
X236687226Y-121515685D01*
X236515739Y-121286605D01*
X236313395Y-121084261D01*
X236198854Y-120998517D01*
X236084313Y-120912772D01*
X235833163Y-120775634D01*
X235833162Y-120775633D01*
X235833161Y-120775633D01*
X235565046Y-120675631D01*
X235565041Y-120675629D01*
X235285429Y-120614804D01*
X235000000Y-120594389D01*
X234714570Y-120614804D01*
X234434958Y-120675629D01*
X234166836Y-120775634D01*
X233915686Y-120912772D01*
X233686602Y-121084263D01*
X233484263Y-121286602D01*
X233312772Y-121515686D01*
X233175634Y-121766836D01*
X233075629Y-122034958D01*
X233014804Y-122314570D01*
X232994389Y-122600000D01*
X233014804Y-122885429D01*
X233075629Y-123165041D01*
X233175634Y-123433163D01*
X233312772Y-123684313D01*
X233390922Y-123788708D01*
X233484261Y-123913395D01*
X233686605Y-124115739D01*
X233871163Y-124253897D01*
X233901000Y-124276233D01*
X233942871Y-124332167D01*
X233947855Y-124401858D01*
X233914370Y-124463181D01*
X233853047Y-124496666D01*
X233826689Y-124499500D01*
X208754067Y-124499500D01*
X208745957Y-124499235D01*
X208523221Y-124484636D01*
X208507140Y-124482518D01*
X208292228Y-124439769D01*
X208276561Y-124435571D01*
X208069057Y-124365133D01*
X208054071Y-124358926D01*
X207857539Y-124262007D01*
X207843492Y-124253897D01*
X207661291Y-124132154D01*
X207648423Y-124122280D01*
X207640964Y-124115739D01*
X207483671Y-123977797D01*
X207472202Y-123966328D01*
X207419730Y-123906495D01*
X207327716Y-123801573D01*
X207317845Y-123788708D01*
X207248090Y-123684313D01*
X207196102Y-123606507D01*
X207187992Y-123592460D01*
X207185196Y-123586791D01*
X207091070Y-123395921D01*
X207084866Y-123380942D01*
X207014428Y-123173438D01*
X207010230Y-123157771D01*
X206998217Y-123097376D01*
X206967479Y-122942848D01*
X206965364Y-122926790D01*
X206950765Y-122704043D01*
X206950500Y-122695933D01*
X206950500Y-115639999D01*
X212444340Y-115639999D01*
X212464936Y-115875407D01*
X212509709Y-116042501D01*
X212526097Y-116103663D01*
X212625965Y-116317830D01*
X212761505Y-116511401D01*
X212928599Y-116678495D01*
X213114596Y-116808732D01*
X213158219Y-116863307D01*
X213165412Y-116932806D01*
X213133890Y-116995160D01*
X213114595Y-117011880D01*
X212928919Y-117141892D01*
X212761890Y-117308921D01*
X212626400Y-117502421D01*
X212526569Y-117716507D01*
X212469364Y-117929999D01*
X212469364Y-117930000D01*
X213366314Y-117930000D01*
X213340507Y-117970156D01*
X213300000Y-118108111D01*
X213300000Y-118251889D01*
X213340507Y-118389844D01*
X213366314Y-118430000D01*
X212469364Y-118430000D01*
X212526569Y-118643492D01*
X212626399Y-118857576D01*
X212761893Y-119051081D01*
X212928918Y-119218106D01*
X213122423Y-119353600D01*
X213336509Y-119453430D01*
X213550000Y-119510634D01*
X213550000Y-118615501D01*
X213657685Y-118664680D01*
X213764237Y-118680000D01*
X213835763Y-118680000D01*
X213942315Y-118664680D01*
X214050000Y-118615501D01*
X214050000Y-119510633D01*
X214263490Y-119453430D01*
X214477576Y-119353600D01*
X214671081Y-119218106D01*
X214838106Y-119051081D01*
X214973600Y-118857576D01*
X215073430Y-118643492D01*
X215130636Y-118430000D01*
X214233686Y-118430000D01*
X214259493Y-118389844D01*
X214300000Y-118251889D01*
X214300000Y-118108111D01*
X214259493Y-117970156D01*
X214233686Y-117930000D01*
X215130636Y-117930000D01*
X215130635Y-117929999D01*
X215073430Y-117716507D01*
X214973599Y-117502421D01*
X214838109Y-117308921D01*
X214671078Y-117141890D01*
X214622879Y-117108141D01*
X214579254Y-117053564D01*
X214572060Y-116984066D01*
X214603583Y-116921711D01*
X214663813Y-116886297D01*
X214694002Y-116882566D01*
X228534783Y-116882566D01*
X228601822Y-116902251D01*
X228626930Y-116923592D01*
X228632659Y-116929954D01*
X228785800Y-117041217D01*
X228785801Y-117041217D01*
X228785802Y-117041218D01*
X228958727Y-117118210D01*
X229143882Y-117157566D01*
X229143884Y-117157566D01*
X229333178Y-117157566D01*
X229456613Y-117131328D01*
X229518333Y-117118210D01*
X229691260Y-117041217D01*
X229731639Y-117011880D01*
X229844400Y-116929955D01*
X229850128Y-116923594D01*
X229971063Y-116789282D01*
X230065709Y-116625350D01*
X230124204Y-116445322D01*
X230143990Y-116257066D01*
X230124204Y-116068810D01*
X230065709Y-115888782D01*
X230065709Y-115888781D01*
X229971063Y-115724849D01*
X229844400Y-115584176D01*
X229691260Y-115472914D01*
X229518332Y-115395921D01*
X229333178Y-115356566D01*
X229333176Y-115356566D01*
X229143884Y-115356566D01*
X229143882Y-115356566D01*
X228958727Y-115395921D01*
X228785802Y-115472913D01*
X228723232Y-115518373D01*
X228632659Y-115584178D01*
X228626931Y-115590538D01*
X228567446Y-115627187D01*
X228534783Y-115631566D01*
X225470491Y-115631566D01*
X225403452Y-115611881D01*
X225357697Y-115559077D01*
X225347753Y-115489919D01*
X225352560Y-115469248D01*
X225357901Y-115452809D01*
X225398343Y-115328343D01*
X225418129Y-115140087D01*
X225398343Y-114951831D01*
X225339848Y-114771803D01*
X225339848Y-114771802D01*
X225245202Y-114607870D01*
X225118539Y-114467197D01*
X224965399Y-114355935D01*
X224792471Y-114278942D01*
X224607317Y-114239587D01*
X224607315Y-114239587D01*
X224418023Y-114239587D01*
X224418021Y-114239587D01*
X224232866Y-114278942D01*
X224059941Y-114355934D01*
X224040581Y-114370000D01*
X223906798Y-114467199D01*
X223901070Y-114473559D01*
X223841585Y-114510208D01*
X223808922Y-114514587D01*
X219618643Y-114514587D01*
X219551604Y-114494902D01*
X219505849Y-114442098D01*
X219495323Y-114403552D01*
X219485674Y-114311744D01*
X219429382Y-114138495D01*
X219427179Y-114131715D01*
X219332533Y-113967783D01*
X219205870Y-113827110D01*
X219052730Y-113715848D01*
X218879802Y-113638855D01*
X218694648Y-113599500D01*
X218694646Y-113599500D01*
X218505354Y-113599500D01*
X218505352Y-113599500D01*
X218320197Y-113638855D01*
X218147269Y-113715848D01*
X217994129Y-113827110D01*
X217867466Y-113967783D01*
X217772820Y-114131715D01*
X217714326Y-114311742D01*
X217694540Y-114500000D01*
X217714326Y-114688257D01*
X217772820Y-114868284D01*
X217867466Y-115032216D01*
X217994129Y-115172889D01*
X218147269Y-115284151D01*
X218320197Y-115361144D01*
X218438433Y-115386276D01*
X218499915Y-115419468D01*
X218533691Y-115480631D01*
X218529039Y-115550346D01*
X218487434Y-115606478D01*
X218422087Y-115631207D01*
X218412652Y-115631566D01*
X215268546Y-115631566D01*
X215201507Y-115611881D01*
X215155752Y-115559077D01*
X215145018Y-115518373D01*
X215135063Y-115404592D01*
X215123421Y-115361144D01*
X215073903Y-115176337D01*
X214974035Y-114962171D01*
X214838495Y-114768599D01*
X214671401Y-114601505D01*
X214485839Y-114471573D01*
X214442216Y-114416998D01*
X214435022Y-114347500D01*
X214466545Y-114285145D01*
X214485837Y-114268428D01*
X214671401Y-114138495D01*
X214838495Y-113971401D01*
X214974035Y-113777830D01*
X215073903Y-113563663D01*
X215135063Y-113335408D01*
X215155659Y-113100000D01*
X215135063Y-112864592D01*
X215073903Y-112636337D01*
X214974035Y-112422171D01*
X214838495Y-112228599D01*
X214671401Y-112061505D01*
X214485839Y-111931573D01*
X214442215Y-111876997D01*
X214435023Y-111807498D01*
X214466545Y-111745144D01*
X214485831Y-111728432D01*
X214671401Y-111598495D01*
X214838495Y-111431401D01*
X214973653Y-111238374D01*
X215028229Y-111194752D01*
X215075227Y-111185500D01*
X222485771Y-111185500D01*
X222552810Y-111205185D01*
X222577921Y-111226528D01*
X222607594Y-111259484D01*
X222760734Y-111370746D01*
X222933662Y-111447739D01*
X223118817Y-111487095D01*
X223118819Y-111487095D01*
X223308113Y-111487095D01*
X223431548Y-111460857D01*
X223493268Y-111447739D01*
X223666195Y-111370746D01*
X223819336Y-111259483D01*
X223945998Y-111118811D01*
X224040644Y-110954879D01*
X224099139Y-110774851D01*
X224118925Y-110586595D01*
X224099139Y-110398339D01*
X224040644Y-110218311D01*
X224040644Y-110218310D01*
X223945998Y-110054378D01*
X223819335Y-109913705D01*
X223666195Y-109802443D01*
X223493267Y-109725450D01*
X223308113Y-109686095D01*
X223308111Y-109686095D01*
X223118819Y-109686095D01*
X223118817Y-109686095D01*
X222933662Y-109725450D01*
X222760734Y-109802443D01*
X222611569Y-109910818D01*
X222545763Y-109934298D01*
X222538684Y-109934500D01*
X215075226Y-109934500D01*
X215008187Y-109914815D01*
X214973651Y-109881623D01*
X214838495Y-109688599D01*
X214716568Y-109566672D01*
X214683084Y-109505350D01*
X214688068Y-109435658D01*
X214729940Y-109379725D01*
X214760915Y-109362810D01*
X214892331Y-109313796D01*
X215007546Y-109227546D01*
X215093796Y-109112331D01*
X215144091Y-108977483D01*
X215150500Y-108917873D01*
X215150500Y-108769499D01*
X215170185Y-108702461D01*
X215222989Y-108656706D01*
X215274500Y-108645500D01*
X224395948Y-108645500D01*
X224462987Y-108665185D01*
X224483629Y-108681819D01*
X226327127Y-110525318D01*
X226360612Y-110586641D01*
X226362767Y-110600037D01*
X226380415Y-110767946D01*
X226438909Y-110947973D01*
X226533555Y-111111905D01*
X226660218Y-111252578D01*
X226813358Y-111363840D01*
X226986286Y-111440833D01*
X227171441Y-111480189D01*
X227171443Y-111480189D01*
X227360737Y-111480189D01*
X227484173Y-111453951D01*
X227545892Y-111440833D01*
X227718819Y-111363840D01*
X227718819Y-111363839D01*
X227871959Y-111252578D01*
X227998622Y-111111905D01*
X228093268Y-110947973D01*
X228093268Y-110947972D01*
X228151763Y-110767945D01*
X228171549Y-110579689D01*
X228151763Y-110391433D01*
X228093268Y-110211405D01*
X228093268Y-110211404D01*
X227998622Y-110047472D01*
X227871959Y-109906799D01*
X227718819Y-109795537D01*
X227545891Y-109718544D01*
X227360737Y-109679189D01*
X227360735Y-109679189D01*
X227301541Y-109679189D01*
X227234502Y-109659504D01*
X227213860Y-109642870D01*
X226216490Y-108645500D01*
X225207202Y-107636211D01*
X225194306Y-107620113D01*
X225143175Y-107572098D01*
X225140378Y-107569387D01*
X225123627Y-107552636D01*
X225120871Y-107549880D01*
X225117690Y-107547412D01*
X225108822Y-107539837D01*
X225076982Y-107509938D01*
X225059424Y-107500285D01*
X225043164Y-107489604D01*
X225027336Y-107477327D01*
X224987251Y-107459980D01*
X224976761Y-107454841D01*
X224938491Y-107433802D01*
X224919091Y-107428821D01*
X224900684Y-107422519D01*
X224882297Y-107414562D01*
X224839158Y-107407729D01*
X224827724Y-107405361D01*
X224785419Y-107394500D01*
X224765384Y-107394500D01*
X224745986Y-107392973D01*
X224738562Y-107391797D01*
X224726205Y-107389840D01*
X224726204Y-107389840D01*
X224693151Y-107392964D01*
X224682725Y-107393950D01*
X224671056Y-107394500D01*
X215274499Y-107394500D01*
X215207460Y-107374815D01*
X215161705Y-107322011D01*
X215150499Y-107270500D01*
X215150499Y-107125439D01*
X215150499Y-107125438D01*
X215150499Y-107122128D01*
X215144091Y-107062517D01*
X215093796Y-106927669D01*
X215007546Y-106812454D01*
X214892331Y-106726204D01*
X214757483Y-106675909D01*
X214697873Y-106669500D01*
X214694550Y-106669500D01*
X212905439Y-106669500D01*
X212905420Y-106669500D01*
X212902128Y-106669501D01*
X212898848Y-106669853D01*
X212898840Y-106669854D01*
X212842515Y-106675909D01*
X212707669Y-106726204D01*
X212592454Y-106812454D01*
X212506204Y-106927668D01*
X212455910Y-107062515D01*
X212455909Y-107062517D01*
X212449500Y-107122127D01*
X212449500Y-107125448D01*
X212449500Y-107125449D01*
X212449500Y-108914560D01*
X212449500Y-108914578D01*
X212449501Y-108917872D01*
X212455909Y-108977483D01*
X212506204Y-109112331D01*
X212592454Y-109227546D01*
X212707669Y-109313796D01*
X212819907Y-109355658D01*
X212839082Y-109362810D01*
X212895016Y-109404681D01*
X212919433Y-109470146D01*
X212904581Y-109538419D01*
X212883431Y-109566673D01*
X212761503Y-109688601D01*
X212625965Y-109882170D01*
X212526097Y-110096336D01*
X212464936Y-110324592D01*
X212444340Y-110560000D01*
X212464936Y-110795407D01*
X212505816Y-110947973D01*
X212526097Y-111023663D01*
X212625965Y-111237830D01*
X212761505Y-111431401D01*
X212928599Y-111598495D01*
X213114160Y-111728426D01*
X213157783Y-111783002D01*
X213164976Y-111852501D01*
X213133454Y-111914855D01*
X213114159Y-111931575D01*
X212928595Y-112061508D01*
X212761505Y-112228598D01*
X212625965Y-112422170D01*
X212526097Y-112636336D01*
X212464936Y-112864592D01*
X212444340Y-113099999D01*
X212464936Y-113335407D01*
X212509709Y-113502501D01*
X212526097Y-113563663D01*
X212625965Y-113777830D01*
X212761505Y-113971401D01*
X212928599Y-114138495D01*
X213114160Y-114268426D01*
X213157783Y-114323002D01*
X213164976Y-114392501D01*
X213133454Y-114454855D01*
X213114159Y-114471575D01*
X212928595Y-114601508D01*
X212761505Y-114768598D01*
X212625965Y-114962170D01*
X212526097Y-115176336D01*
X212464936Y-115404592D01*
X212444340Y-115639999D01*
X206950500Y-115639999D01*
X206950500Y-103704066D01*
X206950765Y-103695956D01*
X206959224Y-103566894D01*
X206965364Y-103473207D01*
X206967479Y-103457153D01*
X207010230Y-103242226D01*
X207014428Y-103226561D01*
X207076349Y-103044148D01*
X207084868Y-103019049D01*
X207091067Y-103004083D01*
X207187995Y-102807533D01*
X207196098Y-102793498D01*
X207317853Y-102611279D01*
X207327710Y-102598433D01*
X207472207Y-102433665D01*
X207483665Y-102422207D01*
X207648433Y-102277710D01*
X207661279Y-102267853D01*
X207843498Y-102146098D01*
X207857533Y-102137995D01*
X208054083Y-102041067D01*
X208069049Y-102034868D01*
X208275945Y-101964637D01*
X208276561Y-101964428D01*
X208292228Y-101960230D01*
X208507153Y-101917479D01*
X208523209Y-101915364D01*
X208728058Y-101901938D01*
X208745958Y-101900765D01*
X208754067Y-101900500D01*
X208789882Y-101900500D01*
X233571004Y-101900500D01*
X233638043Y-101920185D01*
G37*
%TD.AperFunction*%
%TD*%
M02*
