%TF.GenerationSoftware,KiCad,Pcbnew,7.0.2*%
%TF.CreationDate,2023-08-24T09:06:10+02:00*%
%TF.ProjectId,LightSensor,4c696768-7453-4656-9e73-6f722e6b6963,rev?*%
%TF.SameCoordinates,Original*%
%TF.FileFunction,Copper,L1,Top*%
%TF.FilePolarity,Positive*%
%FSLAX46Y46*%
G04 Gerber Fmt 4.6, Leading zero omitted, Abs format (unit mm)*
G04 Created by KiCad (PCBNEW 7.0.2) date 2023-08-24 09:06:10*
%MOMM*%
%LPD*%
G01*
G04 APERTURE LIST*
G04 Aperture macros list*
%AMRoundRect*
0 Rectangle with rounded corners*
0 $1 Rounding radius*
0 $2 $3 $4 $5 $6 $7 $8 $9 X,Y pos of 4 corners*
0 Add a 4 corners polygon primitive as box body*
4,1,4,$2,$3,$4,$5,$6,$7,$8,$9,$2,$3,0*
0 Add four circle primitives for the rounded corners*
1,1,$1+$1,$2,$3*
1,1,$1+$1,$4,$5*
1,1,$1+$1,$6,$7*
1,1,$1+$1,$8,$9*
0 Add four rect primitives between the rounded corners*
20,1,$1+$1,$2,$3,$4,$5,0*
20,1,$1+$1,$4,$5,$6,$7,0*
20,1,$1+$1,$6,$7,$8,$9,0*
20,1,$1+$1,$8,$9,$2,$3,0*%
G04 Aperture macros list end*
%TA.AperFunction,ComponentPad*%
%ADD10R,1.700000X1.700000*%
%TD*%
%TA.AperFunction,ComponentPad*%
%ADD11O,1.700000X1.700000*%
%TD*%
%TA.AperFunction,SMDPad,CuDef*%
%ADD12RoundRect,0.093750X-0.093750X-0.106250X0.093750X-0.106250X0.093750X0.106250X-0.093750X0.106250X0*%
%TD*%
%TA.AperFunction,SMDPad,CuDef*%
%ADD13R,1.000000X1.600000*%
%TD*%
%TA.AperFunction,SMDPad,CuDef*%
%ADD14RoundRect,0.200000X-0.200000X-0.275000X0.200000X-0.275000X0.200000X0.275000X-0.200000X0.275000X0*%
%TD*%
%TA.AperFunction,SMDPad,CuDef*%
%ADD15O,0.900000X0.392000*%
%TD*%
%TA.AperFunction,SMDPad,CuDef*%
%ADD16O,1.000000X0.392000*%
%TD*%
%TA.AperFunction,SMDPad,CuDef*%
%ADD17RoundRect,0.225000X0.225000X0.250000X-0.225000X0.250000X-0.225000X-0.250000X0.225000X-0.250000X0*%
%TD*%
%TA.AperFunction,SMDPad,CuDef*%
%ADD18RoundRect,0.225000X0.250000X-0.225000X0.250000X0.225000X-0.250000X0.225000X-0.250000X-0.225000X0*%
%TD*%
%TA.AperFunction,ViaPad*%
%ADD19C,3.000000*%
%TD*%
%TA.AperFunction,ViaPad*%
%ADD20C,0.800000*%
%TD*%
%TA.AperFunction,Conductor*%
%ADD21C,0.250000*%
%TD*%
G04 APERTURE END LIST*
D10*
%TO.P,J1,1,Pin_1*%
%TO.N,/SDA*%
X213800000Y-108020000D03*
D11*
%TO.P,J1,2,Pin_2*%
%TO.N,/SCL*%
X213800000Y-110560000D03*
%TO.P,J1,3,Pin_3*%
%TO.N,/ALERT*%
X213800000Y-113100000D03*
%TO.P,J1,4,Pin_4*%
%TO.N,/+3.3V*%
X213800000Y-115640000D03*
%TO.P,J1,5,Pin_5*%
%TO.N,GND*%
X213800000Y-118180000D03*
%TD*%
D12*
%TO.P,U2,1,SCL*%
%TO.N,/SCL*%
X225491089Y-112857484D03*
%TO.P,U2,2,GND*%
%TO.N,GND*%
X225491089Y-113507484D03*
%TO.P,U2,3,ALERT*%
%TO.N,/ALERT*%
X225491089Y-114157484D03*
%TO.P,U2,4,ADD0*%
%TO.N,GND*%
X227266089Y-114157484D03*
%TO.P,U2,5,V+*%
%TO.N,/+3.3V*%
X227266089Y-113507484D03*
%TO.P,U2,6,SDA*%
%TO.N,/SDA*%
X227266089Y-112857484D03*
D13*
%TO.P,U2,7*%
%TO.N,N/C*%
X226378589Y-113507484D03*
%TD*%
D14*
%TO.P,R1,1*%
%TO.N,/+3.3V*%
X208975000Y-113100000D03*
%TO.P,R1,2*%
%TO.N,/ALERT*%
X210625000Y-113100000D03*
%TD*%
D15*
%TO.P,U1,1,GND*%
%TO.N,GND*%
X222754377Y-113549163D03*
%TO.P,U1,2,SDA*%
%TO.N,/SDA*%
X222754377Y-112849163D03*
D16*
%TO.P,U1,3,SCL*%
%TO.N,/SCL*%
X220813377Y-112849163D03*
D15*
%TO.P,U1,4,VDD*%
%TO.N,/+3.3V*%
X220763377Y-113549163D03*
%TD*%
D17*
%TO.P,C2,1*%
%TO.N,GND*%
X230790872Y-113508101D03*
%TO.P,C2,2*%
%TO.N,/+3.3V*%
X229240872Y-113508101D03*
%TD*%
D14*
%TO.P,R2,1*%
%TO.N,/+3.3V*%
X208975220Y-110567066D03*
%TO.P,R2,2*%
%TO.N,/SCL*%
X210625220Y-110567066D03*
%TD*%
D18*
%TO.P,C1,1*%
%TO.N,GND*%
X220731490Y-117215187D03*
%TO.P,C1,2*%
%TO.N,/+3.3V*%
X220731490Y-115665187D03*
%TD*%
D14*
%TO.P,R3,1*%
%TO.N,/+3.3V*%
X208975000Y-108072421D03*
%TO.P,R3,2*%
%TO.N,/SDA*%
X210625000Y-108072421D03*
%TD*%
D19*
%TO.N,*%
X235000000Y-122600000D03*
X235000000Y-103600000D03*
D20*
%TO.N,GND*%
X224250000Y-113500000D03*
X227266089Y-115466483D03*
%TO.N,/+3.3V*%
X229238530Y-116257066D03*
%TO.N,/SCL*%
X223213465Y-110586595D03*
%TO.N,/SDA*%
X227266089Y-110579689D03*
%TO.N,/ALERT*%
X218600000Y-114500000D03*
X224512669Y-115140087D03*
%TD*%
D21*
%TO.N,GND*%
X227266089Y-115466483D02*
X227266089Y-114157484D01*
X225483605Y-113500000D02*
X225491089Y-113507484D01*
X224250000Y-113500000D02*
X225483605Y-113500000D01*
%TO.N,/+3.3V*%
X229240255Y-113507484D02*
X229240872Y-113508101D01*
X220763377Y-113549163D02*
X220763377Y-115622783D01*
X229238530Y-113510443D02*
X229240872Y-113508101D01*
X208975000Y-108040305D02*
X208975000Y-113100000D01*
X227266089Y-113507484D02*
X229240255Y-113507484D01*
X220746160Y-115640000D02*
X213800000Y-115640000D01*
X211515000Y-115640000D02*
X208975000Y-113100000D01*
X213800000Y-115640000D02*
X211515000Y-115640000D01*
X229238530Y-116257066D02*
X229238530Y-113510443D01*
%TO.N,/SCL*%
X225491089Y-112857484D02*
X225484354Y-112857484D01*
X220813377Y-112849163D02*
X216089163Y-112849163D01*
X225484354Y-112857484D02*
X223213465Y-110586595D01*
X210632286Y-110560000D02*
X213800000Y-110560000D01*
X210625220Y-110567066D02*
X210632286Y-110560000D01*
X216089163Y-112849163D02*
X213800000Y-110560000D01*
X221063572Y-112849163D02*
X218593783Y-112849163D01*
%TO.N,/SDA*%
X210625000Y-108072421D02*
X210637421Y-108060000D01*
X218770000Y-108020000D02*
X213800000Y-108020000D01*
X210645305Y-108020000D02*
X213800000Y-108020000D01*
X227266089Y-110579689D02*
X227266089Y-112857484D01*
X210625000Y-108040305D02*
X210645305Y-108020000D01*
X222754377Y-112004377D02*
X218770000Y-108020000D01*
X222754377Y-112849163D02*
X222754377Y-112004377D01*
%TO.N,/ALERT*%
X225491089Y-114161667D02*
X225491089Y-114157484D01*
X215200000Y-114500000D02*
X213800000Y-113100000D01*
X210625000Y-113100000D02*
X213800000Y-113100000D01*
X218600000Y-114500000D02*
X215200000Y-114500000D01*
X224512669Y-115140087D02*
X225491089Y-114161667D01*
%TD*%
%TA.AperFunction,Conductor*%
%TO.N,GND*%
G36*
X233638043Y-101920185D02*
G01*
X233683798Y-101972989D01*
X233693742Y-102042147D01*
X233664717Y-102105703D01*
X233658685Y-102112181D01*
X233484263Y-102286602D01*
X233312772Y-102515686D01*
X233175634Y-102766836D01*
X233075629Y-103034958D01*
X233014804Y-103314570D01*
X232994389Y-103600000D01*
X233014804Y-103885429D01*
X233075629Y-104165041D01*
X233175634Y-104433163D01*
X233312772Y-104684313D01*
X233398517Y-104798854D01*
X233484261Y-104913395D01*
X233686605Y-105115739D01*
X233858415Y-105244354D01*
X233915686Y-105287227D01*
X234055435Y-105363535D01*
X234166839Y-105424367D01*
X234434954Y-105524369D01*
X234434957Y-105524369D01*
X234434958Y-105524370D01*
X234487217Y-105535738D01*
X234714572Y-105585196D01*
X235000000Y-105605610D01*
X235285428Y-105585196D01*
X235565046Y-105524369D01*
X235833161Y-105424367D01*
X236084315Y-105287226D01*
X236313395Y-105115739D01*
X236515739Y-104913395D01*
X236687226Y-104684315D01*
X236816669Y-104447257D01*
X236866073Y-104397854D01*
X236934346Y-104383002D01*
X236999810Y-104407419D01*
X237041682Y-104463352D01*
X237049500Y-104506686D01*
X237049500Y-121693313D01*
X237029815Y-121760352D01*
X236977011Y-121806107D01*
X236907853Y-121816051D01*
X236844297Y-121787026D01*
X236816668Y-121752740D01*
X236784218Y-121693313D01*
X236687226Y-121515685D01*
X236515739Y-121286605D01*
X236313395Y-121084261D01*
X236198854Y-120998517D01*
X236084313Y-120912772D01*
X235833163Y-120775634D01*
X235833162Y-120775633D01*
X235833161Y-120775633D01*
X235565046Y-120675631D01*
X235565041Y-120675629D01*
X235285429Y-120614804D01*
X235000000Y-120594389D01*
X234714570Y-120614804D01*
X234434958Y-120675629D01*
X234166836Y-120775634D01*
X233915686Y-120912772D01*
X233686602Y-121084263D01*
X233484263Y-121286602D01*
X233312772Y-121515686D01*
X233175634Y-121766836D01*
X233075629Y-122034958D01*
X233014804Y-122314570D01*
X232994389Y-122600000D01*
X233014804Y-122885429D01*
X233075629Y-123165041D01*
X233175634Y-123433163D01*
X233312772Y-123684313D01*
X233390922Y-123788708D01*
X233484261Y-123913395D01*
X233686605Y-124115739D01*
X233871163Y-124253897D01*
X233901000Y-124276233D01*
X233942871Y-124332167D01*
X233947855Y-124401858D01*
X233914370Y-124463181D01*
X233853047Y-124496666D01*
X233826689Y-124499500D01*
X208754067Y-124499500D01*
X208745957Y-124499235D01*
X208523221Y-124484636D01*
X208507140Y-124482518D01*
X208292228Y-124439769D01*
X208276561Y-124435571D01*
X208069057Y-124365133D01*
X208054071Y-124358926D01*
X207857539Y-124262007D01*
X207843492Y-124253897D01*
X207661291Y-124132154D01*
X207648423Y-124122280D01*
X207640964Y-124115739D01*
X207483671Y-123977797D01*
X207472202Y-123966328D01*
X207419730Y-123906495D01*
X207327716Y-123801573D01*
X207317845Y-123788708D01*
X207248090Y-123684313D01*
X207196102Y-123606507D01*
X207187992Y-123592460D01*
X207185196Y-123586791D01*
X207091070Y-123395921D01*
X207084866Y-123380942D01*
X207014428Y-123173438D01*
X207010230Y-123157771D01*
X206998217Y-123097376D01*
X206967479Y-122942848D01*
X206965364Y-122926790D01*
X206950765Y-122704043D01*
X206950500Y-122695933D01*
X206950500Y-113431616D01*
X208074500Y-113431616D01*
X208074754Y-113434420D01*
X208074755Y-113434424D01*
X208080913Y-113502193D01*
X208080914Y-113502196D01*
X208131522Y-113664606D01*
X208140747Y-113679866D01*
X208219528Y-113810186D01*
X208339813Y-113930471D01*
X208339815Y-113930472D01*
X208485394Y-114018478D01*
X208647804Y-114069086D01*
X208718384Y-114075500D01*
X209014548Y-114075500D01*
X209081587Y-114095185D01*
X209102229Y-114111819D01*
X211014196Y-116023787D01*
X211027096Y-116039888D01*
X211078223Y-116087900D01*
X211081020Y-116090611D01*
X211100529Y-116110120D01*
X211103709Y-116112587D01*
X211112571Y-116120155D01*
X211144417Y-116150061D01*
X211144418Y-116150062D01*
X211161970Y-116159711D01*
X211178238Y-116170397D01*
X211194064Y-116182673D01*
X211234146Y-116200017D01*
X211244633Y-116205155D01*
X211282907Y-116226197D01*
X211291410Y-116228379D01*
X211302308Y-116231178D01*
X211320713Y-116237478D01*
X211339104Y-116245437D01*
X211382250Y-116252270D01*
X211393668Y-116254635D01*
X211435981Y-116265500D01*
X211456016Y-116265500D01*
X211475415Y-116267027D01*
X211495196Y-116270160D01*
X211538674Y-116266050D01*
X211550344Y-116265500D01*
X212524773Y-116265500D01*
X212591812Y-116285185D01*
X212626345Y-116318373D01*
X212761505Y-116511401D01*
X212928599Y-116678495D01*
X213114596Y-116808732D01*
X213158219Y-116863307D01*
X213165412Y-116932806D01*
X213133890Y-116995160D01*
X213114595Y-117011880D01*
X212928919Y-117141892D01*
X212761890Y-117308921D01*
X212626400Y-117502421D01*
X212526569Y-117716507D01*
X212469364Y-117929999D01*
X212469364Y-117930000D01*
X213366314Y-117930000D01*
X213340507Y-117970156D01*
X213300000Y-118108111D01*
X213300000Y-118251889D01*
X213340507Y-118389844D01*
X213366314Y-118430000D01*
X212469364Y-118430000D01*
X212526569Y-118643492D01*
X212626399Y-118857576D01*
X212761893Y-119051081D01*
X212928918Y-119218106D01*
X213122423Y-119353600D01*
X213336509Y-119453430D01*
X213550000Y-119510634D01*
X213550000Y-118615501D01*
X213657685Y-118664680D01*
X213764237Y-118680000D01*
X213835763Y-118680000D01*
X213942315Y-118664680D01*
X214050000Y-118615501D01*
X214050000Y-119510633D01*
X214263490Y-119453430D01*
X214477576Y-119353600D01*
X214671081Y-119218106D01*
X214838106Y-119051081D01*
X214973600Y-118857576D01*
X215073430Y-118643492D01*
X215130636Y-118430000D01*
X214233686Y-118430000D01*
X214259493Y-118389844D01*
X214300000Y-118251889D01*
X214300000Y-118108111D01*
X214259493Y-117970156D01*
X214233686Y-117930000D01*
X215130636Y-117930000D01*
X215130635Y-117929999D01*
X215073430Y-117716507D01*
X214973599Y-117502421D01*
X214947528Y-117465187D01*
X219756491Y-117465187D01*
X219756491Y-117485352D01*
X219756811Y-117491634D01*
X219766633Y-117587792D01*
X219819943Y-117748673D01*
X219908916Y-117892919D01*
X220028757Y-118012760D01*
X220173003Y-118101733D01*
X220333883Y-118155043D01*
X220430025Y-118164865D01*
X220436342Y-118165186D01*
X220481489Y-118165186D01*
X220481490Y-118165185D01*
X220481490Y-117465187D01*
X220981490Y-117465187D01*
X220981490Y-118165186D01*
X221026655Y-118165186D01*
X221032937Y-118164865D01*
X221129095Y-118155043D01*
X221289976Y-118101733D01*
X221434222Y-118012760D01*
X221554063Y-117892919D01*
X221643036Y-117748673D01*
X221696346Y-117587793D01*
X221706170Y-117491632D01*
X221706490Y-117485354D01*
X221706490Y-117465187D01*
X220981490Y-117465187D01*
X220481490Y-117465187D01*
X219756491Y-117465187D01*
X214947528Y-117465187D01*
X214838109Y-117308921D01*
X214671081Y-117141893D01*
X214485404Y-117011880D01*
X214441780Y-116957303D01*
X214434587Y-116887804D01*
X214466109Y-116825450D01*
X214485399Y-116808734D01*
X214671401Y-116678495D01*
X214838495Y-116511401D01*
X214973653Y-116318374D01*
X215028229Y-116274752D01*
X215075227Y-116265500D01*
X219791370Y-116265500D01*
X219858409Y-116285185D01*
X219896909Y-116324403D01*
X219908523Y-116343233D01*
X219918149Y-116352859D01*
X219951634Y-116414182D01*
X219946650Y-116483874D01*
X219918151Y-116528219D01*
X219908916Y-116537453D01*
X219819943Y-116681700D01*
X219766633Y-116842580D01*
X219756809Y-116938741D01*
X219756490Y-116945019D01*
X219756490Y-116965187D01*
X221706489Y-116965187D01*
X221706489Y-116945021D01*
X221706168Y-116938739D01*
X221696346Y-116842581D01*
X221643036Y-116681700D01*
X221554064Y-116537456D01*
X221544831Y-116528223D01*
X221511344Y-116466901D01*
X221516327Y-116397209D01*
X221544829Y-116352859D01*
X221554458Y-116343231D01*
X221643493Y-116198884D01*
X221696839Y-116037895D01*
X221706990Y-115938532D01*
X221706989Y-115391843D01*
X221696839Y-115292479D01*
X221643493Y-115131490D01*
X221643492Y-115131489D01*
X221643492Y-115131487D01*
X221554458Y-114987142D01*
X221425196Y-114857880D01*
X221391711Y-114796557D01*
X221388877Y-114770199D01*
X221388877Y-114204125D01*
X221408562Y-114137086D01*
X221442435Y-114102076D01*
X221482634Y-114074330D01*
X221594796Y-113947726D01*
X221649362Y-113843757D01*
X221697946Y-113793545D01*
X221765965Y-113777570D01*
X221831823Y-113800905D01*
X221868955Y-113843757D01*
X221923372Y-113947439D01*
X222035452Y-114073952D01*
X222174553Y-114169967D01*
X222332589Y-114229901D01*
X222454555Y-114244711D01*
X222462025Y-114245163D01*
X222558376Y-114245163D01*
X222558377Y-113669663D01*
X222578062Y-113602624D01*
X222630866Y-113556869D01*
X222682377Y-113545663D01*
X222850515Y-113545663D01*
X222917554Y-113565348D01*
X222963309Y-113618152D01*
X222973253Y-113687310D01*
X222950377Y-113737401D01*
X222950377Y-114245163D01*
X223046729Y-114245163D01*
X223054198Y-114244711D01*
X223176164Y-114229901D01*
X223334200Y-114169967D01*
X223473301Y-114073952D01*
X223585379Y-113947442D01*
X223663928Y-113797779D01*
X223676897Y-113745163D01*
X223286624Y-113745163D01*
X223219585Y-113725478D01*
X223173830Y-113672674D01*
X223163886Y-113603516D01*
X223192911Y-113539960D01*
X223242653Y-113505221D01*
X223334434Y-113470413D01*
X223472500Y-113375113D01*
X223538854Y-113353230D01*
X223542940Y-113353163D01*
X223676897Y-113353163D01*
X223663928Y-113300544D01*
X223641245Y-113257325D01*
X223627521Y-113188817D01*
X223641246Y-113142074D01*
X223657370Y-113111352D01*
X223664399Y-113097959D01*
X223704877Y-112933733D01*
X223704877Y-112764593D01*
X223694689Y-112723260D01*
X223664399Y-112600366D01*
X223625097Y-112525483D01*
X223585796Y-112450600D01*
X223473634Y-112323996D01*
X223473633Y-112323995D01*
X223433435Y-112296248D01*
X223389446Y-112241965D01*
X223379877Y-112194199D01*
X223379877Y-112087120D01*
X223382141Y-112066616D01*
X223381980Y-112061505D01*
X223379938Y-111996503D01*
X223379877Y-111992608D01*
X223379877Y-111968917D01*
X223379877Y-111965027D01*
X223379375Y-111961054D01*
X223378457Y-111949394D01*
X223378132Y-111939045D01*
X223395703Y-111871421D01*
X223447044Y-111824031D01*
X223515857Y-111811922D01*
X223580292Y-111838937D01*
X223589749Y-111847469D01*
X224192879Y-112450600D01*
X224782137Y-113039858D01*
X224815622Y-113101181D01*
X224817395Y-113111352D01*
X224818384Y-113118864D01*
X224825352Y-113135687D01*
X224832819Y-113205157D01*
X224825353Y-113230587D01*
X224818872Y-113246234D01*
X224809163Y-113319983D01*
X224809164Y-113319984D01*
X224860513Y-113319984D01*
X224927552Y-113339669D01*
X224958888Y-113368497D01*
X224973513Y-113387556D01*
X224973515Y-113387558D01*
X224988176Y-113398808D01*
X225001600Y-113409109D01*
X225042802Y-113465537D01*
X225046956Y-113535283D01*
X225012743Y-113596203D01*
X225001600Y-113605859D01*
X224973513Y-113627411D01*
X224958888Y-113646471D01*
X224902460Y-113687673D01*
X224860513Y-113694984D01*
X224809163Y-113694984D01*
X224818872Y-113768734D01*
X224825352Y-113784379D01*
X224832819Y-113853848D01*
X224825352Y-113879278D01*
X224818384Y-113896100D01*
X224815739Y-113916190D01*
X224787470Y-113980086D01*
X224780482Y-113987682D01*
X224564895Y-114203269D01*
X224503575Y-114236753D01*
X224477216Y-114239587D01*
X224418021Y-114239587D01*
X224232866Y-114278942D01*
X224059938Y-114355935D01*
X223906798Y-114467197D01*
X223780135Y-114607870D01*
X223685489Y-114771802D01*
X223626995Y-114951829D01*
X223607209Y-115140087D01*
X223626995Y-115328344D01*
X223685489Y-115508371D01*
X223780135Y-115672303D01*
X223906798Y-115812976D01*
X224059938Y-115924238D01*
X224232866Y-116001231D01*
X224418021Y-116040587D01*
X224418023Y-116040587D01*
X224607317Y-116040587D01*
X224730752Y-116014349D01*
X224792472Y-116001231D01*
X224965399Y-115924238D01*
X225118540Y-115812975D01*
X225245202Y-115672303D01*
X225339848Y-115508371D01*
X225398343Y-115328343D01*
X225415990Y-115160431D01*
X225442573Y-115095821D01*
X225451620Y-115085725D01*
X225658025Y-114879320D01*
X225719346Y-114845837D01*
X225729509Y-114844065D01*
X225739969Y-114842689D01*
X225800966Y-114817422D01*
X225848414Y-114807983D01*
X226910064Y-114807983D01*
X226957517Y-114817422D01*
X227017340Y-114842202D01*
X227078587Y-114850264D01*
X227078589Y-114850263D01*
X227078589Y-114845038D01*
X227098274Y-114777999D01*
X227128275Y-114745773D01*
X227236135Y-114665030D01*
X227236135Y-114665029D01*
X227250407Y-114654346D01*
X227252044Y-114656533D01*
X227286255Y-114630925D01*
X227355946Y-114625940D01*
X227417270Y-114659424D01*
X227450755Y-114720747D01*
X227453589Y-114747106D01*
X227453589Y-114850263D01*
X227453590Y-114850264D01*
X227514837Y-114842202D01*
X227659274Y-114782373D01*
X227783305Y-114687200D01*
X227878478Y-114563169D01*
X227938305Y-114418733D01*
X227953059Y-114306667D01*
X227953589Y-114298592D01*
X227953589Y-114256984D01*
X227973274Y-114189945D01*
X228026078Y-114144190D01*
X228077589Y-114132984D01*
X228325487Y-114132984D01*
X228392526Y-114152669D01*
X228431024Y-114191885D01*
X228442904Y-114211145D01*
X228510701Y-114278942D01*
X228573077Y-114341318D01*
X228570494Y-114343900D01*
X228600850Y-114377648D01*
X228613030Y-114431241D01*
X228613030Y-115558378D01*
X228593345Y-115625417D01*
X228581180Y-115641350D01*
X228505996Y-115724849D01*
X228411350Y-115888781D01*
X228352856Y-116068808D01*
X228333070Y-116257066D01*
X228352856Y-116445323D01*
X228411350Y-116625350D01*
X228505996Y-116789282D01*
X228632659Y-116929955D01*
X228785799Y-117041217D01*
X228958727Y-117118210D01*
X229143882Y-117157566D01*
X229143884Y-117157566D01*
X229333178Y-117157566D01*
X229456613Y-117131328D01*
X229518333Y-117118210D01*
X229691260Y-117041217D01*
X229731639Y-117011880D01*
X229844400Y-116929955D01*
X229971063Y-116789282D01*
X230065709Y-116625350D01*
X230089480Y-116552190D01*
X230124204Y-116445322D01*
X230143990Y-116257066D01*
X230124204Y-116068810D01*
X230080851Y-115935383D01*
X230065709Y-115888781D01*
X229971063Y-115724849D01*
X229895880Y-115641350D01*
X229865650Y-115578359D01*
X229864030Y-115558378D01*
X229864030Y-114434130D01*
X229883715Y-114367091D01*
X229909310Y-114341964D01*
X229908666Y-114341320D01*
X229928542Y-114321443D01*
X229989864Y-114287956D01*
X230059556Y-114292939D01*
X230103906Y-114321441D01*
X230113139Y-114330674D01*
X230257385Y-114419647D01*
X230418265Y-114472957D01*
X230514408Y-114482779D01*
X230520723Y-114483100D01*
X230540872Y-114483100D01*
X230540872Y-113758101D01*
X231040872Y-113758101D01*
X231040872Y-114483100D01*
X231061037Y-114483100D01*
X231067319Y-114482779D01*
X231163477Y-114472957D01*
X231324358Y-114419647D01*
X231468604Y-114330674D01*
X231588445Y-114210833D01*
X231677418Y-114066587D01*
X231730728Y-113905707D01*
X231740552Y-113809546D01*
X231740872Y-113803268D01*
X231740872Y-113758101D01*
X231040872Y-113758101D01*
X230540872Y-113758101D01*
X230540872Y-112533101D01*
X231040872Y-112533101D01*
X231040872Y-113258101D01*
X231740871Y-113258101D01*
X231740871Y-113212935D01*
X231740550Y-113206653D01*
X231730728Y-113110495D01*
X231677418Y-112949614D01*
X231588445Y-112805368D01*
X231468604Y-112685527D01*
X231324358Y-112596554D01*
X231163478Y-112543244D01*
X231067317Y-112533420D01*
X231061040Y-112533101D01*
X231040872Y-112533101D01*
X230540872Y-112533101D01*
X230520708Y-112533101D01*
X230514422Y-112533422D01*
X230418266Y-112543244D01*
X230257385Y-112596554D01*
X230113138Y-112685527D01*
X230103904Y-112694762D01*
X230042580Y-112728246D01*
X229972888Y-112723260D01*
X229928544Y-112694760D01*
X229918916Y-112685132D01*
X229774571Y-112596098D01*
X229613579Y-112542751D01*
X229517349Y-112532920D01*
X229517330Y-112532919D01*
X229514217Y-112532601D01*
X229511068Y-112532601D01*
X228970677Y-112532601D01*
X228970657Y-112532601D01*
X228967528Y-112532602D01*
X228964396Y-112532921D01*
X228964394Y-112532922D01*
X228868164Y-112542751D01*
X228707172Y-112596098D01*
X228562830Y-112685130D01*
X228442902Y-112805059D01*
X228431785Y-112823083D01*
X228379837Y-112869806D01*
X228326248Y-112881984D01*
X228078089Y-112881984D01*
X228011050Y-112862299D01*
X227965295Y-112809495D01*
X227954089Y-112757984D01*
X227954089Y-112716335D01*
X227954089Y-112716334D01*
X227954089Y-112712282D01*
X227938794Y-112596104D01*
X227901027Y-112504927D01*
X227891589Y-112457476D01*
X227891589Y-111278376D01*
X227911274Y-111211337D01*
X227923439Y-111195403D01*
X227932356Y-111185500D01*
X227998622Y-111111905D01*
X228093268Y-110947973D01*
X228151763Y-110767945D01*
X228171549Y-110579689D01*
X228151763Y-110391433D01*
X228093268Y-110211405D01*
X228093268Y-110211404D01*
X227998622Y-110047472D01*
X227871959Y-109906799D01*
X227718819Y-109795537D01*
X227545891Y-109718544D01*
X227360737Y-109679189D01*
X227360735Y-109679189D01*
X227171443Y-109679189D01*
X227171441Y-109679189D01*
X226986286Y-109718544D01*
X226813358Y-109795537D01*
X226660218Y-109906799D01*
X226533555Y-110047472D01*
X226438909Y-110211404D01*
X226380415Y-110391431D01*
X226360629Y-110579688D01*
X226380415Y-110767946D01*
X226438909Y-110947973D01*
X226533553Y-111111902D01*
X226533556Y-111111905D01*
X226578876Y-111162238D01*
X226608739Y-111195403D01*
X226638969Y-111258395D01*
X226640589Y-111278376D01*
X226640589Y-112082984D01*
X226620904Y-112150023D01*
X226568100Y-112195778D01*
X226516589Y-112206984D01*
X225848421Y-112206984D01*
X225800969Y-112197545D01*
X225739970Y-112172279D01*
X225716943Y-112169247D01*
X225653047Y-112140979D01*
X225645450Y-112133989D01*
X224152425Y-110640964D01*
X224118940Y-110579641D01*
X224116788Y-110566263D01*
X224099139Y-110398339D01*
X224040644Y-110218311D01*
X224040644Y-110218310D01*
X223945998Y-110054378D01*
X223819335Y-109913705D01*
X223666195Y-109802443D01*
X223493267Y-109725450D01*
X223308113Y-109686095D01*
X223308111Y-109686095D01*
X223118819Y-109686095D01*
X223118817Y-109686095D01*
X222933662Y-109725450D01*
X222760734Y-109802443D01*
X222607594Y-109913705D01*
X222480931Y-110054378D01*
X222386285Y-110218310D01*
X222327791Y-110398337D01*
X222327790Y-110398339D01*
X222327791Y-110398339D01*
X222326921Y-110406613D01*
X222300336Y-110471227D01*
X222243038Y-110511210D01*
X222173219Y-110513869D01*
X222115920Y-110481330D01*
X220746921Y-109112331D01*
X219270802Y-107636211D01*
X219257906Y-107620113D01*
X219206775Y-107572098D01*
X219203978Y-107569387D01*
X219187227Y-107552636D01*
X219184471Y-107549880D01*
X219181290Y-107547412D01*
X219172422Y-107539837D01*
X219140582Y-107509938D01*
X219123024Y-107500285D01*
X219106764Y-107489604D01*
X219090936Y-107477327D01*
X219050851Y-107459980D01*
X219040361Y-107454841D01*
X219002091Y-107433802D01*
X218982691Y-107428821D01*
X218964284Y-107422519D01*
X218945897Y-107414562D01*
X218902758Y-107407729D01*
X218891324Y-107405361D01*
X218849019Y-107394500D01*
X218828984Y-107394500D01*
X218809586Y-107392973D01*
X218802162Y-107391797D01*
X218789805Y-107389840D01*
X218789804Y-107389840D01*
X218756751Y-107392964D01*
X218746325Y-107393950D01*
X218734656Y-107394500D01*
X215274499Y-107394500D01*
X215207460Y-107374815D01*
X215161705Y-107322011D01*
X215150499Y-107270500D01*
X215150499Y-107125439D01*
X215150499Y-107125438D01*
X215150499Y-107122128D01*
X215144091Y-107062517D01*
X215093796Y-106927669D01*
X215007546Y-106812454D01*
X214892331Y-106726204D01*
X214757483Y-106675909D01*
X214697873Y-106669500D01*
X214694550Y-106669500D01*
X212905439Y-106669500D01*
X212905420Y-106669500D01*
X212902128Y-106669501D01*
X212898848Y-106669853D01*
X212898840Y-106669854D01*
X212842515Y-106675909D01*
X212707669Y-106726204D01*
X212592454Y-106812454D01*
X212506204Y-106927668D01*
X212455909Y-107062516D01*
X212451521Y-107103334D01*
X212449500Y-107122127D01*
X212449500Y-107125449D01*
X212449500Y-107270500D01*
X212429815Y-107337539D01*
X212377011Y-107383294D01*
X212325500Y-107394500D01*
X211464099Y-107394500D01*
X211397060Y-107374815D01*
X211376418Y-107358181D01*
X211260186Y-107241949D01*
X211172179Y-107188747D01*
X211114606Y-107153943D01*
X210952196Y-107103335D01*
X210952193Y-107103334D01*
X210884424Y-107097176D01*
X210884420Y-107097175D01*
X210881616Y-107096921D01*
X210368384Y-107096921D01*
X210365580Y-107097175D01*
X210365575Y-107097176D01*
X210297806Y-107103334D01*
X210237497Y-107122127D01*
X210135394Y-107153943D01*
X210135392Y-107153943D01*
X210135392Y-107153944D01*
X209989813Y-107241949D01*
X209887681Y-107344082D01*
X209826358Y-107377567D01*
X209756666Y-107372583D01*
X209712319Y-107344082D01*
X209610186Y-107241949D01*
X209522179Y-107188747D01*
X209464606Y-107153943D01*
X209302196Y-107103335D01*
X209302193Y-107103334D01*
X209234424Y-107097176D01*
X209234420Y-107097175D01*
X209231616Y-107096921D01*
X208718384Y-107096921D01*
X208715580Y-107097175D01*
X208715575Y-107097176D01*
X208647806Y-107103334D01*
X208587497Y-107122127D01*
X208485394Y-107153943D01*
X208485392Y-107153943D01*
X208485392Y-107153944D01*
X208339813Y-107241949D01*
X208219528Y-107362234D01*
X208142531Y-107489604D01*
X208131522Y-107507815D01*
X208112336Y-107569387D01*
X208080913Y-107670227D01*
X208074755Y-107737996D01*
X208074500Y-107740805D01*
X208074500Y-108404037D01*
X208074754Y-108406841D01*
X208074755Y-108406845D01*
X208080913Y-108474614D01*
X208080914Y-108474617D01*
X208131522Y-108637027D01*
X208219528Y-108782606D01*
X208313182Y-108876260D01*
X208346666Y-108937581D01*
X208349500Y-108963940D01*
X208349500Y-109675766D01*
X208329815Y-109742805D01*
X208313181Y-109763447D01*
X208219748Y-109856879D01*
X208131743Y-110002458D01*
X208081133Y-110164872D01*
X208074975Y-110232641D01*
X208074720Y-110235450D01*
X208074720Y-110898682D01*
X208074974Y-110901486D01*
X208074975Y-110901490D01*
X208081133Y-110969259D01*
X208081134Y-110969262D01*
X208131742Y-111131672D01*
X208219748Y-111277251D01*
X208313182Y-111370685D01*
X208346666Y-111432006D01*
X208349500Y-111458365D01*
X208349500Y-112208479D01*
X208329815Y-112275518D01*
X208313182Y-112296160D01*
X208219527Y-112389815D01*
X208133016Y-112532922D01*
X208131522Y-112535394D01*
X208129076Y-112543244D01*
X208080913Y-112697806D01*
X208074755Y-112765575D01*
X208074500Y-112768384D01*
X208074500Y-113431616D01*
X206950500Y-113431616D01*
X206950500Y-103704066D01*
X206950765Y-103695956D01*
X206959224Y-103566894D01*
X206965364Y-103473207D01*
X206967479Y-103457153D01*
X207010230Y-103242226D01*
X207014428Y-103226561D01*
X207076349Y-103044148D01*
X207084868Y-103019049D01*
X207091067Y-103004083D01*
X207187995Y-102807533D01*
X207196098Y-102793498D01*
X207317853Y-102611279D01*
X207327710Y-102598433D01*
X207472207Y-102433665D01*
X207483665Y-102422207D01*
X207648433Y-102277710D01*
X207661279Y-102267853D01*
X207843498Y-102146098D01*
X207857533Y-102137995D01*
X208054083Y-102041067D01*
X208069049Y-102034868D01*
X208275945Y-101964637D01*
X208276561Y-101964428D01*
X208292228Y-101960230D01*
X208507153Y-101917479D01*
X208523209Y-101915364D01*
X208728058Y-101901938D01*
X208745958Y-101900765D01*
X208754067Y-101900500D01*
X208789882Y-101900500D01*
X233571004Y-101900500D01*
X233638043Y-101920185D01*
G37*
%TD.AperFunction*%
%TD*%
M02*
