%TF.GenerationSoftware,KiCad,Pcbnew,7.0.2*%
%TF.CreationDate,2023-08-24T09:06:10+02:00*%
%TF.ProjectId,LightSensor,4c696768-7453-4656-9e73-6f722e6b6963,rev?*%
%TF.SameCoordinates,Original*%
%TF.FileFunction,Other,Comment*%
%FSLAX46Y46*%
G04 Gerber Fmt 4.6, Leading zero omitted, Abs format (unit mm)*
G04 Created by KiCad (PCBNEW 7.0.2) date 2023-08-24 09:06:10*
%MOMM*%
%LPD*%
G01*
G04 APERTURE LIST*
%ADD10C,0.150000*%
G04 APERTURE END LIST*
D10*
%TO.C,U1*%
X218754329Y-115594401D02*
X219563853Y-115594401D01*
X219563853Y-115594401D02*
X219659091Y-115642020D01*
X219659091Y-115642020D02*
X219706710Y-115689639D01*
X219706710Y-115689639D02*
X219754329Y-115784877D01*
X219754329Y-115784877D02*
X219754329Y-115927734D01*
X219754329Y-115927734D02*
X219706710Y-116022972D01*
X219373377Y-115594401D02*
X219420996Y-115689639D01*
X219420996Y-115689639D02*
X219420996Y-115880115D01*
X219420996Y-115880115D02*
X219373377Y-115975353D01*
X219373377Y-115975353D02*
X219325757Y-116022972D01*
X219325757Y-116022972D02*
X219230519Y-116070591D01*
X219230519Y-116070591D02*
X218944805Y-116070591D01*
X218944805Y-116070591D02*
X218849567Y-116022972D01*
X218849567Y-116022972D02*
X218801948Y-115975353D01*
X218801948Y-115975353D02*
X218754329Y-115880115D01*
X218754329Y-115880115D02*
X218754329Y-115689639D01*
X218754329Y-115689639D02*
X218801948Y-115594401D01*
X218754329Y-114689639D02*
X219563853Y-114689639D01*
X219563853Y-114689639D02*
X219659091Y-114737258D01*
X219659091Y-114737258D02*
X219706710Y-114784877D01*
X219706710Y-114784877D02*
X219754329Y-114880115D01*
X219754329Y-114880115D02*
X219754329Y-115022972D01*
X219754329Y-115022972D02*
X219706710Y-115118210D01*
X219373377Y-114689639D02*
X219420996Y-114784877D01*
X219420996Y-114784877D02*
X219420996Y-114975353D01*
X219420996Y-114975353D02*
X219373377Y-115070591D01*
X219373377Y-115070591D02*
X219325757Y-115118210D01*
X219325757Y-115118210D02*
X219230519Y-115165829D01*
X219230519Y-115165829D02*
X218944805Y-115165829D01*
X218944805Y-115165829D02*
X218849567Y-115118210D01*
X218849567Y-115118210D02*
X218801948Y-115070591D01*
X218801948Y-115070591D02*
X218754329Y-114975353D01*
X218754329Y-114975353D02*
X218754329Y-114784877D01*
X218754329Y-114784877D02*
X218801948Y-114689639D01*
X219373377Y-113832496D02*
X219420996Y-113927734D01*
X219420996Y-113927734D02*
X219420996Y-114118210D01*
X219420996Y-114118210D02*
X219373377Y-114213448D01*
X219373377Y-114213448D02*
X219278138Y-114261067D01*
X219278138Y-114261067D02*
X218897186Y-114261067D01*
X218897186Y-114261067D02*
X218801948Y-114213448D01*
X218801948Y-114213448D02*
X218754329Y-114118210D01*
X218754329Y-114118210D02*
X218754329Y-113927734D01*
X218754329Y-113927734D02*
X218801948Y-113832496D01*
X218801948Y-113832496D02*
X218897186Y-113784877D01*
X218897186Y-113784877D02*
X218992424Y-113784877D01*
X218992424Y-113784877D02*
X219087662Y-114261067D01*
X218420996Y-113451543D02*
X218420996Y-112832496D01*
X218420996Y-112832496D02*
X218801948Y-113165829D01*
X218801948Y-113165829D02*
X218801948Y-113022972D01*
X218801948Y-113022972D02*
X218849567Y-112927734D01*
X218849567Y-112927734D02*
X218897186Y-112880115D01*
X218897186Y-112880115D02*
X218992424Y-112832496D01*
X218992424Y-112832496D02*
X219230519Y-112832496D01*
X219230519Y-112832496D02*
X219325757Y-112880115D01*
X219325757Y-112880115D02*
X219373377Y-112927734D01*
X219373377Y-112927734D02*
X219420996Y-113022972D01*
X219420996Y-113022972D02*
X219420996Y-113308686D01*
X219420996Y-113308686D02*
X219373377Y-113403924D01*
X219373377Y-113403924D02*
X219325757Y-113451543D01*
X218849567Y-112261067D02*
X218801948Y-112356305D01*
X218801948Y-112356305D02*
X218754329Y-112403924D01*
X218754329Y-112403924D02*
X218659091Y-112451543D01*
X218659091Y-112451543D02*
X218611472Y-112451543D01*
X218611472Y-112451543D02*
X218516234Y-112403924D01*
X218516234Y-112403924D02*
X218468615Y-112356305D01*
X218468615Y-112356305D02*
X218420996Y-112261067D01*
X218420996Y-112261067D02*
X218420996Y-112070591D01*
X218420996Y-112070591D02*
X218468615Y-111975353D01*
X218468615Y-111975353D02*
X218516234Y-111927734D01*
X218516234Y-111927734D02*
X218611472Y-111880115D01*
X218611472Y-111880115D02*
X218659091Y-111880115D01*
X218659091Y-111880115D02*
X218754329Y-111927734D01*
X218754329Y-111927734D02*
X218801948Y-111975353D01*
X218801948Y-111975353D02*
X218849567Y-112070591D01*
X218849567Y-112070591D02*
X218849567Y-112261067D01*
X218849567Y-112261067D02*
X218897186Y-112356305D01*
X218897186Y-112356305D02*
X218944805Y-112403924D01*
X218944805Y-112403924D02*
X219040043Y-112451543D01*
X219040043Y-112451543D02*
X219230519Y-112451543D01*
X219230519Y-112451543D02*
X219325757Y-112403924D01*
X219325757Y-112403924D02*
X219373377Y-112356305D01*
X219373377Y-112356305D02*
X219420996Y-112261067D01*
X219420996Y-112261067D02*
X219420996Y-112070591D01*
X219420996Y-112070591D02*
X219373377Y-111975353D01*
X219373377Y-111975353D02*
X219325757Y-111927734D01*
X219325757Y-111927734D02*
X219230519Y-111880115D01*
X219230519Y-111880115D02*
X219040043Y-111880115D01*
X219040043Y-111880115D02*
X218944805Y-111927734D01*
X218944805Y-111927734D02*
X218897186Y-111975353D01*
X218897186Y-111975353D02*
X218849567Y-112070591D01*
X218516234Y-111499162D02*
X218468615Y-111451543D01*
X218468615Y-111451543D02*
X218420996Y-111356305D01*
X218420996Y-111356305D02*
X218420996Y-111118210D01*
X218420996Y-111118210D02*
X218468615Y-111022972D01*
X218468615Y-111022972D02*
X218516234Y-110975353D01*
X218516234Y-110975353D02*
X218611472Y-110927734D01*
X218611472Y-110927734D02*
X218706710Y-110927734D01*
X218706710Y-110927734D02*
X218849567Y-110975353D01*
X218849567Y-110975353D02*
X219420996Y-111546781D01*
X219420996Y-111546781D02*
X219420996Y-110927734D01*
G36*
X222688377Y-112716163D02*
G01*
X222674377Y-112716163D01*
X222674377Y-112702163D01*
X222688377Y-112702163D01*
X222688377Y-112716163D01*
G37*
G36*
X222632377Y-112730163D02*
G01*
X222618377Y-112730163D01*
X222618377Y-112702163D01*
X222632377Y-112702163D01*
X222632377Y-112730163D01*
G37*
G36*
X222618377Y-112730163D02*
G01*
X222604377Y-112730163D01*
X222604377Y-112702163D01*
X222618377Y-112702163D01*
X222618377Y-112730163D01*
G37*
G36*
X222604377Y-112730163D02*
G01*
X222590377Y-112730163D01*
X222590377Y-112702163D01*
X222604377Y-112702163D01*
X222604377Y-112730163D01*
G37*
G36*
X222590377Y-112730163D02*
G01*
X222576377Y-112730163D01*
X222576377Y-112702163D01*
X222590377Y-112702163D01*
X222590377Y-112730163D01*
G37*
G36*
X222576377Y-112730163D02*
G01*
X222562377Y-112730163D01*
X222562377Y-112702163D01*
X222576377Y-112702163D01*
X222576377Y-112730163D01*
G37*
G36*
X222562377Y-112730163D02*
G01*
X222548377Y-112730163D01*
X222548377Y-112702163D01*
X222562377Y-112702163D01*
X222562377Y-112730163D01*
G37*
G36*
X222548377Y-112730163D02*
G01*
X222534377Y-112730163D01*
X222534377Y-112702163D01*
X222548377Y-112702163D01*
X222548377Y-112730163D01*
G37*
G36*
X222534377Y-112730163D02*
G01*
X222520377Y-112730163D01*
X222520377Y-112702163D01*
X222534377Y-112702163D01*
X222534377Y-112730163D01*
G37*
G36*
X222674377Y-112758163D02*
G01*
X222660377Y-112758163D01*
X222660377Y-112702163D01*
X222674377Y-112702163D01*
X222674377Y-112758163D01*
G37*
G36*
X220984377Y-112811163D02*
G01*
X220970377Y-112811163D01*
X220970377Y-112769163D01*
X220984377Y-112769163D01*
X220984377Y-112811163D01*
G37*
G36*
X220970377Y-112811163D02*
G01*
X220956377Y-112811163D01*
X220956377Y-112769163D01*
X220970377Y-112769163D01*
X220970377Y-112811163D01*
G37*
G36*
X220956377Y-112797163D02*
G01*
X220942377Y-112797163D01*
X220942377Y-112769163D01*
X220956377Y-112769163D01*
X220956377Y-112797163D01*
G37*
G36*
X220942377Y-112797163D02*
G01*
X220928377Y-112797163D01*
X220928377Y-112769163D01*
X220942377Y-112769163D01*
X220942377Y-112797163D01*
G37*
G36*
X220928377Y-112797163D02*
G01*
X220914377Y-112797163D01*
X220914377Y-112769163D01*
X220928377Y-112769163D01*
X220928377Y-112797163D01*
G37*
G36*
X220914377Y-112811163D02*
G01*
X220900377Y-112811163D01*
X220900377Y-112769163D01*
X220914377Y-112769163D01*
X220914377Y-112811163D01*
G37*
G36*
X220900377Y-112993163D02*
G01*
X220886377Y-112993163D01*
X220886377Y-112769163D01*
X220900377Y-112769163D01*
X220900377Y-112993163D01*
G37*
G36*
X222660377Y-112772163D02*
G01*
X222646377Y-112772163D01*
X222646377Y-112702163D01*
X222660377Y-112702163D01*
X222660377Y-112772163D01*
G37*
G36*
X220998377Y-112811163D02*
G01*
X220984377Y-112811163D01*
X220984377Y-112783163D01*
X220998377Y-112783163D01*
X220998377Y-112811163D01*
G37*
G36*
X220886377Y-112881163D02*
G01*
X220872377Y-112881163D01*
X220872377Y-112783163D01*
X220886377Y-112783163D01*
X220886377Y-112881163D01*
G37*
G36*
X222646377Y-112786163D02*
G01*
X222632377Y-112786163D01*
X222632377Y-112702163D01*
X222646377Y-112702163D01*
X222646377Y-112786163D01*
G37*
G36*
X220872377Y-112867163D02*
G01*
X220858377Y-112867163D01*
X220858377Y-112797163D01*
X220872377Y-112797163D01*
X220872377Y-112867163D01*
G37*
G36*
X222632377Y-112800163D02*
G01*
X222618377Y-112800163D01*
X222618377Y-112758163D01*
X222632377Y-112758163D01*
X222632377Y-112800163D01*
G37*
G36*
X222618377Y-112814163D02*
G01*
X222604377Y-112814163D01*
X222604377Y-112772163D01*
X222618377Y-112772163D01*
X222618377Y-112814163D01*
G37*
G36*
X222604377Y-112814163D02*
G01*
X222590377Y-112814163D01*
X222590377Y-112772163D01*
X222604377Y-112772163D01*
X222604377Y-112814163D01*
G37*
G36*
X222590377Y-112842163D02*
G01*
X222576377Y-112842163D01*
X222576377Y-112786163D01*
X222590377Y-112786163D01*
X222590377Y-112842163D01*
G37*
G36*
X220914377Y-112993163D02*
G01*
X220900377Y-112993163D01*
X220900377Y-112853163D01*
X220914377Y-112853163D01*
X220914377Y-112993163D01*
G37*
G36*
X220984377Y-112895163D02*
G01*
X220970377Y-112895163D01*
X220970377Y-112867163D01*
X220984377Y-112867163D01*
X220984377Y-112895163D01*
G37*
G36*
X220970377Y-112895163D02*
G01*
X220956377Y-112895163D01*
X220956377Y-112867163D01*
X220970377Y-112867163D01*
X220970377Y-112895163D01*
G37*
G36*
X220956377Y-112895163D02*
G01*
X220942377Y-112895163D01*
X220942377Y-112867163D01*
X220956377Y-112867163D01*
X220956377Y-112895163D01*
G37*
G36*
X220942377Y-112895163D02*
G01*
X220928377Y-112895163D01*
X220928377Y-112867163D01*
X220942377Y-112867163D01*
X220942377Y-112895163D01*
G37*
G36*
X220928377Y-112909163D02*
G01*
X220914377Y-112909163D01*
X220914377Y-112867163D01*
X220928377Y-112867163D01*
X220928377Y-112909163D01*
G37*
G36*
X220886377Y-112979163D02*
G01*
X220872377Y-112979163D01*
X220872377Y-112895163D01*
X220886377Y-112895163D01*
X220886377Y-112979163D01*
G37*
G36*
X222674377Y-112898163D02*
G01*
X222660377Y-112898163D01*
X222660377Y-112870163D01*
X222674377Y-112870163D01*
X222674377Y-112898163D01*
G37*
G36*
X220872377Y-112965163D02*
G01*
X220858377Y-112965163D01*
X220858377Y-112909163D01*
X220872377Y-112909163D01*
X220872377Y-112965163D01*
G37*
G36*
X222660377Y-112912163D02*
G01*
X222646377Y-112912163D01*
X222646377Y-112870163D01*
X222660377Y-112870163D01*
X222660377Y-112912163D01*
G37*
G36*
X222562377Y-112912163D02*
G01*
X222548377Y-112912163D01*
X222548377Y-112800163D01*
X222562377Y-112800163D01*
X222562377Y-112912163D01*
G37*
G36*
X222548377Y-112912163D02*
G01*
X222534377Y-112912163D01*
X222534377Y-112828163D01*
X222548377Y-112828163D01*
X222548377Y-112912163D01*
G37*
G36*
X222646377Y-112926163D02*
G01*
X222632377Y-112926163D01*
X222632377Y-112884163D01*
X222646377Y-112884163D01*
X222646377Y-112926163D01*
G37*
G36*
X222632377Y-112926163D02*
G01*
X222618377Y-112926163D01*
X222618377Y-112884163D01*
X222632377Y-112884163D01*
X222632377Y-112926163D01*
G37*
G36*
X222618377Y-112926163D02*
G01*
X222604377Y-112926163D01*
X222604377Y-112898163D01*
X222618377Y-112898163D01*
X222618377Y-112926163D01*
G37*
G36*
X222604377Y-112926163D02*
G01*
X222590377Y-112926163D01*
X222590377Y-112898163D01*
X222604377Y-112898163D01*
X222604377Y-112926163D01*
G37*
G36*
X222590377Y-112926163D02*
G01*
X222576377Y-112926163D01*
X222576377Y-112884163D01*
X222590377Y-112884163D01*
X222590377Y-112926163D01*
G37*
G36*
X222576377Y-112926163D02*
G01*
X222562377Y-112926163D01*
X222562377Y-112800163D01*
X222576377Y-112800163D01*
X222576377Y-112926163D01*
G37*
G36*
X220998377Y-112979163D02*
G01*
X220984377Y-112979163D01*
X220984377Y-112951163D01*
X220998377Y-112951163D01*
X220998377Y-112979163D01*
G37*
G36*
X220984377Y-112979163D02*
G01*
X220970377Y-112979163D01*
X220970377Y-112951163D01*
X220984377Y-112951163D01*
X220984377Y-112979163D01*
G37*
G36*
X220970377Y-112993163D02*
G01*
X220956377Y-112993163D01*
X220956377Y-112951163D01*
X220970377Y-112951163D01*
X220970377Y-112993163D01*
G37*
G36*
X220956377Y-112993163D02*
G01*
X220942377Y-112993163D01*
X220942377Y-112965163D01*
X220956377Y-112965163D01*
X220956377Y-112993163D01*
G37*
G36*
X220942377Y-112993163D02*
G01*
X220928377Y-112993163D01*
X220928377Y-112965163D01*
X220942377Y-112965163D01*
X220942377Y-112993163D01*
G37*
G36*
X220928377Y-112993163D02*
G01*
X220914377Y-112993163D01*
X220914377Y-112965163D01*
X220928377Y-112965163D01*
X220928377Y-112993163D01*
G37*
G36*
X221058377Y-113199163D02*
G01*
X220758377Y-113262163D01*
X220758377Y-113136163D01*
X221058377Y-113199163D01*
G37*
G36*
X220932377Y-113651163D02*
G01*
X220918377Y-113651163D01*
X220918377Y-113427163D01*
X220932377Y-113427163D01*
X220932377Y-113651163D01*
G37*
G36*
X220918377Y-113651163D02*
G01*
X220904377Y-113651163D01*
X220904377Y-113427163D01*
X220918377Y-113427163D01*
X220918377Y-113651163D01*
G37*
G36*
X220904377Y-113651163D02*
G01*
X220890377Y-113651163D01*
X220890377Y-113427163D01*
X220904377Y-113427163D01*
X220904377Y-113651163D01*
G37*
G36*
X221044377Y-113497163D02*
G01*
X221030377Y-113497163D01*
X221030377Y-113469163D01*
X221044377Y-113469163D01*
X221044377Y-113497163D01*
G37*
G36*
X221030377Y-113511163D02*
G01*
X221016377Y-113511163D01*
X221016377Y-113469163D01*
X221030377Y-113469163D01*
X221030377Y-113511163D01*
G37*
G36*
X221016377Y-113539163D02*
G01*
X221002377Y-113539163D01*
X221002377Y-113469163D01*
X221016377Y-113469163D01*
X221016377Y-113539163D01*
G37*
G36*
X221002377Y-113553163D02*
G01*
X220988377Y-113553163D01*
X220988377Y-113469163D01*
X221002377Y-113469163D01*
X221002377Y-113553163D01*
G37*
G36*
X220988377Y-113567163D02*
G01*
X220974377Y-113567163D01*
X220974377Y-113469163D01*
X220988377Y-113469163D01*
X220988377Y-113567163D01*
G37*
G36*
X220974377Y-113497163D02*
G01*
X220960377Y-113497163D01*
X220960377Y-113469163D01*
X220974377Y-113469163D01*
X220974377Y-113497163D01*
G37*
G36*
X220960377Y-113497163D02*
G01*
X220946377Y-113497163D01*
X220946377Y-113469163D01*
X220960377Y-113469163D01*
X220960377Y-113497163D01*
G37*
G36*
X220946377Y-113497163D02*
G01*
X220932377Y-113497163D01*
X220932377Y-113469163D01*
X220946377Y-113469163D01*
X220946377Y-113497163D01*
G37*
G36*
X220890377Y-113497163D02*
G01*
X220876377Y-113497163D01*
X220876377Y-113469163D01*
X220890377Y-113469163D01*
X220890377Y-113497163D01*
G37*
G36*
X220876377Y-113497163D02*
G01*
X220862377Y-113497163D01*
X220862377Y-113469163D01*
X220876377Y-113469163D01*
X220876377Y-113497163D01*
G37*
G36*
X220862377Y-113497163D02*
G01*
X220848377Y-113497163D01*
X220848377Y-113469163D01*
X220862377Y-113469163D01*
X220862377Y-113497163D01*
G37*
G36*
X223098377Y-113509163D02*
G01*
X223048377Y-113509163D01*
X223048377Y-113499163D01*
X223098377Y-113499163D01*
X223098377Y-113509163D01*
G37*
G36*
X220974377Y-113595163D02*
G01*
X220960377Y-113595163D01*
X220960377Y-113525163D01*
X220974377Y-113525163D01*
X220974377Y-113595163D01*
G37*
G36*
X220960377Y-113623163D02*
G01*
X220946377Y-113623163D01*
X220946377Y-113539163D01*
X220960377Y-113539163D01*
X220960377Y-113623163D01*
G37*
G36*
X222998377Y-113559163D02*
G01*
X222978377Y-113559163D01*
X222978377Y-113459163D01*
X222998377Y-113459163D01*
X222998377Y-113559163D01*
G37*
G36*
X222838377Y-113559163D02*
G01*
X222818377Y-113559163D01*
X222818377Y-113459163D01*
X222838377Y-113459163D01*
X222838377Y-113559163D01*
G37*
G36*
X220946377Y-113651163D02*
G01*
X220932377Y-113651163D01*
X220932377Y-113567163D01*
X220946377Y-113567163D01*
X220946377Y-113651163D01*
G37*
G36*
X222674377Y-113584163D02*
G01*
X222660377Y-113584163D01*
X222660377Y-113556163D01*
X222674377Y-113556163D01*
X222674377Y-113584163D01*
G37*
G36*
X222660377Y-113584163D02*
G01*
X222646377Y-113584163D01*
X222646377Y-113556163D01*
X222660377Y-113556163D01*
X222660377Y-113584163D01*
G37*
G36*
X222646377Y-113598163D02*
G01*
X222632377Y-113598163D01*
X222632377Y-113556163D01*
X222646377Y-113556163D01*
X222646377Y-113598163D01*
G37*
G36*
X220588377Y-113599163D02*
G01*
X220568377Y-113599163D01*
X220568377Y-113499163D01*
X220588377Y-113499163D01*
X220588377Y-113599163D01*
G37*
G36*
X220478377Y-113599163D02*
G01*
X220458377Y-113599163D01*
X220458377Y-113499163D01*
X220478377Y-113499163D01*
X220478377Y-113599163D01*
G37*
G36*
X222632377Y-113612163D02*
G01*
X222618377Y-113612163D01*
X222618377Y-113570163D01*
X222632377Y-113570163D01*
X222632377Y-113612163D01*
G37*
G36*
X222618377Y-113612163D02*
G01*
X222604377Y-113612163D01*
X222604377Y-113402163D01*
X222618377Y-113402163D01*
X222618377Y-113612163D01*
G37*
G36*
X222604377Y-113626163D02*
G01*
X222590377Y-113626163D01*
X222590377Y-113402163D01*
X222604377Y-113402163D01*
X222604377Y-113626163D01*
G37*
G36*
X222590377Y-113626163D02*
G01*
X222576377Y-113626163D01*
X222576377Y-113402163D01*
X222590377Y-113402163D01*
X222590377Y-113626163D01*
G37*
G36*
X222576377Y-113626163D02*
G01*
X222562377Y-113626163D01*
X222562377Y-113402163D01*
X222576377Y-113402163D01*
X222576377Y-113626163D01*
G37*
G36*
X220758377Y-113609163D02*
G01*
X220728377Y-113609163D01*
X220688377Y-113529163D01*
X220628377Y-113609163D01*
X220598377Y-113609163D01*
X220668377Y-113499163D01*
X220708377Y-113499163D01*
X220758377Y-113609163D01*
G37*
G36*
X222978377Y-113519163D02*
G01*
X222978377Y-113559163D01*
X222918377Y-113489163D01*
X222918377Y-113559163D01*
X222898377Y-113559163D01*
X222898377Y-113459163D01*
X222918377Y-113459163D01*
X222978377Y-113519163D01*
G37*
G36*
X222818377Y-113469163D02*
G01*
X222818377Y-113479163D01*
X222768377Y-113479163D01*
X222768377Y-113539163D01*
X222818377Y-113539163D01*
X222818377Y-113559163D01*
X222768377Y-113559163D01*
X222748377Y-113539163D01*
X222748377Y-113479163D01*
X222768377Y-113459163D01*
X222818377Y-113459163D01*
X222818377Y-113469163D01*
G37*
G36*
X220568377Y-113509163D02*
G01*
X220568377Y-113519163D01*
X220518377Y-113519163D01*
X220518377Y-113579163D01*
X220568377Y-113579163D01*
X220568377Y-113599163D01*
X220518377Y-113599163D01*
X220498377Y-113579163D01*
X220498377Y-113519163D01*
X220518377Y-113499163D01*
X220568377Y-113499163D01*
X220568377Y-113509163D01*
G37*
G36*
X220458377Y-113509163D02*
G01*
X220458377Y-113519163D01*
X220408377Y-113519163D01*
X220408377Y-113579163D01*
X220458377Y-113579163D01*
X220458377Y-113599163D01*
X220408377Y-113599163D01*
X220388377Y-113579163D01*
X220388377Y-113519163D01*
X220408377Y-113499163D01*
X220458377Y-113499163D01*
X220458377Y-113509163D01*
G37*
G36*
X223158377Y-113469163D02*
G01*
X223158377Y-113549163D01*
X223148377Y-113559163D01*
X223068377Y-113559163D01*
X223058377Y-113549163D01*
X223058377Y-113529163D01*
X223078377Y-113529163D01*
X223078377Y-113539163D01*
X223138377Y-113539163D01*
X223138377Y-113479163D01*
X223078377Y-113479163D01*
X223078377Y-113499163D01*
X223058377Y-113499163D01*
X223058377Y-113469163D01*
X223068377Y-113459163D01*
X223148377Y-113459163D01*
X223158377Y-113469163D01*
G37*
%TD*%
M02*
